<?xml version="1.0" encoding="utf-8"?>
<!-- Generator: Adobe Illustrator 26.5.3, SVG Export Plug-In . SVG Version: 6.00 Build 0)  -->
<svg version="1.1" id="圖層_1" xmlns="http://www.w3.org/2000/svg" xmlns:xlink="http://www.w3.org/1999/xlink" x="0px" y="0px"
	 viewBox="0 0 202.2 300" style="enable-background:new 0 0 202.2 300;" xml:space="preserve">
<style type="text/css">
	.st0{fill:#9E9E9F;}
	.st1{fill:#314675;}
	.st2{fill:#24345D;}
	.st3{opacity:0.4;fill:#769BB7;}
	.st4{fill:#DBDAD5;}
	.st5{fill:#FFFFFF;}
	.st6{font-family:'ArialMT';}
	.st7{font-size:14.5036px;}
	.st8{fill:#4DBCBC;}
</style>
<g>
	<path class="st0" d="M112,65.4c-3.9,0-7.5,1.6-10.4,5.1h0c-1.3,1.5-2.5,3.4-3.6,5.7c-2.9,6.3-4.7,15.6-4.7,28.1
		c0,8,1.1,18.5,2.8,29.3c4,25.8,11.5,53.4,15.9,53.4c4.9,0,12.3-28.2,16.1-54.2c1.6-10.5,2.5-20.7,2.5-28.6
		C130.7,77.1,122.3,65.4,112,65.4z"/>
	<path class="st0" d="M194.1,101.7c0,18.8-6.5,37.4-22.5,45.5c-15,9-41.1,8.1-61,8.1c-19.9,0-46,0.9-61-8.1
		C33.7,139,28.8,121,30.8,102.5C28.8,84,33.7,66,49.6,57.8c15-9,41.1-8.1,61-8.1c19.9,0,46-0.9,61,8.1
		C187.5,66,194.5,82.3,194.1,101.7z"/>
	<g>
		<path class="st1" d="M151,207.4c3.8-10.1,6.1-19.8,6.1-27.3c0-2.6-0.3-4.9-0.8-6.9c-3.9-16.2-22-17.6-40-17.6
			c-3,10.4-6.1,17.6-8.5,17.6c-2.2,0-5.3-7.1-8.2-17.6c-18.2,0.1-41,2-41,25.8c0,10.3,3,20.9,8.5,30.1c3.2,5.5,7.3,13.5,12.1,21.5
			C109.3,251.1,138.2,225.3,151,207.4z"/>
		<path class="st2" d="M109.1,260.2c13.7,0,32.4-27.5,41.9-52.8c-12.8,18-41.8,43.7-71.9,25.6C87.3,246.7,97.6,260.2,109.1,260.2z"
			/>
	</g>
	<path class="st3" d="M159.1,287.9c0,6.7-22.9,12.1-51.2,12.1c-28.3,0-51.2-5.4-51.2-12.1c0-6.7,22.9-12.1,51.2-12.1
		C136.2,275.9,159.1,281.3,159.1,287.9z"/>
	<g>
		<path class="st4" d="M55,177.5c0.9,6.4-6.4,8.1-17.3,7.3c-13-1-35.5-12.9-37.5-28.4c0,0,0,0,0,0c-0.2-1.4-0.2-2.8,0-4.3
			c2.1-17.5,47.7,12,51.7,18.2C53.7,173.1,54.7,175.5,55,177.5z"/>
		<path class="st0" d="M55,177.5c0.9,6.4-6.4,8.1-17.3,7.3c-13-1-35.5-12.9-37.5-28.4C9.6,166.8,28.5,182.1,55,177.5z"/>
		<path class="st5" d="M17.1,152.3c3.7,1.9,9.5,5.6,9,6.9c-0.6,1.3-7.8,0.3-13.7-3.1c-4-2.3-8.2-6-7.5-7.2
			C5.5,147.7,12.2,149.9,17.1,152.3z"/>
	</g>
	<g>
		<path class="st4" d="M200.3,193.8c-0.3,12.2-3.1,19.6-11.2,15.7c-1.4-0.7-2.9-1.7-4.6-3c-5.7-4.6-30.7-52.8-13-53.2
			c4.6-0.1,8.7,1.6,12.3,4.4C194.2,165.9,200.6,183.3,200.3,193.8z"/>
		<path class="st0" d="M200.3,193.8c-0.3,12.2-3.1,19.6-11.2,15.7c2.6-6.4,4.9-21.3-5.3-51.8C194.2,165.9,200.6,183.3,200.3,193.8z"
			/>
		<path class="st5" d="M176.5,176.4c3.3,7.6,8.1,20.7,6.7,21.3c-1.3,0.6-7.8-8.9-11.3-19.9c-1.9-6.1-3.2-13.3-2.2-13.7
			C171.1,163.7,175.5,174,176.5,176.4z"/>
	</g>
	<g>
		<text transform="matrix(1 0 0 1 66.0815 205.3199)" class="st5 st6 st7">SmartTalking</text>
	</g>
	<g>
		<path class="st1" d="M30.1,121c-2.6-1-5-2.4-7-4.2c-4.6-4.1-7.3-10.1-7.1-16.3c0.2-6.3,3.3-12.2,8.3-16.1c1.4-1.1,3-2,4.6-2.8
			C42.7,101.7,30.1,121,30.1,121z"/>
		<path class="st2" d="M30.1,121c-2.6-1-5-2.4-7-4.2c0.5-4.9,0.8-10,1-15.4c0.2-5.9,0.3-11.6,0.2-17c1.4-1.1,3-2,4.6-2.8
			C29.3,94.7,29.7,107.9,30.1,121z"/>
	</g>
	<path class="st4" d="M107.9,61.3c-3.9,0-7.5,1.6-10.4,5.1h0c-1.3,1.5-2.5,3.4-3.5,5.7h0c-2.9,6.3-4.7,15.6-4.7,28.1
		c0,8,1.1,18.5,2.8,29.3c4,25.8,11.5,53.4,15.9,53.4c4.9,0,12.3-28.2,16.1-54.2c1.6-10.5,2.5-20.7,2.5-28.6
		C126.6,73,118.2,61.3,107.9,61.3z M108.6,141.2c-1,0-1.9-2.2-1.9-4.9c0-2.7,0.8-4.9,1.9-4.9c1,0,1.9,2.2,1.9,4.9
		C110.4,139,109.6,141.2,108.6,141.2z M121.2,121c-3,3.2-8.7,3.2-13.2,3.2c-4.5,0-10.2,0-13.2-3.2c-3-3.2-4.2-23-2.9-29.7
		c1.4-6.6,9.1-11.1,16.1-11.1c7,0,14.7,4.5,16.1,11.1C125.4,97.9,124.2,117.8,121.2,121z"/>
	<path class="st4" d="M186.6,98.4c0.4,19.4-2.9,36.5-18.8,44.7c-15,9-41.1,8.1-61,8.1c-19.9,0-46,0.9-61-8.1
		C29.8,135,26.9,117.5,27,98.4c0.1-20.5,2.9-36.5,18.8-44.7c15-9,41.1-8.1,61-8.1c19.9,0,46-0.9,61,8.1
		C183.7,61.9,186.2,78,186.6,98.4z"/>
	<path class="st1" d="M168,99c0,22.9-14.1,41.5-31.5,41.5H79.4c-17.4,0-31.5-18.6-31.5-41.5l0,0c0-22.9,14.1-41.5,31.5-41.5h57.1
		C153.9,57.6,168,76.1,168,99L168,99z"/>
	<path class="st8" d="M119.2,113.4c0,6.3-5.1,11.5-11.5,11.5c-6.3,0-11.5-5.1-11.5-11.5H119.2z"/>
	<g>
		<g>
			<path class="st1" d="M89.1,30c-0.2,0-0.3,0-0.5-0.1c-5.6-3-9.1-8.8-9.1-15.1c0-6,3.1-11.5,8.2-14.6c0.5-0.3,1.1-0.1,1.4,0.3
				c0.3,0.5,0.1,1.1-0.3,1.4c-4.6,2.8-7.3,7.6-7.3,12.9c0,5.6,3.1,10.7,8,13.3c0.5,0.3,0.7,0.9,0.4,1.4C89.8,29.8,89.4,30,89.1,30z"
				/>
			<path class="st1" d="M90.6,24.1c-0.2,0-0.5-0.1-0.7-0.3c-2.7-2.4-4.2-5.6-4.2-8.8c0-3.3,1.5-6.4,4.3-8.9c0.4-0.4,1.1-0.3,1.4,0.1
				c0.4,0.4,0.3,1.1-0.1,1.4c-2.3,2.1-3.6,4.7-3.6,7.4c0,2.7,1.3,5.3,3.6,7.3c0.4,0.4,0.4,1,0.1,1.4C91.2,24,90.9,24.1,90.6,24.1z"
				/>
		</g>
		<g>
			<path class="st1" d="M125.1,30c0.2,0,0.3,0,0.5-0.1c5.6-3,9.1-8.8,9.1-15.1c0-6-3.1-11.5-8.2-14.6c-0.5-0.3-1.1-0.1-1.4,0.3
				c-0.3,0.5-0.1,1.1,0.3,1.4c4.6,2.8,7.3,7.6,7.3,12.9c0,5.6-3.1,10.7-8,13.3c-0.5,0.3-0.7,0.9-0.4,1.4
				C124.4,29.8,124.8,30,125.1,30z"/>
			<path class="st1" d="M123.6,24.1c0.2,0,0.5-0.1,0.7-0.3c2.7-2.4,4.2-5.6,4.2-8.8c0-3.3-1.5-6.4-4.3-8.9c-0.4-0.4-1.1-0.3-1.4,0.1
				c-0.4,0.4-0.3,1.1,0.1,1.4c2.3,2.1,3.6,4.7,3.6,7.4c0,2.7-1.3,5.3-3.6,7.3c-0.4,0.4-0.4,1-0.1,1.4C123,24,123.3,24.1,123.6,24.1z
				"/>
		</g>
		<path class="st1" d="M111.9,45.2c0,2.4-1.9,4.3-4.3,4.3l0,0c-2.4,0-4.3-1.9-4.3-4.3l2.7-22.9c0-2.4-0.8-4.3,1.6-4.3l0,0
			c2.4,0,1.6,1.9,1.6,4.3L111.9,45.2z"/>
		<path class="st1" d="M117.1,15.6c0,4.9-3.9,8.8-8.8,8.8H107c-4.9,0-8.8-3.9-8.8-8.8v-1.3c0-4.9,3.9-8.8,8.8-8.8h1.3
			c4.9,0,8.8,3.9,8.8,8.8V15.6z"/>
	</g>
	<path class="st8" d="M90.7,94.3c0,2.5-2,4.5-4.5,4.5l0,0c-2.5,0-4.5-2-4.5-4.5V82.5c0-2.5,2-4.5,4.5-4.5l0,0c2.5,0,4.5,2,4.5,4.5
		V94.3z"/>
	<path class="st8" d="M131.4,94.3c0,2.5-2,4.5-4.5,4.5l0,0c-2.5,0-4.5-2-4.5-4.5V82.5c0-2.5,2-4.5,4.5-4.5l0,0c2.5,0,4.5,2,4.5,4.5
		V94.3z"/>
	<g>
		<path class="st1" d="M195.1,88.2c-0.5,4.9-0.8,10-1,15.4c-0.2,5.9-0.3,11.6-0.2,17c5-3.9,8.1-9.7,8.3-16.1
			C202.4,98.3,199.7,92.4,195.1,88.2z"/>
		<path class="st2" d="M195.1,88.2c-1.1-1-1.5-1.4-2.7-2.1c-1.1-0.7-7.1,16.9-0.7,36c1.7-0.7,0.9-0.5,2.3-1.5
			c-0.1-5.4-0.1-11,0.2-17C194.3,98.3,194.7,93.1,195.1,88.2z"/>
	</g>
</g>
</svg>
