<?xml version="1.0" encoding="utf-8"?>
<!-- Generator: Adobe Illustrator 26.5.2, SVG Export Plug-In . SVG Version: 6.00 Build 0)  -->
<svg version="1.1" id="圖層_1" xmlns="http://www.w3.org/2000/svg" xmlns:xlink="http://www.w3.org/1999/xlink" x="0px" y="0px"
	 viewBox="0 0 12 12" style="enable-background:new 0 0 12 12;" xml:space="preserve">
<style type="text/css">
	.st0{fill:#A24340;}
	.st1{fill:#A24340;stroke:#A24340;stroke-width:0.5;stroke-linecap:round;stroke-linejoin:round;stroke-miterlimit:10;}
	.st2{fill:#A24340;stroke:#A24340;stroke-width:0.75;stroke-linecap:round;stroke-linejoin:round;stroke-miterlimit:10;}
	.st3{fill:#2F9F45;stroke:#2F9F45;stroke-linecap:round;stroke-linejoin:round;stroke-miterlimit:10;}
</style>
<g>
	<path class="st0" d="M6,12c-3.3,0-6-2.7-6-6s2.7-6,6-6s6,2.7,6,6S9.3,12,6,12z M6,0.9C3.2,0.9,0.9,3.2,0.9,6c0,2.8,2.3,5.1,5.1,5.1
		c2.8,0,5.1-2.3,5.1-5.1C11.1,3.2,8.8,0.9,6,0.9z"/>
	<g>
		<g>
			<path class="st1" d="M5.3,9.2c0-0.4,0.3-0.7,0.7-0.7c0.4,0,0.7,0.3,0.7,0.7c0,0.4-0.3,0.7-0.7,0.7C5.6,9.8,5.3,9.6,5.3,9.2z"/>
		</g>
		<polygon class="st2" points="5.6,3.2 5.5,2.2 6.5,2.2 6.4,3.2 6.3,7.4 5.7,7.4 		"/>
	</g>
</g>
<g>
	<path class="st3" d="M-11.1,1.6l-7.3,8.8l-2.7-4.2h1l1.7,2.8l6.3-7.4H-11.1z"/>
</g>
</svg>
