<?xml version="1.0" encoding="UTF-8"?>
<svg xmlns="http://www.w3.org/2000/svg" version="1.1" viewBox="0 0 448 512">
  <defs>
    <style>
      .cls-1, .cls-2, .cls-3 {
        fill: #314675;
      }

      .cls-2 {
        stroke-width: 5.8px;
      }

      .cls-2, .cls-3 {
        stroke: #fff;
        stroke-miterlimit: 10;
      }

      .cls-3 {
        stroke-width: 4.7px;
      }
    </style>
  </defs>
  <!-- Generator: Adobe Illustrator 28.7.3, SVG Export Plug-In . SVG Version: 1.2.0 Build 164)  -->
  <g>
    <g id="_圖層_1" data-name="圖層_1">
      <rect class="cls-1" width="83" height="512.1"/>
      <rect class="cls-1" x="365" width="83" height="512.1"/>
      <rect class="cls-1" x="211.8" y="-211.8" width="24.5" height="448" transform="translate(236.2 -211.8) rotate(90)"/>
      <g>
        <path class="cls-3" d="M128.3,338.3h-55.2c-16.5,0-29.8,13.3-29.8,29.8s13.3,29.8,29.8,29.8h64.9c17.7,0,33.8-10.4,40.9-26.6l10.7-24.2-8.9-5.6c-16.3-10.2-28.4-25-35.3-41.9l-17.2,38.5Z"/>
        <circle class="cls-2" cx="266.6" cy="85.1" r="55.4"/>
        <path class="cls-2" d="M134,200.2c9.2-9.2,21.8-14.5,35-14.5s3.5,0,5.2.3l-29.1,87.4c-8.7,26.1,1.6,54.8,25,69.5l80.4,50.3-23.7,75.8c-4.6,15.9,4.7,32.4,20.5,36.9,15.9,4.6,32.4-4.7,36.9-20.5l26.8-86.6c5.5-19.2-2.4-39.7-19.3-50.3l-53-33.1,28.8-76.9,4.8,11.5c14,33.4,46.5,55.1,82.7,55.1h19.9c16.5,0,29.8-13.3,29.8-29.8s-13.3-29.8-29.8-29.8h-19.9c-12,0-22.9-7.3-27.5-18.4l-5.9-14c-13.6-32.7-41.1-57.7-75.1-68.2l-45.4-14c-10.4-3.2-21.2-4.8-32.1-4.8-28.9,0-56.7,11.5-77.1,32l-21.6,21.5c-11.7,11.7-11.7,30.6,0,42.2,11.7,11.7,30.6,11.7,42.2,0l21.5-21.5h0Z"/>
      </g>
    </g>
  </g>
</svg>