<?xml version="1.0" encoding="UTF-8"?>
<svg xmlns="http://www.w3.org/2000/svg" version="1.1" viewBox="0 0 448 512">
  <defs>
    <style>
      .cls-1 {
        fill: #314675;
      }
    </style>
  </defs>
  <!-- Generator: Adobe Illustrator 28.7.3, SVG Export Plug-In . SVG Version: 1.2.0 Build 164)  -->
  <g>
    <g id="_圖層_1" data-name="圖層_1">
      <rect class="cls-1" width="83" height="512.1"/>
      <rect class="cls-1" x="365" width="83" height="512.1"/>
      <rect class="cls-1" x="211.8" y="-211.8" width="24.5" height="448" transform="translate(236.2 -211.8) rotate(90)"/>
      <g>
        <g>
          <path class="cls-1" d="M133,349.2h-52.4c-15.7,0-28.3,12.6-28.3,28.3s12.6,28.3,28.3,28.3h61.6c16.8,0,32-9.9,38.8-25.2l10.2-22.9-8.4-5.3c-15.5-9.6-27-23.7-33.5-39.7l-16.3,36.5Z"/>
          <path class="cls-1" d="M142.2,408h-61.6c-16.8,0-30.5-13.7-30.5-30.5s13.7-30.5,30.5-30.5h50.9l17.8-40,2,4.8c6.6,16.1,17.9,29.5,32.6,38.7l10,6.3-10.9,24.7c-7.2,16.1-23.2,26.5-40.9,26.5ZM80.6,351.4c-14.4,0-26.1,11.7-26.1,26.1s11.7,26.1,26.1,26.1h61.6c15.9,0,30.4-9.4,36.8-23.9l9.4-21.2-6.8-4.3c-14.1-8.8-25.2-21.2-32.4-36.1l-14.8,33.3h-53.8Z"/>
        </g>
        <g>
          <circle class="cls-1" cx="264.2" cy="109" r="52.6"/>
          <path class="cls-1" d="M264.2,164.3c-30.5,0-55.3-24.8-55.3-55.3s24.8-55.3,55.3-55.3,55.3,24.8,55.3,55.3-24.8,55.3-55.3,55.3ZM264.2,59.2c-27.5,0-49.8,22.3-49.8,49.8s22.3,49.8,49.8,49.8,49.8-22.3,49.8-49.8-22.3-49.8-49.8-49.8Z"/>
        </g>
        <g>
          <path class="cls-1" d="M138.4,218.2c8.8-8.8,20.7-13.7,33.2-13.7s3.4,0,5,.3l-27.6,82.9c-8.2,24.8,1.5,52,23.7,65.9l76.3,47.7-22.5,71.9c-4.3,15,4.4,30.7,19.5,35,15,4.3,30.7-4.4,35-19.5l25.4-82.2c5.2-18.2-2.3-37.7-18.3-47.7l-50.2-31.4,27.3-72.9,4.5,10.9c13.3,31.7,44.1,52.3,78.5,52.3h18.8c15.7,0,28.3-12.6,28.3-28.3s-12.6-28.3-28.3-28.3h-18.8c-11.4,0-21.8-6.9-26.1-17.4l-5.6-13.3c-12.9-31-39-54.8-71.2-64.7l-43.1-13.3c-9.8-3-20.1-4.6-30.4-4.6-27.4,0-53.8,10.9-73.2,30.3l-20.5,20.4c-11.1,11.1-11.1,29,0,40.1,11.1,11.1,29,11.1,40.1,0l20.4-20.4h0Z"/>
          <path class="cls-1" d="M253.7,512c-2.9,0-5.8-.4-8.6-1.2-8-2.3-14.6-7.6-18.6-14.8-4-7.3-5-15.6-2.7-23.6l21.9-70-74.5-46.6c-23.3-14.6-33.5-43-24.9-69.1l26.5-79.5c-.4,0-.8,0-1.2,0-10.7,0-21.2,4-29.2,11h0s-22.4,22.4-22.4,22.4c-5.9,5.9-13.7,9.1-22,9.1s-16.1-3.2-22-9.1c-5.9-5.9-9.1-13.7-9.1-22s3.2-16.1,9.1-22l20.5-20.4c19.7-19.8,47.1-31.1,75.1-31.1s21,1.6,31.2,4.7l43.1,13.3c33.1,10.2,59.7,34.3,72.9,66.2l5.6,13.3c3.9,9.6,13.2,15.7,23.6,15.7h18.8c17.1,0,31,13.9,31,31s-13.9,31-31,31h-18.8c-35.5,0-67.3-21.2-81-54l-1.9-4.5-24.1,64.3,48.3,30.2c17,10.6,25,31.5,19.5,50.8l-25.4,82.2c-2.3,7.9-7.5,14.5-14.8,18.6-4.7,2.6-9.8,3.9-15,3.9ZM171.5,201.7c1.8,0,3.6,0,5.3.3l3.4.4-28.7,86.1c-7.9,23.7,1.4,49.5,22.6,62.7l78,48.8-23.1,73.9c-1.9,6.5-1.1,13.4,2.2,19.4,3.3,6,8.8,10.3,15.4,12.2,6.6,1.9,13.5,1.1,19.4-2.2,6-3.3,10.3-8.8,12.2-15.4l25.4-82.2c4.8-16.9-2.2-35.2-17.1-44.6l-52.1-32.6,30.6-81.5,7.2,17.3c12.9,30.7,42.7,50.6,75.9,50.6h18.8c14.1,0,25.6-11.5,25.6-25.6s-11.5-25.6-25.6-25.6h-18.8c-12.6,0-23.8-7.5-28.6-19.1l-5.6-13.3c-12.6-30.4-38-53.4-69.5-63.1l-43.1-13.3c-9.7-3-19.7-4.5-29.6-4.5-26.6,0-52.5,10.8-71.2,29.5l-20.5,20.4c-4.8,4.8-7.5,11.3-7.5,18.1s2.7,13.3,7.5,18.1c4.8,4.8,11.3,7.5,18.1,7.5s13.3-2.7,18.1-7.5l18.5-18.5h0c0,0,1.9-2,1.9-2,9.2-9.2,22-14.5,35.1-14.5Z"/>
        </g>
      </g>
    </g>
  </g>
</svg>