<?xml version="1.0" encoding="UTF-8"?>
<svg xmlns="http://www.w3.org/2000/svg" version="1.1" viewBox="0 0 512 512">
  <defs>
    <style>
      .cls-1 {
        fill: #fff;
      }
    </style>
  </defs>
  <!-- Generator: Adobe Illustrator 28.7.1, SVG Export Plug-In . SVG Version: 1.2.0 Build 142)  -->
  <g>
    <g id="_圖層_1" data-name="圖層_1">
      <path class="cls-1" d="M464,256c0-114.9-93.1-208-208-208S48,141.1,48,256s93.1,208,208,208,208-93.1,208-208ZM0,256C0,114.6,114.6,0,256,0s256,114.6,256,256-114.6,256-256,256S0,397.4,0,256ZM174.6,384.1c-4.5,12.5-18.2,18.9-30.7,14.4s-18.9-18.2-14.4-30.7c17.4-48.4,69.4-79.8,126.5-79.8s109.1,31.4,126.6,79.9c4.5,12.5-2,26.2-14.4,30.7s-26.2-2-30.7-14.4c-9.3-25.7-40.3-48.2-81.5-48.2s-72.2,22.5-81.4,48.1ZM144.4,208c0-17.7,14.3-32,32-32s32,14.3,32,32-14.3,32-32,32-32-14.3-32-32ZM336.4,176c17.7,0,32,14.3,32,32s-14.3,32-32,32-32-14.3-32-32,14.3-32,32-32Z"/>
    </g>
  </g>
</svg>