<?xml version="1.0" encoding="utf-8"?>
<!-- Generator: Adobe Illustrator 26.5.3, SVG Export Plug-In . SVG Version: 6.00 Build 0)  -->
<svg version="1.1" id="圖層_1" xmlns="http://www.w3.org/2000/svg" xmlns:xlink="http://www.w3.org/1999/xlink" x="0px" y="0px"
	 viewBox="0 0 88.4 79.5" style="enable-background:new 0 0 88.4 79.5;" xml:space="preserve">
<style type="text/css">
	.st0{fill:#314675;}
	.st1{fill:#24345D;}
	.st2{fill:#9E9E9F;}
	.st3{fill:#DBDAD5;}
	.st4{fill:#4DBCBC;}
</style>
<g>
	<g>
		<path class="st0" d="M15.3,48.3c-0.2,0-0.4,0-0.7-0.2C5.5,43.2,0,33.9,0,23.7C0,14,4.9,5.3,13.3,0.2C14-0.2,15.1,0,15.5,0.7
			c0.4,0.7,0.2,1.8-0.4,2.2C7.8,7.3,3.3,15.1,3.3,23.7c0,9.1,4.9,17.3,12.9,21.5c0.9,0.4,1.1,1.3,0.7,2.2
			C16.4,47.9,15.7,48.3,15.3,48.3z"/>
		<path class="st0" d="M17.7,38.8c-0.4,0-0.7-0.2-1.1-0.4c-4.4-4-6.9-8.9-6.9-14.2s2.4-10.4,6.9-14.2c0.7-0.7,1.8-0.4,2.2,0.2
			c0.7,0.7,0.4,1.8-0.2,2.2c-3.8,3.3-5.8,7.5-5.8,11.7s2,8.4,5.8,11.7c0.7,0.7,0.7,1.6,0.2,2.2C18.6,38.6,18.2,38.8,17.7,38.8z"/>
	</g>
	<g>
		<path class="st0" d="M73.1,48.3c0.2,0,0.4,0,0.7-0.2c9.1-4.9,14.6-14.2,14.6-24.4c0-9.7-4.9-18.4-13.3-23.5
			c-0.7-0.4-1.8-0.2-2.2,0.4c-0.4,0.7-0.2,1.8,0.4,2.2c7.3,4.4,11.7,12.2,11.7,20.8c0,9.1-4.9,17.3-12.9,21.5
			c-0.9,0.4-1.1,1.3-0.7,2.2C72,47.9,72.7,48.3,73.1,48.3z"/>
		<path class="st0" d="M70.7,38.8c0.4,0,0.7-0.2,1.1-0.4c4.4-4,6.9-8.9,6.9-14.2S76.2,13.7,71.8,10c-0.7-0.7-1.8-0.4-2.2,0.2
			c-0.7,0.7-0.4,1.8,0.2,2.2c3.8,3.3,5.8,7.5,5.8,11.7s-2,8.4-5.8,11.7c-0.7,0.7-0.7,1.6-0.2,2.2C69.8,38.6,70.2,38.8,70.7,38.8z"/>
	</g>
	<path class="st0" d="M52.1,72.7c0,3.8-3.1,6.9-6.9,6.9l0,0c-3.8,0-6.9-3.1-6.9-6.9l4.4-36.8c0-3.8-1.3-6.9,2.4-6.9l0,0
		c3.8,0,2.4,3.1,2.4,6.9L52.1,72.7z"/>
	<path class="st0" d="M60.3,25c0,7.8-6.4,14.2-14.2,14.2h-2c-7.8,0-14.2-6.4-14.2-14.2v-2c0-7.8,6.4-14.2,14.2-14.2h2
		c7.8,0,14.2,6.4,14.2,14.2V25z"/>
</g>
<g>
	<g>
		<path class="st0" d="M265,109.4c-4.2-1.6-8-4-11.3-6.9c-7.3-6.6-11.7-16.2-11.5-26.1c0.2-10.2,5.3-19.7,13.3-25.9
			c2.2-1.8,4.9-3.3,7.5-4.4C285.2,78.2,265,109.4,265,109.4z"/>
		<path class="st1" d="M265,109.4c-4.2-1.6-8-4-11.3-6.9c0.7-8,1.3-16.2,1.6-24.8c0.4-9.5,0.4-18.6,0.2-27.3
			c2.2-1.8,4.9-3.3,7.5-4.4C263.9,67.1,264.4,88.2,265,109.4z"/>
	</g>
	<g>
		<path class="st2" d="M422.8,128.3c2.4-17.1,4-33.5,4-46.1c0.2-43.4-13.3-62.3-29.9-62.3c-6.2,0-12,2.7-16.8,8.2l0,0
			c-2.2,2.4-4,5.5-5.8,9.1c-4.7,10.2-7.5,25-7.5,45.2c0,12.9,1.8,29.9,4.4,47.2"/>
		<path class="st2" d="M528.9,78.4c0,30.4-10.6,60-36.1,73.3c-24.1,14.4-66.2,13.1-98.1,13.1c-32.1,0-74,1.3-98.1-13.1
			c-25.7-13.1-33.5-42.1-30.1-72c-3.1-29.7,4.7-58.9,30.1-72c24.1-14.4,66.2-13.1,98.1-13.1c32.1,0,74-1.3,98.1,13.1
			C518.5,20.8,529.6,47.2,528.9,78.4z"/>
	</g>
	<path class="st3" d="M416.3,121.8c2.4-17.1,4-33.5,4-46.1c0-43.6-13.5-62.5-30.1-62.5c-6.2,0-12,2.7-16.8,8.2l0,0
		c-2.2,2.4-4,5.5-5.8,9.3l0,0c-4.4,10.2-7.3,25-7.3,45.2c0,12.9,1.8,29.9,4.4,47.2 M391.3,142c-1.8,0-3.1-3.5-3.1-8s1.3-8,3.1-8
		c1.6,0,3.1,3.5,3.1,8C394.4,138.2,393.1,142,391.3,142z M411.7,109.4c-4.9,5.1-14.2,5.1-21.5,5.1s-16.4,0-21.3-5.1
		c-4.9-5.1-6.9-37-4.7-47.6s14.6-17.7,25.9-17.7s23.7,7.1,25.9,17.7C418.3,72.2,416.3,104.1,411.7,109.4z"/>
	<path class="st3" d="M516.9,73.1c0.7,31.2-4.7,58.9-30.1,72c-24.1,14.4-66.2,13.1-98.1,13.1c-32.1,0-74,1.3-98.1-13.1
		c-25.7-13.1-30.4-41.4-30.1-72c0.2-33,4.7-58.9,30.1-72C314.7-13.3,356.8-12,388.7-12s74-1.3,98.1,13.1
		C512.3,14.4,516.3,40.3,516.9,73.1z"/>
	<path class="st0" d="M487,74c0,36.8-22.6,66.7-50.7,66.7h-91.9c-27.9,0-50.7-29.9-50.7-66.7l0,0c0-36.8,22.8-66.7,50.7-66.7h91.9
		C464.2,7.3,487,37.2,487,74L487,74z"/>
	<path class="st4" d="M408.4,97.3c0,10.2-8.2,18.4-18.4,18.4s-18.4-8.2-18.4-18.4H408.4z"/>
	<g>
		<g>
			<path class="st0" d="M360.1-37c-0.2,0-0.4,0-0.7-0.2c-9.1-4.9-14.6-14.2-14.6-24.4c0-9.7,4.9-18.4,13.3-23.5
				c0.7-0.4,1.8-0.2,2.2,0.4c0.4,0.7,0.2,1.8-0.4,2.2c-7.3,4.4-11.7,12.2-11.7,20.8c0,9.1,4.9,17.3,12.9,21.5
				c0.9,0.4,1.1,1.3,0.7,2.2C361.2-37.4,360.5-37,360.1-37z"/>
			<path class="st0" d="M362.5-46.5c-0.4,0-0.7-0.2-1.1-0.4c-4.4-4-6.9-8.9-6.9-14.2s2.4-10.4,6.9-14.2c0.7-0.7,1.8-0.4,2.2,0.2
				c0.7,0.7,0.4,1.8-0.2,2.2c-3.8,3.3-5.8,7.5-5.8,11.7s2,8.4,5.8,11.7c0.7,0.7,0.7,1.6,0.2,2.2C363.4-46.8,363-46.5,362.5-46.5z"/>
		</g>
		<g>
			<path class="st0" d="M417.9-37c0.2,0,0.4,0,0.7-0.2c9.1-4.9,14.6-14.2,14.6-24.4c0-9.7-4.9-18.4-13.3-23.5
				c-0.7-0.4-1.8-0.2-2.2,0.4c-0.4,0.7-0.2,1.8,0.4,2.2c7.3,4.4,11.7,12.2,11.7,20.8c0,9.1-4.9,17.3-12.9,21.5
				c-0.9,0.4-1.1,1.3-0.7,2.2C416.8-37.4,417.5-37,417.9-37z"/>
			<path class="st0" d="M415.5-46.5c0.4,0,0.7-0.2,1.1-0.4c4.4-4,6.9-8.9,6.9-14.2s-2.4-10.4-6.9-14.2c-0.7-0.7-1.8-0.4-2.2,0.2
				c-0.7,0.7-0.4,1.8,0.2,2.2c3.8,3.3,5.8,7.5,5.8,11.7s-2,8.4-5.8,11.7c-0.7,0.7-0.7,1.6-0.2,2.2C414.6-46.8,415-46.5,415.5-46.5z"
				/>
		</g>
		<path class="st0" d="M396.9-12.6c0,3.8-3.1,6.9-6.9,6.9l0,0c-3.8,0-6.9-3.1-6.9-6.9l4.4-36.8c0-3.8-1.3-6.9,2.4-6.9l0,0
			c3.8,0,2.4,3.1,2.4,6.9L396.9-12.6z"/>
		<path class="st0" d="M405.1-60.3c0,7.8-6.4,14.2-14.2,14.2h-2c-7.8,0-14.2-6.4-14.2-14.2v-2c0-7.8,6.4-14.2,14.2-14.2h2
			c7.8,0,14.2,6.4,14.2,14.2V-60.3z"/>
	</g>
	<path class="st4" d="M362.5,66.5c0,4-3.3,7.3-7.3,7.3l0,0c-4,0-7.3-3.3-7.3-7.3V47.6c0-4,3.3-7.3,7.3-7.3l0,0c4,0,7.3,3.3,7.3,7.3
		V66.5z"/>
	<path class="st4" d="M428.1,66.5c0,4-3.3,7.3-7.3,7.3l0,0c-4,0-7.3-3.3-7.3-7.3V47.6c0-4,3.3-7.3,7.3-7.3l0,0c4,0,7.3,3.3,7.3,7.3
		V66.5z"/>
	<g>
		<path class="st0" d="M530.7,56.7c-0.7,8-1.3,16.2-1.6,24.8c-0.4,9.5-0.4,18.6-0.2,27.3c8-6.2,13.1-15.7,13.3-25.9
			C542.4,72.9,538,63.4,530.7,56.7z"/>
		<path class="st1" d="M530.7,56.7c-1.8-1.6-2.4-2.2-4.4-3.3c-1.8-1.1-11.5,27.3-1.1,58c2.7-1.1,1.3-0.7,3.5-2.4
			c-0.2-8.6-0.2-17.7,0.2-27.3C529.3,72.9,530,64.7,530.7,56.7z"/>
	</g>
</g>
</svg>
