<?xml version="1.0" encoding="UTF-8"?>
<svg xmlns="http://www.w3.org/2000/svg" version="1.1" viewBox="0 0 300 86.5">
  <defs>
    <style>
      .cls-1 {
        fill: #4eb2b2;
      }

      .cls-2 {
        fill: #304471;
      }
    </style>
  </defs>
  <!-- Generator: Adobe Illustrator 28.7.1, SVG Export Plug-In . SVG Version: 1.2.0 Build 142)  -->
  <g>
    <g id="Capa_1">
      <g>
        <g>
          <path class="cls-1" d="M93.2,76.9c1.2,25.2-92.2-12.7-92.2-12.7l15.1-16.4-7.7-27.5s61.8,35.4,84.7,21.7c0,11,0,25.7,0,34.9Z"/>
          <path class="cls-2" d="M79.3,86.5c-25.6,0-76.1-20.4-78.7-21.4-.3,0-.5-.4-.6-.7-.1-.3,0-.7.2-.9l14.7-16-7.5-27c0-.4,0-.8.3-1.1.3-.2.8-.3,1.1-.1.6.4,61.5,34.9,83.7,21.7.3-.2.7-.2,1,0s.5.5.5.9v34.9c0,3-1,5.4-3.3,7.1-2.4,1.9-6.4,2.6-11.4,2.6ZM2.7,63.8c10,4,73.2,28.3,87,18.5,1.8-1.2,2.6-3,2.4-5.4h0v-33.3c-21.8,10.5-71.1-15.3-82.1-21.3l7,25.2c.1.3,0,.7-.2.9l-14.1,15.4Z"/>
        </g>
        <g>
          <path class="cls-2" d="M93.2,76.9c-10.3-24.1-39.2,8.6-43.3-10.8-4.2-19.6-10.1-47.3-10.1-47.3l53.4,23.2v34.9Z"/>
          <path class="cls-2" d="M93.2,77.9c-.4,0-.8-.2-.9-.6-5.1-12.1-15-9-24.6-6.1-5.8,1.8-11.2,3.5-14.9,1.3-1.9-1.1-3.2-3.2-3.9-6.2-4.2-19.6-10.1-47.3-10.1-47.3,0-.4,0-.7.3-1,.3-.2.7-.3,1-.1l53.5,23.1c.4.2.6.5.6.9v35c0,.5-.3.9-.8,1h-.2ZM80.3,66.6c4.5,0,8.7,1.5,11.9,6.3v-30.3l-51.1-22.1c1.4,6.6,6.2,28.9,9.7,45.4.5,2.5,1.5,4.1,2.9,4.9,3,1.7,8,.2,13.3-1.5,4.3-1.3,8.9-2.7,13.3-2.7Z"/>
        </g>
        <g>
          <path class="cls-1" d="M206.8,76.7c-1.2,25.3,92.2-12.6,92.2-12.6l-15.1-16.3,7.6-27.5s-61.8,35.4-84.7,21.7v34.7Z"/>
          <path class="cls-2" d="M220.8,86.4c-5,0-9.1-.8-11.6-2.6-2.3-1.6-3.4-4-3.3-7.1v-34.7c0-.4.2-.7.5-.9s.7-.2,1,0c22.2,13.3,83.1-21.3,83.7-21.7.4-.2.8-.2,1.1.1.3.2.5.7.3,1.1l-7.5,27,14.7,15.9c.2.2.3.6.2.9-.1.3-.3.6-.6.7-2.5,1-52.9,21.3-78.5,21.3ZM207.8,43.6v33.1h0c-.1,2.4.7,4.2,2.5,5.4,13.9,9.8,77-14.5,87-18.5l-14.1-15.2c-.2-.3-.3-.6-.2-.9l7-25.2c-9.1,5-44.9,23.8-69.3,23.8-4.8,0-9.2-.7-12.9-2.5ZM206.8,76.7h0Z"/>
        </g>
        <g>
          <path class="cls-2" d="M206.8,76.7c10.2-24.1,39.1,8.5,43.3-10.8,4.2-19.5,10.1-47.2,10.1-47.2l-53.4,23.1c0,.1,0,24.4,0,34.9Z"/>
          <path class="cls-2" d="M206.8,77.7h-.2c-.5,0-.8-.5-.8-1v-34.8c0-.4.2-.8.6-.9l53.4-23.1c.3-.1.7-.1,1,.1s.4.6.3,1c0,0-6,27.7-10.1,47.2-.7,3-1.9,5.1-3.9,6.2-3.7,2.2-9.2.5-14.9-1.3-9.6-3-19.5-6-24.6,6.1,0,.3-.4.5-.8.5ZM207.8,42.5v30.2c6.2-9.4,16.6-6.2,25.1-3.6,5.3,1.6,10.3,3.2,13.3,1.5,1.4-.8,2.4-2.5,2.9-4.9,3.5-16.4,8.3-38.7,9.7-45.3l-51,22.1Z"/>
        </g>
        <g>
          <path class="cls-1" d="M250.1,66.1c-2.1-8.8-5.8-7.9-8.7-8.4-58.7-10.7-119-11-177.8-.9-4.6.8-13.3,1.9-13.7,9.3-3.4-15.8-6.8-31.5-10.1-47.3-1.5-6.7,9.3-8.5,14-9.4C117.5-1.7,182.7-1.7,246.4,9.4c4.6.8,11.3,1.6,13.8,9.3-3.4,15.9-6.7,31.6-10.1,47.4Z"/>
          <path class="cls-2" d="M49.9,67.1c-.5,0-.9-.3-1-.8-1.7-7.8-3.3-15.6-5-23.4-1.7-8-3.4-15.9-5.1-23.9-.4-1.7,0-3.2.8-4.5,2.6-3.9,9.8-5.3,13.7-6h.4c64-11.3,129-11.3,193-.1h.6c4.5.9,11.4,2,13.9,10,.1.2.1.3,0,.5-1.4,6.7-2.8,13.4-4.3,20.1-1.9,9.1-3.8,18.2-5.8,27.3-.1.5-.5.8-1,.8h0c-.5,0-.9-.3-1-.8-1.7-7-4.1-7.3-6.7-7.5-.4,0-.8,0-1.2-.2-58.8-10.7-118.5-11.1-177.5-.9l-.7.2c-6,1-11.9,2.5-12.2,8.3,0,.4-.4.8-.9.9h0ZM150,48.3c30.6,0,61.2,2.8,91.6,8.3.3,0,.7,0,1.1,0,2.4.2,5.2.5,7.3,5.4,1.7-7.9,3.3-15.7,5-23.6,1.4-6.6,2.8-13.2,4.2-19.9-2.2-6.6-7.8-7.5-12.3-8.3h-.6C182.5-.9,117.8-.9,54,10.2h-.3c-3.6.8-10.3,2.1-12.4,5.2-.6.9-.8,1.9-.5,3,1.7,8,3.4,15.9,5.1,23.9,1.3,6.7,2.7,13.2,4.1,19.7,2.6-4.4,8.9-5.5,12.7-6.2h.7c28.7-5,57.7-7.5,86.6-7.5Z"/>
        </g>
      </g>
    </g>
  </g>
</svg>