<?xml version="1.0" encoding="utf-8"?>
<!-- Generator: Adobe Illustrator 26.5.3, SVG Export Plug-In . SVG Version: 6.00 Build 0)  -->
<svg version="1.1" id="Capa_1" xmlns="http://www.w3.org/2000/svg" xmlns:xlink="http://www.w3.org/1999/xlink" x="0px" y="0px"
	 viewBox="0 0 300 86.5" style="enable-background:new 0 0 300 86.5;" xml:space="preserve">
<style type="text/css">
	.st0{fill:#4EB2B2;}
	.st1{fill:#304471;}
</style>
<g>
	<g>
		<path class="st0" d="M93.2,76.9C94.4,102.1,1,64.2,1,64.2l15.1-16.4L8.4,20.3c0,0,61.8,35.4,84.7,21.7
			C93.2,53,93.2,67.7,93.2,76.9z"/>
		<path class="st1" d="M79.3,86.5c-25.6,0-76.1-20.4-78.7-21.4C0.3,65,0.1,64.7,0,64.4c-0.1-0.3,0-0.7,0.2-0.9l14.7-16l-7.5-27
			c-0.1-0.4,0-0.8,0.3-1.1c0.3-0.2,0.8-0.3,1.1-0.1c0.6,0.4,61.5,34.9,83.7,21.7c0.3-0.2,0.7-0.2,1,0c0.3,0.2,0.5,0.5,0.5,0.9v34.9
			c0.1,3-1,5.4-3.3,7.1C88.3,85.8,84.3,86.5,79.3,86.5z M2.7,63.8c10,4,73.2,28.3,87,18.5c1.8-1.2,2.6-3,2.4-5.4c0,0,0,0,0,0V43.6
			C70.3,54.1,21,28.3,10,22.3l7,25.2c0.1,0.3,0,0.7-0.2,0.9L2.7,63.8z"/>
	</g>
	<g>
		<path class="st1" d="M93.2,76.9C82.9,52.8,54,85.5,49.9,66.1c-4.2-19.6-10.1-47.3-10.1-47.3L93.2,42C93.2,42,93.2,66.3,93.2,76.9z
			"/>
		<path class="st1" d="M93.2,77.9c-0.4,0-0.8-0.2-0.9-0.6c-5.1-12.1-15-9-24.6-6.1c-5.8,1.8-11.2,3.5-14.9,1.3
			c-1.9-1.1-3.2-3.2-3.9-6.2C44.7,46.7,38.8,19,38.8,19c-0.1-0.4,0.1-0.7,0.3-1c0.3-0.2,0.7-0.3,1-0.1L93.6,41
			c0.4,0.2,0.6,0.5,0.6,0.9v35c0,0.5-0.3,0.9-0.8,1C93.3,77.9,93.2,77.9,93.2,77.9z M80.3,66.6c4.5,0,8.7,1.5,11.9,6.3V42.6
			L41.1,20.5c1.4,6.6,6.2,28.9,9.7,45.4c0.5,2.5,1.5,4.1,2.9,4.9c3,1.7,8,0.2,13.3-1.5C71.3,68,75.9,66.6,80.3,66.6z"/>
	</g>
	<g>
		<path class="st0" d="M206.8,76.7C205.6,102,299,64.1,299,64.1l-15.1-16.3l7.6-27.5c0,0-61.8,35.4-84.7,21.7
			C206.8,52.9,206.8,67.5,206.8,76.7z"/>
		<path class="st1" d="M220.8,86.4c-5,0-9.1-0.8-11.6-2.6c-2.3-1.6-3.4-4-3.3-7.1V42c0-0.4,0.2-0.7,0.5-0.9c0.3-0.2,0.7-0.2,1,0
			c22.2,13.3,83.1-21.3,83.7-21.7c0.4-0.2,0.8-0.2,1.1,0.1c0.3,0.2,0.5,0.7,0.3,1.1l-7.5,27l14.7,15.9c0.2,0.2,0.3,0.6,0.2,0.9
			c-0.1,0.3-0.3,0.6-0.6,0.7C296.8,66.1,246.4,86.4,220.8,86.4z M207.8,43.6v33.1c0,0,0,0,0,0c-0.1,2.4,0.7,4.2,2.5,5.4
			c13.9,9.8,77-14.5,87-18.5l-14.1-15.2c-0.2-0.3-0.3-0.6-0.2-0.9l7-25.2c-9.1,5-44.9,23.8-69.3,23.8
			C215.9,46.1,211.5,45.4,207.8,43.6z M206.8,76.7L206.8,76.7L206.8,76.7z"/>
	</g>
	<g>
		<path class="st1" d="M206.8,76.7c10.2-24.1,39.1,8.5,43.3-10.8c4.2-19.5,10.1-47.2,10.1-47.2l-53.4,23.1
			C206.8,41.9,206.8,66.2,206.8,76.7z"/>
		<path class="st1" d="M206.8,77.7c-0.1,0-0.1,0-0.2,0c-0.5-0.1-0.8-0.5-0.8-1V41.9c0-0.4,0.2-0.8,0.6-0.9l53.4-23.1
			c0.3-0.1,0.7-0.1,1,0.1c0.3,0.2,0.4,0.6,0.3,1c0,0-6,27.7-10.1,47.2c-0.7,3-1.9,5.1-3.9,6.2c-3.7,2.2-9.2,0.5-14.9-1.3
			c-9.6-3-19.5-6-24.6,6.1C207.6,77.5,207.2,77.7,206.8,77.7z M207.8,42.5v30.2c6.2-9.4,16.6-6.2,25.1-3.6
			c5.3,1.6,10.3,3.2,13.3,1.5c1.4-0.8,2.4-2.5,2.9-4.9c3.5-16.4,8.3-38.7,9.7-45.3L207.8,42.5z"/>
	</g>
	<g>
		<path class="st0" d="M250.1,66.1c-2.1-8.8-5.8-7.9-8.7-8.4c-58.7-10.7-119-11-177.8-0.9c-4.6,0.8-13.3,1.9-13.7,9.3
			c-3.4-15.8-6.8-31.5-10.1-47.3c-1.5-6.7,9.3-8.5,14-9.4c63.7-11.1,128.9-11.1,192.6,0c4.6,0.8,11.3,1.6,13.8,9.3
			C256.8,34.6,253.5,50.3,250.1,66.1z"/>
		<path class="st1" d="M49.9,67.1c-0.5,0-0.9-0.3-1-0.8c-1.7-7.8-3.3-15.6-5-23.4C42.2,34.9,40.5,27,38.8,19
			c-0.4-1.7-0.1-3.2,0.8-4.5c2.6-3.9,9.8-5.3,13.7-6l0.4-0.1c64-11.2,129-11.2,193,0l0.6,0.1c4.5,0.8,11.4,1.9,13.9,9.9
			c0.1,0.2,0.1,0.3,0,0.5c-1.4,6.7-2.8,13.4-4.3,20.1c-1.9,9.1-3.8,18.2-5.8,27.3c-0.1,0.5-0.5,0.8-1,0.8c0,0,0,0,0,0
			c-0.5,0-0.9-0.3-1-0.8c-1.7-7-4.1-7.3-6.7-7.5c-0.4,0-0.8-0.1-1.2-0.2c-58.8-10.7-118.5-11.1-177.5-0.9L63,57.9
			c-6,1-11.9,2.5-12.2,8.3C50.8,66.6,50.4,67,49.9,67.1C49.9,67.1,49.9,67.1,49.9,67.1z M150,48.3c30.6,0,61.2,2.8,91.6,8.3
			c0.3,0.1,0.7,0.1,1.1,0.1c2.4,0.2,5.2,0.5,7.3,5.4c1.7-7.9,3.3-15.7,5-23.6c1.4-6.6,2.8-13.2,4.2-19.9c-2.2-6.6-7.8-7.5-12.3-8.3
			l-0.6-0.1c-63.8-11.1-128.5-11.1-192.3,0l-0.3,0.1c-3.6,0.7-10.3,2-12.4,5.1c-0.6,0.9-0.8,1.9-0.5,3c1.7,8,3.4,15.9,5.1,23.9
			C47.2,49,48.6,55.5,50,62c2.6-4.4,8.9-5.5,12.7-6.2l0.7-0.1C92.1,50.8,121.1,48.3,150,48.3z"/>
	</g>
</g>
</svg>
