<?xml version="1.0" encoding="utf-8"?>
<!-- Generator: Adobe Illustrator 26.5.3, SVG Export Plug-In . SVG Version: 6.00 Build 0)  -->
<svg version="1.1" id="圖層_1" xmlns="http://www.w3.org/2000/svg" xmlns:xlink="http://www.w3.org/1999/xlink" x="0px" y="0px"
	 viewBox="0 0 21.5 62.4" style="enable-background:new 0 0 21.5 62.4;" xml:space="preserve">
<style type="text/css">
	.st0{fill:#314675;}
	.st1{fill:#24345D;}
	.st2{fill:#9E9E9F;}
	.st3{fill:#DBDAD5;}
	.st4{fill:#4DBCBC;}
</style>
<g>
	<g>
		<path class="st0" d="M231.6,100.9c-4.2-1.6-8-4-11.3-6.9c-7.3-6.6-11.7-16.2-11.5-26.1c0.2-10.2,5.3-19.7,13.3-25.9
			c2.2-1.8,4.9-3.3,7.5-4.4C251.8,69.6,231.6,100.9,231.6,100.9z"/>
		<path class="st1" d="M231.6,100.9c-4.2-1.6-8-4-11.3-6.9c0.7-8,1.3-16.2,1.6-24.8c0.4-9.5,0.4-18.6,0.2-27.3
			c2.2-1.8,4.9-3.3,7.5-4.4C230.5,58.5,230.9,79.6,231.6,100.9z"/>
	</g>
	<g>
		<path class="st0" d="M106.6,93.9c-4.2-1.6-8-4-11.3-6.9C88,80.3,83.6,70.8,83.8,60.8c0.2-10.2,5.3-19.7,13.3-25.9
			c2.2-1.8,4.9-3.3,7.5-4.4C126.8,62.6,106.6,93.9,106.6,93.9z"/>
		<path class="st1" d="M106.6,93.9c-4.2-1.6-8-4-11.3-6.9c0.7-8,1.3-16.2,1.6-24.8c0.4-9.5,0.4-18.6,0.2-27.3
			c2.2-1.8,4.9-3.3,7.5-4.4C105.5,51.5,105.9,72.6,106.6,93.9z"/>
	</g>
	<g>
		<path class="st2" d="M389.3,119.7c2.4-17.1,4-33.5,4-46.1c0.2-43.4-13.3-62.3-29.9-62.3c-6.2,0-12,2.7-16.8,8.2l0,0
			c-2.2,2.4-4,5.5-5.8,9.1c-4.7,10.2-7.5,25-7.5,45.2c0,12.9,1.8,29.9,4.4,47.2"/>
		<path class="st2" d="M495.5,69.8c0,30.4-10.6,60-36.1,73.3c-24.1,14.4-66.2,13.1-98.1,13.1c-32.1,0-74,1.3-98.1-13.1
			c-25.7-13.1-33.5-42.1-30.1-72c-3.1-29.7,4.7-58.9,30.1-72c24.1-14.4,66.2-13.1,98.1-13.1c32.1,0,74-1.3,98.1,13.1
			C485.1,12.2,496.1,38.6,495.5,69.8z"/>
	</g>
	<path class="st3" d="M382.9,113.3c2.4-17.1,4-33.5,4-46.1c0-43.6-13.5-62.5-30.1-62.5c-6.2,0-12,2.7-16.8,8.2l0,0
		c-2.2,2.4-4,5.5-5.8,9.3l0,0c-4.4,10.2-7.3,25-7.3,45.2c0,12.9,1.8,29.9,4.4,47.2 M357.9,133.4c-1.8,0-3.1-3.5-3.1-8s1.3-8,3.1-8
		c1.6,0,3.1,3.5,3.1,8C361,129.7,359.7,133.4,357.9,133.4z M378.3,100.9c-4.9,5.1-14.2,5.1-21.5,5.1c-7.3,0-16.4,0-21.3-5.1
		c-4.9-5.1-6.9-37-4.7-47.6c2.2-10.6,14.6-17.7,25.9-17.7s23.7,7.1,25.9,17.7C384.9,63.6,382.9,95.5,378.3,100.9z"/>
	<path class="st3" d="M483.5,64.5c0.7,31.2-4.7,58.9-30.1,72c-24.1,14.4-66.2,13.1-98.1,13.1c-32.1,0-74,1.3-98.1-13.1
		c-25.7-13.1-30.4-41.4-30.1-72c0.2-33,4.7-58.9,30.1-72c24.1-14.4,66.2-13.1,98.1-13.1s74-1.3,98.1,13.1
		C478.9,5.8,482.8,31.7,483.5,64.5z"/>
	<path class="st0" d="M453.6,65.4c0,36.8-22.6,66.7-50.7,66.7h-91.9c-27.9,0-50.7-29.9-50.7-66.7l0,0c0-36.8,22.8-66.7,50.7-66.7
		h91.9C430.8-1.3,453.6,28.6,453.6,65.4L453.6,65.4z"/>
	<path class="st4" d="M374.9,88.7c0,10.2-8.2,18.4-18.4,18.4c-10.2,0-18.4-8.2-18.4-18.4H374.9z"/>
	<g>
		<g>
			<path class="st0" d="M326.6-45.6c-0.2,0-0.4,0-0.7-0.2c-9.1-4.9-14.6-14.2-14.6-24.4c0-9.7,4.9-18.4,13.3-23.5
				c0.7-0.4,1.8-0.2,2.2,0.4c0.4,0.7,0.2,1.8-0.4,2.2c-7.3,4.4-11.7,12.2-11.7,20.8c0,9.1,4.9,17.3,12.9,21.5
				c0.9,0.4,1.1,1.3,0.7,2.2C327.8-46,327.1-45.6,326.6-45.6z"/>
			<path class="st0" d="M329.1-55.1c-0.4,0-0.7-0.2-1.1-0.4c-4.4-4-6.9-8.9-6.9-14.2c0-5.3,2.4-10.4,6.9-14.2
				c0.7-0.7,1.8-0.4,2.2,0.2c0.7,0.7,0.4,1.8-0.2,2.2c-3.8,3.3-5.8,7.5-5.8,11.7s2,8.4,5.8,11.7c0.7,0.7,0.7,1.6,0.2,2.2
				C330-55.3,329.5-55.1,329.1-55.1z"/>
		</g>
		<g>
			<path class="st0" d="M384.5-45.6c0.2,0,0.4,0,0.7-0.2c9.1-4.9,14.6-14.2,14.6-24.4c0-9.7-4.9-18.4-13.3-23.5
				c-0.7-0.4-1.8-0.2-2.2,0.4c-0.4,0.7-0.2,1.8,0.4,2.2c7.3,4.4,11.7,12.2,11.7,20.8c0,9.1-4.9,17.3-12.9,21.5
				c-0.9,0.4-1.1,1.3-0.7,2.2C383.4-46,384-45.6,384.5-45.6z"/>
			<path class="st0" d="M382-55.1c0.4,0,0.7-0.2,1.1-0.4c4.4-4,6.9-8.9,6.9-14.2c0-5.3-2.4-10.4-6.9-14.2c-0.7-0.7-1.8-0.4-2.2,0.2
				c-0.7,0.7-0.4,1.8,0.2,2.2c3.8,3.3,5.8,7.5,5.8,11.7s-2,8.4-5.8,11.7c-0.7,0.7-0.7,1.6-0.2,2.2C381.1-55.3,381.6-55.1,382-55.1z"
				/>
		</g>
		<path class="st0" d="M363.4-21.2c0,3.8-3.1,6.9-6.9,6.9l0,0c-3.8,0-6.9-3.1-6.9-6.9l4.4-36.8c0-3.8-1.3-6.9,2.4-6.9l0,0
			c3.8,0,2.4,3.1,2.4,6.9L363.4-21.2z"/>
		<path class="st0" d="M371.6-68.9c0,7.8-6.4,14.2-14.2,14.2h-2c-7.8,0-14.2-6.4-14.2-14.2v-2c0-7.8,6.4-14.2,14.2-14.2h2
			c7.8,0,14.2,6.4,14.2,14.2V-68.9z"/>
	</g>
	<path class="st4" d="M329.1,57.9c0,4-3.3,7.3-7.3,7.3l0,0c-4,0-7.3-3.3-7.3-7.3V39c0-4,3.3-7.3,7.3-7.3l0,0c4,0,7.3,3.3,7.3,7.3
		V57.9z"/>
	<path class="st4" d="M394.7,57.9c0,4-3.3,7.3-7.3,7.3l0,0c-4,0-7.3-3.3-7.3-7.3V39c0-4,3.3-7.3,7.3-7.3l0,0c4,0,7.3,3.3,7.3,7.3
		V57.9z"/>
	<g>
		<path class="st0" d="M497.2,48.1c-0.7,8-1.3,16.2-1.6,24.8c-0.4,9.5-0.4,18.6-0.2,27.3c8-6.2,13.1-15.7,13.3-25.9
			C509,64.3,504.6,54.8,497.2,48.1z"/>
		<path class="st1" d="M497.2,48.1c-1.8-1.6-2.4-2.2-4.4-3.3c-1.8-1.1-11.5,27.3-1.1,58c2.7-1.1,1.3-0.7,3.5-2.4
			c-0.2-8.6-0.2-17.7,0.2-27.3C495.9,64.3,496.6,56.1,497.2,48.1z"/>
	</g>
</g>
<g>
	<path class="st0" d="M231.6,377.9c-4.2-1.6-8-4-11.3-6.9c-7.3-6.6-11.7-16.2-11.5-26.1c0.2-10.2,5.3-19.7,13.3-25.9
		c2.2-1.8,4.9-3.3,7.5-4.4C251.8,346.6,231.6,377.9,231.6,377.9z"/>
	<path class="st1" d="M231.6,377.9c-4.2-1.6-8-4-11.3-6.9c0.7-8,1.3-16.2,1.6-24.8c0.4-9.5,0.4-18.6,0.2-27.3
		c2.2-1.8,4.9-3.3,7.5-4.4C230.5,335.5,230.9,356.6,231.6,377.9z"/>
</g>
<g>
	<path class="st0" d="M106.6,370.9c-4.2-1.6-8-4-11.3-6.9c-7.3-6.6-11.7-16.2-11.5-26.1c0.2-10.2,5.3-19.7,13.3-25.9
		c2.2-1.8,4.9-3.3,7.5-4.4C126.8,339.6,106.6,370.9,106.6,370.9z"/>
	<path class="st1" d="M106.6,370.9c-4.2-1.6-8-4-11.3-6.9c0.7-8,1.3-16.2,1.6-24.8c0.4-9.5,0.4-18.6,0.2-27.3
		c2.2-1.8,4.9-3.3,7.5-4.4C105.5,328.5,105.9,349.6,106.6,370.9z"/>
</g>
<g>
	<path class="st2" d="M389.3,396.7c2.4-17.1,4-33.5,4-46.1c0.2-43.4-13.3-62.3-29.9-62.3c-6.2,0-12,2.7-16.8,8.2l0,0
		c-2.2,2.4-4,5.5-5.8,9.1c-4.7,10.2-7.5,25-7.5,45.2c0,12.9,1.8,29.9,4.4,47.2"/>
	<path class="st2" d="M495.5,346.8c0,30.4-10.6,60-36.1,73.3c-24.1,14.4-66.2,13.1-98.1,13.1c-32.1,0-74,1.3-98.1-13.1
		c-25.7-13.1-33.5-42.1-30.1-72c-3.1-29.7,4.7-58.9,30.1-72c24.1-14.4,66.2-13.1,98.1-13.1c32.1,0,74-1.3,98.1,13.1
		C485.1,289.2,496.1,315.6,495.5,346.8z"/>
</g>
<path class="st3" d="M382.9,390.3c2.4-17.1,4-33.5,4-46.1c0-43.6-13.5-62.5-30.1-62.5c-6.2,0-12,2.7-16.8,8.2l0,0
	c-2.2,2.4-4,5.5-5.8,9.3l0,0c-4.4,10.2-7.3,25-7.3,45.2c0,12.9,1.8,29.9,4.4,47.2 M357.9,410.4c-1.8,0-3.1-3.5-3.1-8
	c0-4.4,1.3-8,3.1-8c1.6,0,3.1,3.5,3.1,8C361,406.7,359.7,410.4,357.9,410.4z M378.3,377.9c-4.9,5.1-14.2,5.1-21.5,5.1
	c-7.3,0-16.4,0-21.3-5.1c-4.9-5.1-6.9-37-4.7-47.6c2.2-10.6,14.6-17.7,25.9-17.7s23.7,7.1,25.9,17.7
	C384.9,340.6,382.9,372.5,378.3,377.9z"/>
<path class="st3" d="M483.5,341.5c0.7,31.2-4.7,58.9-30.1,72c-24.1,14.4-66.2,13.1-98.1,13.1c-32.1,0-74,1.3-98.1-13.1
	c-25.7-13.1-30.4-41.4-30.1-72c0.2-33,4.7-58.9,30.1-72c24.1-14.4,66.2-13.1,98.1-13.1s74-1.3,98.1,13.1
	C478.9,282.8,482.8,308.7,483.5,341.5z"/>
<path class="st0" d="M453.6,342.4c0,36.8-22.6,66.7-50.7,66.7h-91.9c-27.9,0-50.7-29.9-50.7-66.7l0,0c0-36.8,22.8-66.7,50.7-66.7
	h91.9C430.8,275.7,453.6,305.6,453.6,342.4L453.6,342.4z"/>
<path class="st4" d="M374.9,365.7c0,10.2-8.2,18.4-18.4,18.4c-10.2,0-18.4-8.2-18.4-18.4H374.9z"/>
<g>
	<g>
		<path class="st0" d="M326.6,231.4c-0.2,0-0.4,0-0.7-0.2c-9.1-4.9-14.6-14.2-14.6-24.4c0-9.7,4.9-18.4,13.3-23.5
			c0.7-0.4,1.8-0.2,2.2,0.4c0.4,0.7,0.2,1.8-0.4,2.2c-7.3,4.4-11.7,12.2-11.7,20.8c0,9.1,4.9,17.3,12.9,21.5
			c0.9,0.4,1.1,1.3,0.7,2.2C327.8,231,327.1,231.4,326.6,231.4z"/>
		<path class="st0" d="M329.1,221.9c-0.4,0-0.7-0.2-1.1-0.4c-4.4-4-6.9-8.9-6.9-14.2c0-5.3,2.4-10.4,6.9-14.2
			c0.7-0.7,1.8-0.4,2.2,0.2c0.7,0.7,0.4,1.8-0.2,2.2c-3.8,3.3-5.8,7.5-5.8,11.7c0,4.2,2,8.4,5.8,11.7c0.7,0.7,0.7,1.6,0.2,2.2
			C330,221.7,329.5,221.9,329.1,221.9z"/>
	</g>
	<g>
		<path class="st0" d="M384.5,231.4c0.2,0,0.4,0,0.7-0.2c9.1-4.9,14.6-14.2,14.6-24.4c0-9.7-4.9-18.4-13.3-23.5
			c-0.7-0.4-1.8-0.2-2.2,0.4c-0.4,0.7-0.2,1.8,0.4,2.2c7.3,4.4,11.7,12.2,11.7,20.8c0,9.1-4.9,17.3-12.9,21.5
			c-0.9,0.4-1.1,1.3-0.7,2.2C383.4,231,384,231.4,384.5,231.4z"/>
		<path class="st0" d="M382,221.9c0.4,0,0.7-0.2,1.1-0.4c4.4-4,6.9-8.9,6.9-14.2c0-5.3-2.4-10.4-6.9-14.2c-0.7-0.7-1.8-0.4-2.2,0.2
			c-0.7,0.7-0.4,1.8,0.2,2.2c3.8,3.3,5.8,7.5,5.8,11.7c0,4.2-2,8.4-5.8,11.7c-0.7,0.7-0.7,1.6-0.2,2.2
			C381.1,221.7,381.6,221.9,382,221.9z"/>
	</g>
	<path class="st0" d="M363.4,255.8c0,3.8-3.1,6.9-6.9,6.9l0,0c-3.8,0-6.9-3.1-6.9-6.9l4.4-36.8c0-3.8-1.3-6.9,2.4-6.9l0,0
		c3.8,0,2.4,3.1,2.4,6.9L363.4,255.8z"/>
	<path class="st0" d="M371.6,208.1c0,7.8-6.4,14.2-14.2,14.2h-2c-7.8,0-14.2-6.4-14.2-14.2v-2c0-7.8,6.4-14.2,14.2-14.2h2
		c7.8,0,14.2,6.4,14.2,14.2V208.1z"/>
</g>
<path class="st4" d="M329.1,334.9c0,4-3.3,7.3-7.3,7.3l0,0c-4,0-7.3-3.3-7.3-7.3V316c0-4,3.3-7.3,7.3-7.3l0,0c4,0,7.3,3.3,7.3,7.3
	V334.9z"/>
<path class="st4" d="M394.7,334.9c0,4-3.3,7.3-7.3,7.3l0,0c-4,0-7.3-3.3-7.3-7.3V316c0-4,3.3-7.3,7.3-7.3l0,0c4,0,7.3,3.3,7.3,7.3
	V334.9z"/>
<g>
	<path class="st0" d="M497.2,325.1c-0.7,8-1.3,16.2-1.6,24.8c-0.4,9.5-0.4,18.6-0.2,27.3c8-6.2,13.1-15.7,13.3-25.9
		C509,341.3,504.6,331.8,497.2,325.1z"/>
	<path class="st1" d="M497.2,325.1c-1.8-1.6-2.4-2.2-4.4-3.3c-1.8-1.1-11.5,27.3-1.1,58c2.7-1.1,1.3-0.7,3.5-2.4
		c-0.2-8.6-0.2-17.7,0.2-27.3C495.9,341.3,496.6,333.1,497.2,325.1z"/>
</g>
<g>
	<path class="st0" d="M8.2,58.4c8-6.2,13.1-15.7,13.3-25.9C21.8,22.5,17.3,13,10,6.4c-0.7,8-1.3,16.2-1.6,24.8
		C8,40.7,8,49.8,8.2,58.4z"/>
	<path class="st1" d="M3.4,35.8c-0.1,9.5-0.5,18.4-1.6,26.6c2.3-1.1,4.6-2.4,6.5-4C8,49.8,8,40.7,8.5,31.2C8.7,22.5,9.3,14.3,10,6.4
		C7,3.8,3.7,1.6,0,0C2.7,10.9,3.5,23.2,3.4,35.8z"/>
</g>
</svg>
