<?xml version="1.0" encoding="UTF-8"?>
<svg xmlns="http://www.w3.org/2000/svg" version="1.1" viewBox="0 0 425.2 214.1">
  <defs>
    <style>
      .cls-1 {
        fill: #24345d;
      }

      .cls-2 {
        fill: #fff;
      }

      .cls-3 {
        fill: #aeb3b8;
      }

      .cls-4 {
        fill: #314675;
      }

      .cls-5 {
        fill: #4dbcbc;
      }

      .cls-6 {
        fill: none;
        stroke: #fff;
        stroke-miterlimit: 10;
        stroke-width: 5.3px;
      }

      .cls-7 {
        fill: #e2e3e3;
      }
    </style>
  </defs>
  <!-- Generator: Adobe Illustrator 28.7.1, SVG Export Plug-In . SVG Version: 1.2.0 Build 142)  -->
  <g>
    <g id="_圖層_1" data-name="圖層_1">
      <g>
        <g>
          <g>
            <path class="cls-1" d="M276.8,68.5c-.7-.6-1.1-1-1.8-1.4-1.7-7.6-5.4-13.9-11.2-18.5-1.9-2.3-4.2-4.2-7.4-5.9-11.2-6.8-30.7-6.1-45.6-6.1s-34.4-.6-45.6,6.1c-8.5,4.3-11.9,11.7-13.2,21.2-1,.5-1.9,1-2.7,1.7-3.7,2.9-6.1,7.3-6.2,12,0,4.6,1.9,9.1,5.3,12.2,1.3,1.2,2.8,2.1,4.4,2.8,1.3,5.2,3.5,9.7,7.2,13.1,2.1,2.7,4.7,5.1,8.1,6.8,8.8,5.3,22.7,6,35.5,6.1,2.7,11.7,6,20.7,8.1,20.7s.3,0,.4,0c.9,2,1.8,3.1,2.6,3.1,2.6,0,6.2-10.6,9-23.7,12.7,0,26.7-.8,35.6-6.1,7.7-3.9,12.3-11,14.8-19.3,0,.2.1.4.2.6,1.2-.5.6-.3,1.7-1.1,3.7-2.9,6.1-7.3,6.2-12,.1-4.6-1.9-9.1-5.3-12.2v-.2h0Z"/>
            <path class="cls-2" d="M214.7,145c-1.9,0-3.2-1.5-4.2-3.1-1.9-.6-4.9-3.8-9-20.6-12.9-.2-26-1.2-34.7-6.4-3.4-1.8-6.4-4.2-8.8-7.3-3.4-3.3-6-7.7-7.5-13-1.5-.7-2.8-1.7-3.9-2.7-4-3.7-6.3-8.9-6.2-14.2.2-5.5,2.8-10.6,7.2-14,.6-.5,1.2-.9,1.9-1.3,1.8-10.7,6.4-17.7,14.4-21.8,10.9-6.5,28.7-6.5,42.9-6.5h7.9c14.2,0,32,0,42.9,6.4,3.1,1.6,5.8,3.7,7.9,6.3,5.9,4.5,9.8,10.8,11.7,18.8.4.3.8.7,1.3,1.1,4,3.6,6.4,8.9,6.2,14.2-.2,5.5-2.8,10.6-7.2,14-.2.2-.3.3-.4.4-.4.4-.7.6-1.2.8-3,8.7-8.3,15.2-15.5,18.9-8.8,5.2-21.7,6.3-34.7,6.4-5.4,23.7-9.3,23.7-11.1,23.7h-.1ZM213.4,135.9l1.1,2.2c0,.2.2.5.3.6,1.4-2.5,3.8-9.1,6.4-20.6l.4-2h2.1c12.9,0,26.1-.8,34.2-5.8h.2c8.1-4.2,11.8-12,13.4-17.8l2.4-8.4,1.7,5.3c2.3-2.4,3.7-5.6,3.8-8.8.1-3.8-1.5-7.5-4.4-10.1h0c-.7-.6-.9-.8-1.5-1.2l-.9-.6-.2-1.1c-1.6-7.3-5.1-12.9-10.2-17l-.3-.2-.2-.2c-1.7-2.1-3.8-3.8-6.5-5.2h-.2c-9.6-5.9-26.7-5.9-40.3-5.8h-7.9c-13.6,0-30.7,0-40.3,5.8h-.2c-6.9,3.6-10.5,9.5-11.8,19.3l-.2,1.4-1.2.6c-.9.5-1.6.9-2.3,1.4-3.1,2.4-5.1,6.1-5.2,10,0,3.8,1.5,7.5,4.4,10.1,1.1,1,2.3,1.7,3.7,2.4l1.2.5.3,1.3c1.3,5.1,3.3,9,6.5,11.9l.3.3c1.9,2.5,4.3,4.5,7.2,6h.2c8.1,5,21.2,5.7,34.2,5.8h2.1l.5,2c2.7,11.4,4.9,16.6,6,18.4l1.2-.5h0Z"/>
          </g>
          <g>
            <path class="cls-4" d="M153.5,93c-1.9-.7-3.7-1.8-5.3-3.1-3.4-3-5.5-7.5-5.3-12.2,0-4.7,2.4-9.1,6.2-12,1-.8,2.2-1.5,3.4-2,10.2,15,.8,29.4.8,29.4h.1Z"/>
            <path class="cls-1" d="M153.5,93c-1.9-.7-3.7-1.8-5.3-3.1.3-3.6.6-7.5.8-11.5.2-4.4.2-8.7.1-12.6,1-.8,2.2-1.5,3.4-2,.3,9.8.6,19.6.8,29.4h.1Z"/>
          </g>
          <g>
            <path class="cls-3" d="M214.7,51.4c-2.9,0-5.6,1.2-7.8,3.8h0c-1,1.1-1.9,2.5-2.6,4.2-2.2,4.7-3.5,11.6-3.5,21s.8,13.8,2.1,21.9c3,19.3,8.6,39.9,11.9,39.9s9.2-21,12-40.5c1.2-7.9,1.9-15.5,1.9-21.3,0-20.3-6.3-29.1-13.9-29.1,0,0-.1,0-.1,0Z"/>
            <path class="cls-3" d="M276,78.6c0,14-4.9,27.9-16.8,34-11.2,6.8-30.7,6.1-45.6,6.1s-34.4.6-45.6-6.1c-11.9-6.1-15.5-19.6-14-33.3-1.5-13.8,2.1-27.3,14-33.3,11.2-6.8,30.7-6.1,45.6-6.1s34.4-.6,45.6,6.1c11.9,6.1,17.1,18.3,16.8,32.7Z"/>
          </g>
          <path class="cls-7" d="M211.7,48.4c-2.9,0-5.6,1.2-7.8,3.8h0c-1,1.1-1.9,2.5-2.6,4.2h0c-2.2,4.7-3.5,11.6-3.5,21s.8,13.8,2.1,21.9c3,19.3,8.6,39.9,11.9,39.9s9.2-21,12-40.5c1.2-7.9,1.9-15.5,1.9-21.3,0-20.3-6.3-29.1-13.9-29.1h-.1ZM212.1,108.1c-.8,0-1.4-1.6-1.4-3.6s.6-3.6,1.4-3.6,1.4,1.6,1.4,3.6-.6,3.6-1.4,3.6ZM221.5,93c-2.2,2.4-6.5,2.4-9.9,2.4s-7.7,0-9.9-2.4-3.1-17.2-2.1-22.1,6.8-8.3,12-8.3,11,3.3,12,8.3c1,5,0,19.7-2.1,22.1Z"/>
          <path class="cls-7" d="M270.4,76.2c.3,14.4-2.1,27.3-14,33.4-11.2,6.8-30.7,6.1-45.6,6.1s-34.4.6-45.6-6.1c-11.9-6.1-14.1-19.2-14-33.3,0-15.3,2.1-27.3,14-33.3,11.2-6.8,30.7-6.1,45.6-6.1s34.4-.6,45.6,6.1c11.9,6.1,13.7,18.1,14,33.3h0Z"/>
          <path class="cls-4" d="M256.6,76.6c0,17.1-10.5,31-23.5,31h-42.6c-13,0-23.5-13.8-23.5-31h0c0-17.1,10.5-31,23.5-31h42.6c13,0,23.5,13.8,23.5,31h0Z"/>
          <path class="cls-5" d="M220.1,87.3c0,4.7-3.8,8.6-8.6,8.6s-8.6-3.8-8.6-8.6h17.2Z"/>
          <g>
            <g>
              <g>
                <path class="cls-4" d="M197.6,25h-.3c-4.1-2.2-6.8-6.6-6.8-11.3s2.3-8.6,6.2-10.9c.4-.2.8,0,1,.3.2.4,0,.8-.3,1-3.4,2-5.5,5.7-5.5,9.6s2.3,8,6,9.9c.4.2.5.6.3,1,0,.2-.4.4-.7.4h.1Z"/>
                <path class="cls-2" d="M197.6,27.7c-.6,0-1.1-.1-1.6-.4-5.1-2.7-8.2-7.9-8.2-13.6s2.7-10.4,7.5-13.1c1.6-1,3.7-.4,4.6,1.1,1,1.6.5,3.7-1.1,4.6-2.6,1.6-4.1,4.3-4.1,7.4s1.7,6.1,4.5,7.6c1.6.9,2.3,2.9,1.4,4.5-.6,1.1-1.7,1.8-3,1.8h0ZM198.5,22.5h0Z"/>
              </g>
              <g>
                <path class="cls-4" d="M198.7,20.6c-.2,0-.4,0-.5-.2-2-1.8-3.1-4.1-3.1-6.6s1.1-4.9,3.2-6.7c.3-.3.8-.2,1.1,0,.3.3.2.8,0,1-1.7,1.5-2.7,3.4-2.7,5.5s.9,3.9,2.6,5.5c.3.3.3.7,0,1,0,.2-.3.2-.6.2v.3Z"/>
                <path class="cls-2" d="M198.7,23.3c-.8,0-1.6-.3-2.3-.9-2.6-2.3-4-5.4-4-8.5s1.4-6.3,4.1-8.6c1.4-1.2,3.5-1.1,4.7.3.6.7.9,1.5.8,2.4,0,.9-.5,1.7-1.1,2.3-1.2,1-1.8,2.2-1.8,3.5s.6,2.4,1.7,3.4c.7.6,1.1,1.4,1.1,2.3s-.3,1.8-.8,2.4c-.6.7-1.5,1.1-2.5,1.1h.1ZM200,18.4h0Z"/>
              </g>
            </g>
            <g>
              <g>
                <path class="cls-4" d="M224.6,25h.3c4.1-2.2,6.8-6.6,6.8-11.3s-2.3-8.6-6.2-10.9c-.4-.2-.8,0-1,.3-.2.4,0,.8.3,1,3.4,2,5.5,5.7,5.5,9.6s-2.3,8-6,9.9c-.4.2-.5.6-.3,1,0,.2.4.4.7.4h-.1Z"/>
                <path class="cls-2" d="M224.6,27.7c-1.2,0-2.4-.7-3-1.8-.4-.8-.5-1.7-.3-2.6.3-.9.8-1.6,1.6-2,2.8-1.5,4.5-4.4,4.5-7.6s-1.5-5.8-4.1-7.4c-.8-.5-1.3-1.2-1.5-2.1s0-1.8.4-2.5c1-1.6,3-2.1,4.6-1.1,4.6,2.8,7.5,7.8,7.5,13.2s-3.1,10.9-8.2,13.6c-.5.3-1,.4-1.6.4h.1ZM223.7,22.5h0ZM226.1,1.7h0Z"/>
              </g>
              <g>
                <path class="cls-4" d="M223.4,20.6c.2,0,.4,0,.5-.2,2-1.8,3.1-4.1,3.1-6.6s-1.1-4.9-3.2-6.7c-.3-.3-.8-.2-1,0-.3.3-.2.8,0,1,1.7,1.5,2.7,3.4,2.7,5.5s-.9,3.9-2.6,5.5c-.3.3-.3.7,0,1,0,.2.3.2.6.2v.3h-.1Z"/>
                <path class="cls-2" d="M223.4,23.3c-1,0-1.9-.4-2.5-1.1-1.2-1.4-1.1-3.5.3-4.7,1.1-1,1.8-2.2,1.8-3.4s-.6-2.5-1.8-3.5c-.7-.6-1.1-1.4-1.1-2.3s.2-1.8.8-2.4c.6-.7,1.4-1.1,2.3-1.1s1.8.2,2.4.8c2.6,2.3,4.1,5.4,4.1,8.6s-1.4,6.3-4,8.6c-.6.5-1.4.9-2.2.9v-.2h-.1ZM222.1,18.4h0ZM224.6,6.4h0Z"/>
              </g>
            </g>
            <g>
              <path class="cls-4" d="M211.9,6.8h-.9c-3.6,0-6.6,2.9-6.6,6.6v.9c0,3.3,2.5,6.1,5.7,6.5l-1.8,15.6c0,1.8,1.4,3.2,3.2,3.2s3.2-1.4,3.2-3.2l-1.8-15.6c3.2-.4,5.7-3.1,5.7-6.5v-.9c0-3.6-2.9-6.6-6.6-6.6h-.1Z"/>
              <path class="cls-2" d="M211.4,42.3c-3.2,0-5.9-2.6-5.9-5.9v-.3l1.6-13.3c-3.2-1.4-5.5-4.7-5.5-8.4v-.9c0-5.1,4.1-9.2,9.2-9.2h.9c5.1,0,9.2,4.1,9.2,9.2v.9c0,3.7-2.2,7-5.5,8.4l1.6,13.6c0,3.2-2.6,5.9-5.9,5.9h.1ZM210.9,36.5c0,.3.3.5.6.5s.5-.2.6-.5l-.6-4.7-.6,4.7ZM211,9.4c-2.1,0-3.9,1.7-3.9,3.9v.9c0,1.9,1.5,3.6,3.4,3.9h1c0,.1,1,0,1,0,1.9-.3,3.4-1.9,3.4-3.9v-.9c0-2.1-1.7-3.9-3.9-3.9,0,0-1,0-1,0Z"/>
            </g>
            <g>
              <g>
                <path class="cls-4" d="M197.6,25h-.3c-4.1-2.2-6.8-6.6-6.8-11.3s2.3-8.6,6.2-10.9c.4-.2.8,0,1,.3.2.4,0,.8-.3,1-3.4,2-5.5,5.7-5.5,9.6s2.3,8,6,9.9c.4.2.5.6.3,1,0,.2-.4.4-.7.4h.1Z"/>
                <path class="cls-4" d="M198.7,20.6c-.2,0-.4,0-.5-.2-2-1.8-3.1-4.1-3.1-6.6s1.1-4.9,3.2-6.7c.3-.3.8-.2,1.1,0,.3.3.2.8,0,1-1.7,1.5-2.7,3.4-2.7,5.5s.9,3.9,2.6,5.5c.3.3.3.7,0,1,0,.2-.3.2-.6.2v.3Z"/>
              </g>
              <g>
                <path class="cls-4" d="M224.6,25h.3c4.1-2.2,6.8-6.6,6.8-11.3s-2.3-8.6-6.2-10.9c-.4-.2-.8,0-1,.3-.2.4,0,.8.3,1,3.4,2,5.5,5.7,5.5,9.6s-2.3,8-6,9.9c-.4.2-.5.6-.3,1,0,.2.4.4.7.4h-.1Z"/>
                <path class="cls-4" d="M223.4,20.6c.2,0,.4,0,.5-.2,2-1.8,3.1-4.1,3.1-6.6s-1.1-4.9-3.2-6.7c-.3-.3-.8-.2-1,0-.3.3-.2.8,0,1,1.7,1.5,2.7,3.4,2.7,5.5s-.9,3.9-2.6,5.5c-.3.3-.3.7,0,1,0,.2.3.2.6.2v.3h-.1Z"/>
              </g>
              <path class="cls-4" d="M214.7,36.4c0,1.8-1.4,3.2-3.2,3.2h0c-1.8,0-3.2-1.4-3.2-3.2l2-17.1c0-1.8-.6-3.2,1.2-3.2h0c1.8,0,1.2,1.4,1.2,3.2l2,17.1Z"/>
              <path class="cls-4" d="M211,6.8h.9c3.6,0,6.6,2.9,6.6,6.6v.9c0,3.6-2.9,6.6-6.6,6.6h-.9c-3.6,0-6.6-2.9-6.6-6.6v-.9c0-3.6,2.9-6.6,6.6-6.6Z"/>
            </g>
          </g>
          <path class="cls-5" d="M198.8,73.1c0,1.9-1.5,3.4-3.4,3.4h0c-1.9,0-3.4-1.5-3.4-3.4v-8.8c0-1.9,1.5-3.4,3.4-3.4h0c1.9,0,3.4,1.5,3.4,3.4v8.8Z"/>
          <path class="cls-5" d="M229.2,73.1c0,1.9-1.5,3.4-3.4,3.4h0c-1.9,0-3.4-1.5-3.4-3.4v-8.8c0-1.9,1.5-3.4,3.4-3.4h0c1.9,0,3.4,1.5,3.4,3.4v8.8Z"/>
          <g>
            <path class="cls-4" d="M276.8,68.5c-.3,3.6-.6,7.5-.8,11.5-.2,4.4-.2,8.7-.1,12.6,3.7-2.9,6.1-7.3,6.2-12,.1-4.6-1.9-9.1-5.3-12.2h0Z"/>
            <path class="cls-1" d="M276.8,68.5c-.8-.7-1.1-1-2-1.6-.8-.5-5.3,12.6-.5,26.9,1.2-.5.6-.3,1.7-1.1,0-4,0-8.3.1-12.6.2-4,.4-7.9.8-11.5h-.1Z"/>
          </g>
        </g>
        <g>
          <g>
            <path class="cls-4" d="M27.7,202.9c-1.7,0-2.6-.9-2.6-2.6v-15.5c0-1.4.8-2.2,2.3-2.2s2.1.6,2.3,1.9v.8h.3c1-1,1.9-1.8,2.7-2.3,1.1-.6,2.3-.9,3.5-.9,2.7,0,4.5,1.2,5.6,3.5,1.1-1.1,2-2,2.9-2.5,1.1-.7,2.3-1,3.5-1,2.1,0,3.7.7,4.7,2.2,1,1.4,1.5,3.3,1.5,6v10c0,1.7-.9,2.6-2.6,2.6s-2.7-.9-2.7-2.6v-9.4c0-1.5-.2-2.6-.7-3.3-.4-.6-1.1-.9-2.1-.9s-2.4.8-3.9,2.3v11.3c0,1.7-.9,2.6-2.6,2.6s-2.7-.9-2.7-2.6v-9.4c0-1.5-.2-2.6-.7-3.3-.4-.6-1.1-.9-2.1-.9s-2.4.8-3.9,2.3v11.3c0,1.7-.9,2.6-2.6,2.6h0Z"/>
            <path class="cls-6" d="M27.7,202.9c-1.7,0-2.6-.9-2.6-2.6v-15.5c0-1.4.8-2.2,2.3-2.2s2.1.6,2.3,1.9v.8h.3c1-1,1.9-1.8,2.7-2.3,1.1-.6,2.3-.9,3.5-.9,2.7,0,4.5,1.2,5.6,3.5,1.1-1.1,2-2,2.9-2.5,1.1-.7,2.3-1,3.5-1,2.1,0,3.7.7,4.7,2.2,1,1.4,1.5,3.3,1.5,6v10c0,1.7-.9,2.6-2.6,2.6s-2.7-.9-2.7-2.6v-9.4c0-1.5-.2-2.6-.7-3.3-.4-.6-1.1-.9-2.1-.9s-2.4.8-3.9,2.3v11.3c0,1.7-.9,2.6-2.6,2.6s-2.7-.9-2.7-2.6v-9.4c0-1.5-.2-2.6-.7-3.3-.4-.6-1.1-.9-2.1-.9s-2.4.8-3.9,2.3v11.3c0,1.7-.9,2.6-2.6,2.6h0Z"/>
          </g>
          <g>
            <path class="cls-4" d="M65.1,203.4c-1.8,0-3.2-.6-4.3-1.7s-1.7-2.6-1.7-4.3.9-3.8,2.7-5.1,4.9-2,8.9-2.4c0-2.3-1.2-3.5-3.4-3.5s-2.3.3-3.6.9-2.2.4-2.9-.8c-.6-1.1-.4-2,.7-2.6,2.3-1.2,4.5-1.8,6.9-1.8s4.5.7,5.9,2.2,2,3.7,2,6.7v9.7c0,1.4-.8,2.2-2.3,2.2s-2.1-.6-2.4-1.9v-.3h-.1c-2.1,1.8-4.1,2.7-6.2,2.7h0ZM66.8,199.3c1.3,0,2.6-.7,3.9-2v-4.1c-2.3.3-4,.8-5.2,1.4-1,.6-1.4,1.4-1.4,2.3,0,1.5.9,2.3,2.7,2.3h-.1Z"/>
            <path class="cls-6" d="M65.1,203.4c-1.8,0-3.2-.6-4.3-1.7s-1.7-2.6-1.7-4.3.9-3.8,2.7-5.1,4.9-2,8.9-2.4c0-2.3-1.2-3.5-3.4-3.5s-2.3.3-3.6.9-2.2.4-2.9-.8c-.6-1.1-.4-2,.7-2.6,2.3-1.2,4.5-1.8,6.9-1.8s4.5.7,5.9,2.2,2,3.7,2,6.7v9.7c0,1.4-.8,2.2-2.3,2.2s-2.1-.6-2.4-1.9v-.3h-.1c-2.1,1.8-4.1,2.7-6.2,2.7h0ZM66.8,199.3c1.3,0,2.6-.7,3.9-2v-4.1c-2.3.3-4,.8-5.2,1.4-1,.6-1.4,1.4-1.4,2.3,0,1.5.9,2.3,2.7,2.3h-.1Z"/>
          </g>
          <g>
            <path class="cls-4" d="M84.2,202.9c-1.7,0-2.6-.9-2.6-2.6v-15.5c0-1.4.7-2.2,2.2-2.2s2.2.7,2.3,2v1.6h.3c.7-1.3,1.6-2.3,2.6-3s2-1,3.1-1h.5c.6,0,1.1.5,1.3,1s.3,1.1.1,1.8c-.3,1.5-1.2,2.2-2.5,1.9h0c-.9,0-1.7.3-2.5.9-.9.7-1.6,1.7-2.2,3.1v9.5c0,1.7-.9,2.6-2.6,2.6v-.2h0Z"/>
            <path class="cls-6" d="M84.2,202.9c-1.7,0-2.6-.9-2.6-2.6v-15.5c0-1.4.7-2.2,2.2-2.2s2.2.7,2.3,2v1.6h.3c.7-1.3,1.6-2.3,2.6-3s2-1,3.1-1h.5c.6,0,1.1.5,1.3,1s.3,1.1.1,1.8c-.3,1.5-1.2,2.2-2.5,1.9h0c-.9,0-1.7.3-2.5.9-.9.7-1.6,1.7-2.2,3.1v9.5c0,1.7-.9,2.6-2.6,2.6v-.2h0Z"/>
          </g>
          <g>
            <path class="cls-4" d="M104.8,203.4c-4.4,0-6.7-2.5-6.7-7.6v-9h-.9c-1.3,0-1.9-.7-1.9-2s.6-2,1.8-2h1.3l.4-3.5c.1-1.4.9-2,2.3-2s2.3.7,2.3,2.2v3.2h2.9c1.4,0,2.1.7,2.1,2.1s-.7,2.1-2.1,2.1h-2.9v9c0,2.3.9,3.4,2.7,3.4h0c1.2-.3,2,.2,2.3,1.5.3,1.2-.1,2-1.2,2.3-.9.2-1.8.3-2.7.3h.2Z"/>
            <path class="cls-6" d="M104.8,203.4c-4.4,0-6.7-2.5-6.7-7.6v-9h-.9c-1.3,0-1.9-.7-1.9-2s.6-2,1.8-2h1.3l.4-3.5c.1-1.4.9-2,2.3-2s2.3.7,2.3,2.2v3.2h2.9c1.4,0,2.1.7,2.1,2.1s-.7,2.1-2.1,2.1h-2.9v9c0,2.3.9,3.4,2.7,3.4h0c1.2-.3,2,.2,2.3,1.5.3,1.2-.1,2-1.2,2.3-.9.2-1.8.3-2.7.3h.2Z"/>
          </g>
          <g>
            <path class="cls-5" d="M120.3,202.9c-1.8,0-2.7-.9-2.7-2.7v-19.7h-5.4c-1.5,0-2.2-.7-2.2-2.2s.7-2.2,2.2-2.2h16.2c1.5,0,2.2.7,2.2,2.2s-.7,2.2-2.2,2.2h-5.5v19.7c0,1.8-.9,2.7-2.7,2.7h.1Z"/>
            <path class="cls-6" d="M120.3,202.9c-1.8,0-2.7-.9-2.7-2.7v-19.7h-5.4c-1.5,0-2.2-.7-2.2-2.2s.7-2.2,2.2-2.2h16.2c1.5,0,2.2.7,2.2,2.2s-.7,2.2-2.2,2.2h-5.5v19.7c0,1.8-.9,2.7-2.7,2.7h.1Z"/>
          </g>
          <g>
            <path class="cls-4" d="M136.9,203.4c-1.8,0-3.2-.6-4.3-1.7-1.1-1.1-1.7-2.6-1.7-4.3s.9-3.8,2.7-5.1,4.9-2,8.9-2.4c0-2.3-1.2-3.5-3.4-3.5s-2.3.3-3.6.9c-1.3.6-2.2.4-2.9-.8-.6-1.1-.4-2,.7-2.6,2.3-1.2,4.5-1.8,6.9-1.8s4.5.7,5.9,2.2,2,3.7,2,6.7v9.7c0,1.4-.8,2.2-2.3,2.2s-2.1-.6-2.4-1.9v-.3h-.1c-2.1,1.8-4.1,2.7-6.2,2.7h0ZM138.6,199.3c1.3,0,2.6-.7,3.9-2v-4.1c-2.3.3-4,.8-5.2,1.4-1,.6-1.4,1.4-1.4,2.3,0,1.5.9,2.3,2.7,2.3h-.1Z"/>
            <path class="cls-6" d="M136.9,203.4c-1.8,0-3.2-.6-4.3-1.7-1.1-1.1-1.7-2.6-1.7-4.3s.9-3.8,2.7-5.1,4.9-2,8.9-2.4c0-2.3-1.2-3.5-3.4-3.5s-2.3.3-3.6.9c-1.3.6-2.2.4-2.9-.8-.6-1.1-.4-2,.7-2.6,2.3-1.2,4.5-1.8,6.9-1.8s4.5.7,5.9,2.2,2,3.7,2,6.7v9.7c0,1.4-.8,2.2-2.3,2.2s-2.1-.6-2.4-1.9v-.3h-.1c-2.1,1.8-4.1,2.7-6.2,2.7h0ZM138.6,199.3c1.3,0,2.6-.7,3.9-2v-4.1c-2.3.3-4,.8-5.2,1.4-1,.6-1.4,1.4-1.4,2.3,0,1.5.9,2.3,2.7,2.3h-.1Z"/>
          </g>
          <g>
            <path class="cls-4" d="M158.3,203.4c-3.3,0-5.1-2-5.1-6.2v-20.6c0-1.7.9-2.6,2.6-2.6s2.6.9,2.6,2.6v20.9c0,1.1.4,1.6,1.1,1.6h0c.2,0,.4,0,.5.3.1.2.2.4.3.7.1.7.1,1.3,0,1.9-.2.7-.5,1.2-1,1.3h-1.3.2,0Z"/>
            <path class="cls-6" d="M158.3,203.4c-3.3,0-5.1-2-5.1-6.2v-20.6c0-1.7.9-2.6,2.6-2.6s2.6.9,2.6,2.6v20.9c0,1.1.4,1.6,1.1,1.6h0c.2,0,.4,0,.5.3.1.2.2.4.3.7.1.7.1,1.3,0,1.9-.2.7-.5,1.2-1,1.3h-1.3.2,0Z"/>
          </g>
          <g>
            <path class="cls-4" d="M167.4,202.9c-1.7,0-2.6-.8-2.6-2.6v-23.8c0-1.7.9-2.6,2.6-2.6s2.6.8,2.6,2.6v14.9h.1l6.2-7.7c.6-.7,1.4-1.1,2.3-1.1h3c.4,0,.7,0,.7.3s0,.4-.3.7l-6.2,7.3,6,9.4c.5.8.7,1.4.4,1.9-.3.5-.9.7-1.8.7h-1c-.5,0-.9,0-1.4-.4-.4-.3-.8-.6-1.1-1l-4.1-7-2.9,3.3v2.5c0,1.7-.9,2.6-2.6,2.6h.2,0Z"/>
            <path class="cls-6" d="M167.4,202.9c-1.7,0-2.6-.8-2.6-2.6v-23.8c0-1.7.9-2.6,2.6-2.6s2.6.8,2.6,2.6v14.9h.1l6.2-7.7c.6-.7,1.4-1.1,2.3-1.1h3c.4,0,.7,0,.7.3s0,.4-.3.7l-6.2,7.3,6,9.4c.5.8.7,1.4.4,1.9-.3.5-.9.7-1.8.7h-1c-.5,0-.9,0-1.4-.4-.4-.3-.8-.6-1.1-1l-4.1-7-2.9,3.3v2.5c0,1.7-.9,2.6-2.6,2.6h.2,0Z"/>
          </g>
          <g>
            <path class="cls-4" d="M189.5,179.3c-.9,0-1.7-.3-2.3-.8-.6-.5-.9-1.2-.9-2.1s.3-1.6.9-2.1,1.4-.8,2.3-.8,1.7.3,2.2.8c.6.5.9,1.2.9,2.1s-.3,1.5-.9,2.1-1.3.8-2.2.8ZM189.5,202.9c-1.7,0-2.6-.9-2.6-2.6v-15.1c0-1.7.9-2.6,2.6-2.6s2.6.9,2.6,2.6v15.1c0,1.7-.9,2.6-2.6,2.6Z"/>
            <path class="cls-6" d="M189.5,179.3c-.9,0-1.7-.3-2.3-.8-.6-.5-.9-1.2-.9-2.1s.3-1.6.9-2.1,1.4-.8,2.3-.8,1.7.3,2.2.8c.6.5.9,1.2.9,2.1s-.3,1.5-.9,2.1-1.3.8-2.2.8ZM189.5,202.9c-1.7,0-2.6-.9-2.6-2.6v-15.1c0-1.7.9-2.6,2.6-2.6s2.6.9,2.6,2.6v15.1c0,1.7-.9,2.6-2.6,2.6Z"/>
          </g>
          <g>
            <path class="cls-4" d="M200.5,202.9c-1.7,0-2.6-.9-2.6-2.6v-15.5c0-1.4.8-2.2,2.3-2.2s2.1.6,2.3,1.9v.7h.3c2.2-2.1,4.3-3.2,6.6-3.2,4.1,0,6.3,2.7,6.3,8.2v10c0,1.7-.9,2.6-2.6,2.6s-2.7-.9-2.7-2.6v-9.4c0-1.5-.2-2.6-.7-3.3-.4-.6-1.2-1-2.2-1s-1.5.2-2.2.6c-.5.3-1.2.9-2,1.7v11.3c0,1.7-.9,2.6-2.6,2.6v.2h0Z"/>
            <path class="cls-6" d="M200.5,202.9c-1.7,0-2.6-.9-2.6-2.6v-15.5c0-1.4.8-2.2,2.3-2.2s2.1.6,2.3,1.9v.7h.3c2.2-2.1,4.3-3.2,6.6-3.2,4.1,0,6.3,2.7,6.3,8.2v10c0,1.7-.9,2.6-2.6,2.6s-2.7-.9-2.7-2.6v-9.4c0-1.5-.2-2.6-.7-3.3-.4-.6-1.2-1-2.2-1s-1.5.2-2.2.6c-.5.3-1.2.9-2,1.7v11.3c0,1.7-.9,2.6-2.6,2.6v.2h0Z"/>
          </g>
          <g>
            <path class="cls-4" d="M228.3,211.7c-2.5,0-4.5-.4-6.1-1.3-1.6-.9-2.4-2.2-2.4-3.9s1-3.1,2.9-4.2v-.2c-1.2-.8-1.8-1.9-1.8-3.4s.2-1.4.7-2.1c.4-.6.9-1.2,1.5-1.7h0c-.7-.7-1.4-1.4-1.8-2.3-.6-1-.8-2-.8-3.1,0-2.3.8-4.1,2.4-5.5,1.5-1.2,3.4-1.9,5.8-1.9s2.1.2,3,.5h5.4c1.3,0,1.9.6,1.9,1.9s-.6,1.9-1.9,1.9h-1.5c.6.8.9,1.8.9,3.1,0,2.2-.8,3.9-2.3,5.2-1.4,1.2-3.2,1.7-5.6,1.7s-1.7-.2-2.6-.5c-.6.5-.9,1-.9,1.7s.2,1,.7,1.2c.5.3,1.3.4,2.5.4h3.4c5.1,0,7.6,1.7,7.6,5.1s-1,3.8-2.9,5.2c-2,1.4-4.7,2-8.1,2v.4h0ZM229.1,208.4c1.5,0,2.7-.3,3.7-.9.9-.6,1.4-1.2,1.4-2.1s-.3-1.2-.9-1.4c-.5-.2-1.3-.4-2.5-.4h-2.4c-1.1,0-2,0-2.8-.3-.9.7-1.3,1.5-1.3,2.3s.4,1.5,1.3,2,2,.7,3.5.7h0ZM228.6,193.2c.9,0,1.7-.3,2.2-1,.6-.7.9-1.6.9-2.7s-.3-2.1-.9-2.7-1.3-1-2.2-1-1.7.3-2.3,1c-.6.7-.9,1.6-.9,2.7s.3,2.1.9,2.7,1.3,1,2.2,1h.1Z"/>
            <path class="cls-6" d="M228.3,211.7c-2.5,0-4.5-.4-6.1-1.3-1.6-.9-2.4-2.2-2.4-3.9s1-3.1,2.9-4.2v-.2c-1.2-.8-1.8-1.9-1.8-3.4s.2-1.4.7-2.1c.4-.6.9-1.2,1.5-1.7h0c-.7-.7-1.4-1.4-1.8-2.3-.6-1-.8-2-.8-3.1,0-2.3.8-4.1,2.4-5.5,1.5-1.2,3.4-1.9,5.8-1.9s2.1.2,3,.5h5.4c1.3,0,1.9.6,1.9,1.9s-.6,1.9-1.9,1.9h-1.5c.6.8.9,1.8.9,3.1,0,2.2-.8,3.9-2.3,5.2-1.4,1.2-3.2,1.7-5.6,1.7s-1.7-.2-2.6-.5c-.6.5-.9,1-.9,1.7s.2,1,.7,1.2c.5.3,1.3.4,2.5.4h3.4c5.1,0,7.6,1.7,7.6,5.1s-1,3.8-2.9,5.2c-2,1.4-4.7,2-8.1,2v.4h0ZM229.1,208.4c1.5,0,2.7-.3,3.7-.9.9-.6,1.4-1.2,1.4-2.1s-.3-1.2-.9-1.4c-.5-.2-1.3-.4-2.5-.4h-2.4c-1.1,0-2,0-2.8-.3-.9.7-1.3,1.5-1.3,2.3s.4,1.5,1.3,2,2,.7,3.5.7h0ZM228.6,193.2c.9,0,1.7-.3,2.2-1,.6-.7.9-1.6.9-2.7s-.3-2.1-.9-2.7-1.3-1-2.2-1-1.7.3-2.3,1c-.6.7-.9,1.6-.9,2.7s.3,2.1.9,2.7,1.3,1,2.2,1h.1Z"/>
          </g>
          <g>
            <path class="cls-4" d="M243.5,194.4c-1.2,0-1.9-.6-1.9-1.9s.6-1.9,1.9-1.9h6.2c1.2,0,1.9.6,1.9,1.9s-.6,1.9-1.9,1.9h-6.2Z"/>
            <path class="cls-6" d="M243.5,194.4c-1.2,0-1.9-.6-1.9-1.9s.6-1.9,1.9-1.9h6.2c1.2,0,1.9.6,1.9,1.9s-.6,1.9-1.9,1.9h-6.2Z"/>
          </g>
          <g>
            <path class="cls-5" d="M259.1,202.9c-1.6,0-2.4-.8-2.4-2.4v-22.1c0-.7.2-1.3.6-1.7s1-.6,1.7-.6h1.7c.6,0,1.1.2,1.5.5.5.3.8.7.9,1.3l3.9,10.8c.3.8.6,1.9,1.1,3.5.2.7.4,1.3.5,1.6h.2c.2-.5.4-1.3.8-2.4.4-1.2.6-2.2.9-2.8l3.8-10.8c.2-.5.5-.9.9-1.3.5-.3,1-.5,1.5-.5h2.7c.4,0,.7,0,1,.4s.4.6.4,1v23c0,1.6-.8,2.4-2.4,2.4s-2.4-.8-2.4-2.4v-8.8c0-1.5.2-4.2.6-8.2v-.6h-.1l-2.2,6.4-3.6,9.8c-.2.4-.4.8-.8,1-.4.3-.8.4-1.3.4h-.1c-.9,0-1.6-.4-1.9-1.3l-3.6-9.9-2.1-6.4h-.1c0,.3,0,.7.1,1.3.4,3.6.5,6.2.5,7.6v8.8c0,1.6-.8,2.4-2.4,2.4h.1Z"/>
            <path class="cls-6" d="M259.1,202.9c-1.6,0-2.4-.8-2.4-2.4v-22.1c0-.7.2-1.3.6-1.7s1-.6,1.7-.6h1.7c.6,0,1.1.2,1.5.5.5.3.8.7.9,1.3l3.9,10.8c.3.8.6,1.9,1.1,3.5.2.7.4,1.3.5,1.6h.2c.2-.5.4-1.3.8-2.4.4-1.2.6-2.2.9-2.8l3.8-10.8c.2-.5.5-.9.9-1.3.5-.3,1-.5,1.5-.5h2.7c.4,0,.7,0,1,.4s.4.6.4,1v23c0,1.6-.8,2.4-2.4,2.4s-2.4-.8-2.4-2.4v-8.8c0-1.5.2-4.2.6-8.2v-.6h-.1l-2.2,6.4-3.6,9.8c-.2.4-.4.8-.8,1-.4.3-.8.4-1.3.4h-.1c-.9,0-1.6-.4-1.9-1.3l-3.6-9.9-2.1-6.4h-.1c0,.3,0,.7.1,1.3.4,3.6.5,6.2.5,7.6v8.8c0,1.6-.8,2.4-2.4,2.4h.1Z"/>
          </g>
          <g>
            <path class="cls-4" d="M292.2,203.4c-1.8,0-3.2-.6-4.3-1.7-1.1-1.1-1.7-2.6-1.7-4.3s.9-3.8,2.7-5.1,4.9-2,8.9-2.4c0-2.3-1.2-3.5-3.4-3.5s-2.3.3-3.6.9c-1.3.6-2.2.4-2.9-.8-.6-1.1-.4-2,.7-2.6,2.3-1.2,4.5-1.8,6.9-1.8s4.5.7,5.9,2.2,2,3.7,2,6.7v9.7c0,1.4-.8,2.2-2.3,2.2s-2.1-.6-2.4-1.9v-.3h-.1c-2.1,1.8-4.1,2.7-6.2,2.7h0ZM293.9,199.3c1.3,0,2.6-.7,3.9-2v-4.1c-2.3.3-4,.8-5.2,1.4-1,.6-1.4,1.4-1.4,2.3,0,1.5.9,2.3,2.7,2.3h-.1Z"/>
            <path class="cls-6" d="M292.2,203.4c-1.8,0-3.2-.6-4.3-1.7-1.1-1.1-1.7-2.6-1.7-4.3s.9-3.8,2.7-5.1,4.9-2,8.9-2.4c0-2.3-1.2-3.5-3.4-3.5s-2.3.3-3.6.9c-1.3.6-2.2.4-2.9-.8-.6-1.1-.4-2,.7-2.6,2.3-1.2,4.5-1.8,6.9-1.8s4.5.7,5.9,2.2,2,3.7,2,6.7v9.7c0,1.4-.8,2.2-2.3,2.2s-2.1-.6-2.4-1.9v-.3h-.1c-2.1,1.8-4.1,2.7-6.2,2.7h0ZM293.9,199.3c1.3,0,2.6-.7,3.9-2v-4.1c-2.3.3-4,.8-5.2,1.4-1,.6-1.4,1.4-1.4,2.3,0,1.5.9,2.3,2.7,2.3h-.1Z"/>
          </g>
          <g>
            <path class="cls-4" d="M311.3,202.9c-1.7,0-2.6-.9-2.6-2.6v-15.5c0-1.4.8-2.2,2.3-2.2s2.1.6,2.3,1.9v.7h.3c2.2-2.1,4.3-3.2,6.6-3.2,4.1,0,6.3,2.7,6.3,8.2v10c0,1.7-.9,2.6-2.6,2.6s-2.7-.9-2.7-2.6v-9.4c0-1.5-.2-2.6-.7-3.3-.4-.6-1.2-1-2.2-1s-1.5.2-2.2.6c-.5.3-1.2.9-2,1.7v11.3c0,1.7-.9,2.6-2.6,2.6v.2h0Z"/>
            <path class="cls-6" d="M311.3,202.9c-1.7,0-2.6-.9-2.6-2.6v-15.5c0-1.4.8-2.2,2.3-2.2s2.1.6,2.3,1.9v.7h.3c2.2-2.1,4.3-3.2,6.6-3.2,4.1,0,6.3,2.7,6.3,8.2v10c0,1.7-.9,2.6-2.6,2.6s-2.7-.9-2.7-2.6v-9.4c0-1.5-.2-2.6-.7-3.3-.4-.6-1.2-1-2.2-1s-1.5.2-2.2.6c-.5.3-1.2.9-2,1.7v11.3c0,1.7-.9,2.6-2.6,2.6v.2h0Z"/>
          </g>
          <path class="cls-4" d="M27.7,202.9c-1.7,0-2.6-.9-2.6-2.6v-15.5c0-1.4.8-2.2,2.3-2.2s2.1.6,2.3,1.9v.8h.3c1-1,1.9-1.8,2.7-2.3,1.1-.6,2.3-.9,3.5-.9,2.7,0,4.5,1.2,5.6,3.5,1.1-1.1,2-2,2.9-2.5,1.1-.7,2.3-1,3.5-1,2.1,0,3.7.7,4.7,2.2,1,1.4,1.5,3.3,1.5,6v10c0,1.7-.9,2.6-2.6,2.6s-2.7-.9-2.7-2.6v-9.4c0-1.5-.2-2.6-.7-3.3-.4-.6-1.1-.9-2.1-.9s-2.4.8-3.9,2.3v11.3c0,1.7-.9,2.6-2.6,2.6s-2.7-.9-2.7-2.6v-9.4c0-1.5-.2-2.6-.7-3.3-.4-.6-1.1-.9-2.1-.9s-2.4.8-3.9,2.3v11.3c0,1.7-.9,2.6-2.6,2.6h0Z"/>
          <path class="cls-4" d="M65.1,203.4c-1.8,0-3.2-.6-4.3-1.7s-1.7-2.6-1.7-4.3.9-3.8,2.7-5.1,4.9-2,8.9-2.4c0-2.3-1.2-3.5-3.4-3.5s-2.3.3-3.6.9-2.2.4-2.9-.8c-.6-1.1-.4-2,.7-2.6,2.3-1.2,4.5-1.8,6.9-1.8s4.5.7,5.9,2.2,2,3.7,2,6.7v9.7c0,1.4-.8,2.2-2.3,2.2s-2.1-.6-2.4-1.9v-.3h-.1c-2.1,1.8-4.1,2.7-6.2,2.7h0ZM66.8,199.3c1.3,0,2.6-.7,3.9-2v-4.1c-2.3.3-4,.8-5.2,1.4-1,.6-1.4,1.4-1.4,2.3,0,1.5.9,2.3,2.7,2.3h-.1Z"/>
          <path class="cls-4" d="M84.2,202.9c-1.7,0-2.6-.9-2.6-2.6v-15.5c0-1.4.7-2.2,2.2-2.2s2.2.7,2.3,2v1.6h.3c.7-1.3,1.6-2.3,2.6-3s2-1,3.1-1h.5c.6,0,1.1.5,1.3,1s.3,1.1.1,1.8c-.3,1.5-1.2,2.2-2.5,1.9h0c-.9,0-1.7.3-2.5.9-.9.7-1.6,1.7-2.2,3.1v9.5c0,1.7-.9,2.6-2.6,2.6v-.2h0Z"/>
          <path class="cls-4" d="M104.8,203.4c-4.4,0-6.7-2.5-6.7-7.6v-9h-.9c-1.3,0-1.9-.7-1.9-2s.6-2,1.8-2h1.3l.4-3.5c.1-1.4.9-2,2.3-2s2.3.7,2.3,2.2v3.2h2.9c1.4,0,2.1.7,2.1,2.1s-.7,2.1-2.1,2.1h-2.9v9c0,2.3.9,3.4,2.7,3.4h0c1.2-.3,2,.2,2.3,1.5.3,1.2-.1,2-1.2,2.3-.9.2-1.8.3-2.7.3h.2Z"/>
          <path class="cls-5" d="M120.3,202.9c-1.8,0-2.7-.9-2.7-2.7v-19.7h-5.4c-1.5,0-2.2-.7-2.2-2.2s.7-2.2,2.2-2.2h16.2c1.5,0,2.2.7,2.2,2.2s-.7,2.2-2.2,2.2h-5.5v19.7c0,1.8-.9,2.7-2.7,2.7h.1Z"/>
          <path class="cls-4" d="M136.9,203.4c-1.8,0-3.2-.6-4.3-1.7-1.1-1.1-1.7-2.6-1.7-4.3s.9-3.8,2.7-5.1,4.9-2,8.9-2.4c0-2.3-1.2-3.5-3.4-3.5s-2.3.3-3.6.9c-1.3.6-2.2.4-2.9-.8-.6-1.1-.4-2,.7-2.6,2.3-1.2,4.5-1.8,6.9-1.8s4.5.7,5.9,2.2,2,3.7,2,6.7v9.7c0,1.4-.8,2.2-2.3,2.2s-2.1-.6-2.4-1.9v-.3h-.1c-2.1,1.8-4.1,2.7-6.2,2.7h0ZM138.6,199.3c1.3,0,2.6-.7,3.9-2v-4.1c-2.3.3-4,.8-5.2,1.4-1,.6-1.4,1.4-1.4,2.3,0,1.5.9,2.3,2.7,2.3h-.1Z"/>
          <path class="cls-4" d="M158.3,203.4c-3.3,0-5.1-2-5.1-6.2v-20.6c0-1.7.9-2.6,2.6-2.6s2.6.9,2.6,2.6v20.9c0,1.1.4,1.6,1.1,1.6h0c.2,0,.4,0,.5.3.1.2.2.4.3.7.1.7.1,1.3,0,1.9-.2.7-.5,1.2-1,1.3h-1.3.2,0Z"/>
          <path class="cls-4" d="M167.4,202.9c-1.7,0-2.6-.8-2.6-2.6v-23.8c0-1.7.9-2.6,2.6-2.6s2.6.8,2.6,2.6v14.9h.1l6.2-7.7c.6-.7,1.4-1.1,2.3-1.1h3c.4,0,.7,0,.7.3s0,.4-.3.7l-6.2,7.3,6,9.4c.5.8.7,1.4.4,1.9-.3.5-.9.7-1.8.7h-1c-.5,0-.9,0-1.4-.4-.4-.3-.8-.6-1.1-1l-4.1-7-2.9,3.3v2.5c0,1.7-.9,2.6-2.6,2.6h.2,0Z"/>
          <path class="cls-4" d="M189.5,179.3c-.9,0-1.7-.3-2.3-.8-.6-.5-.9-1.2-.9-2.1s.3-1.6.9-2.1,1.4-.8,2.3-.8,1.7.3,2.2.8c.6.5.9,1.2.9,2.1s-.3,1.5-.9,2.1-1.3.8-2.2.8ZM189.5,202.9c-1.7,0-2.6-.9-2.6-2.6v-15.1c0-1.7.9-2.6,2.6-2.6s2.6.9,2.6,2.6v15.1c0,1.7-.9,2.6-2.6,2.6Z"/>
          <path class="cls-4" d="M200.5,202.9c-1.7,0-2.6-.9-2.6-2.6v-15.5c0-1.4.8-2.2,2.3-2.2s2.1.6,2.3,1.9v.7h.3c2.2-2.1,4.3-3.2,6.6-3.2,4.1,0,6.3,2.7,6.3,8.2v10c0,1.7-.9,2.6-2.6,2.6s-2.7-.9-2.7-2.6v-9.4c0-1.5-.2-2.6-.7-3.3-.4-.6-1.2-1-2.2-1s-1.5.2-2.2.6c-.5.3-1.2.9-2,1.7v11.3c0,1.7-.9,2.6-2.6,2.6v.2h0Z"/>
          <path class="cls-4" d="M228.3,211.7c-2.5,0-4.5-.4-6.1-1.3-1.6-.9-2.4-2.2-2.4-3.9s1-3.1,2.9-4.2v-.2c-1.2-.8-1.8-1.9-1.8-3.4s.2-1.4.7-2.1c.4-.6.9-1.2,1.5-1.7h0c-.7-.7-1.4-1.4-1.8-2.3-.6-1-.8-2-.8-3.1,0-2.3.8-4.1,2.4-5.5,1.5-1.2,3.4-1.9,5.8-1.9s2.1.2,3,.5h5.4c1.3,0,1.9.6,1.9,1.9s-.6,1.9-1.9,1.9h-1.5c.6.8.9,1.8.9,3.1,0,2.2-.8,3.9-2.3,5.2-1.4,1.2-3.2,1.7-5.6,1.7s-1.7-.2-2.6-.5c-.6.5-.9,1-.9,1.7s.2,1,.7,1.2c.5.3,1.3.4,2.5.4h3.4c5.1,0,7.6,1.7,7.6,5.1s-1,3.8-2.9,5.2c-2,1.4-4.7,2-8.1,2v.4h0ZM229.1,208.4c1.5,0,2.7-.3,3.7-.9.9-.6,1.4-1.2,1.4-2.1s-.3-1.2-.9-1.4c-.5-.2-1.3-.4-2.5-.4h-2.4c-1.1,0-2,0-2.8-.3-.9.7-1.3,1.5-1.3,2.3s.4,1.5,1.3,2,2,.7,3.5.7h0ZM228.6,193.2c.9,0,1.7-.3,2.2-1,.6-.7.9-1.6.9-2.7s-.3-2.1-.9-2.7-1.3-1-2.2-1-1.7.3-2.3,1c-.6.7-.9,1.6-.9,2.7s.3,2.1.9,2.7,1.3,1,2.2,1h.1Z"/>
          <path class="cls-4" d="M243.5,194.4c-1.2,0-1.9-.6-1.9-1.9s.6-1.9,1.9-1.9h6.2c1.2,0,1.9.6,1.9,1.9s-.6,1.9-1.9,1.9h-6.2Z"/>
          <path class="cls-5" d="M259.1,202.9c-1.6,0-2.4-.8-2.4-2.4v-22.1c0-.7.2-1.3.6-1.7s1-.6,1.7-.6h1.7c.6,0,1.1.2,1.5.5.5.3.8.7.9,1.3l3.9,10.8c.3.8.6,1.9,1.1,3.5.2.7.4,1.3.5,1.6h.2c.2-.5.4-1.3.8-2.4.4-1.2.6-2.2.9-2.8l3.8-10.8c.2-.5.5-.9.9-1.3.5-.3,1-.5,1.5-.5h2.7c.4,0,.7,0,1,.4s.4.6.4,1v23c0,1.6-.8,2.4-2.4,2.4s-2.4-.8-2.4-2.4v-8.8c0-1.5.2-4.2.6-8.2v-.6h-.1l-2.2,6.4-3.6,9.8c-.2.4-.4.8-.8,1-.4.3-.8.4-1.3.4h-.1c-.9,0-1.6-.4-1.9-1.3l-3.6-9.9-2.1-6.4h-.1c0,.3,0,.7.1,1.3.4,3.6.5,6.2.5,7.6v8.8c0,1.6-.8,2.4-2.4,2.4h.1Z"/>
          <path class="cls-4" d="M292.2,203.4c-1.8,0-3.2-.6-4.3-1.7-1.1-1.1-1.7-2.6-1.7-4.3s.9-3.8,2.7-5.1,4.9-2,8.9-2.4c0-2.3-1.2-3.5-3.4-3.5s-2.3.3-3.6.9c-1.3.6-2.2.4-2.9-.8-.6-1.1-.4-2,.7-2.6,2.3-1.2,4.5-1.8,6.9-1.8s4.5.7,5.9,2.2,2,3.7,2,6.7v9.7c0,1.4-.8,2.2-2.3,2.2s-2.1-.6-2.4-1.9v-.3h-.1c-2.1,1.8-4.1,2.7-6.2,2.7h0ZM293.9,199.3c1.3,0,2.6-.7,3.9-2v-4.1c-2.3.3-4,.8-5.2,1.4-1,.6-1.4,1.4-1.4,2.3,0,1.5.9,2.3,2.7,2.3h-.1Z"/>
          <path class="cls-4" d="M311.3,202.9c-1.7,0-2.6-.9-2.6-2.6v-15.5c0-1.4.8-2.2,2.3-2.2s2.1.6,2.3,1.9v.7h.3c2.2-2.1,4.3-3.2,6.6-3.2,4.1,0,6.3,2.7,6.3,8.2v10c0,1.7-.9,2.6-2.6,2.6s-2.7-.9-2.7-2.6v-9.4c0-1.5-.2-2.6-.7-3.3-.4-.6-1.2-1-2.2-1s-1.5.2-2.2.6c-.5.3-1.2.9-2,1.7v11.3c0,1.7-.9,2.6-2.6,2.6v.2h0Z"/>
          <g>
            <g>
              <path class="cls-5" d="M11.6,203.1c-2.9,0-5.6-.8-8-2.4-1.2-1-1.3-2.1-.3-3.2,1.1-1.3,2.3-1.4,3.7-.4,1.6.9,3.2,1.4,4.7,1.4s2.4-.3,3.1-.8c.7-.5,1.1-1.3,1.1-2.2s-.3-1.6-1-2.1c-.4-.3-1.3-.8-2.7-1.4h-.3l-3.6-1.5c-3.6-1.5-5.5-3.9-5.5-7.3s.9-4,2.6-5.6c1.7-1.5,3.9-2.2,6.7-2.2s4.9.7,6.9,2.1c1,.9,1.1,1.8.2,2.9-1,1.2-2,1.3-3.2.5-1.2-.6-2.4-.9-3.8-.9s-2.1.3-2.8.8-1,1.2-1,2,.4,1.5,1.2,2.1c.5.4,1.4.8,2.8,1.3h.3l3.5,1.5c1.7.7,3,1.6,3.9,2.7,1,1.2,1.5,2.7,1.5,4.6s-.9,4.1-2.6,5.7c-1.8,1.6-4.2,2.4-7.3,2.4h-.2Z"/>
              <path class="cls-2" d="M11.6,205.7c-3.4,0-6.6-1-9.5-2.8l-.2-.2c-1.4-1.2-1.8-2.5-1.9-3.3,0-.9,0-2.2,1.3-3.6,1.9-2.3,4.6-2.6,7.2-.9,1.2.7,2.2,1,3.2,1s1.4-.2,1.6-.3h0s-.5-.5-2.1-1.2h-.3l-3.5-1.5c-5.9-2.4-7.1-6.6-7.1-9.7s1.2-5.6,3.5-7.6c2.2-1.9,5.1-2.8,8.4-2.8s5.9.9,8.4,2.6l.2.2c2.1,1.8,2.3,4.4.5,6.6-1.8,2.2-4.3,2.6-6.7,1.1-.8-.4-1.6-.6-2.5-.6s-.9,0-1.1.2c.2,0,.7.4,2.1,1,.2,0,.3,0,.4.2l3.4,1.4c2.1.9,3.8,2,5,3.4,1.4,1.7,2.1,3.8,2.1,6.3s-1.2,5.7-3.5,7.7-5.4,3.1-9,3.1h0v-.2ZM5.2,199h0ZM5.9,181.4c-.2.5-.3,1-.3,1.6,0,1.5.4,3.4,3.8,4.7l3.7,1.6c1.7.7,2.7,1.2,3.4,1.7,1.4,1.1,2.1,2.5,2.1,4.2s0,1.1-.2,1.6c.3-.6.4-1.3.4-2,0-1.2-.3-2.2-.9-2.9-.6-.7-1.5-1.3-2.8-1.9l-3.7-1.6c-1.6-.6-2.7-1.2-3.4-1.7-1.4-1-2.2-2.5-2.2-4.1s0-.9.2-1.3h-.1ZM17.8,178.7h0Z"/>
            </g>
            <g>
              <path class="cls-4" d="M28.5,202.6c-1.7,0-2.6-.9-2.6-2.6v-15.5c0-1.4.8-2.2,2.3-2.2s2.1.6,2.3,1.9v.8h.3c1-1,1.9-1.8,2.7-2.3,1.1-.6,2.3-.9,3.5-.9,2.7,0,4.5,1.2,5.6,3.5,1.1-1.1,2-2,2.9-2.5,1.1-.7,2.3-1,3.5-1,2.1,0,3.7.7,4.7,2.2,1,1.4,1.5,3.3,1.5,6v10c0,1.7-.9,2.6-2.6,2.6s-2.7-.9-2.7-2.6v-9.4c0-1.5-.2-2.6-.7-3.3-.4-.6-1.1-.9-2.1-.9s-2.4.8-3.9,2.3v11.3c0,1.7-.9,2.6-2.6,2.6s-2.7-.9-2.7-2.6v-9.4c0-1.5-.2-2.6-.7-3.3-.4-.6-1.1-.9-2.1-.9s-2.4.8-3.9,2.3v11.3c0,1.7-.9,2.6-2.6,2.6h0Z"/>
              <path class="cls-2" d="M52.6,205.2c-3.2,0-5.4-2.1-5.4-5.3v-9.4c0-.8,0-1.3-.2-1.6h0s-.4,0-1.3.8v10.2c0,3.2-2.1,5.3-5.3,5.3s-5.4-2.1-5.4-5.3v-9.4c0-.8,0-1.3-.2-1.6h0s-.4,0-1.3.8v10.2c0,3.2-2.1,5.3-5.3,5.3s-5.3-2.1-5.3-5.3v-15.5c0-2.9,1.9-4.9,5-4.9s2.5.4,3.4,1.2c.2,0,.4-.3.6-.4,1.6-.9,3.1-1.3,4.9-1.3s4.4.8,6,2.2c.4-.3.8-.6,1.2-.8,1.5-.9,3.1-1.4,4.9-1.4,3.7,0,5.8,1.7,6.9,3.2,1.4,1.8,2,4.4,2,7.6v10c0,3.2-2.1,5.3-5.3,5.3h0ZM52.6,200.3h0ZM52.6,200h0v-10c0-2-.3-3.5-1-4.4-.3-.4-.7-.7-1.4-1,.6.4,1,.9,1.2,1.2.8,1.1,1.2,2.7,1.2,4.9v9.4h0ZM40.5,200h0v-12.4l-.5-1.1c-.5-1-1.1-1.6-2-1.8.6.4,1,.9,1.3,1.2.8,1.1,1.1,2.7,1.1,4.9v9.4h.1ZM28.5,200h0v-12.3,12.3h0Z"/>
            </g>
            <g>
              <path class="cls-4" d="M65.9,203.1c-1.8,0-3.2-.6-4.3-1.7s-1.7-2.6-1.7-4.3.9-3.8,2.7-5.1,4.9-2,8.9-2.4c0-2.3-1.2-3.5-3.4-3.5s-2.3.3-3.6.9-2.2.4-2.9-.8c-.6-1.1-.4-2,.7-2.6,2.3-1.2,4.5-1.8,6.9-1.8s4.5.7,5.9,2.2,2,3.7,2,6.7v9.7c0,1.4-.8,2.2-2.3,2.2s-2.1-.6-2.4-1.9v-.3h-.1c-2.1,1.8-4.1,2.7-6.2,2.7h0ZM67.6,199c1.3,0,2.6-.7,3.9-2v-4.1c-2.3.3-4,.8-5.2,1.4-1,.6-1.4,1.4-1.4,2.3,0,1.5.9,2.3,2.7,2.3h-.1Z"/>
              <path class="cls-2" d="M65.9,205.7c-2.5,0-4.6-.8-6.3-2.5-1.6-1.6-2.4-3.7-2.4-6.2s1.4-5.6,3.9-7.3c0,0,.2,0,.3-.2-.9-.4-1.7-1.1-2.3-2.2-1.3-2.4-.6-4.9,1.7-6.2,2.7-1.4,5.5-2.1,8.2-2.1s6,1.1,7.8,3.1c1.7,2,2.6,4.9,2.6,8.5v9.7c0,2.9-1.9,4.9-5,4.9s-2.4-.4-3.2-1c-1.8,1-3.6,1.5-5.4,1.5h0ZM74.2,197.8h0v-5.9h0v5.9ZM74.2,189.5v1.1-1.1Z"/>
            </g>
            <g>
              <path class="cls-4" d="M85,202.6c-1.7,0-2.6-.9-2.6-2.6v-15.5c0-1.4.7-2.2,2.2-2.2s2.2.7,2.3,2v1.6h.3c.7-1.3,1.6-2.3,2.6-3s2-1,3.1-1h.5c.6,0,1.1.5,1.3,1s.3,1.1.1,1.8c-.3,1.5-1.2,2.2-2.5,1.9h0c-.9,0-1.7.3-2.5.9-.9.7-1.6,1.7-2.2,3.1v9.5c0,1.7-.9,2.6-2.6,2.6v-.2h0Z"/>
              <path class="cls-2" d="M85,205.2c-3.2,0-5.3-2.1-5.3-5.3v-15.5c0-2.9,1.9-4.9,4.9-4.9s2.6.4,3.4,1.2c0,0,.2,0,.3-.2,1.5-1,3-1.5,4.6-1.5h1c1.4.4,2.5,1.2,3.1,2.5.5,1,.6,2.2.3,3.4-.6,2.8-2.6,4.3-5.3,4-.2,0-.5,0-.8.3-.5.3-.8.8-1.2,1.5v9c0,3.2-2.1,5.3-5.3,5.3h.1ZM85,200h0v-10l.2-.5c.1-.3.3-.7.4-1h-.6v11.4h0ZM92.3,183.7h0Z"/>
            </g>
            <g>
              <path class="cls-4" d="M105.6,203.1c-4.4,0-6.7-2.5-6.7-7.6v-9h-.9c-1.3,0-1.9-.7-1.9-2s.6-2,1.8-2h1.3l.4-3.5c.1-1.4.9-2,2.3-2s2.3.7,2.3,2.2v3.2h2.9c1.4,0,2.1.7,2.1,2.1s-.7,2.1-2.1,2.1h-2.9v9c0,2.3.9,3.4,2.7,3.4h0c1.2-.3,2,.2,2.3,1.5.3,1.2-.1,2-1.2,2.3-.9.2-1.8.3-2.7.3h.2Z"/>
              <path class="cls-2" d="M105.6,205.7c-6,0-9.3-3.7-9.3-10.3v-6.7c-1.7-.6-2.8-2.2-2.8-4.4s1.3-4,3.4-4.5l.2-1.3c.3-2.7,2.2-4.4,5-4.4s5,1.9,5,4.9v.6h.3c2.9,0,4.7,1.8,4.7,4.7s-1.8,4.7-4.7,4.7h-.3v7.1c2.4-.3,4.4,1,5.1,3.6.6,2.7-.6,4.9-3,5.5s-2.3.4-3.4.4v.2ZM101.6,184.6v10.9c0,2.5.6,3.7,1.4,4.3-.8-1-1.4-2.4-1.4-4.3v-11.3s0,.4,0,.4Z"/>
            </g>
            <g>
              <path class="cls-5" d="M121.2,202.6c-1.8,0-2.7-.9-2.7-2.7v-19.7h-5.4c-1.5,0-2.2-.7-2.2-2.2s.7-2.2,2.2-2.2h16.2c1.5,0,2.2.7,2.2,2.2s-.7,2.2-2.2,2.2h-5.5v19.7c0,1.8-.9,2.7-2.7,2.7h.1Z"/>
              <path class="cls-2" d="M121.2,205.2c-3.2,0-5.4-2.1-5.4-5.4v-17.1h-2.7c-2.9,0-4.9-1.9-4.9-4.9s1.9-4.9,4.9-4.9h16.2c2.9,0,4.9,1.9,4.9,4.9s-1.9,4.9-4.9,4.9h-2.7v17.1c0,3.2-2.1,5.4-5.4,5.4ZM121.2,200h0v-21.5h0v21.5h0Z"/>
            </g>
            <g>
              <path class="cls-4" d="M137.7,203.1c-1.8,0-3.2-.6-4.3-1.7-1.1-1.1-1.7-2.6-1.7-4.3s.9-3.8,2.7-5.1,4.9-2,8.9-2.4c0-2.3-1.2-3.5-3.4-3.5s-2.3.3-3.6.9c-1.3.6-2.2.4-2.9-.8-.6-1.1-.4-2,.7-2.6,2.3-1.2,4.5-1.8,6.9-1.8s4.5.7,5.9,2.2,2,3.7,2,6.7v9.7c0,1.4-.8,2.2-2.3,2.2s-2.1-.6-2.4-1.9v-.3h-.1c-2.1,1.8-4.1,2.7-6.2,2.7h0ZM139.4,199c1.3,0,2.6-.7,3.9-2v-4.1c-2.3.3-4,.8-5.2,1.4-1,.6-1.4,1.4-1.4,2.3,0,1.5.9,2.3,2.7,2.3h-.1Z"/>
              <path class="cls-2" d="M137.7,205.7c-2.5,0-4.6-.9-6.3-2.5s-2.4-3.7-2.4-6.2,1.4-5.6,3.9-7.3c0,0,.2,0,.3-.2-.9-.4-1.7-1.1-2.3-2.2-1.3-2.4-.6-4.9,1.7-6.2,2.7-1.4,5.5-2.1,8.2-2.1s6,1.1,7.8,3.1c1.7,2,2.6,4.9,2.6,8.5v9.7c0,2.9-1.9,4.9-5,4.9s-2.4-.4-3.2-1c-1.8,1-3.6,1.5-5.4,1.5h0ZM146,197.8h0v-5.9h0v5.9ZM146,189.6v1.1-1.1Z"/>
            </g>
            <g>
              <path class="cls-4" d="M159.1,203.1c-3.3,0-5.1-2-5.1-6.2v-20.6c0-1.7.9-2.6,2.6-2.6s2.6.9,2.6,2.6v20.9c0,1.1.4,1.6,1.1,1.6h0c.2,0,.4,0,.5.3.1.2.2.4.3.7.1.7.1,1.3,0,1.9-.2.7-.5,1.2-1,1.3h-1.3.2,0Z"/>
              <path class="cls-2" d="M159.1,205.7c-2.3,0-7.7-.9-7.7-8.9v-20.6c0-3.2,2.1-5.3,5.3-5.3s5.3,2.1,5.3,5.3v20.2c.5.2.9.6,1.2,1.1.4.6.6,1.1.7,1.7.2,1.1.2,2.1,0,3-.5,2.4-2,3.1-2.9,3.3h-.4c-.6,0-1.1.2-1.5.2h.1ZM156.8,176.2h0v20.6c0,2.1.4,2.9,1,3.3-.6-.7-1-1.7-1-3v-20.9h0ZM156.7,175.9h0Z"/>
            </g>
            <g>
              <path class="cls-4" d="M168.2,202.6c-1.7,0-2.6-.8-2.6-2.6v-23.8c0-1.7.9-2.6,2.6-2.6s2.6.8,2.6,2.6v14.9h.1l6.2-7.7c.6-.7,1.4-1.1,2.3-1.1h3c.4,0,.7,0,.7.3s0,.4-.3.7l-6.2,7.3,6,9.4c.5.8.7,1.4.4,1.9-.3.5-.9.7-1.8.7h-1c-.5,0-.9,0-1.4-.4-.4-.3-.8-.6-1.1-1l-4.1-7-2.9,3.3v2.5c0,1.7-.9,2.6-2.6,2.6h.2,0Z"/>
              <path class="cls-2" d="M181.3,205.2h-1c-1,0-1.9-.3-2.7-.8-.8-.5-1.4-1.1-1.9-1.8h0l-2.1-3.7v1.1c0,3.1-2,5.3-5.3,5.3s-5.3-2-5.3-5.3v-23.8c0-3.1,2-5.3,5.3-5.3s5.3,2,5.3,5.3v7.5l1.6-2c1.1-1.4,2.6-2.1,4.3-2.1h3c2.1,0,2.9,1.2,3.1,1.8.2.5.7,2-.6,3.5l-5,5.8,5,7.7c1.4,2.1.9,3.8.5,4.6-.5.9-1.7,2.1-4.1,2.1v.2h-.1ZM168.1,200.3h0ZM168.4,200h0ZM168.2,193.7v2.7l2.4-2.7h-2.4ZM168.4,176.3h0ZM168.1,175.9h0Z"/>
            </g>
            <g>
              <path class="cls-4" d="M190.3,179c-.9,0-1.7-.3-2.3-.8-.6-.5-.9-1.2-.9-2.1s.3-1.6.9-2.1,1.4-.8,2.3-.8,1.7.3,2.2.8c.6.5.9,1.2.9,2.1s-.3,1.5-.9,2.1-1.3.8-2.2.8ZM190.2,202.6c-1.7,0-2.6-.9-2.6-2.6v-15.1c0-1.7.9-2.6,2.6-2.6s2.6.9,2.6,2.6v15.1c0,1.7-.9,2.6-2.6,2.6Z"/>
              <path class="cls-2" d="M190.2,205.2c-3.2,0-5.3-2.1-5.3-5.3v-15.1c0-1.8.7-3.3,1.9-4.2-.2-.2-.4-.3-.6-.5-1.2-1-1.8-2.4-1.8-4s.6-3,1.8-4.1c1.1-.9,2.5-1.4,4-1.4s2.9.5,4,1.5,1.8,2.4,1.8,4-.6,2.9-1.7,4c-.2.2-.5.4-.7.6,1.2.9,1.9,2.4,1.9,4.2v15.1c0,3.2-2.1,5.3-5.3,5.3h-.2,0ZM190.3,200.3h0ZM190.2,200h0v-15.1h0v15.1h0ZM189.7,176h0v.2h1v-.3h-1ZM189.7,175.9h0Z"/>
            </g>
            <g>
              <path class="cls-4" d="M201.3,202.6c-1.7,0-2.6-.9-2.6-2.6v-15.5c0-1.4.8-2.2,2.3-2.2s2.1.6,2.3,1.9v.7h.3c2.2-2.1,4.3-3.2,6.6-3.2,4.1,0,6.3,2.7,6.3,8.2v10c0,1.7-.9,2.6-2.6,2.6s-2.7-.9-2.7-2.6v-9.4c0-1.5-.2-2.6-.7-3.3-.4-.6-1.2-1-2.2-1s-1.5.2-2.2.6c-.5.3-1.2.9-2,1.7v11.3c0,1.7-.9,2.6-2.6,2.6v.2h0Z"/>
              <path class="cls-2" d="M213.7,205.2c-3.2,0-5.4-2.1-5.4-5.3v-9.4c0-.9,0-1.3-.1-1.6h0c-.3,0-.6,0-.9.2,0,0-.3.2-.7.6v10.2c0,3.2-2.1,5.3-5.3,5.3s-5.3-2.1-5.3-5.3v-15.5c0-2.9,1.9-4.9,5-4.9s2.6.4,3.4,1.2c1.8-1.2,3.7-1.7,5.8-1.7s8.9,1,8.9,10.8v10c0,3.2-2.1,5.3-5.3,5.3h-.2,0ZM213.6,200h0v-10c0-4.2-1.3-5.3-2.6-5.5.7.4,1.1.9,1.4,1.3.8,1.1,1.1,2.6,1.1,4.9v9.4h.1ZM201.3,200h0v-12.3,12.3h0Z"/>
            </g>
            <g>
              <path class="cls-4" d="M229.1,211.4c-2.5,0-4.5-.4-6.1-1.3-1.6-.9-2.4-2.2-2.4-3.9s1-3.1,2.9-4.2v-.2c-1.2-.8-1.8-1.9-1.8-3.4s.2-1.4.7-2.1c.4-.6.9-1.2,1.5-1.7h0c-.7-.7-1.4-1.4-1.8-2.3-.6-1-.8-2-.8-3.1,0-2.3.8-4.1,2.4-5.5,1.5-1.2,3.4-1.9,5.8-1.9s2.1.2,3,.5h5.4c1.3,0,1.9.6,1.9,1.9s-.6,1.9-1.9,1.9h-1.5c.6.8.9,1.8.9,3.1,0,2.2-.8,3.9-2.3,5.2-1.4,1.2-3.2,1.7-5.6,1.7s-1.7-.2-2.6-.5c-.6.5-.9,1-.9,1.7s.2,1,.7,1.2c.5.3,1.3.4,2.5.4h3.4c5.1,0,7.6,1.7,7.6,5.1s-1,3.8-2.9,5.2c-2,1.4-4.7,2-8.1,2v.4h0ZM229.8,208.1c1.5,0,2.7-.3,3.7-.9.9-.6,1.4-1.2,1.4-2.1s-.3-1.2-.9-1.4c-.5-.2-1.3-.4-2.5-.4h-2.4c-1.1,0-2,0-2.8-.3-.9.7-1.3,1.5-1.3,2.3s.4,1.5,1.3,2,2,.7,3.5.7h0ZM229.4,192.9c.9,0,1.7-.3,2.2-1,.6-.7.9-1.6.9-2.7s-.3-2.1-.9-2.7-1.3-1-2.2-1-1.7.3-2.3,1c-.6.7-.9,1.6-.9,2.7s.3,2.1.9,2.7,1.3,1,2.2,1h.1Z"/>
              <path class="cls-2" d="M229.1,214.1c-2.9,0-5.5-.5-7.4-1.6-2.4-1.4-3.8-3.6-3.8-6.3s.4-3,1.8-4.6c-.5-.9-.7-2-.7-3.2s.4-2.4,1.1-3.5c0,0,.1-.2.2-.3-.2-.3-.4-.6-.6-.9-.8-1.4-1.2-2.9-1.2-4.4,0-3,1.2-5.7,3.4-7.5,2-1.6,4.5-2.5,7.4-2.5s2.3.2,3.4.5h5c2.7,0,4.6,1.8,4.6,4.6s-1,3.5-2.6,4.2v.8c0,3-1.1,5.5-3.2,7.2-.1,0-.3.2-.4.3,5.9,1.2,6.6,5.5,6.6,7.4s-.7,5.1-4.1,7.4c-2.5,1.7-5.7,2.5-9.6,2.5h.2ZM237.2,203c0,.2.2.3.2.5,0-.2-.1-.3-.2-.5ZM229.4,188.1h-.3c-.2.2-.2.7-.2,1s0,.7.2,1h.6c.2-.2.2-.7.2-1s0-.8-.2-1h-.3Z"/>
            </g>
            <g>
              <path class="cls-4" d="M244.3,194.1c-1.2,0-1.9-.6-1.9-1.9s.6-1.9,1.9-1.9h6.2c1.2,0,1.9.6,1.9,1.9s-.6,1.9-1.9,1.9h-6.2Z"/>
              <path class="cls-2" d="M250.5,196.7h-6.2c-2.7,0-4.5-1.8-4.5-4.5s1.8-4.5,4.5-4.5h6.2c2.7,0,4.5,1.8,4.5,4.5s-1.8,4.5-4.5,4.5Z"/>
            </g>
            <g>
              <path class="cls-5" d="M259.9,202.6c-1.6,0-2.4-.8-2.4-2.4v-22.1c0-.7.2-1.3.6-1.7s1-.6,1.7-.6h1.7c.6,0,1.1.2,1.5.5.5.3.8.7.9,1.3l3.9,10.8c.3.8.6,1.9,1.1,3.5.2.7.4,1.3.5,1.6h.2c.2-.5.4-1.3.8-2.4.4-1.2.6-2.2.9-2.8l3.8-10.8c.2-.5.5-.9.9-1.3.5-.3,1-.5,1.5-.5h2.7c.4,0,.7,0,1,.4s.4.6.4,1v23c0,1.6-.8,2.4-2.4,2.4s-2.4-.8-2.4-2.4v-8.8c0-1.5.2-4.2.6-8.2v-.6h-.1l-2.2,6.4-3.6,9.8c-.2.4-.4.8-.8,1-.4.3-.8.4-1.3.4h-.1c-.9,0-1.6-.4-1.9-1.3l-3.6-9.9-2.1-6.4h-.1c0,.3,0,.7.1,1.3.4,3.6.5,6.2.5,7.6v8.8c0,1.6-.8,2.4-2.4,2.4h.1Z"/>
              <path class="cls-2" d="M279.4,205.2c-3.1,0-5.2-2-5.2-5.1v-.9.4c-.5,1-1.1,1.7-1.9,2.3-.8.6-1.8.9-2.7.9h-.1c-2,0-3.6-1.1-4.4-3v-.4c-.1,0-.1.8-.1.8,0,3-2,5.1-5.1,5.1s-5.1-2-5.1-5.1v-22.1c0-1.4.5-2.6,1.4-3.5s2.2-1.4,3.5-1.4h1.7c1.1,0,2.1.3,3,.9s1.6,1.5,1.9,2.6l3.1,8.7,3.1-8.7c.3-1,1-1.9,1.9-2.5s1.9-.9,3-.9h2.7c1.1,0,2.1.4,2.8,1.1.7.7,1.1,1.7,1.1,2.8v23c0,3.1-2,5.1-5.1,5.1h.1ZM279.6,200.4h0ZM269.4,196.1l.2.6.2-.6h-.4ZM277.2,179.9h2v-1.5h-1.4l-.5,1.5h-.1ZM260.1,179.9h2l-.6-1.5h-1.4v1.5Z"/>
            </g>
            <g>
              <path class="cls-4" d="M293,203.1c-1.8,0-3.2-.6-4.3-1.7-1.1-1.1-1.7-2.6-1.7-4.3s.9-3.8,2.7-5.1,4.9-2,8.9-2.4c0-2.3-1.2-3.5-3.4-3.5s-2.3.3-3.6.9c-1.3.6-2.2.4-2.9-.8-.6-1.1-.4-2,.7-2.6,2.3-1.2,4.5-1.8,6.9-1.8s4.5.7,5.9,2.2,2,3.7,2,6.7v9.7c0,1.4-.8,2.2-2.3,2.2s-2.1-.6-2.4-1.9v-.3h-.1c-2.1,1.8-4.1,2.7-6.2,2.7h0ZM294.7,199c1.3,0,2.6-.7,3.9-2v-4.1c-2.3.3-4,.8-5.2,1.4-1,.6-1.4,1.4-1.4,2.3,0,1.5.9,2.3,2.7,2.3h-.1Z"/>
              <path class="cls-2" d="M293,205.7c-2.5,0-4.6-.9-6.3-2.5s-2.4-3.7-2.4-6.2,1.4-5.6,3.9-7.3c0,0,.2,0,.3-.2-.9-.4-1.7-1.1-2.3-2.2-1.3-2.4-.6-4.9,1.7-6.2,2.7-1.4,5.5-2.1,8.2-2.1s6,1.1,7.8,3.1c1.7,2,2.6,4.9,2.6,8.5v9.7c0,2.9-1.9,4.9-5,4.9s-2.4-.4-3.2-1c-1.8,1-3.6,1.5-5.4,1.5h0ZM301.3,197.8h0v-5.9h0v5.9ZM301.3,189.6v1.1-1.1Z"/>
            </g>
            <g>
              <path class="cls-4" d="M312.1,202.6c-1.7,0-2.6-.9-2.6-2.6v-15.5c0-1.4.8-2.2,2.3-2.2s2.1.6,2.3,1.9v.7h.3c2.2-2.1,4.3-3.2,6.6-3.2,4.1,0,6.3,2.7,6.3,8.2v10c0,1.7-.9,2.6-2.6,2.6s-2.7-.9-2.7-2.6v-9.4c0-1.5-.2-2.6-.7-3.3-.4-.6-1.2-1-2.2-1s-1.5.2-2.2.6c-.5.3-1.2.9-2,1.7v11.3c0,1.7-.9,2.6-2.6,2.6v.2h0Z"/>
              <path class="cls-2" d="M324.6,205.2c-3.2,0-5.4-2.1-5.4-5.3v-9.4c0-.9,0-1.3-.1-1.6-.3,0-.6,0-.9.2,0,0-.3.2-.7.6v10.2c0,3.2-2.1,5.3-5.3,5.3s-5.3-2.1-5.3-5.3v-15.5c0-2.9,1.9-4.9,5-4.9s2.6.4,3.4,1.2c1.8-1.2,3.7-1.7,5.8-1.7s8.9,1,8.9,10.8v10c0,3.2-2.1,5.3-5.3,5.3h-.2,0ZM312.1,200.3h0ZM324.6,200h0v-10c0-4.2-1.3-5.3-2.5-5.5.6.4,1,.9,1.4,1.3.8,1.1,1.1,2.6,1.1,4.9v9.4h0ZM312.1,200h0v-12.3,12.3h0Z"/>
            </g>
            <g>
              <path class="cls-4" d="M339.9,203.1c-2.5,0-4.5-.9-6.1-2.8s-2.2-4.4-2.2-7.8.9-5.9,2.6-7.9c1.6-1.9,3.6-2.8,6-2.8s2,.2,2.9.6c.7.3,1.4.8,2.2,1.6l-.2-3.2v-4.5c0-1.7.9-2.6,2.7-2.6s2.6.9,2.6,2.6v24.1c0,.7-.2,1.2-.6,1.6s-1,.5-1.7.5c-1.3,0-2.1-.6-2.3-1.8v-.3h-.2c-1.8,1.7-3.6,2.6-5.7,2.6h-.1ZM341.3,198.8c1.4,0,2.7-.7,3.7-2.1v-8.9c-1.1-1-2.3-1.5-3.7-1.5s-2.2.5-2.9,1.6c-.8,1.1-1.2,2.7-1.2,4.6s.4,3.6,1.1,4.7,1.7,1.6,3.1,1.6h-.1Z"/>
              <path class="cls-2" d="M339.9,205.7c-3.3,0-6.2-1.3-8.2-3.8-1.9-2.3-2.8-5.6-2.8-9.4s1.1-7.1,3.2-9.6,4.9-3.8,7.9-3.8,1.5,0,2.3.3v-3.1c0-3.2,2.1-5.3,5.4-5.3s5.3,2.1,5.3,5.3v24.1c0,1.8-.8,2.9-1.5,3.5-.6.5-1.7,1.2-3.4,1.2s-2.3-.3-3.1-.9c-1.6,1-3.3,1.4-5.1,1.4h.1ZM335.4,187.6c-.8,1.3-1.2,3-1.2,5s.6,4.7,1.7,6.2c.1.2.3.3.4.5-.1-.2-.3-.3-.4-.5-1-1.5-1.5-3.5-1.5-6.2s.3-3.5,1-5ZM347.5,197.9h.3v.2-8.1h0v7.6l-.3.3ZM341.3,188.8c-.3,0-.5,0-.8.5-.5.7-.7,1.7-.7,3.1,0,2,.4,2.9.6,3.2.2.2.3.4.9.4s.6,0,1.1-.5v-6.6c-.4-.2-.7-.2-1.1-.2ZM347.7,180.7v.7-5.1h0v4.4h0Z"/>
            </g>
            <g>
              <path class="cls-4" d="M361.1,203.1c-1.8,0-3.2-.6-4.3-1.7s-1.7-2.6-1.7-4.3.9-3.8,2.7-5.1,4.9-2,8.9-2.4c0-2.3-1.2-3.5-3.4-3.5s-2.3.3-3.6.9-2.2.4-2.9-.8c-.6-1.1-.4-2,.7-2.6,2.3-1.2,4.5-1.8,6.9-1.8s4.5.7,5.9,2.2,2,3.7,2,6.7v9.7c0,1.4-.8,2.2-2.3,2.2s-2.1-.6-2.4-1.9v-.3h0c-2.1,1.8-4.1,2.7-6.2,2.7h-.1ZM362.9,199c1.3,0,2.6-.7,3.9-2v-4.1c-2.3.3-4,.8-5.2,1.4-1,.6-1.4,1.4-1.4,2.3,0,1.5.9,2.3,2.7,2.3h-.1Z"/>
              <path class="cls-2" d="M361.1,205.7c-2.5,0-4.6-.8-6.3-2.5-1.6-1.6-2.4-3.7-2.4-6.2s1.4-5.6,3.9-7.3c0,0,.2,0,.3-.2-.9-.4-1.7-1.1-2.3-2.2-1.3-2.4-.6-4.9,1.7-6.2,2.7-1.4,5.5-2.1,8.2-2.1s6,1.1,7.8,3.1c1.7,2,2.6,4.9,2.6,8.5v9.7c0,2.9-1.9,4.9-5,4.9s-2.4-.4-3.2-1c-1.8,1-3.6,1.5-5.4,1.5h0ZM369.4,197.8h0v-5.9h0v5.9ZM369.4,189.5v1.1-1.1Z"/>
            </g>
            <g>
              <path class="cls-4" d="M380.2,202.6c-1.7,0-2.6-.9-2.6-2.6v-15.5c0-1.4.7-2.2,2.2-2.2s2.2.7,2.3,2v1.6h.3c.7-1.3,1.6-2.3,2.6-3s2-1,3.1-1h.5c.6,0,1.1.5,1.3,1s.3,1.1,0,1.8c-.3,1.5-1.2,2.2-2.5,1.9h0c-.9,0-1.7.3-2.5.9-.9.7-1.6,1.7-2.2,3.1v9.5c0,1.7-.9,2.6-2.6,2.6v-.2h.1Z"/>
              <path class="cls-2" d="M380.2,205.2c-3.2,0-5.3-2.1-5.3-5.3v-15.5c0-2.9,1.9-4.9,4.9-4.9s2.6.4,3.4,1.2c0,0,.2,0,.3-.2,1.5-1,3-1.5,4.6-1.5h1c1.4.4,2.5,1.2,3.1,2.5.5,1.1.6,2.2.3,3.4-.6,2.8-2.6,4.3-5.3,4-.2,0-.5,0-.8.3-.5.3-.8.8-1.2,1.5v9c0,3.2-2.1,5.3-5.3,5.3h.1ZM380.2,200.3h0ZM380.2,200h0v-10l.2-.5c0-.3.3-.7.4-1h-.6v11.4h0Z"/>
            </g>
            <g>
              <path class="cls-4" d="M396.1,179c-.9,0-1.7-.3-2.3-.8s-.9-1.2-.9-2.1.3-1.6.9-2.1c.6-.5,1.4-.8,2.3-.8s1.7.3,2.2.8c.6.5.9,1.2.9,2.1s-.3,1.5-.9,2.1c-.6.6-1.3.8-2.2.8ZM396.1,202.6c-1.7,0-2.6-.9-2.6-2.6v-15.1c0-1.7.9-2.6,2.6-2.6s2.6.9,2.6,2.6v15.1c0,1.7-.9,2.6-2.6,2.6Z"/>
              <path class="cls-2" d="M396.1,205.2c-3.2,0-5.3-2.1-5.3-5.3v-15.1c0-1.8.7-3.3,1.9-4.2-.2,0-.4-.3-.6-.5-1.2-1-1.8-2.4-1.8-4s.6-3,1.8-4.1c1.1-.9,2.5-1.4,4-1.4s2.9.5,4,1.5,1.8,2.4,1.8,4-.6,2.9-1.7,4c-.2.2-.5.4-.7.6,1.2.9,1.9,2.4,1.9,4.2v15.1c0,3.2-2.1,5.3-5.3,5.3h-.2ZM396.1,200h0v-15.1h0v15.1h0ZM395.6,175.9h0v.2s.2.2.5.2h.5v-.3h-1Z"/>
            </g>
            <g>
              <path class="cls-4" d="M407.1,202.6c-1.7,0-2.6-.9-2.6-2.6v-15.5c0-1.4.8-2.2,2.3-2.2s2.1.6,2.3,1.9v.7h.3c2.2-2.1,4.3-3.2,6.6-3.2,4.1,0,6.3,2.7,6.3,8.2v10c0,1.7-.9,2.6-2.6,2.6s-2.7-.9-2.7-2.6v-9.4c0-1.5-.2-2.6-.7-3.3-.4-.6-1.2-1-2.2-1s-1.5.2-2.2.6c-.5.3-1.2.9-2,1.7v11.3c0,1.7-.9,2.6-2.6,2.6v.2h0Z"/>
              <path class="cls-2" d="M419.6,205.2c-3.2,0-5.4-2.1-5.4-5.3v-11c-.3,0-.6,0-.9.2,0,0-.3.2-.7.6v10.2c0,3.2-2.1,5.3-5.3,5.3s-5.3-2.1-5.3-5.3v-15.5c0-2.9,1.9-4.9,5-4.9s2.6.4,3.4,1.2c1.8-1.2,3.7-1.7,5.8-1.7s8.9,1,8.9,10.8v10c0,3.2-2.1,5.3-5.3,5.3h-.3ZM407.1,200.3h0ZM419.5,200h0v-10c0-4.2-1.3-5.3-2.5-5.5.6.4,1,.9,1.4,1.3.8,1.1,1.1,2.6,1.1,4.9v9.4h0ZM407.1,200h0v-12.3,12.3h0Z"/>
            </g>
          </g>
          <g>
            <path class="cls-5" d="M11.6,203.1c-2.9,0-5.6-.8-8-2.4-1.2-1-1.3-2.1-.3-3.2,1.1-1.3,2.3-1.4,3.7-.4,1.6.9,3.2,1.4,4.7,1.4s2.4-.3,3.1-.8c.7-.5,1.1-1.3,1.1-2.2s-.3-1.6-1-2.1c-.4-.3-1.3-.8-2.7-1.4h-.3l-3.6-1.5c-3.6-1.5-5.5-3.9-5.5-7.3s.9-4,2.6-5.6c1.7-1.5,3.9-2.2,6.7-2.2s4.9.7,6.9,2.1c1,.9,1.1,1.8.2,2.9-1,1.2-2,1.3-3.2.5-1.2-.6-2.4-.9-3.8-.9s-2.1.3-2.8.8-1,1.2-1,2,.4,1.5,1.2,2.1c.5.4,1.4.8,2.8,1.3h.3l3.5,1.5c1.7.7,3,1.6,3.9,2.7,1,1.2,1.5,2.7,1.5,4.6s-.9,4.1-2.6,5.7c-1.8,1.6-4.2,2.4-7.3,2.4h-.2Z"/>
            <path class="cls-4" d="M28.5,202.6c-1.7,0-2.6-.9-2.6-2.6v-15.5c0-1.4.8-2.2,2.3-2.2s2.1.6,2.3,1.9v.8h.3c1-1,1.9-1.8,2.7-2.3,1.1-.6,2.3-.9,3.5-.9,2.7,0,4.5,1.2,5.6,3.5,1.1-1.1,2-2,2.9-2.5,1.1-.7,2.3-1,3.5-1,2.1,0,3.7.7,4.7,2.2,1,1.4,1.5,3.3,1.5,6v10c0,1.7-.9,2.6-2.6,2.6s-2.7-.9-2.7-2.6v-9.4c0-1.5-.2-2.6-.7-3.3-.4-.6-1.1-.9-2.1-.9s-2.4.8-3.9,2.3v11.3c0,1.7-.9,2.6-2.6,2.6s-2.7-.9-2.7-2.6v-9.4c0-1.5-.2-2.6-.7-3.3-.4-.6-1.1-.9-2.1-.9s-2.4.8-3.9,2.3v11.3c0,1.7-.9,2.6-2.6,2.6h0Z"/>
            <path class="cls-4" d="M65.9,203.1c-1.8,0-3.2-.6-4.3-1.7s-1.7-2.6-1.7-4.3.9-3.8,2.7-5.1,4.9-2,8.9-2.4c0-2.3-1.2-3.5-3.4-3.5s-2.3.3-3.6.9-2.2.4-2.9-.8c-.6-1.1-.4-2,.7-2.6,2.3-1.2,4.5-1.8,6.9-1.8s4.5.7,5.9,2.2,2,3.7,2,6.7v9.7c0,1.4-.8,2.2-2.3,2.2s-2.1-.6-2.4-1.9v-.3h-.1c-2.1,1.8-4.1,2.7-6.2,2.7h0ZM67.6,199c1.3,0,2.6-.7,3.9-2v-4.1c-2.3.3-4,.8-5.2,1.4-1,.6-1.4,1.4-1.4,2.3,0,1.5.9,2.3,2.7,2.3h-.1Z"/>
            <path class="cls-4" d="M85,202.6c-1.7,0-2.6-.9-2.6-2.6v-15.5c0-1.4.7-2.2,2.2-2.2s2.2.7,2.3,2v1.6h.3c.7-1.3,1.6-2.3,2.6-3s2-1,3.1-1h.5c.6,0,1.1.5,1.3,1s.3,1.1.1,1.8c-.3,1.5-1.2,2.2-2.5,1.9h0c-.9,0-1.7.3-2.5.9-.9.7-1.6,1.7-2.2,3.1v9.5c0,1.7-.9,2.6-2.6,2.6v-.2h0Z"/>
            <path class="cls-4" d="M105.6,203.1c-4.4,0-6.7-2.5-6.7-7.6v-9h-.9c-1.3,0-1.9-.7-1.9-2s.6-2,1.8-2h1.3l.4-3.5c.1-1.4.9-2,2.3-2s2.3.7,2.3,2.2v3.2h2.9c1.4,0,2.1.7,2.1,2.1s-.7,2.1-2.1,2.1h-2.9v9c0,2.3.9,3.4,2.7,3.4h0c1.2-.3,2,.2,2.3,1.5.3,1.2-.1,2-1.2,2.3-.9.2-1.8.3-2.7.3h.2Z"/>
            <path class="cls-5" d="M121.2,202.6c-1.8,0-2.7-.9-2.7-2.7v-19.7h-5.4c-1.5,0-2.2-.7-2.2-2.2s.7-2.2,2.2-2.2h16.2c1.5,0,2.2.7,2.2,2.2s-.7,2.2-2.2,2.2h-5.5v19.7c0,1.8-.9,2.7-2.7,2.7h.1Z"/>
            <path class="cls-4" d="M137.7,203.1c-1.8,0-3.2-.6-4.3-1.7-1.1-1.1-1.7-2.6-1.7-4.3s.9-3.8,2.7-5.1,4.9-2,8.9-2.4c0-2.3-1.2-3.5-3.4-3.5s-2.3.3-3.6.9c-1.3.6-2.2.4-2.9-.8-.6-1.1-.4-2,.7-2.6,2.3-1.2,4.5-1.8,6.9-1.8s4.5.7,5.9,2.2,2,3.7,2,6.7v9.7c0,1.4-.8,2.2-2.3,2.2s-2.1-.6-2.4-1.9v-.3h-.1c-2.1,1.8-4.1,2.7-6.2,2.7h0ZM139.4,199c1.3,0,2.6-.7,3.9-2v-4.1c-2.3.3-4,.8-5.2,1.4-1,.6-1.4,1.4-1.4,2.3,0,1.5.9,2.3,2.7,2.3h-.1Z"/>
            <path class="cls-4" d="M159.1,203.1c-3.3,0-5.1-2-5.1-6.2v-20.6c0-1.7.9-2.6,2.6-2.6s2.6.9,2.6,2.6v20.9c0,1.1.4,1.6,1.1,1.6h0c.2,0,.4,0,.5.3.1.2.2.4.3.7.1.7.1,1.3,0,1.9-.2.7-.5,1.2-1,1.3h-1.3.2,0Z"/>
            <path class="cls-4" d="M168.2,202.6c-1.7,0-2.6-.8-2.6-2.6v-23.8c0-1.7.9-2.6,2.6-2.6s2.6.8,2.6,2.6v14.9h.1l6.2-7.7c.6-.7,1.4-1.1,2.3-1.1h3c.4,0,.7,0,.7.3s0,.4-.3.7l-6.2,7.3,6,9.4c.5.8.7,1.4.4,1.9-.3.5-.9.7-1.8.7h-1c-.5,0-.9,0-1.4-.4-.4-.3-.8-.6-1.1-1l-4.1-7-2.9,3.3v2.5c0,1.7-.9,2.6-2.6,2.6h.2,0Z"/>
            <path class="cls-4" d="M190.3,179c-.9,0-1.7-.3-2.3-.8-.6-.5-.9-1.2-.9-2.1s.3-1.6.9-2.1,1.4-.8,2.3-.8,1.7.3,2.2.8c.6.5.9,1.2.9,2.1s-.3,1.5-.9,2.1-1.3.8-2.2.8ZM190.2,202.6c-1.7,0-2.6-.9-2.6-2.6v-15.1c0-1.7.9-2.6,2.6-2.6s2.6.9,2.6,2.6v15.1c0,1.7-.9,2.6-2.6,2.6Z"/>
            <path class="cls-4" d="M201.3,202.6c-1.7,0-2.6-.9-2.6-2.6v-15.5c0-1.4.8-2.2,2.3-2.2s2.1.6,2.3,1.9v.7h.3c2.2-2.1,4.3-3.2,6.6-3.2,4.1,0,6.3,2.7,6.3,8.2v10c0,1.7-.9,2.6-2.6,2.6s-2.7-.9-2.7-2.6v-9.4c0-1.5-.2-2.6-.7-3.3-.4-.6-1.2-1-2.2-1s-1.5.2-2.2.6c-.5.3-1.2.9-2,1.7v11.3c0,1.7-.9,2.6-2.6,2.6v.2h0Z"/>
            <path class="cls-4" d="M229.1,211.4c-2.5,0-4.5-.4-6.1-1.3-1.6-.9-2.4-2.2-2.4-3.9s1-3.1,2.9-4.2v-.2c-1.2-.8-1.8-1.9-1.8-3.4s.2-1.4.7-2.1c.4-.6.9-1.2,1.5-1.7h0c-.7-.7-1.4-1.4-1.8-2.3-.6-1-.8-2-.8-3.1,0-2.3.8-4.1,2.4-5.5,1.5-1.2,3.4-1.9,5.8-1.9s2.1.2,3,.5h5.4c1.3,0,1.9.6,1.9,1.9s-.6,1.9-1.9,1.9h-1.5c.6.8.9,1.8.9,3.1,0,2.2-.8,3.9-2.3,5.2-1.4,1.2-3.2,1.7-5.6,1.7s-1.7-.2-2.6-.5c-.6.5-.9,1-.9,1.7s.2,1,.7,1.2c.5.3,1.3.4,2.5.4h3.4c5.1,0,7.6,1.7,7.6,5.1s-1,3.8-2.9,5.2c-2,1.4-4.7,2-8.1,2v.4h0ZM229.8,208.1c1.5,0,2.7-.3,3.7-.9.9-.6,1.4-1.2,1.4-2.1s-.3-1.2-.9-1.4c-.5-.2-1.3-.4-2.5-.4h-2.4c-1.1,0-2,0-2.8-.3-.9.7-1.3,1.5-1.3,2.3s.4,1.5,1.3,2,2,.7,3.5.7h0ZM229.4,192.9c.9,0,1.7-.3,2.2-1,.6-.7.9-1.6.9-2.7s-.3-2.1-.9-2.7-1.3-1-2.2-1-1.7.3-2.3,1c-.6.7-.9,1.6-.9,2.7s.3,2.1.9,2.7,1.3,1,2.2,1h.1Z"/>
            <path class="cls-4" d="M244.3,194.1c-1.2,0-1.9-.6-1.9-1.9s.6-1.9,1.9-1.9h6.2c1.2,0,1.9.6,1.9,1.9s-.6,1.9-1.9,1.9h-6.2Z"/>
            <path class="cls-5" d="M259.9,202.6c-1.6,0-2.4-.8-2.4-2.4v-22.1c0-.7.2-1.3.6-1.7s1-.6,1.7-.6h1.7c.6,0,1.1.2,1.5.5.5.3.8.7.9,1.3l3.9,10.8c.3.8.6,1.9,1.1,3.5.2.7.4,1.3.5,1.6h.2c.2-.5.4-1.3.8-2.4.4-1.2.6-2.2.9-2.8l3.8-10.8c.2-.5.5-.9.9-1.3.5-.3,1-.5,1.5-.5h2.7c.4,0,.7,0,1,.4s.4.6.4,1v23c0,1.6-.8,2.4-2.4,2.4s-2.4-.8-2.4-2.4v-8.8c0-1.5.2-4.2.6-8.2v-.6h-.1l-2.2,6.4-3.6,9.8c-.2.4-.4.8-.8,1-.4.3-.8.4-1.3.4h-.1c-.9,0-1.6-.4-1.9-1.3l-3.6-9.9-2.1-6.4h-.1c0,.3,0,.7.1,1.3.4,3.6.5,6.2.5,7.6v8.8c0,1.6-.8,2.4-2.4,2.4h.1Z"/>
            <path class="cls-4" d="M293,203.1c-1.8,0-3.2-.6-4.3-1.7-1.1-1.1-1.7-2.6-1.7-4.3s.9-3.8,2.7-5.1,4.9-2,8.9-2.4c0-2.3-1.2-3.5-3.4-3.5s-2.3.3-3.6.9c-1.3.6-2.2.4-2.9-.8-.6-1.1-.4-2,.7-2.6,2.3-1.2,4.5-1.8,6.9-1.8s4.5.7,5.9,2.2,2,3.7,2,6.7v9.7c0,1.4-.8,2.2-2.3,2.2s-2.1-.6-2.4-1.9v-.3h-.1c-2.1,1.8-4.1,2.7-6.2,2.7h0ZM294.7,199c1.3,0,2.6-.7,3.9-2v-4.1c-2.3.3-4,.8-5.2,1.4-1,.6-1.4,1.4-1.4,2.3,0,1.5.9,2.3,2.7,2.3h-.1Z"/>
            <path class="cls-4" d="M312.1,202.6c-1.7,0-2.6-.9-2.6-2.6v-15.5c0-1.4.8-2.2,2.3-2.2s2.1.6,2.3,1.9v.7h.3c2.2-2.1,4.3-3.2,6.6-3.2,4.1,0,6.3,2.7,6.3,8.2v10c0,1.7-.9,2.6-2.6,2.6s-2.7-.9-2.7-2.6v-9.4c0-1.5-.2-2.6-.7-3.3-.4-.6-1.2-1-2.2-1s-1.5.2-2.2.6c-.5.3-1.2.9-2,1.7v11.3c0,1.7-.9,2.6-2.6,2.6v.2h0Z"/>
            <path class="cls-4" d="M339.9,203.1c-2.5,0-4.5-.9-6.1-2.8s-2.2-4.4-2.2-7.8.9-5.9,2.6-7.9c1.6-1.9,3.6-2.8,6-2.8s2,.2,2.9.6c.7.3,1.4.8,2.2,1.6l-.2-3.2v-4.5c0-1.7.9-2.6,2.7-2.6s2.6.9,2.6,2.6v24.1c0,.7-.2,1.2-.6,1.6s-1,.5-1.7.5c-1.3,0-2.1-.6-2.3-1.8v-.3h-.2c-1.8,1.7-3.6,2.6-5.7,2.6h-.1ZM341.3,198.8c1.4,0,2.7-.7,3.7-2.1v-8.9c-1.1-1-2.3-1.5-3.7-1.5s-2.2.5-2.9,1.6c-.8,1.1-1.2,2.7-1.2,4.6s.4,3.6,1.1,4.7,1.7,1.6,3.1,1.6h-.1Z"/>
            <path class="cls-4" d="M361.1,203.1c-1.8,0-3.2-.6-4.3-1.7s-1.7-2.6-1.7-4.3.9-3.8,2.7-5.1,4.9-2,8.9-2.4c0-2.3-1.2-3.5-3.4-3.5s-2.3.3-3.6.9-2.2.4-2.9-.8c-.6-1.1-.4-2,.7-2.6,2.3-1.2,4.5-1.8,6.9-1.8s4.5.7,5.9,2.2,2,3.7,2,6.7v9.7c0,1.4-.8,2.2-2.3,2.2s-2.1-.6-2.4-1.9v-.3h0c-2.1,1.8-4.1,2.7-6.2,2.7h-.1ZM362.9,199c1.3,0,2.6-.7,3.9-2v-4.1c-2.3.3-4,.8-5.2,1.4-1,.6-1.4,1.4-1.4,2.3,0,1.5.9,2.3,2.7,2.3h-.1Z"/>
            <path class="cls-4" d="M380.2,202.6c-1.7,0-2.6-.9-2.6-2.6v-15.5c0-1.4.7-2.2,2.2-2.2s2.2.7,2.3,2v1.6h.3c.7-1.3,1.6-2.3,2.6-3s2-1,3.1-1h.5c.6,0,1.1.5,1.3,1s.3,1.1,0,1.8c-.3,1.5-1.2,2.2-2.5,1.9h0c-.9,0-1.7.3-2.5.9-.9.7-1.6,1.7-2.2,3.1v9.5c0,1.7-.9,2.6-2.6,2.6v-.2h.1Z"/>
            <path class="cls-4" d="M396.1,179c-.9,0-1.7-.3-2.3-.8s-.9-1.2-.9-2.1.3-1.6.9-2.1c.6-.5,1.4-.8,2.3-.8s1.7.3,2.2.8c.6.5.9,1.2.9,2.1s-.3,1.5-.9,2.1c-.6.6-1.3.8-2.2.8ZM396.1,202.6c-1.7,0-2.6-.9-2.6-2.6v-15.1c0-1.7.9-2.6,2.6-2.6s2.6.9,2.6,2.6v15.1c0,1.7-.9,2.6-2.6,2.6Z"/>
            <path class="cls-4" d="M407.1,202.6c-1.7,0-2.6-.9-2.6-2.6v-15.5c0-1.4.8-2.2,2.3-2.2s2.1.6,2.3,1.9v.7h.3c2.2-2.1,4.3-3.2,6.6-3.2,4.1,0,6.3,2.7,6.3,8.2v10c0,1.7-.9,2.6-2.6,2.6s-2.7-.9-2.7-2.6v-9.4c0-1.5-.2-2.6-.7-3.3-.4-.6-1.2-1-2.2-1s-1.5.2-2.2.6c-.5.3-1.2.9-2,1.7v11.3c0,1.7-.9,2.6-2.6,2.6v.2h0Z"/>
          </g>
        </g>
      </g>
    </g>
  </g>
</svg>