<?xml version="1.0" encoding="UTF-8"?>
<svg xmlns="http://www.w3.org/2000/svg" version="1.1" viewBox="0 0 500 129.7">
  <defs>
    <style>
      .cls-1 {
        fill: #4eb3b3;
      }

      .cls-2 {
        fill: #fff;
      }

      .cls-3 {
        fill: #2e4572;
      }

      .cls-4 {
        fill: #e3e3e2;
      }

      .cls-5 {
        fill: #aeb2b7;
      }

      .cls-6 {
        fill: #23335b;
      }
    </style>
  </defs>
  <!-- Generator: Adobe Illustrator 28.7.1, SVG Export Plug-In . SVG Version: 1.2.0 Build 142)  -->
  <g>
    <g id="_圖層_1" data-name="圖層_1">
      <g>
        <g>
          <g>
            <g>
              <g>
                <g>
                  <path class="cls-2" d="M14.8,82c-7.8-3.1-11-13.5-6-20.3,1.1-1.4,4.8-5.9,6.4-3.5,5.8,8.9,2.3,20.7,0,23.9,0,0,0,0-.1,0-.1,0,0,0-.2,0h0Z"/>
                  <path class="cls-2" d="M15.1,82.6c0,0-.1,0-.2,0h0s0,0,0,0c0,0,0,0,0,0h-.1s0,0,0,0c-3.9-1.5-6.9-4.9-8.1-9.2-1.2-4.2-.5-8.6,1.9-11.9,1-1.3,3.6-4.5,5.7-4.4.6,0,1.2.4,1.6.9,5.9,9.1,2.3,21.1,0,24.4,0,0-.1.1-.2.2,0,0-.2,0-.2,0ZM13.9,58c-1.2,0-3.3,2-4.8,4-2.3,3.1-2.9,7.1-1.8,11,1.1,3.9,4,7.1,7.5,8.5,2.3-3.4,5.3-14.6-.1-23-.3-.4-.6-.5-.8-.5,0,0,0,0,0,0Z"/>
                </g>
                <g>
                  <path class="cls-2" d="M14.8,82c-7.8-3.1-11-13.5-6-20.3,1.1-1.4,4.8-5.9,6.4-3.5,5.8,8.9,2.3,20.7,0,23.9,0,0,0,0-.1,0-.1,0,0,0-.2,0h0Z"/>
                  <path class="cls-2" d="M15.1,88.4c-.4,0-.9,0-1.3-.1,0,0-.2,0-.2,0-.1,0-.3,0-.4-.1,0,0-.2,0-.3,0-.1,0-.3-.1-.4-.1h0s0,0,0,0h0c-5.5-2.2-9.9-7-11.6-13-1.7-6-.7-12.2,2.8-17,3.5-4.6,7-6.9,10.6-6.8,2.6,0,4.8,1.4,6.3,3.6,7.3,11.4,3.4,26.1-.2,31-.7,1-1.6,1.7-2.7,2.1-.8.3-1.6.5-2.4.5ZM14.8,82h0Z"/>
                </g>
              </g>
              <g>
                <g>
                  <path class="cls-2" d="M14.8,82c-.2,0-.5,0-.7-.2-1.1-.6-2.6-1.3-3.1-2.3-.5-1.2,0-2.5,0-3.7.4-4.5.6-9.5.5-14,0-1.4-.2-3.1,1.1-3.9.7-.5,1.6-.8,1.8.2.4,7.5.5,15,.7,22.5,0,.5.2,1.1-.2,1.5h0Z"/>
                  <path class="cls-2" d="M14.7,82.5c-.3,0-.6-.1-.8-.2l-.4-.2c-1.1-.6-2.5-1.3-3-2.4-.4-.9-.3-1.9-.2-2.8,0-.4,0-.7,0-1.1.3-3.5.6-8.8.5-14,0-.2,0-.3,0-.5,0-1.3,0-2.9,1.4-3.8.7-.5,1.3-.7,1.8-.5.3,0,.6.3.7.9.3,5.1.4,10.3.5,15.2,0,2.5.1,4.9.2,7.4,0,.2,0,.3,0,.4,0,.4,0,1-.4,1.4,0,0,0,0-.2,0,0,0-.1,0-.1,0,0,0-.1,0-.2,0ZM14.8,82h0,0ZM13.8,57.9c-.1,0-.4,0-.9.4-1,.6-1,1.8-.9,3,0,.2,0,.4,0,.5,0,5.2-.3,10.5-.5,14,0,.4,0,.7,0,1.1,0,.9-.2,1.7.1,2.4.3.8,1.6,1.4,2.5,1.9l.4.2c.2,0,.3.1.3.1,0-.1,0-.3,0-.5,0-.2,0-.3,0-.5,0-2.4-.1-4.9-.2-7.3-.1-5-.2-10.1-.5-15.1,0,0,0-.1-.1-.2,0,0,0,0,0,0Z"/>
                </g>
                <g>
                  <path class="cls-2" d="M14.8,82c-.2,0-.5,0-.7-.2-1.1-.6-2.6-1.3-3.1-2.3-.5-1.2,0-2.5,0-3.7.4-4.5.6-9.5.5-14,0-1.4-.2-3.1,1.1-3.9.7-.5,1.6-.8,1.8.2.4,7.5.5,15,.7,22.5,0,.5.2,1.1-.2,1.5h0Z"/>
                  <path class="cls-2" d="M14.7,88.4c-1.6,0-2.9-.6-3.3-.8,0,0-.2,0-.3-.1l-.3-.2c-1.6-.8-4.3-2.2-5.6-5.2,0,0,0-.1,0-.2-.9-2.3-.7-4.4-.6-5.7,0-.2,0-.4,0-.6,0-.1,0-.3,0-.4.3-3.4.6-8.4.5-13.4v-.5c0-1.7-.2-6.2,4-8.9,3.1-2.1,5.8-1.6,7.1-1.1,2.2.8,3.7,2.6,4.3,5,0,.4.2.8.2,1.1.3,5.1.4,10.3.5,15.3,0,2.4.1,4.9.2,7.3,0,0,0,.2,0,.3.2,3.2-1.2,5.1-2.4,6.2-.6.5-1.3.9-2,1.2-.3.1-.7.2-1,.3-.5,0-.9.1-1.3.1ZM14.9,82h0,0ZM21.5,80.9s0,0,0,0c0,0,0,0,0,0ZM21.5,80.8h0s0,0,0,0ZM21.5,80.8h0s0,0,0,0Z"/>
                </g>
              </g>
            </g>
            <g>
              <g>
                <g>
                  <path class="cls-2" d="M66.2,47.1c-13.8,1.4-12,28.1-10.4,38.5,1.5,12.3,7.8,39.1,10.8,37.6,2.8.6,8.8-22.9,10.3-35.9,1.9-11.6,3.6-39.9-10.5-40.2h-.1Z"/>
                  <path class="cls-2" d="M66.3,123.8c-.2,0-.4,0-.6-.2-3.6-1.9-9.1-27.6-10.4-38-.4-2.6-3.7-25.5,3.7-35,1.9-2.4,4.3-3.8,7.1-4.1,0,0,0,0,0,0h.1c2.9,0,5.4,1.3,7.3,3.6,6.6,7.9,5.5,27.1,3.8,37.2-1.4,11.9-6.7,33.8-9.9,36.1-.3.2-.5.3-.8.3,0,0-.2,0-.3,0ZM66.2,47.6c-2.6.3-4.8,1.5-6.5,3.7-7.1,9.2-3.9,31.8-3.5,34.3,1.5,12.3,7.1,35.7,9.9,37.2,0,0,.1,0,.1,0,0,0,.2,0,.3,0,0,0,0,0,.2,0,2.7-2,8.1-23.1,9.5-35.4,1.5-9.3,2.8-28.8-3.6-36.5-1.7-2.1-3.9-3.2-6.5-3.2h0Z"/>
                </g>
                <g>
                  <path class="cls-2" d="M66.2,47.1c-13.8,1.4-12,28.1-10.4,38.5,1.5,12.3,7.8,39.1,10.8,37.6,2.8.6,8.8-22.9,10.3-35.9,1.9-11.6,3.6-39.9-10.5-40.2h-.1Z"/>
                  <path class="cls-2" d="M66.3,129.7c-1.1,0-2.3-.3-3.4-.9-2.5-1.4-5-3.8-8.9-19.1-2-7.8-3.8-17.1-4.6-23.2-1-6.6-3.6-28.5,4.8-39.4,2.8-3.7,6.7-5.9,11.2-6.3.1,0,.2,0,.3,0h.1c.1,0,.3,0,.4,0,4.6.1,8.6,2.1,11.6,5.7,9.4,11.4,5.9,36.4,5.1,41.8-.7,6.3-2.4,14.8-4.4,22.4-3.9,14.7-6.4,16.5-7.9,17.6-1,.7-2.2,1.2-3.4,1.3-.4,0-.8,0-1.1,0ZM70.4,118.8h0,0ZM66.5,53.5c-.6.1-1.3.4-2.1,1.4-3.8,4.9-4,18.7-2.3,29.8,0,0,0,.1,0,.2.8,6.3,2.6,15.1,4.4,22.3,1.7-6.3,3.3-14,4-20.5,0-.1,0-.2,0-.3,2-11.9,1.7-27-2.3-31.8-.6-.8-1.2-1-1.8-1.1Z"/>
                </g>
              </g>
              <g>
                <g>
                  <path class="cls-2" d="M117.8,70c-.6,35.2-28.1,33.7-55.9,33.5-13.2-.2-28.4.8-39-8.3-8.6-7.8-7.3-19.3-7.5-30.5.3-21.2,16.7-26.8,35.1-27.2,27.4.5,67.6-6.8,67.4,32.3v.2Z"/>
                  <path class="cls-2" d="M71.9,104c-2.5,0-4.9,0-7.4,0h-2.6c-1.5,0-3.1,0-4.6,0-11.8,0-25.2-.2-34.7-8.3-7.7-7-7.7-17.1-7.6-26.8,0-1.4,0-2.7,0-4.1.2-18.2,11.9-27.2,35.5-27.6,3.9,0,7.9,0,12.1-.1,17.4-.4,37.1-.8,47.7,9.7,5.4,5.4,8.1,12.9,8,23.2v.2s0,0,0,0c-.5,31.4-21.9,34-46.3,34ZM50.4,38c-23,.4-34.3,9.2-34.6,26.7,0,1.4,0,2.7,0,4.1,0,9.9,0,19.3,7.3,26,9.2,7.9,21.9,8,34.1,8.1,1.6,0,3.1,0,4.6,0h2.6c26.9.3,52.2.6,52.8-33v-.2c0-9.9-2.5-17.3-7.7-22.5-10.4-10.2-29.8-9.8-47-9.4-4.3,0-8.3.2-12.2.1ZM117.8,70h0,0Z"/>
                </g>
                <g>
                  <path class="cls-2" d="M117.8,70c-.6,35.2-28.1,33.7-55.9,33.5-13.2-.2-28.4.8-39-8.3-8.6-7.8-7.3-19.3-7.5-30.5.3-21.2,16.7-26.8,35.1-27.2,27.4.5,67.6-6.8,67.4,32.3v.2Z"/>
                  <path class="cls-2" d="M71.7,109.8c-2.4,0-4.9,0-7.3,0h-2.6c-1.6,0-3.1,0-4.6,0-12.8,0-27.3-.2-38.5-9.7,0,0-.1,0-.2-.1-9.6-8.8-9.6-20.6-9.5-31.1,0-1.3,0-2.7,0-4,0,0,0-.1,0-.2.2-14.9,7.5-32.8,41.3-33.4,0,0,.2,0,.2,0,3.7,0,7.7,0,11.9-.1,18.5-.4,39.5-.8,51.9,11.4,6.5,6.4,9.8,15.6,9.8,27.4v.2s0,0,0,0c-.3,17.8-7.2,29.7-20.6,35.4-9.1,3.8-20.4,4.4-31.8,4.4ZM27,90.4c7.6,6.5,19.1,6.5,30.3,6.6,1.6,0,3.2,0,4.7,0h2.6c29.6.3,46.4-.8,46.9-27.2h0c0-8.4-1.9-14.4-6-18.4-8.6-8.5-26.8-8.1-42.8-7.7-4.3,0-8.3.2-12.3.1-25.2.5-28.6,11.4-28.7,20.8,0,1.4,0,2.7,0,4.1,0,8.9,0,16.6,5.3,21.6ZM117.8,70h0,0Z"/>
                </g>
              </g>
            </g>
            <g>
              <g>
                <path class="cls-2" d="M63.7,44.6c-13.7,1.3-12,28-10.3,38.5,1.5,12.3,7.8,39.1,10.8,37.6,2.7-.3,7.1-16,9.6-31.4,1.5-9.6,2.7-18.9,1.5-28.3-1.1-8.2-3.7-16.3-11.4-16.5h-.1ZM64.2,94.6c-1.5-.3-1.6-6.3.2-6.1,1.4.8,1.4,5.6-.1,6.1h0ZM71.9,82.1c-2.6,2.6-12,2.4-15.1.8-2.4-1.2-2.4-4.1-2.9-6.6-.4-3.1-.6-6.9-.5-9.7-.3-4.9,3-8.7,7.8-9.7,5.2-1.3,12.1,1.8,12.8,7.5.3,2.5.2,6.7-.2,10.4-.5,3.3-.5,5.5-1.9,7.3h0Z"/>
                <path class="cls-2" d="M63.8,121.3c-.2,0-.4,0-.6-.2-3.6-1.9-9.1-27.6-10.4-38-.4-2.6-3.8-25.4,3.7-35,1.9-2.4,4.2-3.8,7.1-4,0,0,0,0,0,0h.1c8.7.2,11,9.7,12,16.9,1.2,9.6,0,18.9-1.5,28.4-2.1,12.9-6.5,31.1-9.9,31.8-.1,0-.2,0-.4,0ZM63.7,45.1c-2.6.3-4.7,1.5-6.4,3.7-5.8,7.6-4.9,25.1-3.5,34.3,1.5,12.3,7.1,35.7,9.9,37.2,0,0,.1,0,.1,0,0,0,.1,0,.2,0,2-.2,6.4-13.8,9.2-31,1.5-9.4,2.7-18.7,1.5-28.2-1.5-10.8-5-15.9-11-16.1h0ZM64.3,95.1s-.1,0-.2,0c-1.4-.2-1.7-2.9-1.5-4.7.3-2.3,1.4-2.4,1.9-2.3,0,0,.1,0,.2,0,1,.6,1.4,2.6,1.2,4.3-.2,1.5-.7,2.4-1.5,2.7,0,0,0,0-.1,0ZM64.3,89c-.3,0-.6.8-.7,1.5-.2,1.7.2,3.3.6,3.6.3-.2.6-.8.7-1.8.1-1.4-.2-2.8-.6-3.3ZM63.9,84.5c-2.9,0-5.8-.5-7.3-1.3-2.2-1.1-2.6-3.5-3-5.8,0-.4-.1-.8-.2-1.2-.4-3.1-.6-6.9-.5-9.8-.3-5,3-9.1,8.2-10.2,3.1-.8,6.7,0,9.5,1.8,2.2,1.5,3.6,3.7,3.9,6.1.3,2.4.3,6.6-.2,10.5,0,.6-.1,1.1-.2,1.6-.3,2.6-.6,4.4-1.8,6h-.1c0,.1,0,.1,0,.1-1.5,1.5-5,2.2-8.4,2.2ZM63.7,56.9c-.8,0-1.6,0-2.3.3-4.7,1-7.7,4.7-7.5,9.2-.1,3,0,6.7.5,9.7,0,.4.1.8.2,1.2.3,2.1.6,4.1,2.4,5,2.9,1.6,12.1,1.8,14.5-.7h0c1-1.4,1.2-3.2,1.5-5.6,0-.5.1-1,.2-1.6.4-3.8.5-7.9.2-10.2-.2-2.1-1.5-4.1-3.4-5.4-1.8-1.3-4.1-2-6.4-2ZM71.9,82.1h0,0Z"/>
              </g>
              <g>
                <path class="cls-2" d="M63.7,44.6c-13.7,1.3-12,28-10.3,38.5,1.5,12.3,7.8,39.1,10.8,37.6,2.7-.3,7.1-16,9.6-31.4,1.5-9.6,2.7-18.9,1.5-28.3-1.1-8.2-3.7-16.3-11.4-16.5h-.1ZM64.2,94.6c-1.5-.3-1.6-6.3.2-6.1,1.4.8,1.4,5.6-.1,6.1h0ZM71.9,82.1c-2.6,2.6-12,2.4-15.1.8-2.4-1.2-2.4-4.1-2.9-6.6-.4-3.1-.6-6.9-.5-9.7-.3-4.9,3-8.7,7.8-9.7,5.2-1.3,12.1,1.8,12.8,7.5.3,2.5.2,6.7-.2,10.4-.5,3.3-.5,5.5-1.9,7.3h0Z"/>
                <path class="cls-2" d="M63.8,127.1c-1.1,0-2.3-.3-3.4-.9-2.5-1.4-5-3.8-8.9-19.1-2-7.8-3.8-17-4.6-23.2-.8-4.9-3.9-28.2,4.8-39.4,2.8-3.7,6.7-5.9,11.2-6.3.1,0,.2,0,.3,0h.1c.1,0,.3,0,.4,0,9.7.2,15.6,7.6,17.6,22,0,0,0,0,0,0,1.2,10.3,0,20.1-1.6,30-1.3,7.9-3,16-4.9,22.2-2.5,8.2-4.8,13.3-9.4,14.3-.6.2-1.2.3-1.8.3ZM67.9,116.3h0,0ZM63.1,100.9c.3,1.3.6,2.6.9,3.8.3-1.2.6-2.4.9-3.8-.6,0-1.2,0-1.8,0,0,0,0,0,0,0ZM63.9,93.4l-.2,1.5c1,.1,1.8,0,2.6-.3.3-1.4.5-2.8.8-4.3-.7,0-1.5.1-2.2.1l-.6,3.8v.5-.2s0,.2,0,.2v-.2l-.3-1ZM60.9,90.2c.2,1.1.4,2.3.7,3.5l1.6-2.8-.2-.5c-.7,0-1.4,0-2.1-.1ZM60.6,77.4c1.7.3,4.8.4,6.6,0,0-.6.2-1.4.3-2.1,0-.5.1-1,.2-1.5.3-3.3.4-6.9.2-8.8,0,0,0,0,0-.1,0-.5-.6-1-1-1.3-1.1-.8-2.8-1.1-3.9-.8,0,0-.2,0-.2,0-.9.2-3,.9-2.8,3.2,0,.2,0,.4,0,.6-.1,2.5,0,5.8.4,8.5,0,.4.1.8.2,1.2,0,.3,0,.6.2,1Z"/>
              </g>
            </g>
            <g>
              <g>
                <path class="cls-2" d="M113.1,68.1c1.7,38-30.9,32.3-58.7,32.8-13.5-.3-31.3-.3-38.1-14.1-3.8-8.5-3.4-19.1-2.6-28.3,1.2-14.2,10.9-20.7,23.9-22.5,8.4-1.3,17.7-1,26-1,13,.2,28.1-.9,39,5.9,8.8,5,10.3,16.3,10.4,27.2v.2Z"/>
                <path class="cls-2" d="M70.9,101.5c-1.9,0-3.9,0-5.8,0-3.5,0-7.2,0-10.7,0h-1.4c-13.6-.3-30.5-.7-37.2-14.4-3.8-8.4-3.5-18.7-2.6-28.6,1.1-13.1,9.3-20.8,24.3-22.9,7.2-1.1,15-1.1,22.5-1,1.2,0,2.4,0,3.6,0,1.8,0,3.6,0,5.4,0,11.9,0,24.3,0,33.9,5.9,9.2,5.2,10.5,16.9,10.7,27.6v.2c.5,11-1.8,18.9-6.9,24.3-7.9,8.2-21.7,9.1-35.8,9.1ZM59.2,100.4c2,0,4,0,5.9,0,15.8.1,32.1.3,40.8-8.7,5-5.2,7.2-12.9,6.7-23.6,0,0,0,0,0,0v-.2c-.1-10.4-1.4-21.8-10.2-26.7-9.4-5.8-21.6-5.8-33.4-5.8-1.8,0-3.6,0-5.4,0-1.2,0-2.4,0-3.6,0-7.5,0-15.2,0-22.3,1-14.5,2-22.4,9.5-23.5,22.1-.8,9.7-1.1,19.9,2.6,28.1,6.4,13.1,23,13.5,36.3,13.8h1.4c1.6,0,3.2,0,4.8,0Z"/>
              </g>
              <g>
                <path class="cls-2" d="M113.1,68.1c1.7,38-30.9,32.3-58.7,32.8-13.5-.3-31.3-.3-38.1-14.1-3.8-8.5-3.4-19.1-2.6-28.3,1.2-14.2,10.9-20.7,23.9-22.5,8.4-1.3,17.7-1,26-1,13,.2,28.1-.9,39,5.9,8.8,5,10.3,16.3,10.4,27.2v.2Z"/>
                <path class="cls-2" d="M71,107.3c-2,0-4,0-5.9,0-3.5,0-7.1,0-10.5,0,0,0-.2,0-.3,0h-1.3c-14.4-.4-34-.8-42.3-17.7,0,0,0-.1,0-.2-4.3-9.6-4.1-20.8-3.1-31.5,1.4-15.7,11.8-25.8,29.4-28.2,7.6-1.2,15.9-1.1,23.3-1.1,1.2,0,2.4,0,3.6,0,1.8,0,3.6,0,5.4,0,12.1,0,25.9,0,36.8,6.7,11.7,6.7,13.4,20.9,13.5,32.5h0c.6,12.7-2.2,22-8.6,28.6-9.5,9.9-24.6,10.9-39.9,10.9ZM59.2,94.6c2,0,4,0,6,0,14.6.1,29.6.3,36.6-7,3.8-3.9,5.4-10.2,5-19.2,0,0,0-.1,0-.2v-.2c-.1-12.5-2.3-19-7.2-21.8,0,0-.1,0-.2-.1-7.9-4.9-19.3-4.9-30.3-4.9-1.9,0-3.7,0-5.5,0-1.1,0-2.3,0-3.6,0-7.2,0-14.7,0-21.4,1-15.5,2.2-18,10.6-18.6,16.8-.8,8.9-1.1,18.1,2,25.1,4.5,9.1,16.3,10.1,31.2,10.5h1.2c1.6,0,3.2,0,4.8,0Z"/>
              </g>
            </g>
            <g>
              <g>
                <path class="cls-2" d="M101.9,68.4c0,13-8.1,25.3-18.9,25.8-8.3.1-24.3,0-34.9,0-16.1,1.2-24.8-19.6-20.2-34.9,2.3-8.3,8.3-15.9,16.8-16.9,2.1-.2,3.4-.1,5.6-.1,8.8,0,23.3,0,32.7,0,10.8.4,19,12.8,18.9,25.8v.4Z"/>
                <path class="cls-2" d="M46.8,94.7c-5.5,0-10.4-2.5-14.2-7.3-5.8-7.3-8-19-5.1-28.3,2-7.3,7.7-16.2,17.2-17.3,1.5-.2,2.5-.1,3.8-.1.6,0,1.2,0,1.8,0,3.6,0,8.1,0,12.9,0,7,0,14.2,0,19.8,0,10.6.4,19.5,12.5,19.4,26.2v.4c0,13.8-8.8,25.8-19.4,26.2-4.9,0-12.6,0-20.1,0-5.2,0-10.5,0-14.8,0-.4,0-.9,0-1.3,0ZM47.5,42.7c-.9,0-1.7,0-2.7.1-9.1,1.1-14.5,9.6-16.4,16.6-2.7,9.1-.7,20.4,5,27.4,2.7,3.4,7.5,7.4,14.7,6.9,4.3,0,9.6,0,14.8,0,7.5,0,15.2,0,20.1,0,10.1-.4,18.5-12,18.4-25.3h0v-.4c.1-13.3-8.3-24.9-18.4-25.3-5.5,0-12.8,0-19.8,0-4.8,0-9.3,0-12.9,0-.7,0-1.3,0-1.9,0-.3,0-.6,0-.9,0ZM102.4,68.4h0,0Z"/>
              </g>
              <g>
                <path class="cls-2" d="M101.9,68.4c0,13-8.1,25.3-18.9,25.8-8.3.1-24.3,0-34.9,0-16.1,1.2-24.8-19.6-20.2-34.9,2.3-8.3,8.3-15.9,16.8-16.9,2.1-.2,3.4-.1,5.6-.1,8.8,0,23.3,0,32.7,0,10.8.4,19,12.8,18.9,25.8v.4Z"/>
                <path class="cls-2" d="M46.8,100.6c-7.3,0-13.9-3.3-18.8-9.5-7.1-8.8-9.6-22.3-6.2-33.6,3.3-11.9,12-20.3,22.2-21.5,1.9-.2,3.2-.2,4.5-.2.5,0,1.1,0,1.7,0,0,0,0,0,.1,0,3.6,0,8.1,0,12.8,0,7,0,14.3,0,19.9,0,0,0,.1,0,.2,0,13.9.6,25.1,15,25,32.1v.3c0,17.1-11.1,31.5-24.9,32.1,0,0-.1,0-.2,0-5,0-12.7,0-20.2,0-5.1,0-10.3,0-14.5,0-.5,0-1,0-1.5,0ZM83,94.1h0,0ZM47.5,48.5c-.7,0-1.3,0-2.1.1-5.7.7-9.9,6.7-11.4,12.3,0,0,0,.1,0,.2-2.2,7.2-.5,16.5,3.9,22.1,2.7,3.4,6,5,9.7,4.7.1,0,.3,0,.4,0,4.3,0,9.6,0,14.8,0,7.4,0,15,0,19.9,0,6.9-.4,12.8-9.4,12.8-19.4h0v-.4c0-9.9-6-19.1-12.7-19.4-5.5,0-12.6,0-19.6,0-4.7,0-9.3,0-12.9,0-.7,0-1.4,0-1.9,0-.3,0-.6,0-.9,0ZM108.2,68.4h0,0Z"/>
              </g>
            </g>
            <g>
              <g>
                <path class="cls-2" d="M70.9,77.5c0,5.8-7.4,9.1-11.9,5.2-1.4-1.2-2.6-3.4-2.5-5.2,0,0,0-.2.2-.2,1.9-.1,8.3,0,11.2,0,1.4,0,2.5,0,2.8,0,0,0,.2,0,.2.2h0Z"/>
                <path class="cls-2" d="M63.6,84.8c-1.8,0-3.5-.6-4.9-1.8-1.4-1.2-2.8-3.5-2.6-5.6,0,0,0,0,0,0,0-.3.3-.4.4-.5,0,0,.1,0,.2,0,1.2,0,4,0,6.7,0,1.7,0,3.4,0,4.5,0,.6,0,1.1,0,1.5,0,.7,0,1.2,0,1.4,0,0,0,.1,0,.1,0,.3.1.4.3.4.6,0,0,0,.1,0,.2,0,2.9-1.8,5.4-4.6,6.6-1.1.5-2.2.7-3.2.7ZM57.1,77.7c0,1.5,1,3.5,2.3,4.6,1.9,1.7,4.6,2.1,7.1,1,2.4-1,3.9-3.2,4-5.6-.2,0-.6,0-1,0-.4,0-.9,0-1.5,0-1.1,0-2.8,0-4.6,0-2.5,0-5,0-6.3,0ZM70.5,77.5h0s0,0,0,0Z"/>
              </g>
              <g>
                <path class="cls-2" d="M70.9,77.5c0,5.8-7.4,9.1-11.9,5.2-1.4-1.2-2.6-3.4-2.5-5.2,0,0,0-.2.2-.2,1.9-.1,8.3,0,11.2,0,1.4,0,2.5,0,2.8,0,0,0,.2,0,.2.2h0Z"/>
                <path class="cls-2" d="M63.6,90.7c-3.1,0-6.2-1.1-8.6-3.2-3.1-2.6-5-6.8-4.7-10.5,0-.4.1-.9.2-1.3.5-1.8,1.8-3.4,3.5-4.2.7-.4,1.5-.6,2.3-.6,1.3,0,3.5,0,7.1,0,1.7,0,3.3,0,4.4,0,0,0,.1,0,.2,0,.5,0,1,0,1.4,0,1,0,1.6,0,2.3,0,.7,0,1.3.3,1.9.6,2,1,3.3,2.8,3.6,5,0,.3,0,.7,0,1.1,0,5.2-3.2,9.7-8,11.9-1.8.8-3.8,1.2-5.6,1.2Z"/>
              </g>
            </g>
            <g>
              <g>
                <g>
                  <g>
                    <path class="cls-2" d="M52.1,25c-1.9-.5-3.4-2.4-4.5-3.9-3-4.6-1.6-11.9,3.4-14.6.8-.3,1.3.1.6.9-5.6,3.9-5.9,11.8-.3,15.9.5.3,1.8,1.5.8,1.8h-.1Z"/>
                    <path class="cls-2" d="M52.1,25.5s0,0-.1,0c-1.6-.4-3.2-1.8-4.8-4.1-1.6-2.5-2.1-5.8-1.3-8.8.8-2.9,2.5-5.2,4.9-6.5.8-.3,1.3-.1,1.5.2,0,.1.4.7-.3,1.4,0,0,0,0,0,0-2.6,1.8-4.1,4.6-4.2,7.7,0,2.9,1.4,5.6,3.8,7.4h0s1.5,1,1.4,1.9c0,.2-.2.6-.7.7,0,0,0,0,0,0h-.1s0,0,0,0ZM51.4,6.8c0,0-.1,0-.2,0-2.1,1.1-3.7,3.2-4.3,5.9-.7,2.8-.3,5.8,1.1,8.1,1.3,2,2.7,3.3,4,3.7-.2-.2-.5-.6-.9-.8-2.7-2-4.3-5-4.3-8.2,0-3.3,1.7-6.5,4.5-8.5,0,0,0,0,0-.1Z"/>
                  </g>
                  <g>
                    <path class="cls-2" d="M52.1,25c-1.9-.5-3.4-2.4-4.5-3.9-3-4.6-1.6-11.9,3.4-14.6.8-.3,1.3.1.6.9-5.6,3.9-5.9,11.8-.3,15.9.5.3,1.8,1.5.8,1.8h-.1Z"/>
                    <path class="cls-2" d="M52.1,31.4c-.5,0-1,0-1.5-.2-3.1-.8-5.9-2.9-8.3-6.6-2.5-3.9-3.3-8.8-2-13.5,1.1-4.4,4-8.2,7.8-10.2.2-.1.4-.2.7-.3,3.2-1.3,6.6-.3,8.4,2.3,1.8,2.6,1.5,6.1-.7,8.7-.3.4-.7.7-1.1,1-1.1.7-1.7,1.8-1.7,3,0,.7.2,1.7,1.3,2.6,2.2,1.5,4.3,4.2,3.8,7.5-.4,2.6-2.2,4.7-4.8,5.5-.4.1-.9.2-1.3.2h-.1c-.2,0-.4,0-.5,0Z"/>
                  </g>
                </g>
                <g>
                  <g>
                    <path class="cls-2" d="M52.9,21.3c-3.7-2.2-4.1-7.8-.7-10.9.3-.3,1-.7,1.3-.4.4.3,0,.9-.3,1.2-2.2,2.2-2.6,5.6-.3,8.1.5.5,1.3,1.7.2,1.9h-.1Z"/>
                    <path class="cls-2" d="M53,21.8h-.1c0,0-.2,0-.2,0-1.8-1.1-3-3-3.2-5.2-.3-2.4.6-4.9,2.4-6.5.5-.5,1.4-.9,2-.4.2.2.7.8-.3,1.9-2.2,2.1-2.3,5.3-.3,7.5.4.4,1,1.2.8,2,0,.2-.3.6-.9.8,0,0,0,0-.1,0ZM53.2,10.4c0,0-.4.1-.6.4-1.6,1.4-2.3,3.6-2.1,5.7.2,1.9,1.2,3.5,2.6,4.4,0,0,0,0,0,0,0-.2-.2-.7-.6-1-2.3-2.6-2.2-6.4.3-8.8.3-.3.3-.5.3-.6Z"/>
                  </g>
                  <g>
                    <path class="cls-2" d="M52.9,21.3c-3.7-2.2-4.1-7.8-.7-10.9.3-.3,1-.7,1.3-.4.4.3,0,.9-.3,1.2-2.2,2.2-2.6,5.6-.3,8.1.5.5,1.3,1.7.2,1.9h-.1Z"/>
                    <path class="cls-2" d="M53,27.7c0,0-.1,0-.2,0h-.1c-1.1,0-2.1-.3-3.1-.9-3.4-2-5.7-5.5-6.1-9.6-.4-4.2,1.1-8.5,4.2-11.3,2.9-2.8,7.1-3,9.9-.5,0,0,.1.1.2.2,2.4,2.3,3.2,6.5,0,10,1.5,1.7,2.6,4.3,1.8,7-.7,2.5-2.6,4.3-5.2,5-.5.1-1,.2-1.4.2ZM50.5,15.6c.4.2.9.4,1.3.5l-.2-.9c-.4,0-.8.2-1.1.4Z"/>
                  </g>
                </g>
              </g>
              <g>
                <g>
                  <g>
                    <path class="cls-2" d="M74.7,25c7.4-3,8.2-14.7,1-18.6-.8-.3-1.3.1-.6.9,5.6,4,5.9,11.9.2,16-.5.4-1.4,1.1-.9,1.6.2,0,0,0,.2,0h0Z"/>
                    <path class="cls-2" d="M74.7,25.5h-.1s0,0-.1,0h-.1s0,0-.1,0c0,0-.1,0-.1,0,0,0,0,0-.1-.1-.2-.2-.3-.5-.2-.8,0-.6.7-1.1,1.1-1.5,0,0,0,0,0,0,2.5-1.8,4-4.5,4-7.5,0-3.1-1.5-5.9-4.2-7.8,0,0,0,0,0,0-.7-.7-.4-1.3-.3-1.4.2-.3.7-.5,1.5-.2,3.5,1.9,5.5,5.7,5.3,10-.2,4.3-2.6,8-6.3,9.4,0,0-.1,0-.2,0ZM75.4,7c2.9,2.1,4.5,5.2,4.5,8.5,0,3.3-1.6,6.3-4.4,8.2-.2.2-.7.5-.8.8,3.1-1.4,5.2-4.6,5.4-8.5.2-3.9-1.6-7.4-4.7-9.1,0,0-.1,0-.2,0,0,0,0,0,0,.1Z"/>
                  </g>
                  <g>
                    <path class="cls-2" d="M74.7,25c7.4-3,8.2-14.7,1-18.6-.8-.3-1.3.1-.6.9,5.6,4,5.9,11.9.2,16-.5.4-1.4,1.1-.9,1.6.2,0,0,0,.2,0h0Z"/>
                    <path class="cls-2" d="M74.7,31.4h-.2c-.5,0-1,0-1.4-.2-.3,0-.6-.1-.8-.2-.5-.2-.9-.4-1.3-.7-.6-.4-1.1-.8-1.5-1.3-1.2-1.4-1.7-3.2-1.5-5.1.3-3.1,2.5-4.8,3.3-5.5,0,0,.3-.2.4-.3,1.3-.9,1.5-2,1.5-2.7,0-1.1-.6-2.2-1.7-3-.4-.3-.7-.6-1.1-.9-2.3-2.5-2.6-6-.7-8.7,1.8-2.6,5.2-3.6,8.4-2.3.2,0,.5.2.7.3,5.5,3,8.6,8.9,8.3,15.5-.4,6.6-4.2,12.2-9.9,14.5-.8.3-1.6.5-2.4.5ZM73.2,31.2c.7.1,1.4.2,2.1,0-.7,0-1.4,0-2.1,0ZM79.8,28.4c-.4.7-1,1.2-1.6,1.7.6-.4,1.1-1,1.6-1.7Z"/>
                  </g>
                </g>
                <g>
                  <g>
                    <path class="cls-2" d="M73.8,21.3c3.6-2.3,4-7.7.8-10.8-.3-.3-.9-.8-1.3-.5-.2.1-.3.4,0,.7,2.3,2.4,3.3,5.8.7,8.6-.3.3-.7.7-.7,1.1,0,.5.2.9.5.9h0Z"/>
                    <path class="cls-2" d="M73.7,21.8c-.3,0-.5-.1-.7-.4-.3-.3-.4-.7-.3-1.1.1-.5.5-.9.8-1.2h0c3.1-3.6.2-7.1-.7-8.1,0,0,0,0,0-.1-.3-.6-.2-1.2.3-1.4.6-.3,1.4.1,1.9.6,1.7,1.6,2.5,3.9,2.3,6.2-.2,2.2-1.4,4.2-3.2,5.3,0,0-.1,0-.2,0h0s0,0,0,0ZM73.8,21.3h0,0ZM73.6,10.5c2.8,3,3.1,6.5.7,9.2h0c-.2.3-.5.7-.5.9,0,0,0,.2,0,.2,1.5-1,2.4-2.6,2.6-4.5.2-2-.5-4-2-5.4-.3-.3-.6-.4-.7-.5,0,0,0,0,0,0Z"/>
                  </g>
                  <g>
                    <path class="cls-2" d="M73.8,21.3c3.6-2.3,4-7.7.8-10.8-.3-.3-.9-.8-1.3-.5-.2.1-.3.4,0,.7,2.3,2.4,3.3,5.8.7,8.6-.3.3-.7.7-.7,1.1,0,.5.2.9.5.9h0Z"/>
                    <path class="cls-2" d="M73.7,27.7c-2,0-3.8-.9-5.1-2.4-1.4-1.6-2-3.9-1.6-6,0,0,0-.1,0-.2.4-1.8,1.4-3,1.9-3.6,0-.1-.2-.2-.3-.4-.4-.4-.7-.9-1-1.4-1.8-3.4-.7-7.5,2.7-9.3,2.8-1.5,6.3-.9,8.8,1.7,2.9,2.9,4.3,6.8,3.9,10.9-.4,4-2.5,7.5-5.8,9.7-.8.5-1.7.9-2.6,1h0c-.2,0-.3,0-.5,0-.1,0-.2,0-.3,0ZM73.8,21.3h0,0ZM73.5,16.3c.9,0,1.9-.2,2.8-.7-.9-.4-1.8-.6-2.8-.6v1.2Z"/>
                  </g>
                </g>
              </g>
              <g>
                <g>
                  <path class="cls-2" d="M66.3,34.9c-.7,3.2-5.1,3-5.4-.3.1-2.2,1.4-11.5,1.6-14,.2-.9-.3-2.3.6-3,.8-.4,1.5.3,1.5,1.1.1,4.9,1.4,11.3,1.6,16.1h0Z"/>
                  <path class="cls-2" d="M63.7,37.7c0,0-.1,0-.2,0-1.4,0-2.8-1-3-3.1,0-1.5.6-5.5,1-9,.3-2.1.5-4.1.6-5,0-.3,0-.6,0-.9,0-.8,0-1.8.8-2.4.5-.3,1.1-.3,1.5,0,.5.3.8.9.8,1.5,0,2.6.5,5.7.9,8.6.4,2.7.7,5.2.8,7.4,0,0,0,0,0,.1h0c0,.1,0,.1,0,.1-.4,1.9-1.8,2.7-3.1,2.7ZM63.7,18c0,0-.2,0-.3,0-.3.2-.3.8-.3,1.6,0,.4,0,.8,0,1.1,0,.9-.3,2.8-.6,5-.4,3.5-.9,7.6-1,8.9.1,1.4,1.2,2,2.1,2.1.9,0,2-.4,2.3-1.9h0c-.1-2.2-.4-4.7-.8-7.3-.4-3-.8-6.1-.9-8.7,0-.3-.1-.6-.3-.7,0,0-.1,0-.2,0ZM66.3,34.9h0,0Z"/>
                </g>
                <g>
                  <path class="cls-2" d="M66.3,34.9c-.7,3.2-5.1,3-5.4-.3.1-2.2,1.4-11.5,1.6-14,.2-.9-.3-2.3.6-3,.8-.4,1.5.3,1.5,1.1.1,4.9,1.4,11.3,1.6,16.1h0Z"/>
                  <path class="cls-2" d="M63.7,43.6c-.2,0-.3,0-.5,0-4.5-.3-8.1-3.8-8.5-8.3,0-.3,0-.7,0-1,0-1.4.5-4.8,1-9.3.3-2.1.5-4,.6-4.9,0,0,0,0,0,0h0c0-1.3-.1-5,3.1-7.4.2-.2.5-.3.8-.5,2.3-1.2,5-1.2,7.2.1,2.2,1.3,3.6,3.8,3.7,6.4,0,2.3.4,5.2.8,8,.4,2.7.7,5.4.8,7.9,0,.5,0,.9,0,1.4h0c0,.2,0,.2,0,.3-.9,4.3-4.6,7.3-8.9,7.3ZM56.3,19.5s0,0,0,.2c0,0,0-.1,0-.2ZM58.4,18.8h0s0,0,0,0Z"/>
                </g>
              </g>
              <g>
                <g>
                  <path class="cls-2" d="M63.4,9.7c7.7-.6,8.6,11.2.9,11.7-7.9.9-8.9-11.2-1.1-11.7h.2Z"/>
                  <path class="cls-2" d="M63.5,22c-2.1,0-3.8-.9-4.9-2.5-1.4-2-1.6-4.7-.6-6.9,1-2,2.8-3.2,5.2-3.4h.2c2.3-.2,4.3.7,5.6,2.5,1.3,2,1.6,4.7.5,6.9-.9,2-2.8,3.2-5.1,3.3-.3,0-.6,0-.8,0ZM63.9,10.2c-.2,0-.3,0-.5,0,0,0,0,0,0,0h-.2c-2,.1-3.6,1.1-4.4,2.8-.9,1.9-.7,4.3.5,5.9,1.1,1.5,2.8,2.2,4.9,2,2-.1,3.5-1.1,4.3-2.8.9-1.8.7-4.2-.5-5.9-.9-1.4-2.4-2.1-4.2-2.1ZM63.4,9.7h0,0Z"/>
                </g>
                <g>
                  <path class="cls-2" d="M63.4,9.7c7.7-.6,8.6,11.2.9,11.7-7.9.9-8.9-11.2-1.1-11.7h.2Z"/>
                  <path class="cls-2" d="M63.5,27.8c-3.9,0-7.5-1.8-9.7-4.9-2.6-3.7-3-8.7-1.1-12.8,1.9-3.9,5.6-6.4,10.1-6.7h.2c4.4-.3,8.3,1.5,10.8,5,2.5,3.7,2.9,8.7,1,12.7-1.9,3.9-5.4,6.3-9.8,6.6-.4,0-.9,0-1.3,0ZM63.3,15.6c0,.1.3.3.4.3.2,0,.3-.3.4-.4,0-.1-.3-.3-.5-.3-.1,0-.3.3-.4.4ZM63.4,9.7h0,0Z"/>
                </g>
              </g>
            </g>
            <g>
              <g>
                <path class="cls-2" d="M53.1,65.5c-.2,1.6-1.8,2.9-3.4,2.6-2.6-.7-2.4-2.9-2.3-5.3,0-1.4,0-2.9,0-4.2-.4-3.8,4.5-5.1,5.6-1.3.3,2.3,0,5.9,0,8.1h0Z"/>
                <path class="cls-2" d="M50.2,68.6c-.2,0-.4,0-.7,0-2.8-.7-2.8-3.2-2.7-5.4v-.3s0-4.1,0-4.1c-.2-2.2,1.2-3.7,2.8-4,1.4-.3,3.2.4,3.8,2.5.2,1.7.2,4.1.1,6.1,0,.8,0,1.6,0,2.2v.2c-.1.9-.6,1.9-1.5,2.4-.6.4-1.2.6-1.9.6ZM50.3,55.5c-.2,0-.3,0-.4,0-1.1.2-2.2,1.3-2,3v4.2s0,.4,0,.4c0,2.4,0,4,2,4.5.6.1,1.2,0,1.7-.4.6-.4,1-1.1,1-1.7,0,0,0,0,0,0h0c0-.7,0-1.4,0-2.2,0-2,0-4.3-.1-5.9-.4-1.3-1.4-1.8-2.2-1.8Z"/>
              </g>
              <g>
                <path class="cls-2" d="M53.1,65.5c-.2,1.6-1.8,2.9-3.4,2.6-2.6-.7-2.4-2.9-2.3-5.3,0-1.4,0-2.9,0-4.2-.4-3.8,4.5-5.1,5.6-1.3.3,2.3,0,5.9,0,8.1h0Z"/>
                <path class="cls-2" d="M50.2,74.5c-.7,0-1.3,0-2-.2-7.4-1.9-7.3-8.9-7.2-11.3v-.3s0-3.8,0-3.8c-.3-4.8,2.9-9.1,7.5-10,4.7-.9,9.1,1.9,10.5,6.6.1.3.2.7.2,1.1.2,2,.2,4.6.2,6.8,0,.8,0,1.5,0,2.1,0,.3,0,.6,0,.9h0c-.3,2.6-1.7,5-3.9,6.5-1.6,1.1-3.4,1.7-5.3,1.7Z"/>
              </g>
            </g>
            <g>
              <g>
                <path class="cls-2" d="M78.5,65.5c-.2,1.6-1.8,2.9-3.4,2.6-2.6-.7-2.4-2.9-2.3-5.3,0-1.4,0-2.9,0-4.2-.4-3.8,4.5-5.1,5.6-1.3.3,2.3,0,5.9,0,8.1h0Z"/>
                <path class="cls-2" d="M75.7,68.6c-.2,0-.4,0-.7,0-2.8-.7-2.8-3.2-2.7-5.4v-.3s0-4.1,0-4.1c-.2-2.2,1.2-3.7,2.8-4,1.4-.3,3.2.4,3.8,2.5.2,1.7.2,4,.1,6.1,0,.8,0,1.6,0,2.2v.2c-.1.9-.6,1.9-1.5,2.4-.6.4-1.2.6-1.9.6ZM75.7,55.5c-.2,0-.3,0-.4,0-1.1.2-2.2,1.3-2,3v4.2s0,.4,0,.4c0,2.4,0,4,2,4.5.6.1,1.2,0,1.7-.4.6-.4,1-1.1,1-1.7,0,0,0,0,0,0h0c0-.7,0-1.4,0-2.2,0-2,0-4.3-.1-5.9-.4-1.3-1.4-1.8-2.2-1.8Z"/>
              </g>
              <g>
                <path class="cls-2" d="M78.5,65.5c-.2,1.6-1.8,2.9-3.4,2.6-2.6-.7-2.4-2.9-2.3-5.3,0-1.4,0-2.9,0-4.2-.4-3.8,4.5-5.1,5.6-1.3.3,2.3,0,5.9,0,8.1h0Z"/>
                <path class="cls-2" d="M75.7,74.5c-.7,0-1.3,0-2-.2-7.4-1.9-7.3-8.9-7.2-11.3v-.3s0-3.8,0-3.8c-.3-4.8,2.9-9.1,7.5-10,4.7-.9,9.1,1.9,10.5,6.6.1.3.2.7.2,1.1.2,2,.2,4.6.2,6.8,0,.8,0,1.5,0,2.1,0,.3,0,.6,0,.8h0c-.3,2.6-1.7,5-3.9,6.5-1.6,1.1-3.4,1.7-5.3,1.7Z"/>
              </g>
            </g>
            <g>
              <g>
                <g>
                  <path class="cls-2" d="M118.5,61.3c-.8,5.5-.8,11.6-.9,17.1,0,.9,0,1.8,0,2.6,0,.3.2.5.3.5,4.7-3.2,5.9-10.4,3.8-15.6-.6-1.6-1.6-3.2-2.7-4.4-.2-.2-.3-.4-.6-.3h0Z"/>
                  <path class="cls-2" d="M118,82.1s0,0,0,0c-.2,0-.6-.2-.8-.9,0-.6,0-1.3,0-1.9,0-.3,0-.6,0-.9v-.6c0-5.3.1-11.3.9-16.6,0-.1,0-.2.2-.3h0c0,0,.1-.1.2-.1.5-.1.8.2,1,.4h0c1.1,1.3,2.2,3,2.8,4.7,2,5,1.1,12.6-4,16.1,0,0-.2,0-.3,0ZM118.2,81.2h0,0ZM118.9,62.1c-.7,5.1-.8,10.8-.8,15.8v.6c0,.3,0,.6,0,.9,0,.5,0,1.1,0,1.5,4.3-3.3,5.1-10.1,3.2-14.7-.6-1.5-1.5-3-2.5-4.1Z"/>
                </g>
                <g>
                  <path class="cls-2" d="M118.5,61.3c-.8,5.5-.8,11.6-.9,17.1,0,.9,0,1.8,0,2.6,0,.3.2.5.3.5,4.7-3.2,5.9-10.4,3.8-15.6-.6-1.6-1.6-3.2-2.7-4.4-.2-.2-.3-.4-.6-.3h0Z"/>
                  <path class="cls-2" d="M118,87.9c-.2,0-.3,0-.5,0-3.1-.2-5.5-2.5-6.1-5.7,0-.1,0-.2,0-.3-.1-1-.1-1.9-.1-2.6,0-.2,0-.5,0-.7,0,0,0-.2,0-.2v-.6c0-5.5.1-11.7,1-17.4.2-1.5,1-2.9,2.2-3.9h0c.7-.7,1.6-1.1,2.5-1.3,1.1-.3,4-.7,6.6,1.9.1.1.2.2.3.3,1.6,1.8,3,4,3.9,6.4,2.9,7.2,1.4,17.8-6.1,23.1-1.1.7-2.3,1.1-3.6,1.1Z"/>
                </g>
              </g>
              <g>
                <g>
                  <path class="cls-2" d="M118.2,61.2c-.4-.7-1.2-1.3-1.7-1.2-.8.7-2.9,7.5-1.8,15.9.2,1.3.4,2.8.7,3.9.3.9.3,2.2,1.1,2.7.9.2,1.2-1,1.3-1.7,0-2.9,0-6,.1-9.1.1-3.2.3-6.4.6-9.2,0-.4,0-.8-.2-1.1h0Z"/>
                  <path class="cls-2" d="M116.7,82.9c-.1,0-.2,0-.3,0,0,0-.1,0-.2,0-.7-.5-.9-1.4-1.1-2.2,0-.3-.1-.6-.2-.8-.3-1.1-.5-2.6-.7-4-1.1-8.5,1.1-15.4,2-16.3,0,0,.2-.1.3-.1.8,0,1.7.8,2.1,1.4,0,0,0,0,0,0h0c.2.5.3.9.2,1.4-.3,3.6-.5,6.5-.6,9.2,0,1.8,0,3.5,0,5.3,0,1.3,0,2.6,0,3.8,0,.5-.2,1.5-.9,2-.2.2-.5.2-.7.2ZM116.7,82c0,0,.1,0,.1,0,.2-.2.4-.7.5-1.2,0-1.2,0-2.5,0-3.8,0-1.7,0-3.5,0-5.3,0-2.7.3-5.7.6-9.3,0-.3,0-.6-.1-.8h0c-.3-.6-.8-.9-1-1-.7,1.2-2.5,7.5-1.6,15.3.1,1.3.4,2.7.7,3.8,0,.2.1.5.2.9.1.6.3,1.2.6,1.5Z"/>
                </g>
                <g>
                  <path class="cls-2" d="M118.2,61.2c-.4-.7-1.2-1.3-1.7-1.2-.8.7-2.9,7.5-1.8,15.9.2,1.3.4,2.8.7,3.9.3.9.3,2.2,1.1,2.7.9.2,1.2-1,1.3-1.7,0-2.9,0-6,.1-9.1.1-3.2.3-6.4.6-9.2,0-.4,0-.8-.2-1.1h0Z"/>
                  <path class="cls-2" d="M116.7,88.8c-.6,0-1.1,0-1.7-.2-.8-.2-1.5-.5-2.2-1-2.6-1.8-3.1-4.6-3.4-5.7,0,0,0-.2,0-.2,0-.1,0-.3-.1-.4-.3-1.3-.6-3.1-.8-4.6-.9-7.6.2-17.9,3.8-21.2,1-.9,2.2-1.5,3.5-1.7,3.4-.4,6.2,1.8,7.7,4,.1.2.3.4.4.7h0c0,.2,0,.2,0,.3.6,1.2.8,2.5.8,4,0,.1,0,.2,0,.3-.3,3.5-.5,6.3-.6,8.9,0,1.7,0,3.4,0,5.1,0,1.3,0,2.6,0,3.9,0,.2,0,.3,0,.5-.2,2.6-1.4,4.8-3.3,6.2-1.2.9-2.6,1.3-4.1,1.3ZM109.4,81.7s0,0,0,0c0,0,0,0,0,0Z"/>
                </g>
              </g>
            </g>
          </g>
          <g>
            <g>
              <path class="cls-2" d="M155.3,73.6c-2-1.8-9.3-2.3-7.9-5.9.7-1.4,2.7-1.6,4.2-1.3,1.2.2,2.3.8,3.3.7,1-.1,1.8-1.1,1.6-2-1.2-2.8-5.9-3-8.7-2.5-2.6.7-5,2.3-5.3,5.1-.4,2.5.6,4.8,2.7,6.2,2.1,1.8,8.4,2.3,8.1,5.4-.5,3.3-5.2,2.4-7.5,1.2-1-.5-2.3-.5-3.1.4-2,3.3,4.7,4.6,6.8,4.6h.2c7.1.6,12.1-7.5,5.6-12.1Z"/>
              <path class="cls-2" d="M150.4,92.1c-.4,0-.7,0-1.1,0h0c-1.1,0-9.4-.5-12.3-6-1.4-2.6-1.3-5.7.4-8.3.1-.2.2-.4.4-.5.2-.3.5-.6.8-.9-2-2.6-2.9-6-2.4-9.5.7-4.9,4.4-8.8,9.9-10.3.1,0,.2,0,.4,0,5.8-1.2,13.3.2,15.8,6.1.2.4.3.7.4,1.1.5,2.2,0,4.5-1.3,6.3,0,.1-.1.2-.2.3,3.3,3.4,4.5,8.1,2.9,12.6-2,5.5-7.5,9.2-13.5,9.2Z"/>
            </g>
            <g>
              <path class="cls-2" d="M186.3,77.7c.3-4.9-.4-11.2-6.8-9.7-1.4.2-2.6,2-3.8,1.9-.4,0-.9-.5-1.2-.8-1.4-1.5-4.1-1.7-5.9-.8-.9.3-1.6,1.2-2.5,1.5-.3,0-.6-.2-.9-.5-.4-.5-1.1-1-1.8-.9-.7,0-1.3.5-1.6,1-.4.8-.2,1.5-.2,2.9,0,2.6,0,7,0,9.2-.1,1.5,0,3.5,2,3.7h.4c2.3-.4,2-2.5,2-4.6,0-1.4,0-3,0-4.4,0-1.6,0-2.5.7-3.2,1.5-1.7,4.4-1.9,4.8.8.3,1.4.1,4,.2,6.1,0,2.4-.3,5.7,2.9,5.1,2.3-.8,1.5-3.2,1.6-5.3.2-1.9-.5-5.4.6-6.6,1.4-1.6,4.3-2.1,4.8.5.7,2.6-.3,7.6.6,10.4.6,1.3,2.6,1.6,3.5.5,1.2-1.4.5-4.7.7-6.8Z"/>
              <path class="cls-2" d="M164,91.5h-.4c-.3,0-.5,0-.8,0-4-.5-7.9-3.8-7.6-10.2v-9s0,0,0-.1c0-.3,0-.6,0-.8,0-1.1,0-2.7.8-4.5,0,0,0-.2.1-.2,1.3-2.6,3.8-4.3,6.7-4.6,1.1-.1,2.2,0,3.3.4,3.2-1.4,6.9-1.3,9.9.1.7-.3,1.4-.6,2.3-.8,4.9-1.1,8.1.5,9.9,2.1,5,4.2,4.6,11.7,4.4,14.2,0,0,0,.2,0,.2,0,.3,0,1,0,1.5,0,2.4.2,6-2.1,8.8,0,0,0,.1-.1.2-1.9,2.1-4.7,3.1-7.5,2.6-1.4-.2-2.7-.8-3.8-1.6-.7.5-1.5.9-2.3,1.2-.3.1-.7.2-1,.3-3.2.6-5.5-.5-6.7-1.4-1.2.9-2.5,1.3-3.7,1.6-.4,0-.8.1-1.2.1Z"/>
            </g>
            <g>
              <path class="cls-2" d="M204.2,73.4c-.5-6.4-8.1-7.1-12.4-3.9-.9.8-.5,2.3.6,2.6,1.1.3,2.3-.5,3.6-.6,1.2-.1,2.8.2,3.3,1.4.4.9-.4,1.5-1.4,1.7-2,.4-3.8.7-5.5,1.8-4,2.6-2.6,9.2,2.4,9.3h.1c.9,0,1.7-.2,2.5-.5,1.1-.3,2-1.5,3.1-1,1,.9,2.5,1.3,3.5,0,.5-.8.4-1.7.4-3.4,0-2.5.1-5-.2-7.4ZM199.9,80.1c0,.4-.2.6-.4.8-.7.7-1.9,1.3-2.7,1.3h0c-1.7-.1-2.7-1.3-2.1-2.9.9-1.7,3.4-2,5.1-2.2.2,0,.2.2.2.5,0,.7,0,1.8,0,2.6Z"/>
              <path class="cls-2" d="M195,92s0,0,0,0h-.1c-5.1-.1-9.2-3.3-10.5-8.2-1-3.5-.3-7,1.6-9.8-.3-.5-.5-1.1-.6-1.6-.7-2.8.2-5.7,2.3-7.6.2-.1.3-.3.5-.4,4.4-3.3,10.6-4,15.3-1.8,4.1,1.9,6.7,5.6,7.1,10.2.2,2,.2,4,.2,5.7,0,.8,0,1.5,0,2.3,0,0,0,.2,0,.3,0,.3,0,.6,0,.8,0,1.4,0,3.6-1.4,5.9,0,0-.1.2-.2.2-1.4,1.9-3.4,3.1-5.7,3.3s-2.3,0-3.5-.4c-.1,0-.2,0-.4.1-1.1.4-2.6.9-4.6.9h0ZM198,82.5h0ZM196,81.6s0,0,0,0c0,0,0,0,0,0ZM194.8,79.3h0Z"/>
            </g>
            <g>
              <path class="cls-2" d="M217.5,67.9c-1.8,0-3.1,1.5-4.3,2.7-.3.1-.4,0-.6-.6-.1-.4-.3-1-.7-1.3-1.1-1-3.1,0-3.1,1.4,0,2.3,0,9.5,0,12.2-.1,1.3.5,2.9,2,3.1h.3c2.3,0,2.2-2.1,2.2-4.4.2-2.2-.5-4.9.6-6.8.8-1.3,2-2.1,3.5-2.3-.1,0,.2,0,.3,0,.1,0,.3,0,.4-.1,1.9-.8,1.7-4-.6-3.8Z"/>
              <path class="cls-2" d="M211.1,91.7c-.2,0-.4,0-.6,0h-.3c0,0-.1,0-.2,0-4.6-.6-7.9-4.8-7.5-9.6,0-1,0-2.6,0-4.3,0-3,0-6.2,0-7.7,0-3.1,1.9-5.9,4.8-7.3,2-.9,4.2-1,6.2-.3,1.1-.5,2.3-.8,3.7-.9,3.9-.2,7.4,2.3,8.3,6.1,1,4.1-1.2,8.3-5,9.8-.3.1-.6.2-.9.3,0,.2,0,.4,0,.6,0,.8,0,1.7,0,2.7.1,9-5.1,10.5-8.3,10.6,0,0-.1,0-.2,0ZM218.3,78.1h0s0,0,.1,0c0,0,0,0-.1,0Z"/>
            </g>
            <g>
              <path class="cls-2" d="M229.5,82.2c-2.8-.7-2.1-3.6-2.2-6,0-1.2,0-2.6,0-3.7.3-.9,1.6-.6,2.4-.7,1.9,0,2.5-2.7.6-3.3-.9-.4-2.2,0-2.8-.8-.4-.7-.1-2.3-.7-3-.6-.9-2-1.1-2.9-.4-1.1.8-.7,2.7-1.4,3.6-.7.9-2.3.8-2.3,2.3,0,1.2,1.2,1.5,2,2,1.3,4.8-2.1,13,5.8,13.7h.1c1.1,0,3.1,0,3.3-1.5.2-1.2-1-1.9-2-2Z"/>
              <path class="cls-2" d="M228.7,92.1c-.3,0-.6,0-.9,0h-.2c-11.5-1-11.3-11.4-11.3-15.4,0-.4,0-.8,0-1.2-1.8-1.8-2.3-3.9-2.3-5.5,0-1.6.5-4.3,3.2-6.2.4-1.4,1.2-3.3,3.1-4.7,1.8-1.4,4.2-1.9,6.4-1.5,2.2.4,4.1,1.6,5.4,3.4.4.6.7,1.1.9,1.7,3.4,1.4,5.4,4.9,4.8,8.6-.4,2.5-2,4.7-4.1,5.8,2.9,1.6,4.6,4.7,4.1,8.1,0,0,0,0,0,.1-.6,3.5-3.6,6.8-9,6.8ZM228.5,88.5h0,0Z"/>
            </g>
            <g>
              <path class="cls-2" d="M246.4,62.6c-3.1,0-9.5,0-11.3,0-.8,0-1.6.2-2.1.9-.4.6-.4,1.4,0,1.9.7,1.3,3.3.8,4.9.9.9,0,1.1,0,1.1.6,0,2.3,0,13,0,15.3,0,1.3.7,2.7,2.2,2.8h.1c1.6,0,2.4-1.5,2.3-2.9,0-2.5,0-13.2,0-15.3,0-.4.2-.5.7-.5,1.1-.1,3.5.1,4.6-.3.8-.3,1.3-1.3,1-2.2-.6-1.5-1.9-1.3-3.5-1.3Z"/>
              <path class="cls-2" d="M241.4,91.5c0,0-.1,0-.2,0h-.2s0,0-.1,0c-2.3-.1-4.4-1.1-5.9-2.8-1.5-1.7-2.4-4.1-2.3-6.4v-6c0-1.3,0-2.6,0-3.9-1.9-.4-3.8-1.4-5.1-3.7-1.6-2.6-1.6-6,.1-8.6,1.5-2.4,4.2-3.8,7.3-3.8s0,0,0,0c1.1,0,3.7,0,6.3,0h5s0,0,0,0c.2,0,.3,0,.5,0,4.4,0,7.3,1.7,8.8,5.2,0,.1,0,.2.1.4.7,2,.6,4.3-.4,6.2-.9,1.9-2.6,3.4-4.6,4.1-.3.1-.7.2-1,.3,0,1.4,0,3,0,4.4,0,2.2,0,4.2,0,5.2.1,2.5-.8,5-2.4,6.7-1.6,1.7-3.8,2.7-6.2,2.7ZM235,69h0,0Z"/>
            </g>
            <g>
              <path class="cls-2" d="M264.4,73.4c-.5-6.4-8.1-7.1-12.4-3.9-.9.8-.5,2.3.6,2.6,1.1.3,2.3-.5,3.6-.6,1.2-.1,2.8.2,3.3,1.4.4.9-.4,1.5-1.4,1.7-2,.4-3.8.7-5.5,1.8-4,2.6-2.6,9.2,2.4,9.3h.1c.9,0,1.7-.2,2.5-.5,1.1-.3,2-1.5,3.1-1,1,.9,2.5,1.3,3.5,0,.5-.8.4-1.7.4-3.4,0-2.5.1-5-.2-7.4ZM260,80.1c0,.4-.2.6-.4.8-.7.7-1.9,1.3-2.7,1.3h0c-1.7-.1-2.7-1.3-2.1-2.9.9-1.7,3.4-2,5.1-2.2.2,0,.2.2.2.5,0,.7,0,1.8,0,2.6Z"/>
              <path class="cls-2" d="M255.1,92s0,0,0,0h-.1c-5.1-.1-9.2-3.3-10.5-8.2-1-3.5-.3-7,1.6-9.8-.3-.5-.5-1.1-.6-1.6-.7-2.8.2-5.7,2.3-7.6.2-.1.3-.3.5-.4,4.4-3.3,10.6-4,15.3-1.8,4.1,1.9,6.7,5.6,7.1,10.2.2,2,.2,4,.2,5.7,0,.8,0,1.5,0,2.3,0,0,0,.2,0,.3,0,.3,0,.6,0,.8,0,1.5,0,3.6-1.4,5.9,0,0-.1.2-.2.2-1.4,1.9-3.4,3.1-5.7,3.3-1.2.1-2.3,0-3.5-.4-.1,0-.2,0-.4.1-1.1.4-2.6.9-4.6.9h0ZM258.2,82.5h0ZM256.1,81.6s0,0,0,0c0,0,0,0,0,0Z"/>
            </g>
            <g>
              <path class="cls-2" d="M274.2,82c-.5-.5-.8-1.2-.7-2-.1-3.6.3-14.4-.2-17.5-.5-1.7-3.3-1.9-4-.2-.2.5-.3.9-.3,1.4,0,1.7,0,9.1,0,13.5,0,3.3-.5,8.3,4,8.6h.2c1.5.2,2.4-1.9,1.5-3.1-.1-.2-.2-.3-.5-.6Z"/>
              <path class="cls-2" d="M273.3,92.1c-.2,0-.4,0-.6,0h-.2c-6.8-.5-10.1-5.3-10-14.3v-.7s0-5.9,0-5.9c0-3.3,0-6.5,0-7.5,0,0,0,0,0-.1,0-1,.1-2.4.9-3.9,1.4-3.1,4.6-5,8.2-4.8,3.6.2,6.6,2.5,7.6,5.8,0,.3.1.6.2.8.4,2.3.3,6.4.3,12.3,0,1.9,0,3.8,0,5.1,0,0,0,0,0,0,1.9,2.6,2.1,6.2.5,9.1-1.4,2.5-4.1,4.1-6.9,4.1ZM269.6,86.4s0,0,0,0c0,0,0,0,0,0Z"/>
            </g>
            <g>
              <path class="cls-2" d="M289.1,73.8c.5-.6,1.2-1.5,1.8-2.2,1.5-1.9,2.9-3,1.7-3.4-.9-.3-2.2-.2-3.1,0-1.9.7-4.1,4.5-5.8,6.3-.5.5-.7.8-.8.6-.1-.3,0-1.7,0-3.6,0-2.8,0-6.3,0-7.8,0-.9,0-1.7-.7-2.4-1.3-1.4-3.8-.4-3.8,1.5,0,3,0,16.1,0,19.4-.1,1.2.6,2.7,1.9,2.8h.2c.8,0,1.7-.7,1.9-1.5.3-1,.2-2.1.7-3.1,2.3-3.6,2.4-1.8,4.1.9,1.2,2,1.6,3,3.3,3.5,1,.3,2.7,0,2.6-1.3-.7-2.3-4-6.2-5-8.5-.1-.4.2-.7.8-1.5Z"/>
              <path class="cls-2" d="M280.8,91.6c-.1,0-.3,0-.4,0h-.2c-.1,0-.3,0-.4,0-4.5-.5-7.8-4.7-7.5-9.4,0-1.4,0-4,0-6.9,0-4.9,0-10.4,0-12.4,0-3.4,2.2-6.5,5.5-7.7,3.3-1.3,6.9-.4,9.2,2.1,1.5,1.6,2.1,3.4,2.3,4.7,1.4-.3,3.4-.4,5.4.3,2.3.7,4,2.4,4.6,4.7,1,3.7-1.2,6.3-2.6,7.8-.2.3-.5.6-.8.9,1.4,2.1,2.8,4.2,3.5,6.3.1.4.2.8.2,1.3.2,2.5-.8,4.9-2.7,6.5-2.5,2-5.7,2.1-7.9,1.5-1.2-.3-2.3-.8-3.1-1.4-1.4,1.2-3.2,1.9-5.1,1.9ZM284.9,63.1s0,0,0,0c0,0,0,0,0,0Z"/>
            </g>
            <g>
              <path class="cls-2" d="M301.4,77.3c0-2.6,0-5.3,0-6.4,0-.7,0-1.3-.5-2-.7-1.1-3-1-3.6.2-.3.5-.3,1-.3,1.5,0,1.7,0,10.2,0,11.9,0,1.2.7,2.6,2.1,2.6h.2c2,0,2.3-2,2.1-3.6v-4.3Z"/>
              <path class="cls-2" d="M299.1,91.6c-2.3,0-4.4-.9-6-2.5-1.6-1.7-2.5-4.1-2.5-6.5,0-2,0-10.1,0-11.8,0-1.6.3-3,1-4.3,1.2-2.5,3.8-4.3,6.8-4.5,3.1-.3,6.1,1.1,7.8,3.6,1.5,2.2,1.5,4.4,1.5,5.4v10.5c.2,3-.6,5.6-2.4,7.5-1.6,1.7-3.7,2.6-6.1,2.6h-.1s0,0,0,0ZM303.4,70.7h0s0,0,0,0Z"/>
            </g>
            <g>
              <path class="cls-2" d="M300,60.6c-3.9-.8-4.8,4.6-.7,4.8h.1c3,0,3.5-4.3.6-4.8Z"/>
              <path class="cls-2" d="M299.5,71.7c0,0-.2,0-.3,0h0c0,0-.1,0-.2,0-3.6-.2-6.5-2.1-7.9-5.2-1.3-3-.9-6.6,1.2-9.1,2.1-2.7,5.5-3.8,9-3.1,4.5.9,7.5,5,7,9.5-.5,4.5-4.2,7.9-8.7,7.9ZM298.8,66.8h0,0ZM299.4,59.1h0s0,0,0,0Z"/>
            </g>
            <g>
              <path class="cls-2" d="M313.7,68.1c-1.4.4-2.8,2.5-3.8,1-.4-.5-1-.9-1.7-.8-2.1.4-1.8,1.9-1.8,4,0,2.6,0,7,0,9.2-.1,1.5.1,3.6,2,3.7h.3c1.5-.2,2.2-1.6,2.1-3,0-1.7,0-4.3,0-6.2,0-.5,0-.9,0-1.3-.1-1.6,1.2-2.6,2.6-3.1,4.7-.8,3.1,5.3,3.4,8.3,0,1.5-.3,3.3.5,4.4.7,1.1,2.9,1.2,3.6-.1.5-1,.4-1.8.4-3.7,0-1.3,0-2.8,0-4.1.3-5.1-1.4-10.4-7.6-8.2Z"/>
              <path class="cls-2" d="M308.3,91.5c0,0-.2,0-.2,0-2.3,0-4.3-1.1-5.8-2.7-1.7-1.9-2.5-4.5-2.3-7.5v-9.6c0-7,3.8-9.1,7.1-9.7.1,0,.3,0,.4,0,1.2-.1,2.3,0,3.5.4.2-.1.5-.2.8-.3,5.6-1.9,9.3,0,11,1.3,3.4,2.6,5.2,7.2,4.9,13.1v3.9s0,0,0,.1c0,.4,0,.7,0,1,0,1.5,0,3.5-1.2,5.7-1.3,2.5-4,4.1-7,4.2-2.1,0-4.1-.6-5.6-1.8-1.3,1-2.8,1.7-4.5,1.8-.1,0-.2,0-.4,0h-.3c0,0-.2,0-.3,0Z"/>
            </g>
            <g>
              <path class="cls-2" d="M337.1,82.3c-1.8-.4-3.9-.2-5.7-.3-.9,0-1.7-.4-1.9-1.1-.3-1.6,1.6-1.3,2.7-1.3,2.6,0,5.2-1.1,6.2-3.6.4-1,.4-2.2.3-3.3,0-.7,0-1.1.4-1.4.6-.3,1.4-.5,1.6-1.2.6-2.9-3.4-1.9-5.2-2.2-3-.6-6.7-.4-8.7,2-2,2.2-1.5,5.5,0,7.8.1.3.1.3.1.7,0,.6-.6,1.3-.9,1.9-.4.8-.3,1.8,0,2.7,1.4,2.3-1.2,3-1.2,5.1-.1,3.3,4,4.7,6.7,4.4h.3c3.1-.4,7.4-1,9-4.1,1.1-2.8,0-5.7-3.6-6.2ZM332.2,70.8c3.3.2,3.2,6.1,0,6.3h-.1c-3.6.1-3.6-6.5.2-6.3ZM332.6,89.8h-.1c-.8,0-1.8-.1-2.5-.4-1.7-.5-2.2-2.7-.7-3.8.9-.3,2,.1,3,0,1.4,0,3.2-.2,4.2.7,1.3,2.2-2.1,3.7-3.9,3.5Z"/>
              <path class="cls-2" d="M330.8,98.9c-2.8,0-6.6-.9-9.3-3.4-2.1-2-3.2-4.7-3.1-7.5,0-1.8.6-3.2,1.2-4.2-.4-1.8-.3-3.6.3-5.3-1.7-4.3-1-9.2,1.9-12.6,3.1-3.7,8.3-5.3,14.4-4.2.2,0,.4,0,.6,0,2.1,0,5.9-.1,8.4,3,1.5,1.9,2.1,4.3,1.5,6.8,0,.2-.1.5-.2.7-.4,1.1-1,2-1.6,2.6,0,1.2-.3,2.4-.8,3.5,0,.1-.1.3-.2.4.8.7,1.4,1.5,2,2.4,1.7,2.8,1.9,6.3.6,9.6,0,.2-.2.4-.2.6-3.1,6.1-10,7-13.8,7.5,0,0-.2,0-.3,0h-.3c-.4,0-.8,0-1.2,0Z"/>
            </g>
            <g>
              <path class="cls-2" d="M349.6,74.9c-1,0-2.8,0-3.9,0-.8,0-1.3-.1-2.1.3-1.1.7-.7,2.9.8,2.9h.1c1.4,0,4.1,0,5.6,0,1.4,0,1.7-2.1.8-2.8-.4-.3-.9-.4-1.2-.3Z"/>
              <path class="cls-2" d="M347.8,84.5c-.7,0-1.3,0-2,0-.7,0-1.3,0-1.8,0-3.3-.2-6.1-2.4-7-5.7-1-3.4.3-7.1,3.3-8.9.2-.1.4-.2.6-.3,2-1,3.6-.9,4.4-.9h.2c0,0,.2,0,.2,0h3.9c1.8,0,3.6.5,5,1.5,0,0,0,0,.1,0,2.7,2,3.7,5.6,2.7,8.9-1,3.1-3.7,5.2-7,5.3-.7,0-1.6,0-2.6,0ZM344.4,71.7h0,0ZM350,71.7h0,0Z"/>
            </g>
            <g>
              <path class="cls-2" d="M375.8,63.5c-1.2-1.7-4.5-1.1-5.3.6-1.5,3.7-3,8.8-4.5,12.5-.6,1-1-1.2-1.2-1.6-.5-1.5-.6-2-1.2-3.5-.9-2.3-1.8-5.3-2.7-7.3-.6-1.5-2.7-1.9-4.1-1.3-1.6.8-1.2,2-1.3,3.4,0,3.3,0,10.9,0,14.5,0,2.1-.3,3.7,1.8,4.3h.1c2.8-.2,1.9-3.7,2.1-5.8,0-3.4,0-6.4-.4-9.7,0-.5,0-.9.3-.2,1,2.9,1.9,5.7,3,8.7.8,1.8,1.1,4.6,2.7,4.8,2.1.3,2.4-1.2,3.2-3.5.5-1.2.9-2.6,1.4-3.8.7-2,1.2-3.4,1.9-5.3.6-1.7.7-1.4.6.2-.3,3.2-.4,6.2-.3,9.5,0,1.9-.3,3.9.9,4.7.9.8,2.6.2,3-.7.2-.5.2-.9.2-1.3,0-2.2,0-10.8,0-15.6,0-1.1.2-2.7-.2-3.4Z"/>
              <path class="cls-2" d="M357.5,91.5c-.1,0-.3,0-.4,0h-.1c-.4,0-.8,0-1.1-.2-4.4-1.1-6.6-4.4-6.6-9.8v-.6s0-14.5,0-14.5c0,0,0-.1,0-.2,0-.1,0-.3,0-.4,0-3.9,1.5-6.8,4.7-8.4.1,0,.2-.1.3-.2,2.4-1.1,5.1-1.1,7.6-.2,1.6.6,2.9,1.6,3.9,2.9,1.5-2,4-3.4,6.8-3.7,3.4-.4,6.6,1,8.4,3.6.2.3.4.7.6,1,.9,1.8.8,3.6.8,5.1,0,.3,0,.5,0,.7,0,0,0,.3,0,.4v6.2c0,4,0,8,0,9.4,0,.8,0,2.2-.8,3.9-1,2.3-3.1,4-5.6,4.7-2.5.6-5.1,0-7-1.4-.3-.2-.6-.5-.8-.7-1,.3-2.3.4-3.7.2-.1,0-.3,0-.4,0-.2,0-.4,0-.5-.1-1.8,1.9-4.1,2.4-5.5,2.5-.2,0-.3,0-.5,0Z"/>
            </g>
            <g>
              <path class="cls-2" d="M394.5,73.4c-.5-6.4-8.1-7.1-12.4-3.9-.9.8-.5,2.3.6,2.6,1.1.3,2.3-.5,3.6-.6,1.2-.1,2.8.2,3.3,1.4.4.9-.4,1.5-1.4,1.7-2,.4-3.8.7-5.5,1.8-4,2.6-2.6,9.2,2.4,9.3h.1c.9,0,1.7-.2,2.5-.5,1.1-.3,2-1.5,3.1-1,1,.9,2.5,1.3,3.5,0,.5-.8.4-1.7.4-3.4,0-2.5.1-5-.2-7.4ZM390.1,80.1c0,.4-.2.6-.4.8-.7.7-1.9,1.3-2.7,1.3h0c-1.7-.1-2.7-1.3-2.1-2.9.9-1.7,3.4-2,5.1-2.2.2,0,.2.2.2.5,0,.7,0,1.8,0,2.6Z"/>
              <path class="cls-2" d="M385.2,92s0,0,0,0h-.1c-5.1-.1-9.2-3.3-10.5-8.2-1-3.5-.3-7,1.6-9.8-.3-.5-.5-1.1-.6-1.6-.7-2.8.2-5.7,2.3-7.6.2-.1.3-.3.5-.4,4.4-3.3,10.6-4,15.3-1.8,4.1,1.9,6.7,5.6,7.1,10.2.2,2,.2,4,.2,5.7,0,.8,0,1.5,0,2.3,0,0,0,.2,0,.3,0,.3,0,.6,0,.9,0,1.4,0,3.6-1.4,5.9,0,0-.1.2-.2.2-1.4,1.9-3.4,3.1-5.7,3.3-1.2.1-2.3,0-3.4-.4-.1,0-.2,0-.4.1-1.1.4-2.6.9-4.6.9h0ZM386.2,81.6s0,0,0,0c0,0,0,0,0,0ZM385.1,79.3h0Z"/>
            </g>
            <g>
              <path class="cls-2" d="M406.5,68.1c-1.4.4-2.8,2.5-3.8,1-.4-.5-1-.9-1.7-.8-2.1.4-1.8,1.9-1.8,4,0,2.6,0,7,0,9.2-.1,1.5.1,3.6,2,3.7h.3c1.5-.2,2.2-1.6,2.1-3,0-1.7,0-4.3,0-6.2,0-.5,0-.9,0-1.3-.1-1.6,1.2-2.6,2.6-3.1,4.7-.8,3.1,5.3,3.4,8.3,0,1.5-.3,3.3.5,4.4.7,1.1,2.9,1.2,3.6-.1.5-1,.4-1.8.4-3.7,0-1.3,0-2.8,0-4.1.3-5.1-1.4-10.4-7.6-8.2Z"/>
              <path class="cls-2" d="M401.2,91.5c0,0-.2,0-.2,0-2.3,0-4.3-1.1-5.8-2.7-1.7-1.9-2.5-4.5-2.3-7.5v-9.6c0-7,3.8-9.1,7.1-9.7.1,0,.3,0,.4,0,1.2-.1,2.3,0,3.5.4.2-.1.5-.2.8-.3,5.6-1.9,9.3,0,11,1.3,3.4,2.6,5.2,7.2,4.9,13.1v3.9s0,0,0,.1c0,.4,0,.7,0,1,0,1.5,0,3.5-1.2,5.7-1.3,2.5-4,4.1-7,4.2-2.1,0-4.1-.6-5.6-1.8-1.3,1-2.8,1.7-4.5,1.8-.1,0-.2,0-.4,0h-.3c0,0-.2,0-.3,0Z"/>
            </g>
            <g>
              <path class="cls-2" d="M430.3,61.2c-1,.5-1.2,1.6-1.2,2.7-.2,1.6.3,3.7-.1,4.9-.3.4-1.1-.4-1.9-.7-1.1-.5-2.6-.4-3.8-.1-7.8,2.2-7.5,17.5,1.2,17.7h.1c.8,0,1.5-.2,2.3-.5.8-.3,1.6-1,2.2-1.1.9-.2,1.5,1,2.4,1,1.4.1,2.2-1.1,2.1-2.2,0-2.7,0-16.5,0-19.2.2-1.8-1.4-3.3-3.3-2.4ZM429,79.7c0,1.2-1.8,2.3-3,2.4h-.1c-4.4.2-4.5-8.1-1.6-10.1,1.3-.8,3.4-.3,4.4.6.2.2.3.4.3.6,0,1.1,0,5,0,6.5Z"/>
              <path class="cls-2" d="M424.4,92s0,0-.1,0c-6.7-.1-11.9-5.2-12.8-12.7-.9-7,2.3-15.3,10.1-17.4,0,0,0,0,.1,0,.3,0,.8-.2,1.2-.2.8-3.9,3.4-5.6,4.7-6.2,0,0,0,0,0,0,2.9-1.3,6.1-1,8.6.8,2.4,1.7,3.7,4.6,3.6,7.6,0,3.1,0,15.8,0,18.8,0,2.4-.8,4.7-2.5,6.4-1.6,1.6-3.9,2.5-6.2,2.4-.7,0-1.4-.2-2-.3,0,0,0,0,0,0-1.5.6-2.9.9-4.4.9,0,0,0,0-.1,0h-.1s0,0,0,0ZM429.1,63.9h0,0Z"/>
            </g>
            <g>
              <path class="cls-2" d="M451.6,74.1c-.2-2.4-1.1-4.6-3.2-5.6-2.9-1.3-6.7-.9-9.2,1.1-.9.8-.5,2.3.6,2.6,1.1.3,2.3-.5,3.6-.6,1.2-.1,2.8.2,3.3,1.4.4.9-.4,1.5-1.4,1.7-2,.4-3.8.7-5.5,1.8-4.1,2.6-2.6,9.2,2.4,9.3h.1c.9,0,1.7-.2,2.5-.5,1-.3,1.7-1.2,2.6-1.1.9.4,1.6,1.4,2.8.9,1.7-.7,1.3-1.9,1.4-4.1,0-2.3,0-4.5,0-6.8ZM447.2,80.1c0,.4-.2.6-.4.8-.7.7-1.9,1.3-2.7,1.3h0c-1.7-.1-2.7-1.3-2.1-2.9.9-1.7,3.4-2,5.1-2.2.2,0,.2.2.2.5,0,.7,0,1.8,0,2.6Z"/>
              <path class="cls-2" d="M442.3,92s0,0,0,0h-.1c-5,0-9.2-3.3-10.5-8.1-1-3.5-.3-7,1.6-9.8-.3-.5-.5-1.1-.6-1.6-.7-2.8.2-5.7,2.3-7.6.1-.1.3-.3.5-.4,4.4-3.3,10.7-4,15.6-1.8,0,0,.1,0,.2,0,2.3,1.1,6.1,3.9,6.8,10.8,0,0,0,0,0,.1.1,1.7.1,3.4.1,4.9,0,.7,0,1.5,0,2.2,0,0,0,.2,0,.3,0,.3,0,.6,0,.8,0,1.7,0,6.7-5.4,8.9,0,0-.2,0-.3,0-2,.7-3.8.5-5.2,0,0,0-.2,0-.2,0-1.6.6-3.1.9-4.7.9h0ZM443.3,81.6s0,0,0,0c0,0,0,0,0,0Z"/>
            </g>
            <g>
              <path class="cls-2" d="M464.9,67.9c-1.8,0-3.1,1.5-4.3,2.7-.3.1-.4,0-.6-.6-.1-.4-.3-1-.7-1.3-1.1-1-3.1-.1-3.1,1.4,0,2.3,0,9.5,0,12.2-.1,1.3.6,2.9,2,3.1h.1c2.5,0,2.3-2.1,2.3-4.4.2-2.2-.5-4.9.6-6.8.8-1.3,2-2.1,3.5-2.3-.1,0,.2,0,.3,0,.1,0,.3,0,.4-.1,1.9-.7,1.8-3.9-.5-3.8Z"/>
              <path class="cls-2" d="M458.3,91.7c-.3,0-.6,0-.8,0h-.1c-4.6-.7-7.8-4.9-7.5-9.7,0-1,0-2.6,0-4.3,0-3,0-6.2,0-7.7,0-3.1,1.9-5.9,4.8-7.3,2-.9,4.2-1,6.2-.3,1.1-.5,2.3-.8,3.7-.9,4-.2,7.3,2.3,8.2,6.1,1,4.1-1.2,8.3-5.1,9.9-.3.1-.6.2-.9.3,0,.2,0,.4,0,.6,0,.8,0,1.7,0,2.7v.2c0,2.2,0,5.4-2.5,8-1.1,1.1-3,2.4-6.1,2.5h0ZM465.5,78.1h0s0,0,.1,0c0,0,0,0-.1,0Z"/>
            </g>
            <g>
              <path class="cls-2" d="M472.4,60.6c-3.9-.8-4.8,4.6-.7,4.8h.1c3,0,3.5-4.3.6-4.8Z"/>
              <path class="cls-2" d="M471.9,71.7c0,0-.2,0-.3,0h0c0,0-.1,0-.2,0-3.6-.2-6.5-2.1-7.9-5.2-1.3-3-.9-6.6,1.2-9.1,2.1-2.7,5.5-3.8,9-3.1,4.5.9,7.5,5,7,9.5-.5,4.5-4.2,7.9-8.7,7.9ZM471.2,66.8h0,0Z"/>
            </g>
            <g>
              <path class="cls-2" d="M473.4,69c-.7-1-2.8-1-3.4,0-.5.7-.5,1.3-.5,2,0,1.1,0,3.8,0,6.4,0,2,0,3.5,0,5-.1,1.3.5,2.9,2.1,2.9h.2c1.4,0,2.2-1.3,2.1-2.6,0-1.7,0-10.2,0-11.9,0-.6-.1-1.2-.5-1.8Z"/>
              <path class="cls-2" d="M471.9,91.6s0,0-.1,0h0s0,0,0,0c-2.4,0-4.5-.9-6.1-2.7-1.6-1.8-2.5-4.3-2.3-6.8v-11.1c0-1,0-3.1,1.5-5.4,1.5-2.3,4.1-3.6,7-3.6s5.5,1.3,7,3.6c1,1.5,1.6,3.4,1.6,5.3,0,1.8,0,9.7,0,11.7,0,2.4-.8,4.8-2.5,6.5-1.6,1.6-3.7,2.5-5.9,2.5Z"/>
            </g>
            <g>
              <path class="cls-2" d="M493.6,80.4c0-1.3,0-2.8,0-4.1.3-5.1-1.4-10.4-7.6-8.2-1.4.4-2.8,2.5-3.8,1-.4-.5-1-.9-1.7-.8-2.1.4-1.8,1.9-1.8,4,0,2.6,0,7,0,9.2-.1,1.5.1,3.6,2,3.7h.3c1.5-.2,2.2-1.6,2.1-3,0-1.7,0-4.3,0-6.2,0-.5,0-.9,0-1.3-.1-1.6,1.2-2.6,2.6-3.1,4.7-.8,3.1,5.3,3.4,8.3,0,1.5-.3,3.3.5,4.4.7,1.1,2.9,1.2,3.6-.1.5-1,.4-1.8.4-3.7Z"/>
              <path class="cls-2" d="M480.7,91.5c0,0-.2,0-.2,0-2.3,0-4.3-1.1-5.8-2.7-1.7-1.9-2.5-4.5-2.3-7.5v-9.6c0-7,3.8-9.1,7.1-9.7.1,0,.3,0,.4,0,1.2-.1,2.4,0,3.5.4.2-.1.5-.2.8-.3,5.6-1.9,9.3,0,11,1.3,3.4,2.6,5.2,7.2,4.9,13.1v3.9s0,0,0,.1c0,.4,0,.7,0,1,0,1.5,0,3.5-1.2,5.7-1.3,2.5-4,4.1-7,4.2-2.1,0-4.1-.6-5.6-1.8-1.3,1-2.8,1.7-4.5,1.8-.1,0-.2,0-.4,0h-.3c0,0-.2,0-.3,0ZM493.6,80.4h0,0Z"/>
            </g>
          </g>
        </g>
        <g>
          <g>
            <g>
              <path class="cls-3" d="M15.2,82c-1.6-.6-3.1-1.5-4.4-2.6-2.9-2.5-4.6-6.3-4.4-10.2,0-4,2-7.6,5.2-10.1.8-.7,1.9-1.3,2.9-1.7,8.5,12.5.7,24.6.7,24.6h0Z"/>
              <path class="cls-6" d="M15.2,82c-1.6-.6-3.1-1.5-4.4-2.6.3-3,.5-6.3.7-9.6.2-3.7.2-7.3,0-10.6.8-.7,1.9-1.3,2.9-1.7.3,8.2.5,16.4.7,24.6h0Z"/>
            </g>
            <g>
              <path class="cls-5" d="M66.4,47.2c-2.5,0-4.7,1-6.5,3.2h0c-.8.9-1.6,2.1-2.2,3.6-1.9,4-3,9.7-3,17.6s.7,11.6,1.8,18.4c2.5,16.2,7.2,33.4,10,33.4s7.7-17.6,10.1-33.9c1-6.6,1.6-12.9,1.6-17.9,0-17-5.2-24.4-11.7-24.4,0,0,0,0,0,0Z"/>
              <path class="cls-5" d="M117.8,70c0,11.8-4.1,23.4-14,28.4-9.4,5.7-25.7,5.1-38.2,5.1s-28.8.5-38.2-5.1c-10-5.1-12.9-16.4-11.8-27.9-1.3-11.6,1.8-22.9,11.8-27.9,9.4-5.7,25.7-5.1,38.2-5.1s28.8-.5,38.2,5.1c10,5.1,14.3,15.3,14,27.4Z"/>
            </g>
            <path class="cls-4" d="M63.9,44.6c-2.5,0-4.7,1-6.5,3.2h0c-.8.9-1.6,2.1-2.2,3.6h0c-1.9,4-3,9.7-3,17.6s.7,11.6,1.8,18.4c2.5,16.2,7.2,33.4,10,33.4s7.7-17.6,10.1-33.9c1-6.6,1.6-12.9,1.6-17.9,0-17-5.2-24.4-11.7-24.4h0ZM64.3,94.7c-.7,0-1.2-1.4-1.2-3s.5-3,1.2-3,1.2,1.4,1.2,3-.5,3-1.2,3ZM72.1,82c-1.9,2-5.4,2-8.3,2s-6.4,0-8.3-2-2.6-14.4-1.8-18.5,5.7-6.9,10.1-6.9,9.2,2.8,10.1,6.9,0,16.5-1.8,18.5Z"/>
            <path class="cls-4" d="M113.1,67.9c.3,12.1-1.8,22.9-11.8,28-9.4,5.7-25.7,5.1-38.2,5.1s-28.8.5-38.2-5.1c-10-5.1-11.8-16.1-11.8-27.9,0-12.8,1.8-22.9,11.8-27.9,9.4-5.7,25.7-5.1,38.2-5.1s28.8-.5,38.2,5.1c10,5.1,11.5,15.2,11.8,27.9h0Z"/>
            <path class="cls-3" d="M101.5,68.3c0,14.3-8.8,26-19.7,26h-35.7c-10.9,0-19.7-11.6-19.7-26h0c0-14.3,8.8-26,19.7-26h35.7c10.9,0,19.7,11.6,19.7,26h0Z"/>
            <path class="cls-1" d="M71,77.2c0,4-3.2,7.2-7.2,7.2s-7.2-3.2-7.2-7.2h14.4Z"/>
            <g>
              <g>
                <path class="cls-3" d="M52.1,25h-.3c-3.5-1.9-5.7-5.5-5.7-9.5s1.9-7.2,5.2-9.1c.3-.2.7,0,.8.3.2.3,0,.7-.3.8-2.9,1.7-4.6,4.7-4.6,8s1.9,6.7,5,8.3c.3.2.4.5.3.8,0,.2-.3.3-.6.3h0Z"/>
                <path class="cls-3" d="M53,21.4c-.2,0-.3,0-.4-.2-1.7-1.5-2.6-3.5-2.6-5.5s.9-4.1,2.7-5.6c.3-.3.7-.2.9,0,.3.3.2.7,0,.8-1.4,1.3-2.3,2.9-2.3,4.6s.8,3.3,2.2,4.6c.3.3.3.6,0,.8,0,.2-.3.2-.5.2v.3Z"/>
              </g>
              <g>
                <path class="cls-3" d="M74.7,25h.3c3.5-1.9,5.7-5.5,5.7-9.5s-1.9-7.2-5.2-9.1c-.3-.2-.7,0-.8.3-.2.3,0,.7.3.8,2.9,1.7,4.6,4.7,4.6,8s-1.9,6.7-5,8.3c-.3.2-.4.5-.3.8,0,.2.3.3.6.3h0Z"/>
                <path class="cls-3" d="M73.7,21.4c.2,0,.3,0,.4-.2,1.7-1.5,2.6-3.5,2.6-5.5s-.9-4.1-2.7-5.6c-.3-.3-.7-.2-.8,0-.3.3-.2.7,0,.8,1.4,1.3,2.3,2.9,2.3,4.6s-.8,3.3-2.2,4.6c-.3.3-.3.6,0,.8,0,.2.3.2.5.2v.3h0Z"/>
              </g>
              <path class="cls-3" d="M66.4,34.6c0,1.5-1.2,2.7-2.7,2.7h0c-1.5,0-2.7-1.2-2.7-2.7l1.7-14.3c0-1.5-.5-2.7,1-2.7h0c1.5,0,1,1.2,1,2.7l1.7,14.3Z"/>
              <path class="cls-3" d="M63.3,9.8h.8c3,0,5.5,2.5,5.5,5.5v.8c0,3-2.5,5.5-5.5,5.5h-.8c-3,0-5.5-2.5-5.5-5.5v-.8c0-3,2.5-5.5,5.5-5.5Z"/>
            </g>
            <path class="cls-1" d="M53.1,65.3c0,1.6-1.3,2.9-2.9,2.9h0c-1.6,0-2.9-1.3-2.9-2.9v-7.4c0-1.6,1.3-2.9,2.9-2.9h0c1.6,0,2.9,1.3,2.9,2.9v7.4Z"/>
            <path class="cls-1" d="M78.6,65.3c0,1.6-1.3,2.9-2.9,2.9h0c-1.6,0-2.9-1.3-2.9-2.9v-7.4c0-1.6,1.3-2.9,2.9-2.9h0c1.6,0,2.9,1.3,2.9,2.9v7.4Z"/>
            <g>
              <path class="cls-3" d="M118.4,61.5c-.3,3-.5,6.3-.7,9.6-.2,3.7-.2,7.3,0,10.6,3.1-2.5,5.1-6.1,5.2-10.1,0-3.9-1.6-7.6-4.4-10.2h0Z"/>
              <path class="cls-6" d="M118.4,61.5c-.7-.6-.9-.8-1.7-1.4-.7-.4-4.4,10.6-.4,22.5,1-.4.5-.3,1.4-.9,0-3.4,0-6.9,0-10.6.2-3.4.3-6.6.7-9.6h0Z"/>
            </g>
          </g>
          <g>
            <path class="cls-1" d="M149.7,85.7c-2.5,0-4.7-.7-6.7-2-1-.8-1.1-1.8-.3-2.7.9-1.1,1.9-1.2,3.1-.3,1.4.8,2.7,1.2,4,1.2s2-.3,2.6-.7c.6-.4.9-1.1.9-1.9s-.3-1.4-.8-1.8c-.3-.3-1.1-.7-2.3-1.2h-.3l-3-1.3c-3-1.3-4.6-3.3-4.6-6.1s.8-3.4,2.2-4.7c1.4-1.3,3.3-1.9,5.6-1.9s4.1.6,5.8,1.8c.8.8.9,1.5.2,2.5-.8,1-1.7,1.1-2.7.4-1-.5-2-.8-3.2-.8s-1.8.3-2.4.7-.8,1-.8,1.7.3,1.3,1,1.8c.4.3,1.2.7,2.4,1.1h.3l3,1.3c1.4.6,2.5,1.4,3.3,2.3.8,1,1.3,2.3,1.3,3.9s-.8,3.5-2.2,4.7c-1.5,1.4-3.6,2-6.1,2h-.2Z"/>
            <path class="cls-3" d="M163.8,85.3c-1.4,0-2.2-.8-2.2-2.2v-12.9c0-1.2.7-1.9,1.9-1.9s1.8.5,1.9,1.6v.7h.3c.8-.8,1.6-1.5,2.3-1.9.9-.5,1.9-.8,3-.8,2.3,0,3.8,1,4.7,3,.9-.9,1.7-1.7,2.5-2.1.9-.6,1.9-.8,3-.8,1.8,0,3.1.6,4,1.9.8,1.2,1.3,2.8,1.3,5v8.4c0,1.4-.8,2.2-2.2,2.2s-2.3-.8-2.3-2.2v-7.9c0-1.3-.2-2.2-.6-2.8-.3-.5-.9-.8-1.8-.8s-2,.7-3.3,1.9v9.5c0,1.4-.8,2.2-2.2,2.2s-2.3-.8-2.3-2.2v-7.9c0-1.3-.2-2.2-.6-2.8-.3-.5-.9-.8-1.8-.8s-2,.7-3.3,1.9v9.5c0,1.4-.8,2.2-2.2,2.2h0Z"/>
            <path class="cls-3" d="M195.1,85.7c-1.5,0-2.7-.5-3.6-1.4s-1.4-2.2-1.4-3.6.8-3.2,2.3-4.2,4.1-1.7,7.4-2c0-1.9-1-3-2.9-3s-1.9.3-3,.8-1.9.3-2.5-.7c-.5-.9-.3-1.7.6-2.2,1.9-1,3.8-1.5,5.8-1.5s3.8.6,4.9,1.9,1.7,3.1,1.7,5.6v8.1c0,1.2-.7,1.9-1.9,1.9s-1.8-.5-2-1.6v-.3h0c-1.8,1.5-3.5,2.3-5.2,2.3h0ZM196.6,82.2c1.1,0,2.2-.6,3.3-1.7v-3.5c-1.9.3-3.4.7-4.3,1.2-.8.5-1.2,1.2-1.2,1.9,0,1.3.8,1.9,2.3,1.9h0Z"/>
            <path class="cls-3" d="M211.1,85.3c-1.4,0-2.2-.8-2.2-2.2v-12.9c0-1.2.6-1.9,1.9-1.9s1.9.6,1.9,1.7v1.4h.3c.6-1.1,1.4-1.9,2.2-2.5s1.7-.8,2.6-.8h.4c.5,0,.9.4,1.1.8s.3.9,0,1.5c-.3,1.3-1,1.9-2.1,1.6h0c-.8,0-1.4.3-2.1.8-.8.6-1.4,1.4-1.9,2.6v8c0,1.4-.8,2.2-2.2,2.2v-.2h0Z"/>
            <path class="cls-3" d="M228.4,85.7c-3.7,0-5.6-2.1-5.6-6.3v-7.5h-.8c-1.1,0-1.6-.6-1.6-1.7s.5-1.7,1.5-1.7h1.1l.3-3c0-1.2.8-1.7,1.9-1.7s1.9.6,1.9,1.9v2.7h2.5c1.2,0,1.8.6,1.8,1.8s-.6,1.8-1.8,1.8h-2.5v7.5c0,1.9.8,2.9,2.3,2.9h0c1-.3,1.7.2,1.9,1.3.3,1,0,1.7-1,1.9-.8.2-1.5.3-2.3.3h.2Z"/>
            <path class="cls-1" d="M241.4,85.3c-1.5,0-2.3-.8-2.3-2.3v-16.5h-4.5c-1.3,0-1.9-.6-1.9-1.9s.6-1.9,1.9-1.9h13.5c1.3,0,1.9.6,1.9,1.9s-.6,1.9-1.9,1.9h-4.6v16.5c0,1.5-.8,2.3-2.3,2.3h0Z"/>
            <path class="cls-3" d="M255.3,85.7c-1.5,0-2.7-.5-3.6-1.4-.9-.9-1.4-2.2-1.4-3.6s.8-3.2,2.3-4.2,4.1-1.7,7.4-2c0-1.9-1-3-2.9-3s-1.9.3-3,.8c-1.1.5-1.9.3-2.5-.7-.5-.9-.3-1.7.6-2.2,1.9-1,3.8-1.5,5.8-1.5s3.8.6,4.9,1.9,1.7,3.1,1.7,5.6v8.1c0,1.2-.7,1.9-1.9,1.9s-1.8-.5-2-1.6v-.3h0c-1.8,1.5-3.5,2.3-5.2,2.3h0ZM256.7,82.2c1.1,0,2.2-.6,3.3-1.7v-3.5c-1.9.3-3.4.7-4.3,1.2-.8.5-1.2,1.2-1.2,1.9,0,1.3.8,1.9,2.3,1.9h0Z"/>
            <path class="cls-3" d="M273.2,85.7c-2.8,0-4.2-1.7-4.2-5.2v-17.3c0-1.4.8-2.2,2.2-2.2s2.2.8,2.2,2.2v17.5c0,.9.3,1.4.9,1.4h0c.2,0,.3,0,.4.3,0,.2.2.3.3.6,0,.6,0,1.1,0,1.6-.2.6-.4,1-.8,1.1h-1.1.2,0Z"/>
            <path class="cls-3" d="M280.9,85.3c-1.4,0-2.2-.7-2.2-2.2v-20c0-1.4.8-2.2,2.2-2.2s2.2.7,2.2,2.2v12.4h0l5.2-6.4c.5-.6,1.2-.9,1.9-.9h2.5c.3,0,.6,0,.6.3s0,.3-.3.6l-5.2,6.1,5,7.9c.4.7.6,1.2.3,1.6-.3.4-.8.6-1.5.6h-.8c-.4,0-.8,0-1.2-.3-.3-.3-.7-.5-.9-.8l-3.5-5.8-2.5,2.8v2.1c0,1.4-.8,2.2-2.2,2.2h.2,0Z"/>
            <path class="cls-3" d="M299.3,65.5c-.8,0-1.4-.3-1.9-.7-.5-.4-.8-1-.8-1.8s.3-1.4.8-1.8,1.2-.7,1.9-.7,1.4.3,1.9.7c.5.4.8,1,.8,1.8s-.3,1.3-.8,1.8-1.1.7-1.9.7ZM299.2,85.3c-1.4,0-2.2-.8-2.2-2.2v-12.6c0-1.4.8-2.2,2.2-2.2s2.2.8,2.2,2.2v12.6c0,1.4-.8,2.2-2.2,2.2Z"/>
            <path class="cls-3" d="M308.5,85.3c-1.4,0-2.2-.8-2.2-2.2v-12.9c0-1.2.7-1.9,1.9-1.9s1.8.5,1.9,1.6v.6h.3c1.9-1.8,3.6-2.7,5.5-2.7,3.5,0,5.2,2.3,5.2,6.9v8.4c0,1.4-.8,2.2-2.2,2.2s-2.3-.8-2.3-2.2v-7.9c0-1.3-.2-2.2-.6-2.8-.3-.5-1-.8-1.9-.8s-1.3.2-1.9.5c-.4.3-1,.8-1.7,1.4v9.5c0,1.4-.8,2.2-2.2,2.2v.2h0Z"/>
            <path class="cls-3" d="M331.8,92.6c-2.1,0-3.8-.3-5.1-1.1-1.4-.8-2-1.9-2-3.3s.8-2.6,2.5-3.6v-.2c-1-.7-1.5-1.6-1.5-2.9s.2-1.2.6-1.8c.3-.5.8-1,1.3-1.4h0c-.6-.6-1.2-1.2-1.5-1.9-.5-.8-.7-1.7-.7-2.6,0-1.9.7-3.5,2-4.6,1.3-1,2.9-1.6,4.8-1.6s1.8.2,2.5.4h4.5c1.1,0,1.6.5,1.6,1.6s-.5,1.6-1.6,1.6h-1.3c.5.7.8,1.5.8,2.6,0,1.9-.7,3.3-1.9,4.3-1.2,1-2.7,1.4-4.7,1.4s-1.4-.2-2.2-.4c-.5.4-.8.8-.8,1.4s.2.8.6,1c.4.3,1.1.3,2.1.3h2.9c4.2,0,6.3,1.4,6.3,4.2s-.8,3.2-2.5,4.3c-1.7,1.2-4,1.7-6.8,1.7v.3h0ZM332.4,89.8c1.3,0,2.3-.3,3.1-.8.8-.5,1.2-1,1.2-1.8s-.3-1-.8-1.2c-.4-.2-1.1-.3-2.1-.3h-2c-.9,0-1.7,0-2.4-.3-.8.6-1.1,1.3-1.1,1.9s.3,1.3,1.1,1.7,1.7.6,3,.6h0ZM332.1,77.2c.8,0,1.4-.3,1.9-.8.5-.6.8-1.4.8-2.3s-.3-1.8-.8-2.3-1.1-.8-1.9-.8-1.4.3-1.9.8c-.5.6-.8,1.4-.8,2.3s.3,1.8.8,2.3,1.1.8,1.9.8h0Z"/>
            <path class="cls-3" d="M344.6,78.2c-1,0-1.6-.5-1.6-1.6s.5-1.6,1.6-1.6h5.2c1,0,1.6.5,1.6,1.6s-.5,1.6-1.6,1.6h-5.2Z"/>
            <path class="cls-1" d="M357.6,85.3c-1.4,0-2-.7-2-2v-18.5c0-.6.2-1.1.5-1.4s.8-.5,1.4-.5h1.4c.5,0,.9.2,1.3.4.4.3.7.6.8,1.1l3.3,9.1c.3.7.5,1.6.9,3,.2.6.3,1.1.4,1.4h.2c.2-.4.3-1.1.7-2,.3-1,.5-1.9.8-2.4l3.2-9.1c.2-.4.4-.8.8-1.1.4-.3.8-.4,1.3-.4h2.3c.3,0,.6,0,.8.3s.3.5.3.8v19.3c0,1.4-.7,2-2,2s-2-.7-2-2v-7.4c0-1.3.2-3.6.5-6.9v-.5h0l-1.9,5.3-3,8.2c-.2.3-.3.7-.7.8-.3.3-.7.3-1.1.3h0c-.8,0-1.4-.3-1.6-1.1l-3-8.3-1.8-5.3h0c0,.3,0,.6,0,1.1.3,3,.4,5.2.4,6.3v7.4c0,1.4-.7,2-2,2h0Z"/>
            <path class="cls-3" d="M385.4,85.7c-1.5,0-2.7-.5-3.6-1.4-.9-.9-1.4-2.2-1.4-3.6s.8-3.2,2.3-4.2,4.1-1.7,7.4-2c0-1.9-1-3-2.9-3s-1.9.3-3,.8c-1.1.5-1.9.3-2.5-.7-.5-.9-.3-1.7.6-2.2,1.9-1,3.8-1.5,5.8-1.5s3.8.6,4.9,1.9,1.7,3.1,1.7,5.6v8.1c0,1.2-.7,1.9-1.9,1.9s-1.8-.5-2-1.6v-.3h0c-1.8,1.5-3.5,2.3-5.2,2.3h0ZM386.8,82.2c1.1,0,2.2-.6,3.3-1.7v-3.5c-1.9.3-3.4.7-4.3,1.2-.8.5-1.2,1.2-1.2,1.9,0,1.3.8,1.9,2.3,1.9h0Z"/>
            <path class="cls-3" d="M401.4,85.3c-1.4,0-2.2-.8-2.2-2.2v-12.9c0-1.2.7-1.9,1.9-1.9s1.8.5,1.9,1.6v.6h.3c1.9-1.8,3.6-2.7,5.5-2.7,3.5,0,5.2,2.3,5.2,6.9v8.4c0,1.4-.8,2.2-2.2,2.2s-2.3-.8-2.3-2.2v-7.9c0-1.3-.2-2.2-.6-2.8-.3-.5-1-.8-1.9-.8s-1.3.2-1.9.5c-.4.3-1,.8-1.7,1.4v9.5c0,1.4-.8,2.2-2.2,2.2v.2h0Z"/>
            <path class="cls-3" d="M424.7,85.7c-2.1,0-3.8-.8-5.1-2.4s-1.9-3.7-1.9-6.5.8-4.9,2.2-6.6c1.4-1.6,3-2.4,5-2.4s1.7.2,2.5.5c.6.3,1.2.7,1.9,1.4l-.2-2.7v-3.8c0-1.4.8-2.2,2.3-2.2s2.2.8,2.2,2.2v20.2c0,.6-.2,1-.5,1.4s-.8.4-1.4.4c-1.1,0-1.8-.5-1.9-1.5v-.3h-.2c-1.5,1.4-3,2.2-4.7,2.2h0ZM425.8,82.1c1.2,0,2.3-.6,3.1-1.8v-7.4c-.9-.8-1.9-1.3-3.1-1.3s-1.9.4-2.5,1.4c-.7.9-1,2.3-1,3.9s.3,3,.9,4,1.4,1.4,2.6,1.4h0Z"/>
            <path class="cls-3" d="M442.4,85.7c-1.5,0-2.7-.5-3.6-1.4s-1.4-2.2-1.4-3.6.8-3.2,2.3-4.2,4.1-1.7,7.4-2c0-1.9-1-3-2.9-3s-1.9.3-3,.8-1.9.3-2.5-.7c-.5-.9-.3-1.7.6-2.2,1.9-1,3.8-1.5,5.8-1.5s3.8.6,4.9,1.9,1.7,3.1,1.7,5.6v8.1c0,1.2-.7,1.9-1.9,1.9s-1.8-.5-2-1.6v-.3h0c-1.8,1.5-3.5,2.3-5.2,2.3h0ZM443.9,82.2c1.1,0,2.2-.6,3.3-1.7v-3.5c-1.9.3-3.4.7-4.3,1.2-.8.5-1.2,1.2-1.2,1.9,0,1.3.8,1.9,2.3,1.9h0Z"/>
            <path class="cls-3" d="M458.4,85.3c-1.4,0-2.2-.8-2.2-2.2v-12.9c0-1.2.6-1.9,1.9-1.9s1.9.6,1.9,1.7v1.4h.3c.6-1.1,1.4-1.9,2.2-2.5s1.7-.8,2.6-.8h.4c.5,0,.9.4,1.1.8s.3.9,0,1.5c-.3,1.3-1,1.9-2.1,1.6h0c-.8,0-1.4.3-2.1.8-.8.6-1.4,1.4-1.9,2.6v8c0,1.4-.8,2.2-2.2,2.2v-.2h0Z"/>
            <path class="cls-3" d="M471.7,65.5c-.8,0-1.4-.3-1.9-.7s-.8-1-.8-1.8.3-1.4.8-1.8c.5-.4,1.2-.7,1.9-.7s1.4.3,1.9.7c.5.4.8,1,.8,1.8s-.3,1.3-.8,1.8c-.5.5-1.1.7-1.9.7ZM471.7,85.3c-1.4,0-2.2-.8-2.2-2.2v-12.6c0-1.4.8-2.2,2.2-2.2s2.2.8,2.2,2.2v12.6c0,1.4-.8,2.2-2.2,2.2Z"/>
            <path class="cls-3" d="M480.9,85.3c-1.4,0-2.2-.8-2.2-2.2v-12.9c0-1.2.7-1.9,1.9-1.9s1.8.5,1.9,1.6v.6h.3c1.9-1.8,3.6-2.7,5.5-2.7,3.5,0,5.2,2.3,5.2,6.9v8.4c0,1.4-.8,2.2-2.2,2.2s-2.3-.8-2.3-2.2v-7.9c0-1.3-.2-2.2-.6-2.8-.3-.5-1-.8-1.9-.8s-1.3.2-1.9.5c-.4.3-1,.8-1.7,1.4v9.5c0,1.4-.8,2.2-2.2,2.2v.2h0Z"/>
          </g>
        </g>
      </g>
    </g>
  </g>
</svg>