<?xml version="1.0" encoding="utf-8"?>
<!-- Generator: Adobe Illustrator 26.5.0, SVG Export Plug-In . SVG Version: 6.00 Build 0)  -->
<svg version="1.1" id="圖層_1" xmlns="http://www.w3.org/2000/svg" xmlns:xlink="http://www.w3.org/1999/xlink" x="0px" y="0px"
	 viewBox="0 0 75 75" style="enable-background:new 0 0 75 75;" xml:space="preserve">
<style type="text/css">
	.st0{fill:#9394C8;}
	.st1{fill:#675F91;}
	.st2{opacity:0.7;}
	.st3{fill:#FFFFFF;}
	.st4{fill:none;}
</style>
<g>
	<path class="st0" d="M75,37.5C75,58.2,58.2,75,37.5,75S0,58.2,0,37.5S16.8,0,37.5,0S75,16.8,75,37.5"/>
	<path class="st1" d="M69.5,37.5c0,17.7-14.3,32-32,32s-32-14.3-32-32s14.3-32,32-32S69.5,19.8,69.5,37.5"/>
	<g class="st2">
		<g>
			<path class="st3" d="M37.5,3.3c20.2,0,36.6,15.9,37.4,35.9c0-0.5,0.1-1.1,0.1-1.6C75,16.8,58.2,0,37.5,0S0,16.8,0,37.5
				c0,0.6,0.1,1.1,0.1,1.6C0.9,19.2,17.3,3.3,37.5,3.3"/>
			<rect class="st4" width="75" height="39.1"/>
		</g>
	</g>
</g>
<g>
	<g>
		<path class="st3" d="M32.5,37.1h-8.8c-0.3,0-0.5-0.2-0.5-0.5c0-0.3,0.2-0.5,0.5-0.5h8.8c0.3,0,0.5,0.2,0.5,0.5
			C33.1,36.9,32.8,37.1,32.5,37.1z"/>
		<path class="st3" d="M32.5,40.7h-8.8c-0.3,0-0.5-0.2-0.5-0.5c0-0.3,0.2-0.5,0.5-0.5h8.8c0.3,0,0.5,0.2,0.5,0.5
			C33.1,40.4,32.8,40.7,32.5,40.7z"/>
		<path class="st3" d="M28.4,44.5h-4.6c-0.3,0-0.5-0.2-0.5-0.5c0-0.3,0.2-0.5,0.5-0.5h4.6c0.3,0,0.5,0.2,0.5,0.5
			C28.9,44.2,28.7,44.5,28.4,44.5z"/>
	</g>
	<g>
		<path class="st3" d="M39.6,53.1c-2.2,0-4.2-0.4-6.1-1.2c-1.2,0.4-2.4,0.6-3.7,0.6c-6.8,0-12.3-5.5-12.3-12.3S23.1,28,29.8,28
			s12.3,5.5,12.3,12.3c0,2.8-1,5.5-2.7,7.7l4.6,4.5l-0.9,0.2C43,52.8,41.6,53.1,39.6,53.1z M33.6,50.8l0.2,0.1
			c1.8,0.8,3.8,1.2,5.8,1.2c0.9,0,1.7-0.1,2.2-0.2l-3.9-3.8l0.3-0.4c1.8-2,2.8-4.7,2.8-7.4c0-6.2-5-11.2-11.2-11.2
			s-11.2,5-11.2,11.2c0,6.2,5,11.2,11.2,11.2c1.2,0,2.4-0.2,3.5-0.6L33.6,50.8z"/>
	</g>
	<g>
		<g>
			<path class="st1" d="M39.3,40.2c1.3,0.1,3.3,0.1,5.5-0.8l0.2-0.1l0.2,0.1c0.8,0.3,1.7,0.4,2.6,0.4c4.6,0,8.3-3.7,8.3-8.3
				c0-4.6-3.7-8.3-8.3-8.3c-4.6,0-8.3,3.7-8.3,8.3c0,2,0.7,4,2.1,5.5l0.4,0.5L39.3,40.2z"/>
		</g>
	</g>
	<g>
		<path class="st3" d="M40.4,41.6c-1.6,0-2.6-0.3-2.7-0.3L36.5,41l3.7-3.6c-1.3-1.7-2-3.7-2-5.9c0-5.3,4.3-9.6,9.6-9.6
			c5.3,0,9.6,4.3,9.6,9.6s-4.3,9.6-9.6,9.6c-1,0-1.9-0.1-2.8-0.4C43.3,41.4,41.7,41.6,40.4,41.6z M39.3,40.2
			c1.3,0.1,3.3,0.1,5.5-0.8l0.2-0.1l0.2,0.1c0.8,0.3,1.7,0.4,2.6,0.4c4.6,0,8.3-3.7,8.3-8.3c0-4.6-3.7-8.3-8.3-8.3
			c-4.6,0-8.3,3.7-8.3,8.3c0,2,0.7,4,2.1,5.5l0.4,0.5L39.3,40.2z"/>
	</g>
	<g>
		<path class="st3" d="M47.5,26.9c-2.7,0-4.8,2.2-4.8,4.8c0,2.7,2.2,4.8,4.8,4.8c2.7,0,4.8-2.2,4.8-4.8h-4.8V26.9z"/>
		<path class="st3" d="M53.8,31h-5.5v-5.5h0.4c2.9,0,5.2,2.3,5.2,5.2V31z M49,30.3h4.1c-0.2-2.2-1.9-3.9-4.1-4.1V30.3z"/>
	</g>
</g>
</svg>
