<?xml version="1.0" encoding="utf-8"?>
<!-- Generator: Adobe Illustrator 26.5.0, SVG Export Plug-In . SVG Version: 6.00 Build 0)  -->
<svg version="1.1" id="圖層_1" xmlns="http://www.w3.org/2000/svg" xmlns:xlink="http://www.w3.org/1999/xlink" x="0px" y="0px"
	 viewBox="0 0 75 75" style="enable-background:new 0 0 75 75;" xml:space="preserve">
<style type="text/css">
	.st0{fill:#93C980;}
	.st1{fill:#3F9979;}
	.st2{opacity:0.3;}
	.st3{fill:#F2A306;}
	.st4{fill:none;}
	.st5{opacity:0.4;}
	.st6{fill:#FFFFFF;}
</style>
<g>
	<path class="st0" d="M75,37.5C75,58.2,58.2,75,37.5,75S0,58.2,0,37.5S16.8,0,37.5,0S75,16.8,75,37.5"/>
	<path class="st1" d="M69.5,37.5c0,17.7-14.3,32-32,32s-32-14.3-32-32s14.3-32,32-32S69.5,19.8,69.5,37.5"/>
	<g class="st2">
		<g>
			<path class="st3" d="M37.5,64.8c-16.9,0-30.6-13.1-31.8-29.6c-0.1,0.8-0.1,1.5-0.1,2.3c0,17.7,14.3,32,32,32s32-14.3,32-32
				c0-0.8-0.1-1.6-0.1-2.3C68.2,51.7,54.4,64.8,37.5,64.8"/>
			<rect x="5.5" y="35.2" class="st4" width="63.9" height="34.3"/>
		</g>
	</g>
	<g class="st5">
		<g>
			<path class="st6" d="M37.5,3.3c20.2,0,36.6,15.9,37.4,35.9c0-0.5,0.1-1.1,0.1-1.6C75,16.8,58.2,0,37.5,0S0,16.8,0,37.5
				c0,0.6,0.1,1.1,0.1,1.6C0.9,19.2,17.3,3.3,37.5,3.3"/>
			<rect class="st4" width="75" height="39.1"/>
		</g>
	</g>
</g>
<g>
	<g>
		<path class="st1" d="M44.9,24.7c5,0,9,4,9,9c0,2.3-0.9,4.4-2.3,6l3.3,3.2c0,0-3.5,0.9-7.2-0.6c-0.9,0.3-1.9,0.5-2.9,0.5
			c-5,0-9-4-9-9C35.8,28.7,39.9,24.7,44.9,24.7z"/>
		<path class="st6" d="M52.4,44c-1.3,0-3-0.2-4.7-0.9c-0.9,0.3-1.9,0.4-2.8,0.4c-5.4,0-9.8-4.4-9.8-9.8c0-5.4,4.4-9.8,9.8-9.8
			s9.8,4.4,9.8,9.8c0,2.1-0.7,4.2-2,5.9l3.8,3.7l-1.3,0.4C55.1,43.7,54,44,52.4,44z M47.8,41.4l0.3,0.1c2,0.9,4,0.9,5.2,0.8
			l-2.7-2.7l0.5-0.6c1.3-1.5,2.1-3.5,2.1-5.5c0-4.6-3.7-8.3-8.3-8.3c-4.6,0-8.3,3.7-8.3,8.3s3.7,8.3,8.3,8.3c0.9,0,1.8-0.1,2.6-0.4
			L47.8,41.4z"/>
	</g>
	<g>
		<path class="st6" d="M43.5,33.4c0,0.6-0.5,1-1,1c-0.6,0-1-0.5-1-1c0-0.6,0.5-1,1-1C43.1,32.4,43.5,32.9,43.5,33.4z"/>
		<path class="st6" d="M48,33.4c0,0.6-0.5,1-1,1c-0.6,0-1-0.5-1-1c0-0.6,0.5-1,1-1C47.5,32.4,48,32.9,48,33.4z"/>
		<path class="st6" d="M51.9,33.9c0,0.6-0.3,0.5-0.9,0.5c-0.6,0-1-0.5-1-1c0-0.6,0.5-1,1-1C51.6,32.4,51.9,33.4,51.9,33.9z"/>
	</g>
	<g>
		<g>
			<path class="st1" d="M20.7,48.5c1.5,0.1,4,0.1,6.5-0.9l0.3-0.1l0.3,0.1c1,0.3,2,0.5,3.1,0.5c5.4,0,9.8-4.4,9.8-9.8
				c0-5.4-4.4-9.8-9.8-9.8c-5.4,0-9.8,4.4-9.8,9.8c0,2.4,0.9,4.7,2.5,6.5l0.5,0.6L20.7,48.5z"/>
		</g>
	</g>
	<g>
		<path class="st6" d="M22,50.1c-1.8,0-3.1-0.3-3.2-0.3l-1.3-0.4l4.3-4.2c-1.5-2-2.4-4.4-2.4-6.9c0-6.3,5.1-11.4,11.4-11.4
			c6.3,0,11.4,5.1,11.4,11.4c0,6.3-5.1,11.4-11.4,11.4c-1.1,0-2.2-0.2-3.3-0.5C25.5,49.9,23.6,50.1,22,50.1z M20.7,48.5
			c1.5,0.1,4,0.1,6.5-0.9l0.3-0.1l0.3,0.1c1,0.3,2,0.5,3.1,0.5c5.4,0,9.8-4.4,9.8-9.8c0-5.4-4.4-9.8-9.8-9.8c-5.4,0-9.8,4.4-9.8,9.8
			c0,2.4,0.9,4.7,2.5,6.5l0.5,0.6L20.7,48.5z"/>
	</g>
	<g>
		<rect x="24" y="35.2" class="st1" width="12.2" height="7.5"/>
		<path class="st6" d="M36.2,43H24c-0.2,0-0.3-0.1-0.3-0.3v-7.5c0-0.2,0.1-0.3,0.3-0.3h12.2c0.2,0,0.3,0.1,0.3,0.3v7.5
			C36.5,42.9,36.4,43,36.2,43z M24.3,42.4h11.6v-6.8H24.3V42.4z"/>
	</g>
	<g>
		<polygon class="st1" points="30.1,39.9 24,35.2 36.2,35.2 		"/>
		<path class="st6" d="M30.1,40.2c-0.1,0-0.1,0-0.2-0.1l-6.1-4.7c-0.1-0.1-0.2-0.2-0.1-0.4c0-0.1,0.2-0.2,0.3-0.2h12.2
			c0.1,0,0.3,0.1,0.3,0.2c0,0.1,0,0.3-0.1,0.4l-6.1,4.7C30.3,40.2,30.2,40.2,30.1,40.2z M25,35.5l5.2,3.9l5.2-3.9H25z"/>
	</g>
	<path class="st6" d="M35.4,31.7c-2,0-3.6,1.6-3.6,3.6c0,2,1.6,3.6,3.6,3.6c2,0,3.6-1.6,3.6-3.6C39,33.3,37.4,31.7,35.4,31.7z"/>
	<path class="st1" d="M35.4,32.8c-1.4,0-2.5,1.1-2.5,2.5c0,1.4,1.1,2.5,2.5,2.5c1.4,0,2.5-1.1,2.5-2.5
		C37.9,33.9,36.7,32.8,35.4,32.8z"/>
	<g>
		<path class="st6" d="M34.7,36.2h0.4v-1.9h-0.4v-0.5h1v2.4h0.4v0.5h-1.4V36.2z"/>
	</g>
</g>
</svg>
