<?xml version="1.0" encoding="utf-8"?>
<!-- Generator: Adobe Illustrator 26.5.0, SVG Export Plug-In . SVG Version: 6.00 Build 0)  -->
<svg version="1.1" id="圖層_1" xmlns="http://www.w3.org/2000/svg" xmlns:xlink="http://www.w3.org/1999/xlink" x="0px" y="0px"
	 viewBox="0 0 75 75" style="enable-background:new 0 0 75 75;" xml:space="preserve">
<style type="text/css">
	.st0{fill:#D89DAB;}
	.st1{fill:#D4655C;}
	.st2{opacity:0.3;}
	.st3{fill:#F2A306;}
	.st4{fill:none;}
	.st5{opacity:0.4;}
	.st6{fill:#FFFFFF;}
</style>
<g>
	<path class="st0" d="M75,37.5C75,58.2,58.2,75,37.5,75S0,58.2,0,37.5S16.8,0,37.5,0S75,16.8,75,37.5"/>
	<path class="st1" d="M69.5,37.5c0,17.7-14.3,32-32,32s-32-14.3-32-32s14.3-32,32-32S69.5,19.8,69.5,37.5"/>
	<g class="st2">
		<g>
			<path class="st3" d="M37.5,64.8c-16.9,0-30.6-13.1-31.8-29.6c-0.1,0.8-0.1,1.5-0.1,2.3c0,17.7,14.3,32,32,32s32-14.3,32-32
				c0-0.8-0.1-1.6-0.1-2.3C68.2,51.7,54.4,64.8,37.5,64.8"/>
			<rect x="5.5" y="35.2" class="st4" width="63.9" height="34.3"/>
		</g>
	</g>
	<g class="st5">
		<g>
			<path class="st6" d="M37.5,3.3c20.2,0,36.6,15.9,37.4,35.9c0-0.5,0.1-1.1,0.1-1.6C75,16.8,58.2,0,37.5,0S0,16.8,0,37.5
				c0,0.6,0.1,1.1,0.1,1.6C0.9,19.2,17.3,3.3,37.5,3.3"/>
			<rect class="st4" width="75" height="39.1"/>
		</g>
	</g>
</g>
<g>
	<g>
		<path class="st1" d="M46.8,23.4c-4.4,0-8,3.6-8,8c0,2,0.8,3.9,2,5.3l-2.9,2.9c0,0,3.1,0.8,6.4-0.6c0.8,0.3,1.7,0.4,2.5,0.4
			c4.4,0,8-3.6,8-8C54.8,27,51.2,23.4,46.8,23.4z"/>
		<path class="st6" d="M40.1,40.4c-1.4,0-2.4-0.2-2.4-0.3l-1-0.3l3.3-3.2c-1.2-1.5-1.8-3.4-1.8-5.3c0-4.8,3.9-8.6,8.6-8.6
			c4.8,0,8.6,3.9,8.6,8.6c0,4.8-3.9,8.6-8.6,8.6c-0.9,0-1.7-0.1-2.5-0.4C42.7,40.3,41.3,40.4,40.1,40.4z M39.1,39.2
			c1.1,0.1,3,0.1,4.9-0.7l0.2-0.1l0.2,0.1c0.8,0.3,1.6,0.4,2.4,0.4c4.1,0,7.4-3.3,7.4-7.4c0-4.1-3.3-7.4-7.4-7.4
			c-4.1,0-7.4,3.3-7.4,7.4c0,1.8,0.7,3.6,1.9,4.9l0.4,0.4L39.1,39.2z"/>
	</g>
	<g>
		<path class="st6" d="M44.3,31.4c0,0.4-0.4,0.8-0.8,0.8c-0.4,0-0.8-0.4-0.8-0.8c0-0.4,0.4-0.8,0.8-0.8
			C43.9,30.6,44.3,30.9,44.3,31.4z"/>
		<path class="st6" d="M47.6,31.4c0,0.4-0.4,0.8-0.8,0.8c-0.4,0-0.8-0.4-0.8-0.8c0-0.4,0.4-0.8,0.8-0.8
			C47.3,30.6,47.6,30.9,47.6,31.4z"/>
		<path class="st6" d="M50.8,31.4c0,0.4-0.4,0.8-0.8,0.8c-0.4,0-0.8-0.4-0.8-0.8c0-0.4,0.4-0.8,0.8-0.8
			C50.4,30.6,50.8,30.9,50.8,31.4z"/>
	</g>
	<g>
		<path class="st6" d="M31.7,46.4H25l-0.1,0c-0.8-0.2-1-0.8-1-1.2c0-0.7-0.2-2.7-1-3.5c-0.1-0.1-6-6.9-1.8-13
			c0.1-0.1,2.5-3.6,7.2-3.8l0.1,0c4.7,0.2,7.1,3.6,7.2,3.8c4.2,6.2-1.7,12.9-1.8,13c-0.8,0.9-1,2.9-1,3.6v0.1l0,0.1
			C32.4,46.3,31.9,46.4,31.7,46.4C31.7,46.4,31.7,46.4,31.7,46.4L31.7,46.4z M25.1,45.2h6.4c0,0,0-0.1,0.1-0.1c0-0.6,0.1-3,1.3-4.2
			c0,0,1.4-1.6,2.3-3.8c1.2-2.9,1-5.5-0.6-7.7c0,0-2.2-3.1-6.3-3.3l-0.1,0c-4.1,0.1-6.2,3.2-6.2,3.3c-1.5,2.2-1.7,4.9-0.6,7.8
			c0.9,2.2,2.3,3.8,2.3,3.8C25.1,42.3,25.1,45.1,25.1,45.2z"/>
		<path class="st6" d="M32.2,48.3h-7.8c-0.8,0-1.5-0.7-1.5-1.5c0-0.8,0.7-1.5,1.5-1.5h7.8c0.8,0,1.5,0.7,1.5,1.5
			C33.8,47.6,33.1,48.3,32.2,48.3z M24.5,46.5c-0.2,0-0.3,0.2-0.3,0.3c0,0.2,0.2,0.3,0.3,0.3h7.8c0.2,0,0.3-0.1,0.3-0.3
			c0-0.2-0.1-0.3-0.3-0.3H24.5z"/>
		<path class="st6" d="M28.4,52.2c-2,0-3.6-1.6-3.6-3.6v-1.2H32v1.2C32,50.6,30.3,52.2,28.4,52.2z M25.9,48.5L25.9,48.5
			c0,1.4,1.1,2.5,2.4,2.5c1.3,0,2.4-1.1,2.4-2.4v-0.1H25.9z"/>
		<g>
			<path class="st6" d="M27.5,45.7h-1.2V34.3h-0.6c-1,0-1.7-0.8-1.7-1.7c0-1,0.8-1.7,1.7-1.7c1,0,1.7,0.8,1.7,1.7v0.6h0.9v1.2h-0.9
				V45.7z M25.8,32c-0.3,0-0.6,0.3-0.6,0.6c0,0.3,0.3,0.6,0.6,0.6h0.6v-0.6C26.3,32.3,26.1,32,25.8,32z"/>
			<path class="st6" d="M30.4,45.7h-1.2V34.3h-0.9v-1.2h0.9v-0.6c0-1,0.8-1.7,1.7-1.7c1,0,1.7,0.8,1.7,1.7c0,1-0.8,1.7-1.7,1.7h-0.6
				V45.7z M30.4,33.1h0.6c0.3,0,0.6-0.3,0.6-0.6c0-0.3-0.3-0.6-0.6-0.6c-0.3,0-0.6,0.3-0.6,0.6V33.1z"/>
		</g>
	</g>
</g>
</svg>
