<?xml version="1.0" encoding="utf-8"?>
<!-- Generator: Adobe Illustrator 26.5.0, SVG Export Plug-In . SVG Version: 6.00 Build 0)  -->
<svg version="1.1" id="圖層_1" xmlns="http://www.w3.org/2000/svg" xmlns:xlink="http://www.w3.org/1999/xlink" x="0px" y="0px"
	 viewBox="0 0 230.9 52.5" style="enable-background:new 0 0 230.9 52.5;" xml:space="preserve">
<style type="text/css">
	.st0{fill:#FFFFFF;}
	.st1{opacity:0.75;fill:#B5B5B6;enable-background:new    ;}
	.st2{fill:#DCDDDD;}
	.st3{fill:#898989;}
	.st4{fill:url(#SVGID_1_);}
	.st5{fill:url(#SVGID_00000153704108731818888090000013022905671659010486_);}
</style>
<g id="圖層_2_00000112613457023226406630000018359499273450166436_">
	<g id="圖層_1-2">
		<path class="st0" d="M76.6,36.4l-1.3-2.2c-0.5-0.8-0.9-1.5-1.4-2.2c0.5-0.4,1.1-0.7,1.7-0.6c0.6,0,1.2,0.1,1.8,0.3
			c0.8,0.2,1.6,0.6,2.3,1c0.8,0.5,1.5,1,2.2,1.5c0.4,0.4,0.8,0.7,1.3,1c0.4,0.1,0.7,0.2,1.1,0.3l0.8,0.1c1.3,0.1,2.5-0.5,3.3-1.5
			c0.6-0.7,0.9-1.6,1-2.5c-0.1-1-0.7-2-1.6-2.5c-1.5-1-3.1-1.8-4.9-2.2l-3.4-1c-0.3-0.1-0.6-0.3-0.9-0.4c-0.4-0.2-0.8-0.4-1.1-0.7
			c-0.9-0.6-1.7-1.4-2.2-2.3c-0.5-1-0.7-2.1-0.7-3.2c0-0.7,0.2-1.4,0.5-2c0.7-1.3,1.9-2.4,3.3-2.9c0.9-0.3,1.9-0.5,2.8-0.6h1.1
			c0.6,0,1.2,0.1,1.8,0.2l1.6,0.3l0.7,0.1c0.1,0,0.4,0,0.8,0.1H88c0.5,0,0.9-0.1,1.4-0.2l2.7,4.3c-0.5,0.3-1.1,0.5-1.7,0.5
			c-0.6,0-1.1-0.1-1.7-0.4l-0.6-0.3H88l-2.5-1.8c-0.9-0.7-2-1.1-3.2-1.2c-0.3,0-0.6,0-0.8,0.1c-0.4,0.2-0.8,0.4-1.2,0.6
			c-0.6,0.5-0.9,1.2-0.8,1.9c-0.1,0.7,0.2,1.4,0.7,1.8c0.5,0.4,1,0.7,1.6,0.9c0.6,0.2,1.2,0.4,1.8,0.6l2.6,0.8
			c1.6,0.4,3.1,1.1,4.6,1.9c0.9,0.6,1.6,1.4,2,2.3c0.4,0.8,0.7,1.7,0.8,2.6c0,1-0.1,1.9-0.3,2.9c-0.2,0.8-0.6,1.5-1,2.2
			c-0.5,0.6-1,1.2-1.7,1.6c-0.6,0.4-1.3,0.7-2,0.9c-0.7,0.2-1.5,0.4-2.3,0.4h-1.9c-0.4,0-0.9,0-1.3-0.1c-0.4-0.1-1.1-0.2-2.1-0.5
			l-0.7-0.2c-0.6-0.1-1.2-0.2-1.8-0.2C77.9,36,77.2,36.1,76.6,36.4z"/>
		<path class="st0" d="M95.3,23.5c-0.2-0.4-0.4-0.7-0.6-1c0.9,0,1.9-0.2,2.8-0.5c1-0.3,2-0.6,2.9-1V23c0.6-0.7,1.4-1.3,2.3-1.6
			c0.6-0.2,1.2-0.3,1.8-0.3c1,0.1,2,0.6,2.6,1.4l0.4,0.5l0.7-0.6c0.9-0.7,2-1.1,3.1-1.1c0.4,0,0.8,0.1,1.2,0.1
			c0.6,0.1,1.2,0.4,1.6,0.8c0.5,0.4,0.8,1,0.8,1.7v10.3c0,0.3,0.1,0.5,0.1,0.8c0.1,0.4,0.3,0.7,0.5,1l0.4,0.5h-6.3
			c0.4-0.7,0.7-1.4,0.7-2.2v-8.6c0-0.4-0.2-0.8-0.4-1.1l-0.3-0.3c-0.2-0.1-0.4-0.2-0.6-0.2c-0.4,0-0.7,0.1-0.9,0.5
			c-0.1,0.2-0.2,0.5-0.3,0.7c0,0.3-0.1,0.5-0.1,0.8v8.3c0,0.8,0.2,1.5,0.7,2.2h-6c0.2-0.3,0.4-0.6,0.5-1c0.1-0.3,0.2-0.7,0.2-1v-9.1
			c0-0.3-0.1-0.7-0.4-0.9c-0.3-0.3-0.6-0.4-1-0.4c-0.4,0-0.7,0.2-0.9,0.4c-0.3,0.3-0.4,0.7-0.4,1.1v8.9c0,0.5,0.1,1,0.3,1.4l0.3,0.5
			h-6.1c0.3-0.3,0.5-0.6,0.7-1c0.2-0.4,0.3-0.8,0.3-1.2v-9.7c0-0.1,0-0.2,0-0.2C95.5,24,95.4,23.8,95.3,23.5z"/>
		<path class="st0" d="M123.5,26.1l0.6-0.2l-0.1-0.7c-0.2-0.9-0.8-1.4-2-1.4c-0.6,0-1.1,0.1-1.7,0.3c-0.7,0.2-1.4,0.6-2,1l-0.5,0.3
			c0.1-0.6,0.3-1.1,0.6-1.6c0.3-0.5,0.7-0.9,1.2-1.2c0.4-0.3,0.8-0.5,1.2-0.7c0.5-0.2,0.9-0.3,1.4-0.4c0.6-0.1,1.2-0.2,1.9-0.2
			c1.2-0.1,2.3,0.4,3.2,1.2c0.8,1,1.3,2.2,1.4,3.5l1,8.7c0,0.4,0.2,0.7,0.4,1c0.2,0.3,0.5,0.6,0.8,0.9h-5.6l-0.1-0.8l-0.5,0.3
			c-0.4,0.2-0.8,0.4-1.2,0.5c-0.7,0.3-1.5,0.4-2.3,0.4c-1,0-1.9-0.3-2.7-0.9c-0.7-0.5-1.2-1.2-1.4-2c-0.2-0.6-0.3-1.1-0.3-1.7
			c0-0.7,0.2-1.4,0.5-2c0.3-0.6,0.7-1.1,1.1-1.5c0.5-0.5,1-0.9,1.6-1.2c0.5-0.3,1-0.6,1.6-0.8C122.2,26.5,122.8,26.3,123.5,26.1z
			 M124.3,27c-0.5,0.3-0.9,0.6-1.2,1c-0.4,0.5-0.7,1-0.9,1.5c-0.3,0.5-0.4,1.1-0.4,1.7v0.6c0,0.8,0.2,1.5,0.6,2.2
			c0.3,0.5,0.9,0.9,1.5,0.8c0.5,0,1-0.2,1.3-0.7L124.3,27z"/>
		<path class="st0" d="M131.5,23.5L131,23l1.4-0.4l1.4-0.5l1.4-0.5l1.4-0.5v2.7l0.4-0.6c0.4-0.5,0.9-1,1.4-1.4
			c0.3-0.2,0.6-0.4,1-0.5c0.2,0,0.5-0.1,0.7-0.1c0.7,0,1.4,0.2,1.8,0.7c0.5,0.6,0.7,1.3,0.7,2c0,0.6-0.2,1.2-0.6,1.7
			c-0.4,0.4-0.9,0.6-1.5,0.6c-0.5,0-0.9-0.1-1.4-0.3c-0.5-0.2-0.9-0.5-1.2-0.9c-0.3,0-0.5,0-0.8,0.2c-0.3,0.2-0.5,0.4-0.7,0.6v8.6
			c0,0.4,0.1,0.9,0.4,1.2c0.2,0.2,0.4,0.4,0.7,0.6H131l0.4-0.4c0.4-0.4,0.6-0.9,0.6-1.5v-9.6C132,24.4,131.8,23.9,131.5,23.5z"/>
		<path class="st0" d="M143.8,23.8h-1.5c1.6-1.2,3.1-2.5,4.6-3.9l1.6-1.5V22h2.4v1.8h-2.4v9.6c0,0.8,0.5,1.2,1.4,1.2
			c0.2,0,0.4,0,0.6-0.1l0.7-0.2l0.4-0.2c-0.1,0.5-0.4,1-0.7,1.5c-0.3,0.4-0.8,0.8-1.3,1c-0.3,0.2-0.7,0.3-1,0.4
			c-0.2,0-0.4,0.1-0.5,0.1h-0.8c-1.7,0.2-3.3-1-3.5-2.7c0,0,0,0,0-0.1L143.8,23.8L143.8,23.8z"/>
		<path class="st0" d="M216.2,36.8h-6.7l0.5-0.5c0.3-0.5,0.5-1.1,0.6-1.7v-9.9c0-0.7-0.4-1.4-1-1.8c0.9,0,1.9-0.2,2.8-0.5
			c1-0.3,2-0.6,2.9-0.9v13.1c0,0.4,0.1,0.8,0.4,1.1c0.2,0.4,0.4,0.7,0.4,0.7C216,36.7,216.1,36.8,216.2,36.8z M212.7,20.5
			c-0.7,0-1.4-0.2-2-0.7c-0.5-0.4-0.8-1-0.8-1.7c0-0.7,0.2-1.4,0.7-1.9c0.5-0.5,1.3-0.8,2-0.7c0.7-0.1,1.4,0.2,2,0.7
			c0.5,0.5,0.7,1.2,0.7,1.9c0,0.6-0.2,1.3-0.7,1.7C214.1,20.3,213.4,20.5,212.7,20.5z"/>
		<path class="st0" d="M223.2,37.1H217l0.5-0.4c0.3-0.4,0.5-0.9,0.5-1.4V25c0-0.2-0.1-0.4-0.2-0.6c-0.1-0.2-0.3-0.5-0.5-0.7
			l-0.3-0.3c0.9,0,1.9-0.2,2.8-0.5c1-0.3,2-0.6,2.8-1v1.5l0.5-0.3c0.8-0.6,1.8-1,2.8-1.1c1-0.1,2,0.2,2.9,0.8
			c0.7,0.6,1.1,1.5,1.1,2.5v8.6c0,0.4,0.1,0.8,0.2,1.2c0.2,0.5,0.4,1.1,0.6,1.6l0.2,0.5h-6.3l0.3-0.6c0.2-0.3,0.3-0.6,0.3-1v-10
			c0-0.6-0.4-0.9-1.2-0.9c-0.2,0-0.5,0-0.7,0.1c-0.3,0.1-0.5,0.3-0.6,0.5c-0.2,0.4-0.2,0.9-0.2,1.4v9.8
			C222.6,36.6,222.8,36.9,223.2,37.1z"/>
		<path class="st0" d="M177.9,36.8h-6.7l0.5-0.5c0.3-0.5,0.5-1.1,0.6-1.7v-9.9c0-0.7-0.4-1.4-1-1.8c0.9,0,1.9-0.2,2.8-0.5
			c1-0.3,2-0.6,2.9-0.9v13.1c0,0.4,0.1,0.8,0.4,1.1c0.2,0.4,0.4,0.7,0.4,0.7C177.7,36.7,177.8,36.8,177.9,36.8z M174.4,20.5
			c-0.7,0-1.4-0.2-2-0.7c-0.5-0.4-0.8-1-0.8-1.7c0-0.7,0.2-1.4,0.7-1.9c0.5-0.5,1.3-0.8,2-0.7c0.7-0.1,1.4,0.2,2,0.7
			c0.5,0.5,0.7,1.2,0.7,1.9c0,0.6-0.2,1.3-0.7,1.7C175.8,20.3,175.1,20.5,174.4,20.5z"/>
		<path class="st0" d="M184.9,36.8h-6.3l0.5-0.4c0.4-0.4,0.5-0.9,0.5-1.4V24.7c0-0.2-0.1-0.4-0.2-0.6c-0.1-0.2-0.3-0.5-0.5-0.7
			l-0.3-0.3c0.9,0,1.9-0.2,2.8-0.5c1-0.3,2-0.6,2.8-1v1.5l0.5-0.3c0.8-0.6,1.8-1,2.8-1.1c1-0.1,2,0.2,2.9,0.8
			c0.7,0.6,1.1,1.6,1.1,2.5v8.6c0,0.4,0.1,0.8,0.2,1.2c0.2,0.5,0.4,1.1,0.6,1.5l0.2,0.5h-6.3l0.3-0.6c0.2-0.3,0.3-0.6,0.3-1v-10
			c0-0.6-0.4-0.9-1.2-0.9c-0.2,0-0.5,0-0.7,0.1c-0.3,0.1-0.5,0.3-0.6,0.5c-0.2,0.4-0.2,0.9-0.2,1.4v9.8
			C184.3,36.4,184.5,36.6,184.9,36.8z"/>
		<path class="st0" d="M170.4,18.6c-0.1-0.7-0.4-1.5-0.8-2.1c-0.4-0.6-1-1.1-1.6-1.5c-0.8-0.4-1.6-0.6-2.5-0.6c-0.5,0-1,0.1-1.4,0.2
			c-0.4,0.1-0.9,0.3-1.3,0.5l-1.2,0.6c-0.3,0.1-0.6,0.3-0.9,0.4v-2.3l-0.3,0.1l-2.8,0.9c-0.9,0.3-1.9,0.5-2.8,0.6l-0.4,0.1l0.3,0.4
			c0.4,0.4,0.6,0.8,0.9,1.2c0.2,0.4,0.4,0.8,0.3,1.2v16.7c0,0.4-0.1,0.7-0.4,1c-0.3,0.3-0.6,0.6-0.9,0.8l-0.7,0.5h8l0.1-0.5
			c-0.2-0.1-0.5-0.2-0.7-0.4c-0.1-0.1-0.2-0.2-0.3-0.3c-0.1-0.1-0.1-0.3-0.1-0.5c0-0.3-0.1-0.6-0.1-0.8v-1.9c0-0.3,0.1-0.6,0.3-0.9
			c0.2-0.3,0.5-0.6,0.8-0.9c0.3-0.3,0.6-0.6,1-0.8l0.9-0.6c0.9-0.5,1.8-1.1,2.7-1.6c0.9-0.6,3-1.7,3.7-3.8c0.2-0.5,0.3-1,0.4-1.6
			c0.1-0.5,0.1-1,0.1-1.5C170.6,20.3,170.6,19.4,170.4,18.6z M160.9,27.8v-9.5c0.1-0.1,4-1,4.5,1c0.1,0.5,0.2,1,0.3,1.5
			C166,25.8,162.3,27,160.9,27.8z"/>
		<path class="st0" d="M201.7,21.6l0.4,0.7c0.3,0.6,0.7,1.2,1,1.9c0.3,0.6,0.4,1.2,0.4,1.8c0,0.4,0,0.9-0.1,1.3
			c-0.1,0.5-0.2,1-0.3,1.5c-0.1,0.5-0.3,0.9-0.6,1.3c-0.1,0.2-0.2,0.3-0.3,0.5l-4.7-10.1l-0.8,0.6l0,0c-0.6,0.3-1.2,0.5-1.8,0.7
			c-0.6,0.2-1.3,0.4-1.9,0.5l-0.9,0.2l0.6,0.6c0.4,0.5,0.8,0.9,1.1,1.5c0.4,0.7,0.9,1.4,1.4,2.3s0.9,1.7,1.4,2.7s1,1.9,1.4,2.8
			s0.8,1.8,1.2,2.5s0.6,1.3,0.9,1.8c0,0.2-0.1,0.3-0.2,0.5c-0.2,0.1-0.5,0.2-0.8,0.2c-0.4,0-0.8,0-1.2,0c-0.5,0-0.9,0-1.4,0
			c-0.5,0-0.9,0.2-1.3,0.5c-0.7,0.7-0.8,1.8-0.2,2.7c0.2,0.3,0.5,0.5,0.8,0.7c0.3,0.1,0.7,0.2,1,0.3c0.3,0,0.7,0.1,1,0.1
			c0.5,0,1-0.1,1.4-0.2c0.5-0.2,1-0.5,1.2-1c0.4-0.7,0.8-1.5,1-2.3c0.3-0.8,0.5-1.6,0.8-2.3c0.3-0.9,0.7-1.9,1.2-3.2
			c0.5-1.2,1-2.5,1.5-3.8s1.1-2.5,1.7-3.6c0.5-0.9,1.1-1.8,1.8-2.6l0.7-0.8L201.7,21.6z"/>
		<path class="st0" d="M58,7c-0.4-3.9-4-7-8.3-7s-8,3.1-8.3,7l0,0v18.6l0,0c0.4,4.6,4.4,8,9,7.6c4.1-0.3,7.3-3.6,7.6-7.6l0,0L58,7z"
			/>
		<path class="st1" d="M56.1,5.8c-0.3-3.6-3.4-6.3-7-6c-3.2,0.3-5.7,2.8-6,6h-0.1v20.8c-0.1,3.6,2.7,6.6,6.3,6.8s6.6-2.7,6.8-6.3
			c0-0.2,0-0.3,0-0.5L56.1,5.8L56.1,5.8z"/>
		<path class="st2" d="M49.1,0.3c-2.4,0-4.3,2-4.3,4.3c0,0,0,0,0,0v24c-0.1,2.4,1.7,4.4,4.1,4.5c2.4,0.1,4.4-1.7,4.5-4.1
			c0-0.1,0-0.3,0-0.4v-24C53.5,2.2,51.5,0.3,49.1,0.3C49.1,0.3,49.1,0.3,49.1,0.3z"/>
		<path class="st3" d="M50.7,9.6c0,0.6-0.4,1-1,1s-1-0.4-1-1s0.4-1,1-1S50.7,9.1,50.7,9.6z"/>
		<path class="st3" d="M50.8,12.8c0,0.6-0.4,1-1,1s-1-0.4-1-1s0.4-1,1-1S50.8,12.3,50.8,12.8z"/>
		<path class="st3" d="M50.8,16c0,0.6-0.4,1-1,1s-1-0.4-1-1c0-0.6,0.4-1,1-1S50.8,15.4,50.8,16z"/>
		<path class="st3" d="M50.8,19c0,0.6-0.4,1-1,1s-1-0.4-1-1s0.4-1,1-1S50.8,18.4,50.8,19z"/>
		<path class="st3" d="M50.8,22.1c0,0.6-0.4,1-1,1s-1-0.4-1-1s0.4-1,1-1S50.8,21.5,50.8,22.1z"/>
		<path class="st3" d="M50.8,25.3c0,0.6-0.4,1-1,1s-1-0.4-1-1s0.4-1,1-1S50.8,24.7,50.8,25.3z"/>
		<path class="st3" d="M48.1,11.2c0,0.6-0.4,1-1,1s-1-0.4-1-1s0.4-1,1-1S48.1,10.7,48.1,11.2z"/>
		<path class="st3" d="M48.2,14.4c0,0.6-0.4,1-1,1s-1-0.4-1-1s0.4-1,1-1S48.2,13.9,48.2,14.4z"/>
		<path class="st3" d="M48.2,17.6c0,0.6-0.4,1-1,1s-1-0.4-1-1s0.4-1,1-1S48.2,17,48.2,17.6z"/>
		<path class="st3" d="M48.2,20.6c0,0.6-0.4,1-1,1s-1-0.4-1-1s0.4-1,1-1S48.2,20.1,48.2,20.6z"/>
		<path class="st3" d="M48.2,23.7c0,0.6-0.4,1-1,1s-1-0.4-1-1s0.4-1,1-1S48.2,23.1,48.2,23.7z"/>
		<path class="st3" d="M53.3,11.2c0,0.6-0.4,1-1,1s-1-0.4-1-1s0.4-1,1-1S53.3,10.7,53.3,11.2z"/>
		<path class="st3" d="M53.3,14.4c0,0.6-0.4,1-1,1s-1-0.4-1-1s0.4-1,1-1S53.3,13.9,53.3,14.4z"/>
		<path class="st3" d="M53.3,17.6c0,0.6-0.4,1-1,1s-1-0.4-1-1s0.4-1,1-1S53.3,17,53.3,17.6z"/>
		<path class="st3" d="M53.3,20.6c0,0.6-0.4,1-1,1s-1-0.4-1-1s0.4-1,1-1S53.3,20.1,53.3,20.6z"/>
		<path class="st3" d="M53.3,23.7c0,0.6-0.4,1-1,1s-1-0.4-1-1s0.4-1,1-1S53.3,23.1,53.3,23.7z"/>
		<path class="st3" d="M55.5,9.6c0,0.6-0.3,1-0.7,1s-0.8-0.4-0.8-1s0.3-1,0.8-1S55.5,9.1,55.5,9.6z"/>
		<path class="st3" d="M55.5,12.8c0,0.6-0.3,1-0.7,1s-0.8-0.4-0.8-1s0.3-1,0.8-1S55.5,12.3,55.5,12.8z"/>
		<path class="st3" d="M55.5,16c0,0.6-0.3,1-0.7,1S54,16.5,54,16s0.3-1,0.8-1S55.5,15.4,55.5,16z"/>
		<path class="st3" d="M55.5,19c0,0.5-0.3,1-0.7,1c-0.5-0.1-0.8-0.5-0.8-1c0-0.6,0.3-1,0.8-1S55.5,18.5,55.5,19z"/>
		<path class="st3" d="M55.5,22.1c0,0.6-0.3,1-0.7,1s-0.8-0.4-0.8-1s0.3-1,0.8-1S55.5,21.5,55.5,22.1z"/>
		<path class="st3" d="M55.5,25.3c0,0.5-0.3,1-0.7,1s-0.8-0.5-0.8-1s0.3-1,0.8-1S55.5,24.7,55.5,25.3z"/>
		<path class="st3" d="M45.6,9.6c0,0.6-0.3,1-0.8,1s-0.7-0.4-0.7-1s0.3-1,0.7-1S45.6,9.1,45.6,9.6z"/>
		<path class="st3" d="M45.7,12.8c0,0.6-0.3,1-0.7,1s-0.8-0.4-0.8-1s0.3-1,0.8-1S45.7,12.3,45.7,12.8z"/>
		<path class="st3" d="M45.7,16c0,0.6-0.3,1-0.7,1s-0.8-0.5-0.8-1s0.3-1,0.8-1S45.7,15.4,45.7,16z"/>
		<path class="st3" d="M45.7,19c0.1,0.5-0.3,0.9-0.8,1c-0.4,0-0.7-0.4-0.7-1s0.3-1,0.7-1S45.7,18.5,45.7,19z"/>
		<path class="st3" d="M45.7,22.1c0,0.6-0.3,1-0.8,1s-0.7-0.4-0.7-1s0.3-1,0.7-1S45.7,21.5,45.7,22.1z"/>
		<path class="st3" d="M45.7,25.3c0,0.5-0.3,1-0.7,1s-0.8-0.5-0.8-1s0.3-1,0.8-1S45.7,24.7,45.7,25.3z"/>
		<path class="st3" d="M57.2,11.4c0,0.6-0.2,1-0.5,1s-0.5-0.4-0.5-1s0.2-1,0.5-1S57.2,10.8,57.2,11.4z"/>
		<path class="st3" d="M57.2,14.6c0,0.6-0.2,1-0.5,1s-0.5-0.4-0.5-1s0.2-1,0.5-1S57.2,14,57.2,14.6z"/>
		<path class="st3" d="M57.2,17.7c0,0.5-0.2,1-0.5,1s-0.5-0.5-0.5-1s0.2-1,0.5-1S57.2,17.1,57.2,17.7z"/>
		<path class="st3" d="M57.2,20.8c0,0.5-0.2,1-0.5,1s-0.5-0.5-0.5-1s0.2-1,0.5-1S57.2,20.2,57.2,20.8z"/>
		<path class="st3" d="M57.2,23.8c0,0.6-0.2,1-0.5,1s-0.5-0.5-0.5-1s0.2-1,0.5-1S57.2,23.2,57.2,23.8z"/>
		<path class="st3" d="M43.5,11.4c0,0.6-0.2,1-0.5,1s-0.5-0.4-0.5-1s0.2-1,0.5-1S43.5,10.8,43.5,11.4z"/>
		<path class="st3" d="M43.5,14.6c0,0.6-0.2,1-0.5,1s-0.5-0.4-0.5-1s0.2-1,0.5-1S43.5,14.1,43.5,14.6z"/>
		<path class="st3" d="M43.5,17.8c0,0.5-0.2,1-0.5,1s-0.5-0.5-0.5-1s0.2-1,0.5-1S43.5,17.2,43.5,17.8z"/>
		<path class="st3" d="M43.5,20.8c0,0.5-0.2,1-0.5,1s-0.5-0.5-0.5-1s0.2-1,0.5-1S43.5,20.2,43.5,20.8z"/>
		<path class="st3" d="M43.5,23.9c0,0.5-0.2,1-0.5,1s-0.5-0.5-0.5-1s0.2-1,0.5-1S43.5,23.3,43.5,23.9z"/>
		<path class="st3" d="M58,9.9c0,0.6-0.1,1-0.3,1s-0.3-0.4-0.3-1s0.1-1,0.3-1S58,9.3,58,9.9z"/>
		<path class="st3" d="M58,13.1c0,0.6-0.1,1-0.3,1s-0.3-0.4-0.3-1s0.1-1,0.3-1S58,12.5,58,13.1z"/>
		<path class="st3" d="M58,16.2c0,0.5-0.1,1-0.3,1s-0.3-0.5-0.3-1s0.1-1,0.3-1S58,15.7,58,16.2z"/>
		<path class="st3" d="M58,19.3c0,0.5-0.1,1-0.3,1s-0.3-0.5-0.3-1s0.1-1,0.3-1S58,18.7,58,19.3z"/>
		<path class="st3" d="M58,22.3c0,0.5-0.1,1-0.3,1s-0.3-0.5-0.3-1s0.1-1,0.3-1S58,21.8,58,22.3z"/>
		<path class="st3" d="M58,25.5c0,0.5-0.1,1-0.3,1s-0.3-0.5-0.3-1s0.1-1,0.3-1S58,25,58,25.5z"/>
		<path class="st3" d="M42,9.7c0,0.6-0.1,1-0.3,1s-0.3-0.4-0.3-1s0.1-1,0.3-1S42,9.1,42,9.7z"/>
		<path class="st3" d="M42,12.9c0,0.6-0.1,1-0.3,1s-0.3-0.4-0.3-1s0.1-1,0.3-1S42,12.4,42,12.9z"/>
		<path class="st3" d="M42,16c0,0.5-0.1,1-0.3,1s-0.3-0.5-0.3-1s0.1-1,0.3-1S42,15.5,42,16z"/>
		<path class="st3" d="M42,19.1c0,0.6-0.1,1-0.3,1s-0.3-0.4-0.3-1s0.1-1,0.3-1S42,18.5,42,19.1z"/>
		<path class="st3" d="M42,22.1c0,0.5-0.1,1-0.3,1s-0.3-0.5-0.3-1s0.1-1,0.3-1S42,21.6,42,22.1z"/>
		<path class="st3" d="M42,25.4c0,0.6-0.1,1-0.3,1s-0.3-0.4-0.3-1s0.1-1,0.3-1S42,24.8,42,25.4z"/>
		<path class="st0" d="M49.8,1.5c0.4,1.1-0.2,2.3-1.3,2.7c-1,0.6-2.2,0.4-2.9-0.5c-0.4-1.1,0.2-2.3,1.3-2.7
			C47.9,0.3,49.1,0.5,49.8,1.5z"/>
		<path class="st0" d="M50.8,9.3c0,0.6-0.4,1-1,1s-1-0.4-1-1s0.4-1,1-1S50.8,8.7,50.8,9.3z"/>
		<path class="st0" d="M50.8,12.5c0,0.6-0.4,1-1,1s-1-0.4-1-1s0.4-1,1-1S50.8,11.9,50.8,12.5z"/>
		<path class="st0" d="M50.8,15.6c0,0.6-0.4,1-1,1s-1-0.4-1-1s0.4-1,1-1S50.8,15.1,50.8,15.6z"/>
		<path class="st0" d="M50.8,18.7c0,0.6-0.4,1-1,1s-1-0.4-1-1s0.4-1,1-1S50.8,18.1,50.8,18.7z"/>
		<path class="st0" d="M50.8,21.7c0,0.6-0.4,1-1,1s-1-0.4-1-1s0.4-1,1-1S50.8,21.2,50.8,21.7z"/>
		<path class="st0" d="M50.8,25c0,0.6-0.4,1-1,1s-1-0.4-1-1s0.4-1,1-1S50.8,24.4,50.8,25z"/>
		<path class="st0" d="M48.2,10.9c0,0.6-0.4,1-1,1s-1-0.4-1-1s0.4-1,1-1S48.2,10.3,48.2,10.9z"/>
		<path class="st0" d="M48.2,14.1c0,0.6-0.4,1-1,1s-1-0.4-1-1s0.4-1,1-1S48.2,13.6,48.2,14.1z"/>
		<path class="st0" d="M48.2,17.2c0,0.6-0.4,1-1,1s-1-0.4-1-1s0.4-1,1-1S48.2,16.7,48.2,17.2z"/>
		<path class="st0" d="M48.2,20.3c0,0.6-0.4,1-1,1s-1-0.4-1-1s0.4-1,1-1S48.2,19.7,48.2,20.3z"/>
		<path class="st0" d="M48.2,23.4c0,0.6-0.4,1-1,1s-1-0.4-1-1s0.4-1,1-1S48.2,22.8,48.2,23.4z"/>
		<path class="st0" d="M53.3,10.9c0,0.6-0.4,1-1,1s-1-0.4-1-1s0.4-1,1-1S53.3,10.3,53.3,10.9z"/>
		<path class="st0" d="M53.3,14.1c0,0.6-0.4,1-1,1s-1-0.4-1-1s0.4-1,1-1S53.3,13.6,53.3,14.1z"/>
		<path class="st0" d="M53.3,17.2c0,0.6-0.4,1-1,1s-1-0.4-1-1s0.4-1,1-1S53.3,16.7,53.3,17.2z"/>
		<path class="st0" d="M53.3,20.3c0,0.6-0.4,1-1,1s-1-0.4-1-1s0.4-1,1-1S53.3,19.7,53.3,20.3z"/>
		<path class="st0" d="M53.3,23.4c0,0.6-0.4,1-1,1s-1-0.4-1-1s0.4-1,1-1S53.3,22.8,53.3,23.4z"/>
		<path class="st0" d="M55.5,9.3c0,0.6-0.3,1-0.7,1S54,9.8,54,9.3s0.3-1,0.8-1S55.5,8.7,55.5,9.3z"/>
		<path class="st0" d="M55.5,12.5c0,0.6-0.3,1-0.7,1s-0.8-0.4-0.8-1s0.3-1,0.8-1S55.5,12,55.5,12.5z"/>
		<path class="st0" d="M55.5,15.6c0,0.6-0.3,1-0.7,1s-0.8-0.5-0.8-1s0.3-1,0.8-1S55.5,15.1,55.5,15.6z"/>
		<path class="st0" d="M55.5,18.7c0,0.6-0.3,1-0.7,1s-0.8-0.5-0.8-1c-0.1-0.5,0.3-0.9,0.8-1C55.2,17.7,55.5,18.1,55.5,18.7z"/>
		<path class="st0" d="M55.5,21.7c0,0.6-0.3,1-0.7,1s-0.8-0.5-0.8-1s0.3-1,0.8-1S55.5,21.2,55.5,21.7z"/>
		<path class="st0" d="M55.5,25c0,0.5-0.3,1-0.7,1S54,25.5,54,25s0.3-1,0.8-1S55.5,24.4,55.5,25z"/>
		<path class="st0" d="M45.6,9.3c0,0.6-0.3,1-0.8,1s-0.7-0.4-0.7-1s0.3-1,0.7-1S45.6,8.7,45.6,9.3z"/>
		<path class="st0" d="M45.7,12.5c0,0.6-0.3,1-0.8,1s-0.7-0.4-0.7-1s0.3-1,0.7-1S45.7,12,45.7,12.5z"/>
		<path class="st0" d="M45.7,15.6c0,0.6-0.3,1-0.8,1s-0.7-0.5-0.7-1s0.3-1,0.7-1S45.7,15.1,45.7,15.6z"/>
		<path class="st0" d="M45.7,18.7c0,0.6-0.3,1-0.8,1s-0.7-0.5-0.7-1s0.3-1,0.7-1S45.7,18.1,45.7,18.7z"/>
		<path class="st0" d="M45.7,21.7c0,0.6-0.3,1-0.8,1s-0.7-0.5-0.7-1s0.3-1,0.7-1S45.7,21.2,45.7,21.7z"/>
		<path class="st0" d="M45.7,25c0,0.5-0.3,1-0.8,1s-0.7-0.5-0.7-1s0.3-1,0.7-1S45.7,24.4,45.7,25z"/>
		<path class="st0" d="M57.2,11c0,0.6-0.2,1-0.5,1s-0.5-0.4-0.5-1s0.2-1,0.5-1S57.2,10.5,57.2,11z"/>
		<path class="st0" d="M57.3,14.2c0,0.6-0.2,1-0.5,1s-0.5-0.4-0.5-1s0.2-1,0.5-1S57.3,13.7,57.3,14.2z"/>
		<path class="st0" d="M57.3,17.4c0,0.5-0.2,1-0.5,1s-0.5-0.5-0.5-1s0.2-1,0.5-1S57.3,16.8,57.3,17.4z"/>
		<path class="st0" d="M57.3,20.4c0,0.5-0.2,1-0.5,1s-0.5-0.5-0.5-1s0.2-1,0.5-1S57.3,19.9,57.3,20.4z"/>
		<path class="st0" d="M57.3,23.5c0,0.5-0.2,1-0.5,1s-0.5-0.5-0.5-1s0.2-1,0.5-1S57.3,22.9,57.3,23.5z"/>
		<path class="st0" d="M43.5,11.1c0,0.6-0.2,1-0.5,1s-0.5-0.4-0.5-1s0.2-1,0.5-1S43.5,10.5,43.5,11.1z"/>
		<path class="st0" d="M43.5,14.3c0,0.6-0.2,1-0.5,1s-0.5-0.4-0.5-1s0.2-1,0.5-1S43.5,13.7,43.5,14.3z"/>
		<path class="st0" d="M43.5,17.4c0,0.5-0.2,1-0.5,1s-0.5-0.4-0.5-1s0.2-1,0.5-1S43.5,16.9,43.5,17.4z"/>
		<path class="st0" d="M43.5,20.5c0,0.6-0.2,1-0.5,1s-0.5-0.4-0.5-1s0.2-1,0.5-1S43.5,19.9,43.5,20.5z"/>
		<path class="st0" d="M43.5,23.5c0,0.5-0.2,1-0.5,1s-0.5-0.5-0.5-1s0.2-1,0.5-1S43.5,23,43.5,23.5z"/>
		<path class="st0" d="M58,9.5c0,0.6-0.1,1-0.3,1s-0.3-0.4-0.3-1s0.1-1,0.3-1S58,9,58,9.5z"/>
		<path class="st0" d="M58.1,12.8c0,0.6-0.1,1-0.3,1s-0.3-0.4-0.3-1s0.1-1,0.3-1S58.1,12.2,58.1,12.8z"/>
		<path class="st0" d="M58.1,15.9c0,0.5-0.1,1-0.3,1s-0.3-0.5-0.3-1s0.1-1,0.3-1S58.1,15.4,58.1,15.9z"/>
		<path class="st0" d="M58.1,19c0,0.5-0.1,1-0.3,1s-0.3-0.5-0.3-1s0.1-1,0.3-1S58.1,18.4,58.1,19z"/>
		<path class="st0" d="M58.1,22c0,0.5-0.1,1-0.3,1s-0.3-0.5-0.3-1s0.1-1,0.3-1S58.1,21.4,58.1,22z"/>
		<path class="st0" d="M58.1,25.2c0,0.5-0.1,1-0.3,1s-0.3-0.5-0.3-1s0.1-1,0.3-1S58.1,24.7,58.1,25.2z"/>
		<path class="st0" d="M42,9.4c0,0.6-0.1,1-0.3,1s-0.3-0.4-0.3-1s0.1-1,0.3-1S42,8.8,42,9.4z"/>
		<path class="st0" d="M42,12.6c0,0.6-0.1,1-0.3,1s-0.3-0.4-0.3-1s0.1-1,0.3-1S42,12,42,12.6z"/>
		<path class="st0" d="M42,15.7c0,0.5-0.1,1-0.3,1s-0.3-0.5-0.3-1s0.1-1,0.3-1S42,15.2,42,15.7z"/>
		<path class="st0" d="M42,18.8c0,0.6-0.1,1-0.3,1s-0.3-0.5-0.3-1s0.1-1,0.3-1S42,18.2,42,18.8z"/>
		<path class="st0" d="M42,21.8c0,0.5-0.1,1-0.3,1s-0.3-0.5-0.3-1s0.1-1,0.3-1S42,21.3,42,21.8z"/>
		<path class="st0" d="M42,25c0,0.6-0.1,1-0.3,1s-0.3-0.5-0.3-1s0.1-1,0.3-1S42,24.5,42,25z"/>
		<path class="st0" d="M49,52.5c-1,0.1-1.9-0.6-2-1.5c0-0.4,0-0.8,0.2-1.1l1.4-3.5c0.6-1.5,1.6-1.5,2.2,0l1.4,3.5
			c0.5,0.9,0.2,1.9-0.7,2.4c-0.3,0.2-0.7,0.3-1.1,0.2H49z"/>
		<path class="st0" d="M39.3,44.7c-0.4,0-0.8,0.4-0.8,0.8s0.4,0.8,0.8,0.8h20.8c0.4,0,0.8-0.4,0.8-0.8s-0.4-0.8-0.8-0.8l0,0H39.3z"
			/>
		<path class="st0" d="M59.8,19v10.5c0.2,2.2-1.3,4.2-3.4,4.7c-0.7,0-9.4,0.1-13.1,0c-3.2,0-3.6-4.2-3.7-4.4v-9.6H38v9.7
			c0.2,2,1.5,5.8,5.2,5.9c3.9,0.1,13.1,0,13.2,0h0.1c3-0.7,5-3.4,4.8-6.4V19H59.8z"/>
		
			<linearGradient id="SVGID_1_" gradientUnits="userSpaceOnUse" x1="-1781.3428" y1="15400.5303" x2="-1781.3428" y2="15395.1699" gradientTransform="matrix(0 1 -1 0 15458.4404 1801.08)">
			<stop  offset="0" style="stop-color:#552B8C"/>
			<stop  offset="5.000000e-02" style="stop-color:#5B3290"/>
			<stop  offset="0.12" style="stop-color:#6A4499"/>
			<stop  offset="0.2" style="stop-color:#8462AA"/>
			<stop  offset="0.29" style="stop-color:#A88CC0"/>
			<stop  offset="0.38" style="stop-color:#D6C1DD"/>
			<stop  offset="0.4" style="stop-color:#E1CEE4"/>
			<stop  offset="0.66" style="stop-color:#A183BC"/>
			<stop  offset="0.89" style="stop-color:#6A4499"/>
			<stop  offset="1" style="stop-color:#552B8C"/>
		</linearGradient>
		<path class="st4" d="M61.9,19.2v2.2h-2.6v-2.2c0.1-0.7,0.7-1.3,1.4-1.2C61.3,18.1,61.8,18.6,61.9,19.2z"/>
		
			<linearGradient id="SVGID_00000070109376233670596550000003667072595085029015_" gradientUnits="userSpaceOnUse" x1="-1781.3428" y1="17104.4414" x2="-1781.3428" y2="17099.0801" gradientTransform="matrix(6.123234e-17 1 1 -6.123234e-17 -17062.9609 1801.08)">
			<stop  offset="0" style="stop-color:#552B8C"/>
			<stop  offset="5.000000e-02" style="stop-color:#5B3290"/>
			<stop  offset="0.12" style="stop-color:#6A4499"/>
			<stop  offset="0.2" style="stop-color:#8462AA"/>
			<stop  offset="0.29" style="stop-color:#A88CC0"/>
			<stop  offset="0.38" style="stop-color:#D6C1DD"/>
			<stop  offset="0.4" style="stop-color:#E1CEE4"/>
			<stop  offset="0.66" style="stop-color:#A183BC"/>
			<stop  offset="0.89" style="stop-color:#6A4499"/>
			<stop  offset="1" style="stop-color:#552B8C"/>
		</linearGradient>
		<path style="fill:url(#SVGID_00000070109376233670596550000003667072595085029015_);" d="M37.5,19.2v2.2h2.6v-2.2
			C40,18.5,39.4,18,38.7,18C38.1,18.1,37.6,18.6,37.5,19.2z"/>
		<path class="st0" d="M43.4,40.3c0,3,2.8,5.3,6.3,5.3s6.3-2.4,6.3-5.3S53.2,35,49.7,35S43.4,37.3,43.4,40.3z M45,40.3
			c0-2.1,2.1-3.8,4.7-3.8s4.7,1.7,4.7,3.8S52.3,44,49.7,44S45,42.4,45,40.3L45,40.3z"/>
		<path class="st0" d="M29,0.7c-7.2,2.2-14.9,2.2-22.1,0C6.5,0.6,6,0.8,5.9,1.2c0,0,0,0,0,0C5.8,1.6,6,2.1,6.4,2.2
			c7.5,2.3,15.5,2.3,23,0c0.4-0.1,0.7-0.5,0.6-1S29.4,0.6,29,0.7L29,0.7z"/>
		<path class="st0" d="M34.8,6.1C23.9,9.9,12,9.9,1.1,6.1C0.6,6,0.2,6.2,0.1,6.6s0.1,0.9,0.5,1l0,0c11.3,3.9,23.5,3.9,34.8,0
			c0.4-0.2,0.6-0.6,0.5-1C35.7,6.2,35.2,6,34.8,6.1C34.8,6.1,34.8,6.1,34.8,6.1z"/>
		<path class="st0" d="M11.8,10.8c-0.9,0.8-1.3,2-1.3,3.2c0,3,3,5.6,6.7,5.6h1.6c3.6,0,6.7-2.6,6.7-5.6l0,0c0-1.2-0.5-2.3-1.3-3.1
			c-1.5-1.3-3.4-2-5.3-1.9h-1.6C15.2,8.8,13.3,9.5,11.8,10.8z M12,13.9c0-0.8,0.3-1.5,0.9-2c1.2-1,2.7-1.5,4.2-1.4h1.6
			c1.5-0.1,3,0.4,4.2,1.4c0.6,0.5,0.9,1.2,0.9,2l0,0c0,2.2-2.3,4-5.1,4h-1.6C14.4,18,12,16.1,12,13.9z"/>
		<path class="st0" d="M17.1,19.4v15.9c0,0.4,0.4,0.8,0.9,0.7c0.4,0,0.7-0.3,0.7-0.7V19.4c0-0.4-0.4-0.8-0.9-0.7
			C17.5,18.8,17.2,19,17.1,19.4z"/>
		<path class="st0" d="M30.9,16.8v4.4c0,2-2.2,3.7-4.9,3.7c-5.3,0.1-10.9,0.1-16.2,0c-2.7,0-4.9-1.6-4.9-3.5V17
			c0-0.4-0.4-0.8-0.9-0.7c-0.4,0-0.7,0.3-0.7,0.7v4.2c0,2.8,2.9,5.1,6.5,5.1c5.3,0.1,10.9,0.1,16.2,0c3.6,0,6.5-2.4,6.5-5.3v-4.4
			c0-0.4-0.4-0.8-0.9-0.7C31.2,16.1,31,16.4,30.9,16.8z"/>
		<path class="st0" d="M7.6,43.1C7.2,43.2,6.9,43.6,7,44s0.5,0.7,0.9,0.6c6.6-1.2,13.4-1.2,20,0c0.4,0.1,0.8-0.2,0.9-0.6
			c0.1-0.4-0.2-0.8-0.6-0.9l0,0C21.4,41.9,14.4,41.9,7.6,43.1z"/>
		<path class="st0" d="M13.5,35.2c-3.6,0.1-6.6,3-6.6,6.3v5.9c0,3.4,4.2,4.7,4.4,4.7h0.2h12.9h0.2c0.2-0.1,4.4-1.3,4.4-4.7l0,0v-5.9
			c0-3.3-3-6.2-6.6-6.3C19.4,35.1,16.4,35.1,13.5,35.2z M8.5,47.4v-5.9c0.2-2.6,2.4-4.7,5-4.7c2.9-0.1,5.9-0.1,8.8,0
			c2.6,0,4.8,2.1,5,4.7v5.9c0,2-2.6,3-3.1,3.2H11.6C11.1,50.4,8.5,49.4,8.5,47.4L8.5,47.4z"/>
		<path class="st0" d="M6.9,34.2v6.9c0,0.4,0.4,0.8,0.8,0.8c0,0,0,0,0,0c0.4,0,0.8-0.4,0.8-0.8l0,0v-6.9c0-0.4-0.3-0.8-0.8-0.8
			c0,0,0,0,0,0C7.3,33.4,6.9,33.8,6.9,34.2z"/>
		<path class="st0" d="M27.4,34.2v6.9c0,0.4,0.4,0.8,0.8,0.8c0,0,0,0,0,0c0.4,0,0.8-0.4,0.8-0.8l0,0v-6.9c0-0.4-0.3-0.8-0.8-0.8
			c0,0,0,0,0,0C27.7,33.4,27.4,33.8,27.4,34.2z"/>
	</g>
</g>
</svg>
