<?xml version="1.0" encoding="utf-8"?>
<!-- Generator: Adobe Illustrator 26.5.0, SVG Export Plug-In . SVG Version: 6.00 Build 0)  -->
<svg version="1.1" id="圖層_1" xmlns="http://www.w3.org/2000/svg" xmlns:xlink="http://www.w3.org/1999/xlink" x="0px" y="0px"
	 viewBox="0 0 700 143.5" style="enable-background:new 0 0 700 143.5;" xml:space="preserve">
<style type="text/css">
	.st0{fill:#552B8C;}
	.st1{opacity:0.75;fill:#B4B4B5;enable-background:new    ;}
	.st2{fill:#DBDCDC;}
	.st3{fill:#888888;}
	.st4{fill:#FFFFFF;}
	.st5{fill:url(#SVGID_1_);}
	.st6{fill:url(#SVGID_00000002345163700611188120000010990606050878156730_);}
</style>
<g>
	<g>
		<path class="st0" d="M194.2,82.5c-1.4-2.4-2.9-4.8-4.4-7.3s-3.1-5-4.7-7.3c1.5-1.4,3.3-2.1,5.6-2.1c1.5,0,3.5,0.3,6,1
			s5.1,1.8,7.6,3.3s4.9,3.2,7.1,5c2.2,1.8,3.6,2.9,4.3,3.1c0.7,0.3,1.8,0.6,3.5,1l2.7,0.3c5.1,0,8.7-1.6,10.8-4.8
			c2.1-3.2,3.2-5.9,3.2-8.1c0-3-1.7-5.7-5-8.3c-3.3-2.5-8.6-4.9-15.8-7.2L204,47.6c-1-0.4-2-0.8-3-1.3s-2.2-1.2-3.7-2.3
			c-3.3-2.2-5.7-4.7-7.1-7.5c-1.4-2.8-2.1-6.3-2.1-10.3c0-2.4,0.5-4.7,1.5-6.6c1-2,2.4-3.8,4.3-5.5c1.8-1.7,4-3,6.4-3.9
			s5.5-1.5,9.2-1.8c1.2,0,2.5,0,3.7,0c1.3,0,3.3,0.3,6,0.7l5.2,0.9l2.2,0.3c0.4,0.1,1.2,0.1,2.6,0.2c1.3,0.1,2.1,0.1,2.3,0.1
			c1.2,0,2.7-0.3,4.4-0.8l8.7,13.9c-1.7,1-3.5,1.5-5.4,1.5c-1.5,0-3.3-0.4-5.4-1.2l-1.9-1h-0.3l-8.2-5.9c-3.8-2.7-7.3-4-10.4-4
			c-0.9,0-1.8,0.1-2.7,0.4c-0.9,0.3-2.2,0.9-3.9,2s-2.6,3.2-2.6,6.2c0,2.7,0.8,4.7,2.4,6c1.6,1.3,3.4,2.3,5.3,3
			c1.9,0.7,3.8,1.4,5.8,2l8.4,2.6c7,2.2,12,4.3,14.9,6.3c3,2,5.2,4.5,6.6,7.6c1.5,3.1,2.4,6,2.7,8.5c0,3.8-0.3,6.9-1,9.4
			c-0.6,2.5-1.8,4.9-3.6,7.2c-1.8,2.3-3.6,4.1-5.5,5.3c-1.9,1.2-4.1,2.2-6.6,2.9c-2.5,0.8-5,1.2-7.5,1.2c-2.5,0.1-4.6,0.1-6.4,0.1
			c-1.4,0-2.8-0.1-4.2-0.3c-1.4-0.2-3.6-0.7-6.7-1.5l-2.4-0.5c-2.2-0.5-4.1-0.7-5.8-0.7C198.4,81,196.3,81.5,194.2,82.5z"/>
		<path class="st0" d="M255.1,40.4c-0.6-1.1-1.2-2.1-2-3.1c2.7,0,5.7-0.5,9-1.5s6.4-2.1,9.3-3.1v6.1c2.4-2.7,4.9-4.4,7.4-5.1
			c2.5-0.7,4.5-1,5.9-1c3,0,5.9,1.5,8.7,4.4l1.3,1.4l2.3-2.1c3.4-2.5,6.8-3.7,10.3-3.7c0.7,0,2,0.1,3.8,0.4c1.8,0.2,3.5,1.2,5.3,2.7
			c1.7,1.6,2.6,3.4,2.6,5.5v33.5c0,0.8,0.2,1.7,0.5,2.7s0.8,2,1.6,3.1l1.3,1.7h-20.7c1.4-2.1,2.1-4.6,2.1-7.3V47
			c0-1.2-0.5-2.4-1.4-3.6l-1-0.9c-0.7-0.4-1.3-0.6-2-0.6c-1.6,0-2.6,0.5-3.1,1.5s-0.8,1.8-0.9,2.3c-0.1,0.6-0.2,1.4-0.2,2.5v27
			c0,2.9,0.7,5.3,2.2,7.1h-19.6c0.7-0.9,1.3-2,1.7-3.2c0.4-1.2,0.6-2.3,0.6-3.3V46c0-1.2-0.4-2.1-1.3-2.9c-0.9-0.8-1.9-1.2-3.1-1.2
			s-2.1,0.5-3,1.4c-0.8,0.9-1.2,2.2-1.2,3.6v29.2c0,1.7,0.4,3.2,1.1,4.7l0.9,1.5h-20.2c0.8-0.9,1.5-2,2.1-3.4s0.9-2.7,0.9-3.9V43.5
			c0-0.2,0-0.4-0.1-0.8C256,42.3,255.7,41.6,255.1,40.4z"/>
		<path class="st0" d="M347.3,48.8l2-0.6l-0.4-2.4c-0.6-3-2.7-4.5-6.4-4.5c-1.7,0-3.4,0.3-5.4,1c-1.9,0.6-4.1,1.7-6.5,3.3l-1.7,1
			c0.3-2,0.9-3.7,1.9-5.3s2.4-2.9,3.9-4c1.6-1.1,2.9-1.9,4-2.3c1.1-0.5,2.7-0.9,4.7-1.4s4-0.7,6-0.7c4.5,0,7.9,1.3,10.5,3.9
			c2.5,2.6,4.1,6.3,4.7,11.3l3.3,28.3c0.1,1,0.5,2,1.1,3.1s1.5,2,2.5,2.8h-18.2l-0.4-2.6c-0.6,0.4-1.1,0.7-1.6,1s-1.7,0.9-3.9,1.7
			c-2.1,0.9-4.6,1.3-7.6,1.3c-3.5,0-6.5-1-8.9-2.9c-2.5-1.9-4-4.1-4.6-6.5s-0.9-4.2-0.9-5.5c0-2.5,0.5-4.7,1.6-6.6s2.3-3.5,3.7-4.9
			c1.4-1.4,3-2.6,4.8-3.7c1.8-1.1,3.5-2,5.1-2.6C342.4,50.3,344.6,49.6,347.3,48.8z M349.7,51.6c-1.6,1-2.9,2.1-3.9,3.3
			s-2,2.9-2.9,5s-1.3,4-1.3,5.7c0,0.4,0,0.8,0,1.2c0,0.4,0,0.7,0,0.9c0,2.9,0.6,5.2,1.9,7.1c1.3,1.8,2.9,2.7,5,2.7
			c1.8,0,3.2-0.7,4.2-2.2L349.7,51.6z"/>
		<path class="st0" d="M373.5,40.4l-1.7-1.8l4.5-1.4l4.6-1.5l4.7-1.5l4.7-1.6v8.7l1.4-1.9c1.8-2.3,3.3-3.8,4.5-4.6s2.4-1.3,3.4-1.5
			s1.8-0.2,2.4-0.2c2.5,0,4.5,0.8,6,2.4c1.5,1.6,2.2,3.8,2.2,6.5c0,2.4-0.6,4.2-1.8,5.6c-1.2,1.3-2.8,2-4.8,2c-1.4,0-2.9-0.3-4.5-1
			s-2.9-1.6-3.9-2.8c-0.8-0.1-1.6,0.1-2.5,0.6s-1.6,1.2-2.4,1.8v28.3c0,1.7,0.4,2.9,1.3,3.9c0.9,0.9,1.6,1.5,2.2,1.8h-22l1.3-1.4
			c1.3-1.8,2-3.4,2-4.9V44.8C374.9,43.2,374.5,41.7,373.5,40.4z"/>
		<path class="st0" d="M413.5,41.3h-4.9c5.6-4.2,10.6-8.4,15-12.7l5-5v11.8h8v6h-8v31.4c0,2.6,1.5,3.9,4.5,3.9
			c0.7,0,1.4-0.1,2.1-0.3l2.4-0.8l1.2-0.6c-0.4,1.8-1.2,3.4-2.4,4.7c-1.2,1.4-2.5,2.4-4.1,3.2c-1.6,0.7-2.6,1.2-3.2,1.3
			c-0.6,0.2-1.1,0.2-1.8,0.2c-0.4,0-0.9,0-1.4,0s-0.9,0-1.1,0c-6.5,0-10.3-3.1-11.3-9.2v-1.9L413.5,41.3L413.5,41.3z"/>
		<path class="st0" d="M649.8,83.9H628l1.5-1.6c1.2-1.8,1.8-3.6,1.8-5.4V44.7c0-2.6-1.1-4.5-3.2-5.8c2.6,0,5.6-0.5,9-1.5
			s6.5-2,9.4-3.1V77c0,1,0.4,2.3,1.1,3.7c0.8,1.4,1.2,2.2,1.4,2.4S649.4,83.6,649.8,83.9z M638.6,30.6c-2.6,0-4.7-0.7-6.4-2.2
			c-1.7-1.4-2.6-3.3-2.6-5.5c0-2.4,0.8-4.5,2.3-6.1s3.7-2.4,6.4-2.4c2.9,0,5,0.7,6.5,2.2c1.5,1.4,2.2,3.5,2.2,6.1
			c0,2.2-0.8,4.1-2.3,5.6C643.1,29.8,641.1,30.6,638.6,30.6z"/>
		<path class="st0" d="M672.8,84.7h-20.4l1.6-1.3c1.2-1.3,1.8-2.8,1.8-4.5V45c0-0.6-0.2-1.3-0.5-2s-0.8-1.5-1.5-2.2l-1.1-1
			c2.7,0,5.7-0.5,9-1.5s6.4-2.1,9.3-3.2v5l1.6-1.1c3.5-2.4,6.6-3.6,9.3-3.6c4.2,0,7.3,0.8,9.3,2.5s3.2,4.4,3.5,8.1v2v26.1
			c0,1.3,0.2,2.6,0.6,3.9c0.4,1.3,1,3,2,5.1l0.7,1.5h-20.5l1-1.8c0.7-1.4,1-2.5,1-3.4V46.8c0-2-1.3-3-3.8-3c-0.7,0-1.5,0.1-2.2,0.3
			c-0.8,0.2-1.4,0.8-1.8,1.7c-0.5,1-0.7,2.5-0.7,4.5v29.2v2.7C670.8,83.2,671.5,84,672.8,84.7z"/>
		<path class="st0" d="M524.8,83.9H503l1.5-1.6c1.2-1.8,1.8-3.6,1.8-5.4V44.7c0-2.6-1.1-4.5-3.2-5.8c2.6,0,5.6-0.5,9-1.5
			c3.4-1,6.5-2,9.4-3.1V77c0,1,0.4,2.3,1.1,3.7c0.8,1.4,1.2,2.2,1.4,2.4C524.1,83.3,524.4,83.6,524.8,83.9z M513.6,30.6
			c-2.6,0-4.7-0.7-6.4-2.2c-1.7-1.4-2.6-3.3-2.6-5.5c0-2.4,0.8-4.5,2.3-6.1s3.7-2.4,6.4-2.4c2.9,0,5,0.7,6.5,2.2
			c1.5,1.4,2.2,3.5,2.2,6.1c0,2.2-0.8,4.1-2.3,5.6C518.1,29.8,516.1,30.6,513.6,30.6z"/>
		<path class="st0" d="M547.8,83.9h-20.5l1.6-1.3c1.2-1.3,1.8-2.8,1.8-4.5V44.2c0-0.6-0.2-1.3-0.5-2s-0.9-1.5-1.5-2.2l-1.1-1
			c2.7,0,5.7-0.5,9-1.5s6.4-2.1,9.3-3.2v5l1.6-1.1c3.5-2.4,6.6-3.6,9.2-3.6c4.2,0,7.3,0.8,9.3,2.5s3.2,4.4,3.5,8.1v2v26.1
			c0,1.3,0.2,2.6,0.6,3.9c0.4,1.3,1.1,3,2,5.1l0.7,1.5h-20.5l1-1.8c0.7-1.4,1-2.5,1-3.4V46c0-2-1.3-3-3.8-3c-0.7,0-1.5,0.1-2.2,0.3
			c-0.8,0.2-1.4,0.8-1.8,1.7c-0.5,0.9-0.7,2.5-0.7,4.5v29.2v2.7C545.8,82.4,546.5,83.2,547.8,83.9z"/>
		<path class="st0" d="M500.5,24.4c-0.5-2.6-1.4-4.9-2.7-6.8c-1.3-2-3-3.6-5.2-4.8s-4.9-1.8-8.1-1.8c-1.6,0-3.2,0.2-4.6,0.7
			c-1.4,0.4-2.8,0.9-4.2,1.6c-1.4,0.6-2.7,1.2-4.1,1.8c-1,0.5-2,0.9-3,1.2l0.1-7.5l-1.1,0.3c-3.1,1-6.1,1.9-9.1,2.8
			c-2.9,0.9-6,1.5-9.1,1.9l-1.5,0.2l0.9,1.1c1.1,1.4,2.1,2.7,2.9,3.8c0.7,1,1.1,2.4,1.1,4v54.4c0,1.3-0.4,2.3-1.3,3.2
			c-1,1-2,1.9-3.1,2.6l-2.1,1.5h26l0.3-1.5c-1-0.5-1.8-0.9-2.3-1.3s-0.9-0.7-1.1-1.1c-0.3-0.4-0.4-0.9-0.5-1.5
			c-0.1-0.7-0.1-1.6-0.1-2.7v-6.2c0-0.9,0.4-1.9,1-2.9c0.8-1.1,1.7-2.1,2.7-3s2.2-1.8,3.3-2.5c1.2-0.8,2.2-1.4,3.1-1.9
			c2.9-1.7,5.9-3.4,8.8-5.2c3-1.8,9.6-5.5,12.1-12.2c0.6-1.6,0.9-3.4,1.2-5.1c0.3-1.7,0.4-3.4,0.4-5.1C501.2,29.7,501,27,500.5,24.4
			z M469.4,54.5V23.3c0.3-0.3,13-3.4,14.8,3.1c0.4,1.5,0.8,3.1,0.9,4.7C485.9,47.9,473.8,51.9,469.4,54.5z"/>
		<path class="st0" d="M602.4,34.3l1.3,2.4c1.1,2,2.2,4,3.2,6.1c1,1.9,1.4,3.9,1.4,6c0,1.3-0.1,2.8-0.3,4.4
			c-0.2,1.6-0.6,3.2-1.1,4.8s-1.1,3-1.8,4.3c-0.3,0.6-0.7,1.1-1,1.5l-15.3-33.1l-2.6,2l-0.2,0.1c-1.8,1-3.8,1.7-5.8,2.3
			c-2.1,0.6-4.2,1.1-6.3,1.6l-2.8,0.6l1.9,2.1c1,1.1,2.2,2.7,3.6,4.8c1.4,2.2,2.9,4.7,4.4,7.4s3.1,5.7,4.7,8.8
			c1.6,3.1,3.1,6.1,4.6,9.1c1.4,3,2.8,5.7,4,8.3c1.1,2.4,2.1,4.4,2.8,6c0,0.6-0.2,1.3-0.6,1.5c-0.6,0.4-1.4,0.6-2.4,0.7
			c-1.2,0.1-2.6,0-4-0.1c-1.6-0.2-3.2-0.2-4.6,0c-1.6,0.1-3,0.7-4.1,1.6c-1.3,1-1.9,2.7-1.9,4.9c0,1.5,0.4,2.8,1.2,3.8
			c0.7,0.9,1.6,1.6,2.7,2.1c1,0.5,2.1,0.8,3.3,1c1.1,0.2,2.2,0.2,3.2,0.2c1.6,0,3.2-0.2,4.6-0.7c1.6-0.5,3-1.6,4.1-3.2
			c1.5-2.2,2.7-4.8,3.6-7.6c0.8-2.6,1.7-5.1,2.6-7.5c1-2.8,2.3-6.3,3.8-10.4s3.2-8.3,5-12.5s3.7-8.2,5.7-11.9s3.9-6.5,5.7-8.6
			l2.4-2.7L602.4,34.3L602.4,34.3z"/>
	</g>
	<g>
		<g>
			<g>
				<path class="st0" d="M158.7,18.7c-1-10.8-10.8-19.2-22.8-19.2S114.1,8,113.1,18.7H113v50.7h0.1c1,11.7,10.8,21,22.8,21
					s21.8-9.2,22.8-21h0.1L158.7,18.7z"/>
				<path class="st1" d="M153.5,15.4c-1.1-8.9-8.6-15.7-17.7-15.7s-16.6,6.9-17.7,15.7H118v56.8c0,10,8,18.1,17.9,18.1
					s17.9-8.1,17.9-18.1V15.4H153.5z"/>
				<path class="st2" d="M134.4,0.2c-6.5,0-11.8,5.3-11.8,11.9v65.7c0,6.6,5.3,11.9,11.8,11.9s11.8-5.3,11.8-11.9V12.1
					C146.2,5.6,140.9,0.2,134.4,0.2z"/>
				<g>
					<path class="st3" d="M138.7,25.8c0,1.5-1.2,2.7-2.7,2.7s-2.7-1.2-2.7-2.7s1.2-2.8,2.7-2.8S138.7,24.3,138.7,25.8z"/>
					<path class="st3" d="M138.9,34.6c0,1.5-1.2,2.7-2.7,2.7s-2.7-1.2-2.7-2.7s1.2-2.7,2.7-2.7C137.6,31.8,138.9,33.1,138.9,34.6z"
						/>
					<path class="st3" d="M138.9,43.2c0,1.5-1.2,2.7-2.7,2.7s-2.7-1.2-2.7-2.7s1.2-2.7,2.7-2.7C137.6,40.4,138.9,41.7,138.9,43.2z"
						/>
					<path class="st3" d="M138.9,51.5c0,1.5-1.2,2.7-2.7,2.7s-2.7-1.2-2.7-2.7s1.2-2.8,2.7-2.8C137.6,48.8,138.9,50,138.9,51.5z"/>
					<path class="st3" d="M138.9,59.8c0,1.5-1.2,2.7-2.7,2.7s-2.7-1.2-2.7-2.7s1.2-2.7,2.7-2.7C137.6,57.1,138.9,58.3,138.9,59.8z"
						/>
					<path class="st3" d="M138.9,68.7c0,1.5-1.2,2.7-2.7,2.7s-2.7-1.2-2.7-2.7s1.2-2.7,2.7-2.7C137.6,65.9,138.9,67.1,138.9,68.7z"
						/>
					<path class="st3" d="M131.7,30.2c0,1.5-1.2,2.7-2.7,2.7s-2.7-1.2-2.7-2.7s1.2-2.7,2.7-2.7C130.4,27.4,131.7,28.7,131.7,30.2z"
						/>
					<path class="st3" d="M131.8,39c0,1.5-1.2,2.7-2.7,2.7s-2.7-1.2-2.7-2.7s1.2-2.7,2.7-2.7C130.5,36.3,131.8,37.5,131.8,39z"/>
					<path class="st3" d="M131.8,47.6c0,1.5-1.2,2.7-2.7,2.7s-2.7-1.2-2.7-2.7s1.2-2.7,2.7-2.7C130.5,44.8,131.8,46.1,131.8,47.6z"
						/>
					<path class="st3" d="M131.8,55.9c0,1.5-1.2,2.7-2.7,2.7s-2.7-1.2-2.7-2.7s1.2-2.7,2.7-2.7C130.5,53.2,131.8,54.4,131.8,55.9z"
						/>
					<path class="st3" d="M131.8,64.3c0,1.5-1.2,2.7-2.7,2.7s-2.7-1.2-2.7-2.7s1.2-2.7,2.7-2.7C130.5,61.5,131.8,62.7,131.8,64.3z"
						/>
					<path class="st3" d="M145.7,30.2c0,1.5-1.2,2.7-2.7,2.7s-2.7-1.2-2.7-2.7s1.2-2.7,2.7-2.7C144.5,27.4,145.7,28.7,145.7,30.2z"
						/>
					<path class="st3" d="M145.8,39c0,1.5-1.2,2.7-2.7,2.7s-2.7-1.2-2.7-2.7s1.2-2.7,2.7-2.7S145.8,37.5,145.8,39z"/>
					<path class="st3" d="M145.8,47.6c0,1.5-1.2,2.7-2.7,2.7s-2.7-1.2-2.7-2.7s1.2-2.7,2.7-2.7C144.6,44.8,145.8,46.1,145.8,47.6z"
						/>
					<path class="st3" d="M145.8,55.9c0,1.5-1.2,2.7-2.7,2.7s-2.7-1.2-2.7-2.7s1.2-2.7,2.7-2.7S145.8,54.4,145.8,55.9z"/>
					<path class="st3" d="M145.8,64.3c0,1.5-1.2,2.7-2.7,2.7s-2.7-1.2-2.7-2.7s1.2-2.7,2.7-2.7C144.6,61.5,145.8,62.7,145.8,64.3z"
						/>
					<path class="st3" d="M151.7,25.8c0,1.5-0.9,2.7-2,2.7s-2-1.2-2-2.7s0.9-2.8,2-2.8S151.7,24.3,151.7,25.8z"/>
					<path class="st3" d="M151.8,34.6c0,1.5-0.9,2.7-2,2.7s-2-1.2-2-2.7s0.9-2.7,2-2.7C150.9,31.8,151.8,33.1,151.8,34.6z"/>
					<path class="st3" d="M151.8,43.2c0,1.5-0.9,2.7-2,2.7s-2-1.2-2-2.7s0.9-2.7,2-2.7C150.9,40.4,151.8,41.7,151.8,43.2z"/>
					<path class="st3" d="M151.8,51.5c0,1.5-0.9,2.7-2,2.7s-2-1.2-2-2.7s0.9-2.8,2-2.8C150.9,48.8,151.8,50,151.8,51.5z"/>
					<path class="st3" d="M151.8,59.8c0,1.5-0.9,2.7-2,2.7s-2-1.2-2-2.7s0.9-2.7,2-2.7C150.9,57.1,151.8,58.3,151.8,59.8z"/>
					<path class="st3" d="M151.8,68.7c0,1.5-0.9,2.7-2,2.7s-2-1.2-2-2.7s0.9-2.7,2-2.7C150.9,65.9,151.8,67.1,151.8,68.7z"/>
					<path class="st3" d="M124.8,25.8c0,1.5-0.9,2.7-2,2.7s-2-1.2-2-2.7s0.9-2.8,2-2.8S124.8,24.3,124.8,25.8z"/>
					<path class="st3" d="M124.9,34.6c0,1.5-0.9,2.7-2,2.7s-2-1.2-2-2.7s0.9-2.7,2-2.7C123.9,31.8,124.9,33.1,124.9,34.6z"/>
					<path class="st3" d="M124.9,43.2c0,1.5-0.9,2.7-2,2.7s-2-1.2-2-2.7s0.9-2.7,2-2.7C123.9,40.4,124.9,41.7,124.9,43.2z"/>
					<path class="st3" d="M124.9,51.5c0,1.5-0.9,2.7-2,2.7s-2-1.2-2-2.7s0.9-2.8,2-2.8S124.9,50,124.9,51.5z"/>
					<path class="st3" d="M124.9,59.8c0,1.5-0.9,2.7-2,2.7s-2-1.2-2-2.7s0.9-2.7,2-2.7S124.9,58.3,124.9,59.8z"/>
					<path class="st3" d="M124.9,68.7c0,1.5-0.9,2.7-2,2.7s-2-1.2-2-2.7s0.9-2.7,2-2.7C123.9,65.9,124.9,67.1,124.9,68.7z"/>
					<path class="st3" d="M156.5,30.5c0,1.5-0.6,2.7-1.4,2.7c-0.8,0-1.4-1.2-1.4-2.7s0.6-2.7,1.4-2.7S156.5,29,156.5,30.5z"/>
					<path class="st3" d="M156.6,39.4c0,1.5-0.6,2.7-1.4,2.7c-0.8,0-1.4-1.2-1.4-2.7s0.6-2.7,1.4-2.7
						C156,36.6,156.6,37.8,156.6,39.4z"/>
					<path class="st3" d="M156.6,47.9c0,1.5-0.6,2.7-1.4,2.7c-0.8,0-1.4-1.2-1.4-2.7s0.6-2.7,1.4-2.7S156.6,46.4,156.6,47.9z"/>
					<path class="st3" d="M156.6,56.3c0,1.5-0.6,2.7-1.4,2.7c-0.8,0-1.4-1.2-1.4-2.7s0.6-2.7,1.4-2.7
						C156,53.5,156.6,54.8,156.6,56.3z"/>
					<path class="st3" d="M156.6,64.6c0,1.5-0.6,2.7-1.4,2.7c-0.8,0-1.4-1.2-1.4-2.7s0.6-2.7,1.4-2.7
						C156,61.9,156.6,63.1,156.6,64.6z"/>
					<path class="st3" d="M118.9,30.7c0,1.5-0.6,2.7-1.4,2.7s-1.4-1.2-1.4-2.7s0.6-2.7,1.4-2.7C118.3,27.9,118.9,29.1,118.9,30.7z"
						/>
					<path class="st3" d="M118.9,39.5c0,1.5-0.6,2.7-1.4,2.7s-1.4-1.2-1.4-2.7s0.6-2.7,1.4-2.7C118.3,36.7,118.9,38,118.9,39.5z"/>
					<path class="st3" d="M118.9,48.1c0,1.5-0.6,2.7-1.4,2.7s-1.4-1.2-1.4-2.7s0.6-2.7,1.4-2.7C118.3,45.3,118.9,46.5,118.9,48.1z"
						/>
					<path class="st3" d="M118.9,56.4c0,1.5-0.6,2.7-1.4,2.7s-1.4-1.2-1.4-2.7s0.6-2.7,1.4-2.7S118.9,54.9,118.9,56.4z"/>
					<path class="st3" d="M118.9,64.7c0,1.5-0.6,2.7-1.4,2.7s-1.4-1.2-1.4-2.7s0.6-2.7,1.4-2.7C118.3,62,118.9,63.2,118.9,64.7z"/>
					<path class="st3" d="M158.7,26.5c0,1.5-0.4,2.7-0.8,2.7c-0.5,0-0.8-1.2-0.8-2.7s0.4-2.7,0.8-2.7
						C158.4,23.7,158.7,25,158.7,26.5z"/>
					<path class="st3" d="M158.8,35.3c0,1.5-0.4,2.7-0.8,2.7c-0.4,0-0.8-1.2-0.8-2.7s0.4-2.7,0.8-2.7
						C158.4,32.6,158.8,33.8,158.8,35.3z"/>
					<path class="st3" d="M158.8,43.9c0,1.5-0.4,2.7-0.8,2.7c-0.4,0-0.8-1.2-0.8-2.7s0.4-2.7,0.8-2.7
						C158.4,41.1,158.8,42.4,158.8,43.9z"/>
					<path class="st3" d="M158.8,52.2c0,1.5-0.4,2.7-0.8,2.7c-0.4,0-0.8-1.2-0.8-2.7s0.4-2.7,0.8-2.7
						C158.4,49.5,158.8,50.7,158.8,52.2z"/>
					<path class="st3" d="M158.8,60.6c0,1.5-0.4,2.7-0.8,2.7c-0.4,0-0.8-1.2-0.8-2.7s0.4-2.7,0.8-2.7
						C158.4,57.8,158.8,59.1,158.8,60.6z"/>
					<path class="st3" d="M158.8,69.4c0,1.5-0.4,2.7-0.8,2.7c-0.4,0-0.8-1.2-0.8-2.7s0.4-2.7,0.8-2.7
						C158.4,66.6,158.8,67.9,158.8,69.4z"/>
					<path class="st3" d="M114.8,26c0,1.5-0.4,2.7-0.8,2.7c-0.5,0-0.8-1.2-0.8-2.7s0.4-2.7,0.8-2.7S114.8,24.5,114.8,26z"/>
					<path class="st3" d="M114.8,34.8c0,1.5-0.4,2.7-0.8,2.7c-0.5,0-0.8-1.2-0.8-2.7s0.4-2.7,0.8-2.7S114.8,33.3,114.8,34.8z"/>
					<path class="st3" d="M114.8,43.4c0,1.5-0.4,2.7-0.8,2.7c-0.5,0-0.8-1.2-0.8-2.7s0.4-2.7,0.8-2.7S114.8,41.9,114.8,43.4z"/>
					<path class="st3" d="M114.8,51.7c0,1.5-0.4,2.7-0.8,2.7c-0.5,0-0.8-1.2-0.8-2.7s0.4-2.7,0.8-2.7S114.8,50.2,114.8,51.7z"/>
					<path class="st3" d="M114.8,60.1c0,1.5-0.4,2.7-0.8,2.7c-0.5,0-0.8-1.2-0.8-2.7s0.4-2.7,0.8-2.7
						C114.4,57.4,114.8,58.6,114.8,60.1z"/>
					<path class="st3" d="M114.8,68.9c0,1.5-0.4,2.7-0.8,2.7c-0.5,0-0.8-1.2-0.8-2.7s0.4-2.7,0.8-2.7
						C114.4,66.2,114.8,67.4,114.8,68.9z"/>
				</g>
				<path class="st4" d="M136.3,3.5c1.3,2.4-0.3,5.7-3.4,7.4c-3.2,1.6-6.7,1-8-1.5c-1.3-2.4,0.3-5.7,3.4-7.4
					C131.4,0.4,135,1.1,136.3,3.5z"/>
				<g>
					<path class="st4" d="M138.8,24.9c0,1.5-1.2,2.7-2.7,2.7s-2.7-1.2-2.7-2.7s1.2-2.7,2.7-2.7C137.6,22.1,138.8,23.4,138.8,24.9z"
						/>
					<path class="st4" d="M138.9,33.7c0,1.5-1.2,2.7-2.7,2.7s-2.7-1.2-2.7-2.7s1.2-2.7,2.7-2.7S138.9,32.2,138.9,33.7z"/>
					<path class="st4" d="M138.9,42.3c0,1.5-1.2,2.7-2.7,2.7s-2.7-1.2-2.7-2.7s1.2-2.7,2.7-2.7C137.7,39.5,138.9,40.8,138.9,42.3z"
						/>
					<path class="st4" d="M138.9,50.6c0,1.5-1.2,2.7-2.7,2.7s-2.7-1.2-2.7-2.7s1.2-2.7,2.7-2.7C137.7,47.9,138.9,49.1,138.9,50.6z"
						/>
					<path class="st4" d="M138.9,58.9c0,1.5-1.2,2.7-2.7,2.7s-2.7-1.2-2.7-2.7s1.2-2.7,2.7-2.7S138.9,57.4,138.9,58.9z"/>
					<path class="st4" d="M138.9,67.8c0,1.5-1.2,2.7-2.7,2.7s-2.7-1.2-2.7-2.7s1.2-2.7,2.7-2.7C137.7,65,138.9,66.3,138.9,67.8z"/>
					<path class="st4" d="M131.7,29.3c0,1.5-1.2,2.7-2.7,2.7s-2.8-1.2-2.8-2.7s1.2-2.7,2.8-2.7C130.5,26.5,131.7,27.8,131.7,29.3z"
						/>
					<path class="st4" d="M131.8,38.1c0,1.5-1.2,2.7-2.7,2.7s-2.8-1.2-2.8-2.7s1.2-2.7,2.8-2.7C130.6,35.4,131.8,36.6,131.8,38.1z"
						/>
					<path class="st4" d="M131.8,46.7c0,1.5-1.2,2.7-2.7,2.7s-2.8-1.2-2.8-2.7s1.2-2.7,2.8-2.7C130.6,43.9,131.8,45.2,131.8,46.7z"
						/>
					<path class="st4" d="M131.8,55c0,1.5-1.2,2.7-2.7,2.7s-2.7-1.2-2.7-2.7s1.2-2.7,2.7-2.7S131.8,53.5,131.8,55z"/>
					<path class="st4" d="M131.8,63.4c0,1.5-1.2,2.7-2.7,2.7s-2.7-1.2-2.7-2.7c0-1.5,1.2-2.7,2.7-2.7
						C130.6,60.6,131.8,61.8,131.8,63.4z"/>
					<path class="st4" d="M145.8,29.3c0,1.5-1.2,2.7-2.7,2.7s-2.7-1.2-2.7-2.7s1.2-2.7,2.7-2.7C144.5,26.5,145.8,27.8,145.8,29.3z"
						/>
					<path class="st4" d="M145.9,38.1c0,1.5-1.2,2.7-2.7,2.7s-2.7-1.2-2.7-2.7s1.2-2.7,2.7-2.7C144.7,35.4,145.9,36.6,145.9,38.1z"
						/>
					<path class="st4" d="M145.9,46.7c0,1.5-1.2,2.7-2.7,2.7s-2.7-1.2-2.7-2.7s1.2-2.7,2.7-2.7C144.7,43.9,145.9,45.2,145.9,46.7z"
						/>
					<path class="st4" d="M145.9,55c0,1.5-1.2,2.7-2.7,2.7s-2.7-1.2-2.7-2.7s1.2-2.7,2.7-2.7S145.9,53.5,145.9,55z"/>
					<path class="st4" d="M145.9,63.4c0,1.5-1.2,2.7-2.7,2.7s-2.7-1.2-2.7-2.7c0-1.5,1.2-2.7,2.7-2.7
						C144.7,60.6,145.9,61.8,145.9,63.4z"/>
					<path class="st4" d="M151.8,24.9c0,1.5-0.9,2.7-2,2.7s-2-1.2-2-2.7s0.9-2.8,2-2.8C150.8,22.1,151.8,23.4,151.8,24.9z"/>
					<path class="st4" d="M151.8,33.7c0,1.5-0.9,2.7-2,2.7s-2-1.2-2-2.7s0.9-2.7,2-2.7C150.9,31,151.8,32.2,151.8,33.7z"/>
					<path class="st4" d="M151.8,42.3c0,1.5-0.9,2.7-2,2.7s-2-1.2-2-2.7s0.9-2.7,2-2.7C150.9,39.5,151.8,40.8,151.8,42.3z"/>
					<path class="st4" d="M151.8,50.6c0,1.5-0.9,2.7-2,2.7s-2-1.2-2-2.7s0.9-2.7,2-2.7C150.9,47.9,151.8,49.1,151.8,50.6z"/>
					<path class="st4" d="M151.8,58.9c0,1.5-0.9,2.7-2,2.7s-2-1.2-2-2.7s0.9-2.7,2-2.7C150.9,56.2,151.8,57.4,151.8,58.9z"/>
					<path class="st4" d="M151.8,67.8c0,1.5-0.9,2.7-2,2.7s-2-1.2-2-2.7s0.9-2.7,2-2.7C150.9,65,151.8,66.3,151.8,67.8z"/>
					<path class="st4" d="M124.8,24.9c0,1.5-0.9,2.7-2,2.7s-2-1.2-2-2.7s0.9-2.8,2-2.8S124.8,23.4,124.8,24.9z"/>
					<path class="st4" d="M124.9,33.7c0,1.5-0.9,2.7-2,2.7s-2-1.2-2-2.7s0.9-2.7,2-2.7S124.9,32.2,124.9,33.7z"/>
					<path class="st4" d="M124.9,42.3c0,1.5-0.9,2.7-2,2.7s-2-1.2-2-2.7s0.9-2.7,2-2.7C124,39.5,124.9,40.8,124.9,42.3z"/>
					<path class="st4" d="M124.9,50.6c0,1.5-0.9,2.7-2,2.7s-2-1.2-2-2.7s0.9-2.7,2-2.7C124,47.9,124.9,49.1,124.9,50.6z"/>
					<path class="st4" d="M124.9,58.9c0,1.5-0.9,2.7-2,2.7s-2-1.2-2-2.7s0.9-2.7,2-2.7S124.9,57.4,124.9,58.9z"/>
					<path class="st4" d="M124.9,67.8c0,1.5-0.9,2.7-2,2.7s-2-1.2-2-2.7s0.9-2.7,2-2.7C124,65,124.9,66.3,124.9,67.8z"/>
					<path class="st4" d="M156.6,29.6c0,1.5-0.6,2.7-1.4,2.7c-0.8,0-1.4-1.2-1.4-2.7s0.6-2.7,1.4-2.7
						C156,26.9,156.6,28.1,156.6,29.6z"/>
					<path class="st4" d="M156.6,38.5c0,1.5-0.6,2.7-1.4,2.7c-0.8,0-1.4-1.2-1.4-2.7s0.6-2.7,1.4-2.7
						C156,35.7,156.6,36.9,156.6,38.5z"/>
					<path class="st4" d="M156.6,47c0,1.5-0.6,2.7-1.4,2.7c-0.8,0-1.4-1.2-1.4-2.7s0.6-2.7,1.4-2.7S156.6,45.5,156.6,47z"/>
					<path class="st4" d="M156.6,55.4c0,1.5-0.6,2.7-1.4,2.7c-0.8,0-1.4-1.2-1.4-2.7s0.6-2.7,1.4-2.7
						C156,52.6,156.6,53.9,156.6,55.4z"/>
					<path class="st4" d="M156.6,63.7c0,1.5-0.6,2.7-1.4,2.7c-0.8,0-1.4-1.2-1.4-2.7c0-1.5,0.6-2.7,1.4-2.7S156.6,62.2,156.6,63.7z"
						/>
					<path class="st4" d="M118.9,29.8c0,1.5-0.6,2.7-1.4,2.7s-1.4-1.2-1.4-2.7s0.6-2.7,1.4-2.7C118.3,27,118.9,28.3,118.9,29.8z"/>
					<path class="st4" d="M119,38.6c0,1.5-0.6,2.7-1.4,2.7s-1.4-1.2-1.4-2.7s0.6-2.7,1.4-2.7C118.4,35.8,119,37.1,119,38.6z"/>
					<path class="st4" d="M119,47.2c0,1.5-0.6,2.7-1.4,2.7s-1.4-1.2-1.4-2.7s0.6-2.7,1.4-2.7C118.4,44.4,119,45.6,119,47.2z"/>
					<path class="st4" d="M119,55.5c0,1.5-0.6,2.7-1.4,2.7s-1.4-1.2-1.4-2.7s0.6-2.7,1.4-2.7S119,54,119,55.5z"/>
					<path class="st4" d="M119,63.8c0,1.5-0.6,2.7-1.4,2.7s-1.4-1.2-1.4-2.7c0-1.5,0.6-2.7,1.4-2.7S119,62.3,119,63.8z"/>
					<path class="st4" d="M158.8,25.6c0,1.5-0.4,2.7-0.8,2.7c-0.5,0-0.8-1.2-0.8-2.7s0.4-2.7,0.8-2.7
						C158.4,22.9,158.8,24.1,158.8,25.6z"/>
					<path class="st4" d="M158.8,34.4c0,1.5-0.4,2.7-0.8,2.7c-0.4,0-0.8-1.2-0.8-2.7s0.4-2.7,0.8-2.7
						C158.5,31.7,158.8,32.9,158.8,34.4z"/>
					<path class="st4" d="M158.8,43c0,1.5-0.4,2.7-0.8,2.7c-0.4,0-0.8-1.2-0.8-2.7s0.4-2.7,0.8-2.7C158.5,40.3,158.8,41.5,158.8,43z
						"/>
					<path class="st4" d="M158.8,51.3c0,1.5-0.4,2.7-0.8,2.7c-0.4,0-0.8-1.2-0.8-2.7s0.4-2.7,0.8-2.7
						C158.5,48.6,158.8,49.8,158.8,51.3z"/>
					<path class="st4" d="M158.8,59.7c0,1.5-0.4,2.7-0.8,2.7c-0.4,0-0.8-1.2-0.8-2.7s0.4-2.7,0.8-2.7
						C158.5,56.9,158.8,58.1,158.8,59.7z"/>
					<path class="st4" d="M158.8,68.5c0,1.5-0.4,2.7-0.8,2.7c-0.4,0-0.8-1.2-0.8-2.7s0.4-2.7,0.8-2.7
						C158.5,65.7,158.8,67,158.8,68.5z"/>
					<path class="st4" d="M114.8,25.1c0,1.5-0.4,2.7-0.8,2.7c-0.5,0-0.8-1.2-0.8-2.7s0.4-2.7,0.8-2.7S114.8,23.6,114.8,25.1z"/>
					<path class="st4" d="M114.9,33.9c0,1.5-0.4,2.7-0.8,2.7c-0.5,0-0.8-1.2-0.8-2.7s0.4-2.7,0.8-2.7S114.9,32.4,114.9,33.9z"/>
					<path class="st4" d="M114.9,42.5c0,1.5-0.4,2.7-0.8,2.7c-0.5,0-0.8-1.2-0.8-2.7s0.4-2.7,0.8-2.7S114.9,41,114.9,42.5z"/>
					<path class="st4" d="M114.9,50.9c0,1.5-0.4,2.7-0.8,2.7c-0.5,0-0.8-1.2-0.8-2.7s0.4-2.7,0.8-2.7
						C114.5,48.1,114.9,49.3,114.9,50.9z"/>
					<path class="st4" d="M114.9,59.2c0,1.5-0.4,2.7-0.8,2.7c-0.5,0-0.8-1.2-0.8-2.7s0.4-2.7,0.8-2.7S114.9,57.7,114.9,59.2z"/>
					<path class="st4" d="M114.9,68c0,1.5-0.4,2.7-0.8,2.7c-0.5,0-0.8-1.2-0.8-2.7s0.4-2.7,0.8-2.7S114.9,66.5,114.9,68z"/>
				</g>
			</g>
			<g>
				<path class="st0" d="M133.9,143c-4.3,0-6.5-3.3-4.9-7.2l3.9-9.6c1.6-4,4.3-4,5.9,0l3.9,9.6c1.6,4-0.6,7.2-4.9,7.2H133.9z"/>
			</g>
			<path class="st0" d="M107.5,121.7c-1.2,0-2.2,1-2.2,2.2s1,2.2,2.2,2.2h56.8c1.2,0,2.2-1,2.2-2.2s-1-2.2-2.2-2.2H107.5z"/>
			<path class="st0" d="M163.6,51.4c0,0,0,28.5,0,28.6c0,10.6-8.5,12.7-9.4,13c-1.9,0-25.6,0.2-35.8,0c-8.7-0.1-9.9-11.4-10-11.9
				V54.8H104v26.6c0.6,5.6,4.2,15.9,14.2,16c10.6,0.2,35.9,0,36.2,0h0.2h0.2c4.6-0.9,13.3-5.6,13.1-17.6V51.4H163.6z"/>
			
				<linearGradient id="SVGID_1_" gradientUnits="userSpaceOnUse" x1="-406.5779" y1="16733.2324" x2="-406.5779" y2="16718.5781" gradientTransform="matrix(0 1 -1 0 16891.6387 459.8779)">
				<stop  offset="0" style="stop-color:#552B8C"/>
				<stop  offset="4.902591e-02" style="stop-color:#5B3290"/>
				<stop  offset="0.118" style="stop-color:#6A4499"/>
				<stop  offset="0.1989" style="stop-color:#8462AA"/>
				<stop  offset="0.2887" style="stop-color:#A88CC0"/>
				<stop  offset="0.3848" style="stop-color:#D6C1DD"/>
				<stop  offset="0.4045" style="stop-color:#E0CDE3"/>
				<stop  offset="0.6551" style="stop-color:#A183BB"/>
				<stop  offset="0.8896" style="stop-color:#6A4499"/>
				<stop  offset="1" style="stop-color:#552B8C"/>
			</linearGradient>
			<path class="st5" d="M169.3,52.1v6h-7.1v-6c0-2,1.6-3.6,3.6-3.6C167.7,48.5,169.3,50.1,169.3,52.1z"/>
			
				<linearGradient id="SVGID_00000129166584497510222670000017980757151186621097_" gradientUnits="userSpaceOnUse" x1="-406.5779" y1="17549.3555" x2="-406.5779" y2="17534.6914" gradientTransform="matrix(0 1 1 0 -17435.873 459.8779)">
				<stop  offset="0" style="stop-color:#552B8C"/>
				<stop  offset="4.902591e-02" style="stop-color:#5B3290"/>
				<stop  offset="0.118" style="stop-color:#6A4499"/>
				<stop  offset="0.1989" style="stop-color:#8462AA"/>
				<stop  offset="0.2887" style="stop-color:#A88CC0"/>
				<stop  offset="0.3848" style="stop-color:#D6C1DD"/>
				<stop  offset="0.4045" style="stop-color:#E0CDE3"/>
				<stop  offset="0.6551" style="stop-color:#A183BB"/>
				<stop  offset="0.8896" style="stop-color:#6A4499"/>
				<stop  offset="1" style="stop-color:#552B8C"/>
			</linearGradient>
			<path style="fill:url(#SVGID_00000129166584497510222670000017980757151186621097_);" d="M102.6,52.1v6h7.1v-6
				c0-2-1.6-3.6-3.6-3.6C104.2,48.5,102.6,50.1,102.6,52.1z"/>
			<g>
				<path class="st0" d="M118.7,109.7c0,8.1,7.7,14.6,17.3,14.6s17.3-6.6,17.3-14.6c0-8.1-7.8-14.6-17.3-14.6
					S118.7,101.6,118.7,109.7z M123,109.7c0-5.7,5.8-10.3,12.9-10.3c7.1,0,12.9,4.6,12.9,10.3c0,5.7-5.8,10.3-12.9,10.3
					S123,115.4,123,109.7z"/>
			</g>
		</g>
		<g>
			<g>
				<path class="st0" d="M79.2,1.4c-19.8,6-40.7,6-60.4,0c-1.1-0.4-2.4,0.3-2.7,1.4c-0.3,1.1,0.3,2.4,1.4,2.7
					c20.6,6.3,42.4,6.3,63,0c1.1-0.4,1.8-1.6,1.4-2.7C81.6,1.7,80.4,1,79.2,1.4z"/>
			</g>
			<g>
				<path class="st0" d="M95.1,16.2c-28.9,10.4-63.4,10.4-92.2,0c-1.1-0.4-2.4,0.2-2.8,1.3c-0.4,1.1,0.2,2.4,1.3,2.8
					C31.2,31,66.8,31,96.6,20.3c1.1-0.4,1.7-1.7,1.3-2.8C97.5,16.4,96.3,15.8,95.1,16.2z"/>
			</g>
			<g>
				<path class="st0" d="M32.3,29c-2.4,2.4-3.7,5.3-3.7,8.6c0,8.3,8.3,15.3,18.2,15.3h4.4c9.9,0,18.2-7,18.2-15.3l0,0l0,0
					c0-3.3-1.3-6.2-3.7-8.6c-3.4-3.3-8.7-5.2-14.6-5.1h-4.3C41,23.8,35.7,25.7,32.3,29z M32.9,37.6c0-2.1,0.8-4,2.4-5.5
					c2.5-2.5,6.7-3.9,11.5-3.8h4.5c4.7-0.1,8.9,1.3,11.5,3.8c1.6,1.6,2.4,3.4,2.4,5.5l0,0c0,5.9-6.4,11-13.9,11h-4.4
					C39.3,48.6,32.9,43.6,32.9,37.6z"/>
			</g>
			<g>
				<path class="st0" d="M46.9,52.6V96c0,1.2,1,2.2,2.2,2.2s2.2-1,2.2-2.2V52.6c0-1.2-1-2.2-2.2-2.2C47.8,50.4,46.9,51.4,46.9,52.6z
					"/>
			</g>
			<g>
				<path class="st0" d="M84.5,45.4v12c0,5.5-6,10.1-13.4,10.1c-14.5,0.2-29.8,0.2-44.2,0c-7.4,0-13.4-4.4-13.4-9.7V46.1
					c0-1.2-1-2.2-2.2-2.2s-2.2,1-2.2,2.2v11.6c0,7.7,7.9,14,17.7,14.1c14.5,0.2,29.8,0.2,44.3,0c9.8,0,17.7-6.5,17.7-14.4v-12
					c0-1.2-1-2.2-2.2-2.2C85.5,43.2,84.5,44.2,84.5,45.4z"/>
			</g>
			<g>
				<path class="st0" d="M20.9,117.4c-1.2,0.2-2,1.3-1.8,2.5s1.3,2,2.5,1.8c17.9-3.2,36.8-3.2,54.7,0c1.2,0.2,2.3-0.6,2.5-1.8
					c0.2-1.2-0.6-2.3-1.8-2.5C58.7,114.1,39.3,114.1,20.9,117.4z"/>
			</g>
			<g>
				<g>
					<path class="st0" d="M36.8,95.8c-9.7,0.3-18,8.2-18,17.2v16.2c0,9.3,11.4,12.8,11.9,12.9l0.6,0.1h35.2l0.6-0.1
						c0.5-0.1,11.9-3.7,11.9-12.9l0,0V113c0-9-8.2-16.9-18-17.2C53.1,95.4,44.9,95.4,36.8,95.8z M23.2,129.2V113
						c0-6.7,6.3-12.6,13.8-12.9c8-0.3,16.1-0.3,24,0c7.5,0.2,13.8,6.1,13.8,12.8v16.2c0,5.5-7.3,8.2-8.5,8.7c-0.7,0-33.8,0-34.5,0
						C30.5,137.4,23.2,134.7,23.2,129.2z"/>
				</g>
				<g>
					<path class="st0" d="M18.9,93.1v19c0,1.2,1,2.2,2.2,2.2s2.2-1,2.2-2.2v-19c0-1.2-1-2.2-2.2-2.2C19.9,91,18.9,92,18.9,93.1z"/>
				</g>
				<g>
					<path class="st0" d="M74.8,93.1v19c0,1.2,1,2.2,2.2,2.2s2.2-1,2.2-2.2v-19c0-1.2-1-2.2-2.2-2.2C75.8,91,74.8,92,74.8,93.1z"/>
				</g>
			</g>
		</g>
	</g>
	<g>
		<path class="st4" d="M198,130.6h-3v-16.1c0-0.7,0.3-1,1-1h12V108h2.9v5.5h11.8c0.7,0,1.1,0.4,1.1,1v16.1h-2.9v-1.4H211v9h-3v-9
			h-10V130.6z M208,126.3v-9.8h-9.6c-0.3,0-0.4,0.1-0.4,0.4v9.4H208z M220.8,126.3v-9.4c0-0.3-0.2-0.4-0.4-0.4h-9.5v9.8H220.8z"/>
		<path class="st4" d="M243.7,114.5v-2.9h13.5V108h2.9v3.6h13.3v2.9h-4.9c-1.5,6-4.2,10.8-7.9,14.5c3.9,3,8.3,5.3,13.3,6.7l-1.9,2.6
			c-5.3-1.8-9.8-4.2-13.5-7.4c-1,0.8-2.1,1.6-3.3,2.4c-2.2,1.5-5.5,3.2-9.8,5l-1.8-2.6c4.9-1.6,9.2-3.9,12.9-6.7c0,0-0.1-0.1,0,0
			c-3.4-3.4-5.8-8.2-7.2-14.4L243.7,114.5L243.7,114.5z M258.5,127.2c0.2-0.3,0.5-0.5,0.7-0.7c3.1-3.2,5.1-7.2,6.2-12H252
			c0.6,2.7,1.3,5,2.2,6.8C255.5,123.6,256.8,125.6,258.5,127.2z"/>
		<path class="st4" d="M293.9,125.2l-1.5-2.5c3.7-1.1,6.1-2.7,7.2-5h-6.3v-2.5h7c0-0.1,0-0.2,0-0.3v-2.6H297
			c-0.6,0.9-1.3,1.8-2.1,2.6c-0.6-0.9-1.3-1.5-1.9-1.9c1.5-1.5,2.5-3.3,3.1-5.3l2.6,1.1c-0.2,0.4-0.3,0.7-0.5,1.1h9.8v2.5h-5.4v2.6
			c0,0.1,0,0.2,0,0.3h6.1v2.5h-5.8c1.9,1.2,3.7,2.4,5.4,3.8l-1.6,2.2c-1.5-1.3-3.3-2.7-5.4-4.3C300.2,121.9,297.6,123.8,293.9,125.2
			z M299.5,138.2h-2.7v-13.3c0-0.3,0.1-0.4,0.4-0.4h21.4c0.4,0,0.6,0.2,0.6,0.5v13.2h-2.7v-1.4h-17.1v1.4H299.5z M316.5,129.3v-2
			c0-0.2-0.1-0.4-0.4-0.4h-16.3c-0.3,0-0.4,0.1-0.4,0.4v2H316.5z M299.5,131.9v2.3h17.1v-2.3H299.5z M321.5,122.8h-10.9
			c-0.2,0-0.4-0.1-0.4-0.4V110c0-0.2,0.1-0.4,0.4-0.4h10.9c0.3,0,0.4,0.1,0.4,0.4v12.4C321.9,122.6,321.8,122.8,321.5,122.8z
			 M313,112.1C312.9,112.1,312.9,112.2,313,112.1l-0.1,8c0,0.1,0,0.1,0.1,0.1h6.1c0.1,0,0.1-0.1,0.1-0.1v-7.9c0-0.1,0-0.1-0.1-0.1
			H313z"/>
		<path class="st4" d="M342.5,117.1c-0.2-0.8-0.5-1.7-0.9-2.7l1.6-0.2c1.3-2,2.4-4.1,3.4-6.4l2.4,1.2c-0.5,1.3-1.3,2.9-2.4,4.9
			l6.5-0.8c-0.6-1-1.1-1.7-1.3-2.1l2.4-1.3c1.9,3.1,3.2,5.4,3.9,7l-2.5,1.1c-0.3-0.7-0.7-1.5-1.2-2.3L342.5,117.1z M345.8,137.9H343
			V119c0-0.6,0.3-1,1-1h11.3c0.7,0,1,0.3,1,1v15.9c0,1.2-0.5,2.2-1.3,2.8c-1,0.7-2.9,0.8-5.8,0.2l-0.2-3.1c2,0.7,3.3,0.9,3.8,0.5
			c0.5-0.3,0.7-0.7,0.7-1.3v-2.1h-7.7V137.9z M353.5,123.6v-2.8c0-0.2-0.1-0.2-0.3-0.2H346c-0.1,0-0.2,0.1-0.2,0.2v2.8H353.5z
			 M353.5,129.2v-2.9h-7.7v2.9H353.5z M370.4,124.3l1.4,2.4c-2.2,1.2-5.7,2.6-10.5,4.1v2.7c0,0.7,0.1,1.1,0.3,1.3
			c0.3,0.3,0.8,0.4,1.5,0.4h4.3c1,0,1.6-0.2,1.9-0.7c0.3-0.4,0.4-1.5,0.4-3.3l2.7,0.4c-0.1,2.9-0.4,4.5-0.8,5.1s-0.9,0.9-1.3,1.1
			c-0.4,0.1-1.1,0.2-2,0.2h-6.4c-0.8,0-1.5-0.2-2-0.5c-0.9-0.7-1.4-1.9-1.3-3.5v-10.4h2.7v4.4C365.1,126.8,368.2,125.6,370.4,124.3z
			 M370,109.3l1.3,2.4c-2.3,1.2-5.6,2.3-9.9,3.5v3c0,0.7,0.1,1.1,0.3,1.3c0.3,0.3,0.8,0.4,1.5,0.4h3.7c1,0,1.6-0.2,1.9-0.7
			c0.2-0.3,0.3-1.3,0.3-3l2.7,0.3c-0.1,2.7-0.3,4.4-0.7,4.9c-0.4,0.6-0.9,0.9-1.3,1.1c-0.4,0.1-1.1,0.2-2,0.2h-5.9
			c-0.8,0-1.5-0.2-2-0.5c-0.9-0.7-1.4-1.9-1.3-3.5V108h2.7v4.4C365.2,111.4,368.1,110.4,370,109.3z"/>
		<path class="st4" d="M393.9,131.7h-2.2v-2h2.2v-1.8h-2.2v-2h6.8v2h-2.3v1.8h2.2v2h-2.2v1.9l2.4-0.4l0.4,2.2l-7.4,1.1l-0.5-2.2
			l2.9-0.4L393.9,131.7L393.9,131.7z M393,111.1h-1.5v-2.3h11.7v2.3H402V138h-2.5v-13.7l-8.1,0.8l-0.4-2.2l1.9-0.2v-11.6H393z
			 M399.5,113.2v-2.1h-4v2.1H399.5z M399.5,117.7v-2.2h-4v2.2H399.5z M399.5,122.1V120h-4v2.5L399.5,122.1z M406.7,128.4
			c-0.4,2.9-1,5.7-1.6,8.2l-2.4-0.7c0.7-2.4,1.2-5.1,1.6-8L406.7,128.4z M419.8,121.7h-15.1c-0.2,0-0.3-0.1-0.3-0.3v-7.2
			c0-0.2,0.1-0.3,0.3-0.3h6.2v-2h-6.7v-2.3h6.7v-1.7h2.5v1.7h6.8v2.3h-6.8v2h6.3c0.2,0,0.3,0.1,0.3,0.3v7.2
			C420.1,121.6,420,121.7,419.8,121.7z M420.2,123.5v2.4h-15.9v-2.4H420.2z M408.7,116.1h-2c-0.1,0-0.1,0-0.1,0.1v3.3
			c0,0.1,0,0.1,0.1,0.1h2V116.1z M410.4,127.6v6.3c0,0.4,0.1,0.7,0.4,1s0.6,0.4,1,0.4h2.6c0.2,0,0.5-0.1,0.8-0.3
			c0.1,0,0.2-0.2,0.2-0.4c0.1-0.4,0.2-1.2,0.4-2.3l2.4,0.8c-0.3,2.3-0.6,3.5-0.9,3.7c-0.6,0.7-1.3,1-1.8,1h-5.1
			c-0.6,0-1.2-0.3-1.8-0.9c-0.5-0.5-0.7-1.1-0.7-1.7v-7.8h2.5V127.6z M413.2,116.1H411v3.5h2.2V116.1z M414.1,127.1
			c0.5,2.1,0.8,3.9,1,5.3l-2.5,0.2c-0.2-1.7-0.5-3.4-1-5.1L414.1,127.1z M415.5,119.5h2.2c0.1,0,0.1-0.1,0.1-0.1v-3.3
			c0-0.1,0-0.1-0.1-0.1h-2.2V119.5z M419.4,127.1c0.9,2.2,1.6,4.9,2.2,8.2l-2.5,0.6c-0.6-3.5-1.3-6.2-2.1-8.1L419.4,127.1z"/>
		<path class="st4" d="M454.5,110.2l2.4,1.2c-0.7,1.3-1.7,2.9-3.1,4.6h13.6c-1.1-1-2.2-2.7-3.3-4.8c-0.1-0.1-0.2-0.1-0.3-0.1h-6.2
			v-2.7h7.3c0.2,0,0.4,0.1,0.5,0.3c1.6,3.1,3.3,5.3,5.3,6.7l-2.3,1.6c-0.3-0.2-0.5-0.4-0.7-0.6v9.6c0,0.3-0.1,0.4-0.4,0.4h-2.9v7.4
			c0,0.5,0.2,0.8,0.4,1.1c0.3,0.3,0.7,0.4,1.1,0.4h0.9c0.3,0,0.5-0.1,0.8-0.3c0.2-0.1,0.3-1.4,0.4-4l2.7,0.4c-0.2,3.2-0.5,5-0.8,5.4
			c-0.6,0.7-1.3,1.1-1.9,1.1h-3.7c-0.7,0-1.3-0.4-1.9-1c-0.5-0.6-0.8-1.2-0.8-1.8v-8.8h-2.5v1.4c0,0.9-0.1,1.9-0.4,2.9
			c-0.9,3.3-2.9,5.8-6,7.6l-1.9-2.1c1-0.4,1.8-0.9,2.5-1.5c2-1.6,3-3.9,3.1-6.8v-1.4h-3c-0.2,0-0.4-0.1-0.4-0.4v-9.4
			c-0.2,0.2-0.4,0.4-0.6,0.5l-2.1-1.7v0.3h-9.9v-2.5h9.9v2.1C452.2,113.8,453.6,112.1,454.5,110.2z M443.4,137.6h-2.7v-11.4
			c0-0.6,0.3-0.8,0.8-0.8h8.3c0.6,0,0.9,0.3,0.9,0.8v9c0,0.6-0.3,0.9-0.9,0.9h-6.4L443.4,137.6L443.4,137.6z M450,108.7v2.5h-8.5
			v-2.5H450z M449.8,117v2.5h-8.2V117H449.8z M449.8,121.3v2.5h-8.2v-2.5H449.8z M443.8,127.9c-0.3,0-0.4,0.1-0.4,0.4v5.3h4.1
			c0.4,0,0.5-0.2,0.5-0.5v-4.7c0-0.3-0.2-0.4-0.4-0.4h-3.8V127.9z M455.9,118.4C455.8,118.4,455.8,118.5,455.9,118.4l-0.1,5.2
			c0,0.1,0,0.1,0.1,0.1h9c0.1,0,0.1-0.1,0.1-0.1v-5.1c0-0.1,0-0.1-0.1-0.1H455.9z"/>
		<path class="st4" d="M490.1,126.9c-0.2-0.9-0.4-1.8-0.7-2.8l12.3-0.6c3-3.1,5.8-6.7,8.5-10.6l2.2,1.7c-1.6,2.4-3.9,5.4-6.8,8.7
			l8.6-0.4c-0.9-1.4-1.7-2.5-2.5-3.5l2.1-1.8c2,2.4,4,5.5,6.1,9.5l-2.5,1.3c-0.6-1.1-1.2-2.1-1.7-3l-9.5,0.5v12.2h-2.8v-12
			L490.1,126.9z M499.3,129.3c-1.7,2.7-4.3,5.7-7.7,9l-1.8-2.1c2-1.9,3.5-3.4,4.6-4.6c0.8-0.9,1.6-2.2,2.5-3.7L499.3,129.3z
			 M500.9,112.3c-3.8,0.2-7,0.3-9.7,0.3l-0.4-2.8c11.1-0.1,19.8-0.8,26-2.1l0.4,2.8c-2.1,0.5-5.6,0.9-10.3,1.3
			c-0.9,0.1-1.8,0.1-2.6,0.2c-1.2,1.8-2.8,4-5,6.5c0.7,0.5,1.5,1.1,2.3,1.7c-0.5,0.8-1,1.5-1.5,2.3c-2.8-2.3-5.5-4.1-8.3-5.4
			c0.4-0.9,0.8-1.7,1.2-2.6c0.7,0.1,2.1,0.9,4.3,2.5C498.4,115.7,499.7,114.1,500.9,112.3z M512.3,127.7c2.3,2.1,4.7,5,7.3,8.7
			l-2.3,1.6c-2.6-3.7-4.9-6.5-7-8.3L512.3,127.7z"/>
		<path class="st4" d="M539.2,124.8c-0.1-0.7-0.3-1.5-0.6-2.5l1.6-0.2c1-0.9,2.1-2.1,3.2-3.6c-1.6-1.5-3.3-2.7-4.9-3.6
			c0.4-0.7,0.8-1.5,1.2-2.2c0.1,0,0.5,0.2,1,0.6c1.1-1.6,2.2-3.5,3.2-5.5c0.7,0.5,1.4,0.9,2.1,1.4c-0.7,1.4-1.9,3.2-3.4,5.5
			c0.7,0.5,1.4,1.2,2.3,1.9c1.2-1.9,2.2-3.8,2.8-5.6l2.4,0.9c-0.9,2.7-3,6-6.5,9.8l4.4-0.6c-0.4-1-0.6-1.7-0.7-2.1l2.4-0.6
			c1.1,3.5,1.7,5.7,1.9,6.4l-2.4,0.5c-0.1-0.5-0.3-1.1-0.4-1.7l-2.4,0.4v14.4h-2.7v-14L539.2,124.8z M542.4,126.7
			c-0.6,4.9-1.1,8.2-1.4,9.7l-2.4-0.6c0.8-3.4,1.2-6.6,1.4-9.5L542.4,126.7z M551.5,133.3l-2.5,0.5l-1.5-7l2.4-0.7L551.5,133.3z
			 M557.9,122.9v2.6c0,5.6-2.2,9.8-6.5,12.6l-2-1.9c3.7-2,5.7-5.6,5.8-10.7v-2.3l-3.1,0.3c-0.2-0.8-0.5-1.7-0.8-2.7l2.2-0.2
			c1.3-2.3,2.6-4.7,3.7-7.3H551v-2.5h7v-2.9h2.8v2.9h7.8v2.5h-8.5c-0.8,1.9-1.9,4.3-3.4,7l8.2-0.7c-0.6-1.3-1.2-2.4-1.7-3.3l2.3-1.1
			c1.3,2.2,2.6,4.9,3.7,8.3l-2.4,1c-0.3-0.8-0.6-1.6-0.9-2.3l-2.4,0.3v11.7c0,0.5,0.3,0.8,0.8,0.8h1.6c0.1,0,0.2-0.3,0.3-0.7
			c0.1-0.6,0.2-1.8,0.3-3.8l2.6,0.8c-0.1,3.5-0.5,5.5-1.1,5.9c-0.5,0.3-1.1,0.5-1.7,0.5h-4.1c-0.9,0-1.3-0.5-1.3-1.3v-13.6
			L557.9,122.9z"/>
		<path class="st4" d="M602.7,122.1v2.3h-15.5v-2.3H602.7z"/>
		<path class="st4" d="M624.6,116.8H621V114h3.5v-5.8h2.8v5.8h2.9v2.8h-2.9v5.7c0.7-0.6,1.4-1.2,1.9-1.7l1.9,2
			c-0.9,0.8-2,1.7-3.2,2.5c-0.2,0.1-0.4,0.3-0.6,0.4v9.3c0,1.2-0.5,2.2-1.5,2.8c-0.8,0.5-2.4,0.4-4.8-0.2l0.1-2.9
			c1.8,0.6,2.8,0.7,3.1,0.5c0.2-0.2,0.3-0.5,0.3-0.9v-6.8c-0.8,0.4-1.5,0.9-2.2,1.3l-1.8-2.2c1.6-0.9,2.9-1.6,4-2.3L624.6,116.8
			L624.6,116.8z M632,116.6v-2.8h4.3c-1.2-1.8-2.3-3.2-3.3-4.1l2.1-1.8c1.2,1.1,2.4,2.7,3.7,4.6l-1.8,1.3h5.6c1.4-2.3,2.4-4.3,3-5.9
			l2.5,1.2c-0.5,1.5-1.3,3-2.2,4.7h4.5v2.8h-3.6v7.3h4.2v2.8h-4.2v11.5H644v-11.5h-5.9c-0.6,4.8-2.7,8.6-6.4,11.4l-2.3-2
			c0.1-0.1,0.1-0.1,0.2-0.1c3.4-2.1,5.3-5.2,5.7-9.3H631V124h4.5c0-0.1,0-0.2,0-0.3v-7.1H632z M638.3,124h5.7v-7.3h-5.7v7.1
			C638.4,123.8,638.3,123.9,638.3,124z"/>
		<path class="st4" d="M700,119.4v2.7h-29.8v-2.7h8.3l-1.1-3.6h-5.8v-2.7h26.8v2.7h-6.1l-1,3.6H700z M676.8,138.3H674v-13.9
			c0-0.3,0.1-0.4,0.4-0.4h21c0.4,0,0.6,0.2,0.6,0.5v13.8h-2.8v-1.5h-16.4V138.3z M694.9,108.8v2.7h-19.5v-2.7H694.9z M693.2,129.2
			V127c0-0.3-0.1-0.4-0.4-0.4h-15.6c-0.3,0-0.4,0.1-0.4,0.4v2.2H693.2z M676.8,131.8v2.3h16.4v-2.3H676.8z M689.5,115.8h-9.2
			l1.1,3.6h7.1L689.5,115.8z"/>
	</g>
</g>
</svg>
