<?xml version="1.0" encoding="utf-8"?>
<!-- Generator: Adobe Illustrator 26.5.0, SVG Export Plug-In . SVG Version: 6.00 Build 0)  -->
<svg version="1.1" id="圖層_1" xmlns="http://www.w3.org/2000/svg" xmlns:xlink="http://www.w3.org/1999/xlink" x="0px" y="0px"
	 viewBox="0 0 75 75" style="enable-background:new 0 0 75 75;" xml:space="preserve">
<style type="text/css">
	.st0{fill:#E6DB39;}
	.st1{fill:#E1B539;}
	.st2{opacity:0.7;}
	.st3{fill:#FFFFFF;}
	.st4{fill:none;}
	.st5{fill:#3287C9;}
	.st6{fill:#045396;}
</style>
<g>
	<path class="st0" d="M75,37.5C75,58.2,58.2,75,37.5,75S0,58.2,0,37.5S16.8,0,37.5,0S75,16.8,75,37.5"/>
	<path class="st1" d="M69.5,37.5c0,17.7-14.3,32-32,32s-32-14.3-32-32s14.3-32,32-32S69.5,19.8,69.5,37.5"/>
	<g class="st2">
		<g>
			<path class="st3" d="M37.5,3.3c20.2,0,36.6,15.9,37.4,35.9c0-0.5,0.1-1.1,0.1-1.6C75,16.8,58.2,0,37.5,0S0,16.8,0,37.5
				c0,0.6,0.1,1.1,0.1,1.6C0.9,19.2,17.3,3.3,37.5,3.3"/>
			<rect class="st4" width="75" height="39.1"/>
		</g>
	</g>
</g>
<g>
	<g>
		<path class="st3" d="M34.5,35.9h-9.8c-0.3,0-0.6-0.3-0.6-0.6s0.3-0.6,0.6-0.6h9.8c0.3,0,0.6,0.3,0.6,0.6
			C35.2,35.7,35,35.9,34.5,35.9z"/>
		<path class="st3" d="M34.5,39.8h-9.8c-0.3,0-0.6-0.3-0.6-0.6s0.3-0.6,0.6-0.6h9.8c0.3,0,0.6,0.3,0.6,0.6
			C35.2,39.6,35,39.8,34.5,39.8z"/>
		<path class="st3" d="M30,44h-5.1c-0.3,0-0.6-0.3-0.6-0.6s0.3-0.6,0.6-0.6H30c0.3,0,0.6,0.3,0.6,0.6C30.6,43.8,30.4,44,30,44z"/>
	</g>
	<g>
		<path class="st3" d="M42.4,53.7c-2.4,0-4.7-0.4-6.7-1.3C34.4,52.8,33,53,31.6,53C24.1,53,18,46.9,18,39.4s6.1-13.6,13.6-13.6
			s13.6,6.1,13.6,13.6c0,3.1-1.1,6.2-3,8.6l5.1,5l-1,0.3C46.2,53.3,44.7,53.7,42.4,53.7z M35.8,51.1l0.2,0.1c2,0.8,4.2,1.3,6.5,1.3
			c1,0,1.8-0.1,2.5-0.2L40.5,48l0.4-0.4c2-2.3,3.1-5.2,3.1-8.2C44,32.5,38.5,27,31.6,27s-12.4,5.6-12.4,12.4
			c0,6.9,5.6,12.4,12.4,12.4c1.3,0,2.7-0.2,3.9-0.6L35.8,51.1z"/>
	</g>
	<g>
		<path class="st3" d="M53.8,32c0,4.2-3.4,7.5-7.5,7.5s-7.5-3.4-7.5-7.5s3.4-7.5,7.5-7.5S53.8,27.9,53.8,32z"/>
		<g>
			<g>
				<path class="st1" d="M44.5,31.3c-1.9,0-1.9-2.8,0-2.8S46.5,31.3,44.5,31.3z M49,28.6l-4.1,6.3h-1.3l4.1-6.3
					C47.7,28.6,49,28.6,49,28.6z M44.5,30.5c0.8,0,0.8-1.2,0-1.2S43.8,30.5,44.5,30.5z M48,35c-1.9,0-1.9-2.8,0-2.8
					C49.9,32.1,49.9,35,48,35z M48,34.1c0.8,0,0.8-1.2,0-1.2C47.2,33,47.2,34.1,48,34.1z"/>
			</g>
			<g>
				<path class="st3" d="M52.5,33.2l3.2,0.9c0.1-0.7,0.2-1.3,0.2-2c0-0.8-0.1-1.7-0.3-2.5l0,0c-0.2-0.8-0.5-1.6-1-2.3
					c-0.4-0.7-0.9-1.4-1.5-2s-1.3-1.1-2-1.5s-1.5-0.7-2.3-1c-0.6-0.2-1.3-0.3-2-0.3v3.3c0.4,0,0.7,0.1,1.1,0.2
					c0.5,0.1,1,0.4,1.5,0.6c0.5,0.3,0.9,0.6,1.3,1c0.4,0.4,0.7,0.8,1,1.3s0.5,1,0.6,1.5s0.2,1.1,0.2,1.6
					C52.5,32.4,52.5,32.8,52.5,33.2z"/>
				<path class="st1" d="M49.2,37.1c-0.4,0.3-0.9,0.4-1.4,0.6c-0.5,0.1-1,0.2-1.5,0.2s-1-0.1-1.5-0.2c-0.5-0.1-1-0.3-1.4-0.6
					s-0.8-0.6-1.2-0.9c-0.4-0.4-0.7-0.8-0.9-1.2c-0.3-0.4-0.4-0.9-0.6-1.4l-4.2,1.1c0.2,0.9,0.6,1.7,1,2.5s1,1.5,1.6,2.1
					s1.3,1.2,2.1,1.6c0.8,0.4,1.6,0.8,2.5,1c0.8,0.2,1.7,0.3,2.6,0.3c0.9,0,1.8-0.1,2.6-0.3c0.9-0.2,1.7-0.6,2.5-1L49.2,37.1z"/>
				<path class="st1" d="M43.7,22.2c-0.9,0.2-1.7,0.6-2.5,1s-1.5,1-2.1,1.6s-1.2,1.3-1.6,2.1c-0.4,0.8-0.8,1.6-1,2.5l4.2,1.1
					c0.1-0.5,0.3-1,0.6-1.4s0.6-0.8,0.9-1.2c0.4-0.4,0.8-0.7,1.2-0.9c0.4-0.3,0.9-0.4,1.4-0.6c0.5-0.1,1-0.2,1.5-0.2v-4.4
					C45.4,21.9,44.5,22,43.7,22.2z"/>
				<g>
					<path class="st1" d="M56.5,32.7c0,0.1,0,0.2-0.1,0.2c-1.5,0-2.9,0-4.4,0c0-0.3,0-0.6,0.1-0.9c1.5,0,2.9,0,4.4,0
						C56.5,32.3,56.5,32.5,56.5,32.7z"/>
					<path class="st1" d="M46.4,26.3c0-0.1,0-0.2,0-0.3c0.1,0,0.2,0,0.2,0c2.5,0,5.1,0,7.6,0c0.2,0,0.3,0.1,0.4,0.2
						c0.1,0.2,0.3,0.4,0.5,0.7c-0.1,0-0.2,0-0.3,0c-1.9,0-3.8,0-5.8,0c-0.1,0-0.2,0-0.2,0c-0.4-0.1-0.8-0.3-1.2-0.4
						C47.2,26.3,46.8,26.3,46.4,26.3z"/>
					<path class="st1" d="M53.9,25.4c-2.5,0-5,0-7.5,0c0-0.3,0-0.6,0-0.9c0.1,0,0.2,0,0.3,0c2.1,0,4.1,0,6.2,0c0.2,0,0.3,0,0.4,0.2
						C53.5,24.8,53.7,25.1,53.9,25.4C54,25.3,53.9,25.3,53.9,25.4z"/>
					<path class="st1" d="M55.8,28.4c-1,0-2,0-3,0c-0.6,0-1.2,0-1.8,0c-0.1,0-0.2-0.1-0.3-0.1c-0.2-0.3-0.5-0.5-0.7-0.8
						c0,0,0,0-0.1,0c0.1,0,0.1,0,0.2,0c1.7,0,3.4,0,5.1,0c0.2,0,0.3,0,0.3,0.2C55.5,27.9,55.7,28.1,55.8,28.4z"/>
					<path class="st1" d="M46.4,23.8c0-0.3,0-0.6,0-0.9c0.1,0,0.2,0,0.3,0c1.3,0,2.6,0,3.9,0c0.2,0,0.3,0,0.5,0.1
						c0.4,0.2,0.8,0.5,1.2,0.8C50.2,23.8,48.2,23.8,46.4,23.8z"/>
					<path class="st1" d="M51.2,29c0.3,0,0.5,0,0.7,0c1.3,0,2.6,0,3.8,0c0.2,0,0.3,0.1,0.3,0.2c0,0.2,0.1,0.4,0.2,0.7
						c-0.1,0-0.2,0-0.2,0c-1.4,0-2.7,0-4.1,0c-0.2,0-0.3-0.1-0.3-0.2C51.5,29.5,51.4,29.3,51.2,29z"/>
					<path class="st1" d="M51.9,30.5c1.5,0,3,0,4.5,0c0,0.3,0.1,0.6,0.1,0.9c-0.1,0-0.2,0-0.3,0c-1.3,0-2.6,0-3.9,0
						c-0.2,0-0.3,0-0.3-0.2C52,31,52,30.8,51.9,30.5z"/>
					<path class="st1" d="M56.4,33.6c-0.1,0.3-0.1,0.6-0.2,0.9c-0.5,0-0.9,0-1.4-0.1c-0.9-0.2-1.8-0.5-2.7-0.7c-0.1,0-0.1,0-0.2-0.1
						C53.5,33.6,54.9,33.6,56.4,33.6z"/>
					<path class="st5" d="M46.4,22.3c0-0.1,0-0.2,0-0.4c0.9,0,1.8,0.1,2.7,0.4C48.2,22.3,47.2,22.3,46.4,22.3z"/>
				</g>
				<path class="st3" d="M41,31.2l-5.2-1.4l0.1-0.5c0.2-0.9,0.6-1.8,1.1-2.6c0.5-0.8,1-1.6,1.7-2.2c0.7-0.7,1.4-1.2,2.2-1.7
					s1.7-0.8,2.6-1.1l0,0c0.9-0.2,1.8-0.4,2.8-0.4h0.5v5.4h-0.5c-0.5,0-0.9,0.1-1.4,0.2c-0.4,0.1-0.9,0.3-1.3,0.5
					c-0.4,0.2-0.8,0.5-1.1,0.8s-0.6,0.7-0.8,1.1s-0.4,0.8-0.5,1.3L41,31.2z M37,29l3.2,0.9c0.1-0.4,0.3-0.7,0.5-1
					c0.3-0.5,0.6-0.9,1-1.3s0.8-0.7,1.3-1s1-0.5,1.5-0.6c0.4-0.1,0.7-0.2,1.1-0.2v-3.3c-0.7,0-1.3,0.1-2,0.3l0,0
					c-0.8,0.2-1.6,0.5-2.3,1c-0.7,0.4-1.4,0.9-2,1.5s-1.1,1.3-1.5,2C37.5,27.8,37.2,28.4,37,29z"/>
				<path class="st3" d="M56.5,35.3l-5.2-1.4l0.1-0.5c0.1-0.4,0.2-0.9,0.2-1.4c0-0.5-0.1-0.9-0.2-1.4c-0.1-0.4-0.3-0.9-0.5-1.3
					s-0.5-0.8-0.8-1.1c-0.3-0.3-0.7-0.6-1.1-0.8c-0.4-0.2-0.8-0.4-1.3-0.5c-0.4-0.1-0.9-0.2-1.4-0.2h-0.5v-5.4h0.5
					c0.9,0,1.9,0.1,2.8,0.4c0.9,0.2,1.8,0.6,2.6,1.1s1.6,1,2.2,1.7c0.7,0.7,1.2,1.4,1.7,2.2c0.5,0.8,0.8,1.7,1.1,2.6
					c0.2,0.9,0.4,1.8,0.4,2.8c0,0.9-0.1,1.9-0.4,2.8L56.5,35.3z M52.5,33.2l3.2,0.9c0.1-0.7,0.2-1.3,0.2-2c0-0.8-0.1-1.7-0.3-2.5
					l0,0c-0.2-0.8-0.5-1.6-1-2.3c-0.4-0.7-0.9-1.4-1.5-2s-1.3-1.1-2-1.5s-1.5-0.7-2.3-1c-0.6-0.2-1.3-0.3-2-0.3v3.3
					c0.4,0,0.7,0.1,1.1,0.2c0.5,0.1,1,0.4,1.5,0.6c0.5,0.3,0.9,0.6,1.3,1c0.4,0.4,0.7,0.8,1,1.3s0.5,1,0.6,1.5s0.2,1.1,0.2,1.6
					C52.5,32.4,52.5,32.8,52.5,33.2z"/>
				<path class="st3" d="M51.2,41.6l-2.7-4.7l0.5-0.3c0.4-0.2,0.8-0.5,1.1-0.8s0.6-0.7,0.8-1.1c0.2-0.4,0.4-0.8,0.5-1.3l0.1-0.5
					l5.2,1.4l-0.1,0.5c-0.2,0.9-0.6,1.8-1.1,2.6s-1,1.6-1.7,2.2c-0.7,0.7-1.4,1.2-2.2,1.7L51.2,41.6z M49.9,37.2l1.7,2.9
					c0.6-0.4,1.1-0.8,1.5-1.3c0.6-0.6,1.1-1.3,1.5-2c0.3-0.6,0.6-1.2,0.8-1.8l-3.2-0.9c-0.1,0.4-0.3,0.7-0.5,1
					c-0.3,0.5-0.6,0.9-1,1.3C50.5,36.8,50.2,37,49.9,37.2z"/>
				<path class="st1" d="M49.9,37.2l1.7,2.9c0.6-0.4,1.1-0.8,1.5-1.3c0.6-0.6,1.1-1.3,1.5-2c0.3-0.6,0.6-1.2,0.8-1.8l-3.2-0.9
					c-0.1,0.4-0.3,0.7-0.5,1c-0.3,0.5-0.6,0.9-1,1.3C50.5,36.8,50.2,37,49.9,37.2z"/>
				<path class="st6" d="M36,35.3L36,34.8c-0.2-0.9-0.4-1.8-0.4-2.8c0-0.9,0.1-1.9,0.4-2.8l0.1-0.5l5.2,1.4l-0.1,0.5
					C41,31.1,41,31.6,41,32c0,0.5,0.1,0.9,0.2,1.4l0.1,0.5L36,35.3z"/>
				<path class="st3" d="M36,35.3L36,34.8c-0.2-0.9-0.4-1.8-0.4-2.8c0-0.9,0.1-1.9,0.4-2.8l0.1-0.5l5.2,1.4l-0.1,0.5
					C41,31.1,41,31.6,41,32c0,0.5,0.1,0.9,0.2,1.4l0.1,0.5L36,35.3z"/>
				<path class="st1" d="M36.9,30.1c-0.1,0.7-0.2,1.3-0.2,2c0,0.7,0.1,1.3,0.2,2l3.2-0.9C40,32.8,40,32.4,40,32s0-0.8,0.1-1.1
					L36.9,30.1z"/>
				<path class="st3" d="M46.2,42.7c-0.9,0-1.9-0.1-2.8-0.4c-0.9-0.2-1.8-0.6-2.6-1.1s-1.6-1-2.2-1.7c-0.7-0.7-1.2-1.4-1.7-2.2
					s-0.8-1.7-1.1-2.6l-0.1-0.5l5.2-1.4l0.1,0.5c0.1,0.4,0.3,0.9,0.5,1.3c0.2,0.4,0.5,0.8,0.8,1.1s0.7,0.6,1.1,0.8
					c0.4,0.2,0.8,0.4,1.3,0.5c0.9,0.2,1.8,0.2,2.7,0c0.4-0.1,0.9-0.3,1.3-0.5l0.5-0.3l2.7,4.7l-0.5,0.3c-0.8,0.5-1.7,0.8-2.6,1.1
					C48.2,42.6,47.2,42.7,46.2,42.7z M37,35c0.2,0.6,0.5,1.2,0.8,1.8c0.4,0.7,0.9,1.4,1.5,2s1.3,1.1,2,1.5s1.5,0.7,2.3,1
					c1.6,0.4,3.4,0.4,5,0c0.6-0.2,1.3-0.4,1.9-0.7L49,37.8c-0.3,0.2-0.7,0.3-1.1,0.4c-1.1,0.3-2.2,0.3-3.3,0c-0.5-0.1-1-0.4-1.5-0.6
					c-0.5-0.3-0.9-0.6-1.3-1c-0.4-0.4-0.7-0.8-1-1.3c-0.2-0.3-0.4-0.7-0.5-1L37,35z"/>
			</g>
		</g>
	</g>
</g>
</svg>
