<?xml version="1.0" encoding="utf-8"?>
<!-- Generator: Adobe Illustrator 26.5.0, SVG Export Plug-In . SVG Version: 6.00 Build 0)  -->
<svg version="1.1" id="圖層_1" xmlns="http://www.w3.org/2000/svg" xmlns:xlink="http://www.w3.org/1999/xlink" x="0px" y="0px"
	 viewBox="0 0 75 75" style="enable-background:new 0 0 75 75;" xml:space="preserve">
<style type="text/css">
	.st0{opacity:0.3;}
	.st1{fill:#6C2F8D;}
	.st2{fill:none;}
	.st3{fill:#4EC1E6;}
	.st4{opacity:0.2;}
	.st5{fill:#FFFFFF;}
	.st6{fill:#2883BE;}
	.st7{fill:#2882BD;}
</style>
<g>
	<g class="st0">
		<g>
			<path class="st1" d="M37.5,64.8c-16.9,0-30.6-13.1-31.8-29.6c-0.1,0.8-0.1,1.5-0.1,2.3c0,17.7,14.3,32,32,32s32-14.3,32-32
				c0-0.8-0.1-1.6-0.1-2.3C68.2,51.7,54.4,64.8,37.5,64.8"/>
			<rect x="5.5" y="35.2" class="st2" width="63.9" height="34.3"/>
		</g>
	</g>
	<path class="st3" d="M75,37.5C75,58.2,58.2,75,37.5,75S0,58.2,0,37.5S16.8,0,37.5,0S75,16.8,75,37.5"/>
	<g class="st4">
		<g>
			<path class="st5" d="M37.5,3.3c20.2,0,36.6,15.9,37.4,35.9c0-0.5,0.1-1.1,0.1-1.6C75,16.8,58.2,0,37.5,0S0,16.8,0,37.5
				c0,0.6,0.1,1.1,0.1,1.6C0.9,19.2,17.3,3.3,37.5,3.3"/>
			<rect class="st2" width="75" height="39.1"/>
		</g>
	</g>
	<path class="st6" d="M69.5,37.5c0,17.7-14.3,32-32,32s-32-14.3-32-32s14.3-32,32-32S69.5,19.8,69.5,37.5"/>
</g>
<g>
	<g>
		<path class="st5" d="M42,52.6h-6.9L22.8,48V27.8c0-0.8,0.6-1.4,1.4-1.4h19.3c0.8,0,1.4,0.6,1.4,1.4v21.4
			C44.9,50.8,43.8,52.2,42,52.6L42,52.6z M35.5,51.2H42c0.9-0.2,1.5-1.1,1.5-2V27.8H24.2v19.3L35.5,51.2z"/>
		<g>
			<path class="st7" d="M41.2,51.9c-1.5,0-2.7-1.3-2.7-2.8v-1.6l0,0H21.5v0.1c0,2.4,1.9,4.3,4.3,4.3H41.2z"/>
			<path class="st5" d="M41.2,52.6H25.8c-2.8,0-5-2.2-5-5v-0.1v-0.7h18.5v2.3c0,1.1,0.9,2.1,2,2.1V52.6z M22.2,48.1
				c0.3,1.7,1.8,3.1,3.6,3.1h12.8c-0.4-0.6-0.7-1.3-0.7-2.1v-1H22.2z"/>
		</g>
		<path class="st5" d="M39.2,32.9H28c-0.4,0-0.7-0.3-0.7-0.7c0-0.4,0.3-0.7,0.7-0.7h11.2c0.4,0,0.7,0.3,0.7,0.7
			C39.9,32.6,39.5,32.9,39.2,32.9z"/>
		<path class="st5" d="M39.2,37.4H28c-0.4,0-0.7-0.3-0.7-0.7S27.5,36,28,36h11.2c0.4,0,0.7,0.3,0.7,0.7
			C39.9,37.1,39.5,37.4,39.2,37.4z"/>
		<path class="st5" d="M33.9,42.3H28c-0.4,0-0.7-0.3-0.7-0.7s0.3-0.7,0.7-0.7h5.9c0.4,0,0.7,0.3,0.7,0.7
			C34.5,42,34.2,42.3,33.9,42.3z"/>
	</g>
	<g>
		<g>
			<path class="st7" d="M41,42.7c1.2,0.1,3.1,0.1,5-0.7l0.2-0.1l0.2,0.1c0.8,0.3,1.6,0.4,2.4,0.4c4.2,0,7.6-3.4,7.6-7.6
				s-3.4-7.6-7.6-7.6s-7.6,3.4-7.6,7.6c0,1.8,0.7,3.6,1.9,5l0.4,0.4L41,42.7z"/>
		</g>
	</g>
	<g>
		<path class="st5" d="M23.2,22.4c-3.3,0-5.9,2.7-5.9,5.9c0,3.2,2.7,5.9,5.9,5.9c3.3,0,5.9-2.7,5.9-5.9C29,25.1,26.5,22.4,23.2,22.4
			z"/>
		<g>
			<path class="st7" d="M23.2,23.9c-2.5,0-4.5,2-4.5,4.5s2,4.5,4.5,4.5s4.5-2,4.5-4.5C27.8,25.9,25.7,23.9,23.2,23.9z"/>
			<polygon class="st5" points="22.7,30.4 22.7,30.4 22.2,30.9 20,28.8 21.2,27.7 22.2,28.6 25.2,25.6 26.2,26.7 			"/>
		</g>
	</g>
	<g>
		<g>
			<path class="st5" d="M42,43.9c-1.4,0-2.4-0.2-2.5-0.3l-1-0.3L42,40c-1.2-1.5-1.8-3.4-1.8-5.4c0-4.8,3.9-8.8,8.8-8.8
				c4.8,0,8.8,3.9,8.8,8.8c0,4.8-3.9,8.8-8.8,8.8c-0.9,0-1.7-0.1-2.6-0.4C44.8,43.7,43.2,43.9,42,43.9z M41,42.7
				c1.2,0.1,3.1,0.1,5-0.7l0.2-0.1l0.2,0.1c0.8,0.3,1.6,0.4,2.4,0.4c4.2,0,7.6-3.4,7.6-7.6s-3.4-7.6-7.6-7.6s-7.6,3.4-7.6,7.6
				c0,1.8,0.7,3.6,1.9,5l0.4,0.4L41,42.7z"/>
		</g>
		<g>
			<path class="st5" d="M46.4,34.7c0,0.4-0.4,0.8-0.8,0.8c-0.4,0-0.8-0.4-0.8-0.8c0-0.4,0.4-0.8,0.8-0.8S46.4,34.2,46.4,34.7z"/>
			<path class="st5" d="M49.8,34.7c0,0.4-0.4,0.8-0.8,0.8c-0.4,0-0.8-0.4-0.8-0.8c0-0.4,0.4-0.8,0.8-0.8
				C49.5,33.9,49.8,34.2,49.8,34.7z"/>
			<path class="st5" d="M53,34.7c0,0.4-0.4,0.8-0.8,0.8c-0.4,0-0.8-0.4-0.8-0.8c0-0.4,0.4-0.8,0.8-0.8S53,34.2,53,34.7z"/>
		</g>
	</g>
</g>
</svg>
