<?xml version="1.0" encoding="utf-8"?>
<!-- Generator: Adobe Illustrator 26.5.0, SVG Export Plug-In . SVG Version: 6.00 Build 0)  -->
<svg version="1.1" id="圖層_1" xmlns="http://www.w3.org/2000/svg" xmlns:xlink="http://www.w3.org/1999/xlink" x="0px" y="0px"
	 viewBox="0 0 75 75" style="enable-background:new 0 0 75 75;" xml:space="preserve">
<style type="text/css">
	.st0{fill:#93C980;}
	.st1{fill:#3F9979;}
	.st2{opacity:0.4;}
	.st3{fill:#FFFFFF;}
	.st4{fill:none;}
</style>
<g>
	<path class="st0" d="M75,37.5C75,58.2,58.2,75,37.5,75S0,58.2,0,37.5S16.8,0,37.5,0S75,16.8,75,37.5"/>
	<path class="st1" d="M69.5,37.5c0,17.7-14.3,32-32,32s-32-14.3-32-32s14.3-32,32-32S69.5,19.8,69.5,37.5"/>
	<g class="st2">
		<g>
			<path class="st3" d="M37.5,3.3c20.2,0,36.6,15.9,37.4,35.9c0-0.5,0.1-1.1,0.1-1.6C75,16.8,58.2,0,37.5,0S0,16.8,0,37.5
				c0,0.6,0.1,1.1,0.1,1.6C0.9,19.2,17.3,3.3,37.5,3.3"/>
			<rect class="st4" width="75" height="39.1"/>
		</g>
	</g>
</g>
<g>
	<g>
		<path class="st1" d="M45.4,25.2c5,0,9,4,9,9c0,2.3-0.9,4.4-2.3,6l3.3,3.2c0,0-3.5,0.9-7.2-0.6c-0.9,0.3-1.9,0.5-2.9,0.5
			c-5,0-9-4-9-9C36.3,29.2,40.4,25.2,45.4,25.2z"/>
		<path class="st3" d="M52.9,44.5c-1.3,0-3-0.2-4.7-0.9c-0.9,0.3-1.9,0.4-2.8,0.4c-5.4,0-9.8-4.4-9.8-9.8s4.4-9.8,9.8-9.8
			s9.8,4.4,9.8,9.8c0,2.1-0.7,4.2-2,5.9l3.8,3.7l-1.3,0.4C55.6,44.2,54.5,44.5,52.9,44.5z M48.3,41.9l0.3,0.1c2,0.9,4,0.9,5.2,0.8
			l-2.7-2.7l0.5-0.6c1.3-1.5,2.1-3.5,2.1-5.5c0-4.6-3.7-8.3-8.3-8.3s-8.3,3.7-8.3,8.3s3.7,8.3,8.3,8.3c0.9,0,1.8-0.1,2.6-0.4
			L48.3,41.9z"/>
	</g>
	<g>
		<path class="st3" d="M44,33.9c0,0.6-0.5,1-1,1c-0.6,0-1-0.5-1-1c0-0.6,0.5-1,1-1C43.6,32.9,44,33.4,44,33.9z"/>
		<path class="st3" d="M48.5,33.9c0,0.6-0.5,1-1,1c-0.6,0-1-0.5-1-1c0-0.6,0.5-1,1-1S48.5,33.4,48.5,33.9z"/>
		<path class="st3" d="M52.4,34.4c0,0.6-0.3,0.5-0.9,0.5c-0.6,0-1-0.5-1-1c0-0.6,0.5-1,1-1C52.1,32.9,52.4,33.9,52.4,34.4z"/>
	</g>
	<g>
		<g>
			<path class="st1" d="M21.2,49c1.5,0.1,4,0.1,6.5-0.9L28,48l0.3,0.1c1,0.3,2,0.5,3.1,0.5c5.4,0,9.8-4.4,9.8-9.8S36.8,29,31.4,29
				s-9.8,4.4-9.8,9.8c0,2.4,0.9,4.7,2.5,6.5l0.5,0.6L21.2,49z"/>
		</g>
	</g>
	<g>
		<path class="st3" d="M22.5,50.6c-1.8,0-3.1-0.3-3.2-0.3L18,49.9l4.3-4.2c-1.5-2-2.4-4.4-2.4-6.9c0-6.3,5.1-11.4,11.4-11.4
			s11.4,5.1,11.4,11.4s-5.1,11.4-11.4,11.4c-1.1,0-2.2-0.2-3.3-0.5C26,50.4,24.1,50.6,22.5,50.6z M21.2,49c1.5,0.1,4,0.1,6.5-0.9
			L28,48l0.3,0.1c1,0.3,2,0.5,3.1,0.5c5.4,0,9.8-4.4,9.8-9.8S36.8,29,31.4,29s-9.8,4.4-9.8,9.8c0,2.4,0.9,4.7,2.5,6.5l0.5,0.6
			L21.2,49z"/>
	</g>
	<g>
		<rect x="24.5" y="35.7" class="st1" width="12.2" height="7.5"/>
		<path class="st3" d="M36.7,43.5H24.5c-0.2,0-0.3-0.1-0.3-0.3v-7.5c0-0.2,0.1-0.3,0.3-0.3h12.2c0.2,0,0.3,0.1,0.3,0.3v7.5
			C37,43.4,36.9,43.5,36.7,43.5z M24.8,42.9h11.6v-6.8H24.8V42.9z"/>
	</g>
	<g>
		<polygon class="st1" points="30.6,40.4 24.5,35.7 36.7,35.7 		"/>
		<path class="st3" d="M30.6,40.7c-0.1,0-0.1,0-0.2-0.1l-6.1-4.7c-0.1-0.1-0.2-0.2-0.1-0.4c0-0.1,0.2-0.2,0.3-0.2h12.2
			c0.1,0,0.3,0.1,0.3,0.2c0,0.1,0,0.3-0.1,0.4l-6.1,4.7C30.8,40.7,30.7,40.7,30.6,40.7z M25.5,36l5.2,3.9l5.2-3.9H25.5z"/>
	</g>
	<path class="st3" d="M35.9,32.2c-2,0-3.6,1.6-3.6,3.6s1.6,3.6,3.6,3.6s3.6-1.6,3.6-3.6S37.9,32.2,35.9,32.2z"/>
	<path class="st1" d="M35.9,33.3c-1.4,0-2.5,1.1-2.5,2.5s1.1,2.5,2.5,2.5s2.5-1.1,2.5-2.5C38.4,34.4,37.2,33.3,35.9,33.3z"/>
	<g>
		<path class="st3" d="M35.2,36.7h0.4v-1.9h-0.4v-0.5h1v2.4h0.4v0.5h-1.4V36.7z"/>
	</g>
</g>
</svg>
