<?xml version="1.0" encoding="UTF-8"?>
<svg xmlns="http://www.w3.org/2000/svg" version="1.1" viewBox="0 0 21.5 62.4">
  <defs>
    <style>
      .cls-1 {
        fill: #24345d;
      }

      .cls-2 {
        fill: #314675;
      }

      .cls-3 {
        fill: #4dbcbc;
      }

      .cls-4 {
        fill: #dbdad5;
      }

      .cls-5 {
        fill: #9e9e9f;
      }
    </style>
  </defs>
  <!-- Generator: Adobe Illustrator 28.7.1, SVG Export Plug-In . SVG Version: 1.2.0 Build 142)  -->
  <g>
    <g id="_圖層_1" data-name="圖層_1">
      <g>
        <g>
          <path class="cls-2" d="M231.6,100.9c-4.2-1.6-8-4-11.3-6.9-7.3-6.6-11.7-16.2-11.5-26.1.2-10.2,5.3-19.7,13.3-25.9,2.2-1.8,4.9-3.3,7.5-4.4,22.2,32,2,63.3,2,63.3Z"/>
          <path class="cls-1" d="M231.6,100.9c-4.2-1.6-8-4-11.3-6.9.7-8,1.3-16.2,1.6-24.8.4-9.5.4-18.6.2-27.3,2.2-1.8,4.9-3.3,7.5-4.4.9,21,1.3,42.1,2,63.4Z"/>
        </g>
        <g>
          <path class="cls-2" d="M106.6,93.9c-4.2-1.6-8-4-11.3-6.9-7.3-6.7-11.7-16.2-11.5-26.2.2-10.2,5.3-19.7,13.3-25.9,2.2-1.8,4.9-3.3,7.5-4.4,22.2,32.1,2,63.4,2,63.4Z"/>
          <path class="cls-1" d="M106.6,93.9c-4.2-1.6-8-4-11.3-6.9.7-8,1.3-16.2,1.6-24.8.4-9.5.4-18.6.2-27.3,2.2-1.8,4.9-3.3,7.5-4.4.9,21,1.3,42.1,2,63.4Z"/>
        </g>
        <g>
          <path class="cls-5" d="M389.3,119.7c2.4-17.1,4-33.5,4-46.1.2-43.4-13.3-62.3-29.9-62.3s-12,2.7-16.8,8.2h0c-2.2,2.4-4,5.5-5.8,9.1-4.7,10.2-7.5,25-7.5,45.2s1.8,29.9,4.4,47.2"/>
          <path class="cls-5" d="M495.5,69.8c0,30.4-10.6,60-36.1,73.3-24.1,14.4-66.2,13.1-98.1,13.1s-74,1.3-98.1-13.1c-25.7-13.1-33.5-42.1-30.1-72-3.1-29.7,4.7-58.9,30.1-72,24.1-14.4,66.2-13.1,98.1-13.1s74-1.3,98.1,13.1c25.7,13.1,36.7,39.5,36.1,70.7Z"/>
        </g>
        <path class="cls-4" d="M382.9,113.3c2.4-17.1,4-33.5,4-46.1,0-43.6-13.5-62.5-30.1-62.5s-12,2.7-16.8,8.2h0c-2.2,2.4-4,5.5-5.8,9.3h0c-4.4,10.2-7.3,25-7.3,45.2s1.8,29.9,4.4,47.2M357.9,133.4c-1.8,0-3.1-3.5-3.1-8s1.3-8,3.1-8,3.1,3.5,3.1,8-1.3,8-3.1,8ZM378.3,100.9c-4.9,5.1-14.2,5.1-21.5,5.1s-16.4,0-21.3-5.1-6.9-37-4.7-47.6c2.2-10.6,14.6-17.7,25.9-17.7s23.7,7.1,25.9,17.7c2.3,10.3.3,42.2-4.3,47.6Z"/>
        <path class="cls-4" d="M483.5,64.5c.7,31.2-4.7,58.9-30.1,72-24.1,14.4-66.2,13.1-98.1,13.1s-74,1.3-98.1-13.1c-25.7-13.1-30.4-41.4-30.1-72,.2-33,4.7-58.9,30.1-72,24.1-14.4,66.2-13.1,98.1-13.1s74-1.3,98.1,13.1c25.5,13.3,29.4,39.2,30.1,72Z"/>
        <path class="cls-2" d="M453.6,65.4c0,36.8-22.6,66.7-50.7,66.7h-91.9c-27.9,0-50.7-29.9-50.7-66.7h0c0-36.8,22.8-66.7,50.7-66.7h91.9c27.9,0,50.7,29.9,50.7,66.7h0Z"/>
        <path class="cls-3" d="M374.9,88.7c0,10.2-8.2,18.4-18.4,18.4s-18.4-8.2-18.4-18.4h36.8Z"/>
        <g>
          <g>
            <path class="cls-2" d="M326.6-45.6c-.2,0-.4,0-.7-.2-9.1-4.9-14.6-14.2-14.6-24.4s4.9-18.4,13.3-23.5c.7-.4,1.8-.2,2.2.4.4.7.2,1.8-.4,2.2-7.3,4.4-11.7,12.2-11.7,20.8s4.9,17.3,12.9,21.5c.9.4,1.1,1.3.7,2.2-.5.6-1.2,1-1.7,1Z"/>
            <path class="cls-2" d="M329.1-55.1c-.4,0-.7-.2-1.1-.4-4.4-4-6.9-8.9-6.9-14.2s2.4-10.4,6.9-14.2c.7-.7,1.8-.4,2.2.2.7.7.4,1.8-.2,2.2-3.8,3.3-5.8,7.5-5.8,11.7s2,8.4,5.8,11.7c.7.7.7,1.6.2,2.2-.2.6-.7.8-1.1.8Z"/>
          </g>
          <g>
            <path class="cls-2" d="M384.5-45.6c.2,0,.4,0,.7-.2,9.1-4.9,14.6-14.2,14.6-24.4s-4.9-18.4-13.3-23.5c-.7-.4-1.8-.2-2.2.4-.4.7-.2,1.8.4,2.2,7.3,4.4,11.7,12.2,11.7,20.8s-4.9,17.3-12.9,21.5c-.9.4-1.1,1.3-.7,2.2.6.6,1.2,1,1.7,1Z"/>
            <path class="cls-2" d="M382-55.1c.4,0,.7-.2,1.1-.4,4.4-4,6.9-8.9,6.9-14.2s-2.4-10.4-6.9-14.2c-.7-.7-1.8-.4-2.2.2-.7.7-.4,1.8.2,2.2,3.8,3.3,5.8,7.5,5.8,11.7s-2,8.4-5.8,11.7c-.7.7-.7,1.6-.2,2.2.2.6.7.8,1.1.8Z"/>
          </g>
          <path class="cls-2" d="M363.4-21.2c0,3.8-3.1,6.9-6.9,6.9h0c-3.8,0-6.9-3.1-6.9-6.9l4.4-36.8c0-3.8-1.3-6.9,2.4-6.9h0c3.8,0,2.4,3.1,2.4,6.9l4.6,36.8Z"/>
          <path class="cls-2" d="M371.6-68.9c0,7.8-6.4,14.2-14.2,14.2h-2c-7.8,0-14.2-6.4-14.2-14.2v-2c0-7.8,6.4-14.2,14.2-14.2h2c7.8,0,14.2,6.4,14.2,14.2v2Z"/>
        </g>
        <path class="cls-3" d="M329.1,57.9c0,4-3.3,7.3-7.3,7.3h0c-4,0-7.3-3.3-7.3-7.3v-18.9c0-4,3.3-7.3,7.3-7.3h0c4,0,7.3,3.3,7.3,7.3v18.9Z"/>
        <path class="cls-3" d="M394.7,57.9c0,4-3.3,7.3-7.3,7.3h0c-4,0-7.3-3.3-7.3-7.3v-18.9c0-4,3.3-7.3,7.3-7.3h0c4,0,7.3,3.3,7.3,7.3v18.9Z"/>
        <g>
          <path class="cls-2" d="M497.2,48.1c-.7,8-1.3,16.2-1.6,24.8-.4,9.5-.4,18.6-.2,27.3,8-6.2,13.1-15.7,13.3-25.9.3-10-4.1-19.5-11.5-26.2Z"/>
          <path class="cls-1" d="M497.2,48.1c-1.8-1.6-2.4-2.2-4.4-3.3-1.8-1.1-11.5,27.3-1.1,58,2.7-1.1,1.3-.7,3.5-2.4-.2-8.6-.2-17.7.2-27.3.5-8.8,1.2-17,1.8-25Z"/>
        </g>
      </g>
      <g>
        <path class="cls-2" d="M231.6,377.9c-4.2-1.6-8-4-11.3-6.9-7.3-6.6-11.7-16.2-11.5-26.1.2-10.2,5.3-19.7,13.3-25.9,2.2-1.8,4.9-3.3,7.5-4.4,22.2,32,2,63.3,2,63.3Z"/>
        <path class="cls-1" d="M231.6,377.9c-4.2-1.6-8-4-11.3-6.9.7-8,1.3-16.2,1.6-24.8.4-9.5.4-18.6.2-27.3,2.2-1.8,4.9-3.3,7.5-4.4.9,21,1.3,42.1,2,63.4Z"/>
      </g>
      <g>
        <path class="cls-2" d="M106.6,370.9c-4.2-1.6-8-4-11.3-6.9-7.3-6.6-11.7-16.2-11.5-26.1.2-10.2,5.3-19.7,13.3-25.9,2.2-1.8,4.9-3.3,7.5-4.4,22.2,32,2,63.3,2,63.3Z"/>
        <path class="cls-1" d="M106.6,370.9c-4.2-1.6-8-4-11.3-6.9.7-8,1.3-16.2,1.6-24.8.4-9.5.4-18.6.2-27.3,2.2-1.8,4.9-3.3,7.5-4.4.9,21,1.3,42.1,2,63.4Z"/>
      </g>
      <g>
        <path class="cls-5" d="M389.3,396.7c2.4-17.1,4-33.5,4-46.1.2-43.4-13.3-62.3-29.9-62.3s-12,2.7-16.8,8.2h0c-2.2,2.4-4,5.5-5.8,9.1-4.7,10.2-7.5,25-7.5,45.2s1.8,29.9,4.4,47.2"/>
        <path class="cls-5" d="M495.5,346.8c0,30.4-10.6,60-36.1,73.3-24.1,14.4-66.2,13.1-98.1,13.1s-74,1.3-98.1-13.1c-25.7-13.1-33.5-42.1-30.1-72-3.1-29.7,4.7-58.9,30.1-72,24.1-14.4,66.2-13.1,98.1-13.1s74-1.3,98.1,13.1c25.7,13.1,36.7,39.5,36.1,70.7Z"/>
      </g>
      <path class="cls-4" d="M382.9,390.3c2.4-17.1,4-33.5,4-46.1,0-43.6-13.5-62.5-30.1-62.5s-12,2.7-16.8,8.2h0c-2.2,2.4-4,5.5-5.8,9.3h0c-4.4,10.2-7.3,25-7.3,45.2s1.8,29.9,4.4,47.2M357.9,410.4c-1.8,0-3.1-3.5-3.1-8s1.3-8,3.1-8,3.1,3.5,3.1,8-1.3,8-3.1,8ZM378.3,377.9c-4.9,5.1-14.2,5.1-21.5,5.1s-16.4,0-21.3-5.1-6.9-37-4.7-47.6c2.2-10.6,14.6-17.7,25.9-17.7s23.7,7.1,25.9,17.7c2.3,10.3.3,42.2-4.3,47.6Z"/>
      <path class="cls-4" d="M483.5,341.5c.7,31.2-4.7,58.9-30.1,72-24.1,14.4-66.2,13.1-98.1,13.1s-74,1.3-98.1-13.1c-25.7-13.1-30.4-41.4-30.1-72,.2-33,4.7-58.9,30.1-72,24.1-14.4,66.2-13.1,98.1-13.1s74-1.3,98.1,13.1c25.5,13.3,29.4,39.2,30.1,72Z"/>
      <path class="cls-2" d="M453.6,342.4c0,36.8-22.6,66.7-50.7,66.7h-91.9c-27.9,0-50.7-29.9-50.7-66.7h0c0-36.8,22.8-66.7,50.7-66.7h91.9c27.9,0,50.7,29.9,50.7,66.7h0Z"/>
      <path class="cls-3" d="M374.9,365.7c0,10.2-8.2,18.4-18.4,18.4s-18.4-8.2-18.4-18.4h36.8Z"/>
      <g>
        <g>
          <path class="cls-2" d="M326.6,231.4c-.2,0-.4,0-.7-.2-9.1-4.9-14.6-14.2-14.6-24.4s4.9-18.4,13.3-23.5c.7-.4,1.8-.2,2.2.4.4.7.2,1.8-.4,2.2-7.3,4.4-11.7,12.2-11.7,20.8s4.9,17.3,12.9,21.5c.9.4,1.1,1.3.7,2.2-.5.6-1.2,1-1.7,1Z"/>
          <path class="cls-2" d="M329.1,221.9c-.4,0-.7-.2-1.1-.4-4.4-4-6.9-8.9-6.9-14.2s2.4-10.4,6.9-14.2c.7-.7,1.8-.4,2.2.2.7.7.4,1.8-.2,2.2-3.8,3.3-5.8,7.5-5.8,11.7s2,8.4,5.8,11.7c.7.7.7,1.6.2,2.2-.2.6-.7.8-1.1.8Z"/>
        </g>
        <g>
          <path class="cls-2" d="M384.5,231.4c.2,0,.4,0,.7-.2,9.1-4.9,14.6-14.2,14.6-24.4s-4.9-18.4-13.3-23.5c-.7-.4-1.8-.2-2.2.4-.4.7-.2,1.8.4,2.2,7.3,4.4,11.7,12.2,11.7,20.8s-4.9,17.3-12.9,21.5c-.9.4-1.1,1.3-.7,2.2.6.6,1.2,1,1.7,1Z"/>
          <path class="cls-2" d="M382,221.9c.4,0,.7-.2,1.1-.4,4.4-4,6.9-8.9,6.9-14.2s-2.4-10.4-6.9-14.2c-.7-.7-1.8-.4-2.2.2-.7.7-.4,1.8.2,2.2,3.8,3.3,5.8,7.5,5.8,11.7s-2,8.4-5.8,11.7c-.7.7-.7,1.6-.2,2.2.2.6.7.8,1.1.8Z"/>
        </g>
        <path class="cls-2" d="M363.4,255.8c0,3.8-3.1,6.9-6.9,6.9h0c-3.8,0-6.9-3.1-6.9-6.9l4.4-36.8c0-3.8-1.3-6.9,2.4-6.9h0c3.8,0,2.4,3.1,2.4,6.9l4.6,36.8Z"/>
        <path class="cls-2" d="M371.6,208.1c0,7.8-6.4,14.2-14.2,14.2h-2c-7.8,0-14.2-6.4-14.2-14.2v-2c0-7.8,6.4-14.2,14.2-14.2h2c7.8,0,14.2,6.4,14.2,14.2v2Z"/>
      </g>
      <path class="cls-3" d="M329.1,334.9c0,4-3.3,7.3-7.3,7.3h0c-4,0-7.3-3.3-7.3-7.3v-18.9c0-4,3.3-7.3,7.3-7.3h0c4,0,7.3,3.3,7.3,7.3v18.9Z"/>
      <path class="cls-3" d="M394.7,334.9c0,4-3.3,7.3-7.3,7.3h0c-4,0-7.3-3.3-7.3-7.3v-18.9c0-4,3.3-7.3,7.3-7.3h0c4,0,7.3,3.3,7.3,7.3v18.9Z"/>
      <g>
        <path class="cls-2" d="M497.2,325.1c-.7,8-1.3,16.2-1.6,24.8-.4,9.5-.4,18.6-.2,27.3,8-6.2,13.1-15.7,13.3-25.9.3-10-4.1-19.5-11.5-26.2Z"/>
        <path class="cls-1" d="M497.2,325.1c-1.8-1.6-2.4-2.2-4.4-3.3-1.8-1.1-11.5,27.3-1.1,58,2.7-1.1,1.3-.7,3.5-2.4-.2-8.6-.2-17.7.2-27.3.5-8.8,1.2-17,1.8-25Z"/>
      </g>
      <g>
        <path class="cls-2" d="M8.2,58.4c8-6.2,13.1-15.7,13.3-25.9.3-10-4.2-19.5-11.5-26.1-.7,8-1.3,16.2-1.6,24.8-.4,9.5-.4,18.6-.2,27.2Z"/>
        <path class="cls-1" d="M3.4,35.8c0,9.5-.5,18.4-1.6,26.6,2.3-1.1,4.6-2.4,6.5-4-.3-8.6-.3-17.7.2-27.2.2-8.7.8-16.9,1.5-24.8C7,3.8,3.7,1.6,0,0c2.7,10.9,3.5,23.2,3.4,35.8Z"/>
      </g>
    </g>
  </g>
</svg>