<?xml version="1.0" encoding="utf-8"?>
<!-- Generator: Adobe Illustrator 26.5.3, SVG Export Plug-In . SVG Version: 6.00 Build 0)  -->
<svg version="1.1" id="圖層_1" xmlns="http://www.w3.org/2000/svg" xmlns:xlink="http://www.w3.org/1999/xlink" x="0px" y="0px"
	 viewBox="0 0 200 423" style="enable-background:new 0 0 200 423;" xml:space="preserve">
<style type="text/css">
	.st0{fill:#314675;}
	.st1{fill:#FCC601;}
	.st2{fill:#4DBCBC;}
</style>
<path class="st0" d="M200-0.3L12.7,187c-7.8,7.8-7.8,20.5,0,28.3s20.5,7.8,28.3,0l159-159"/>
<path class="st1" d="M200,302.7L113.7,389c-7.8,7.8-7.8,20.5,0,28.3c7.8,7.8,20.5,7.8,28.3,0l58-58"/>
<path class="st2" d="M200,151.2l-188,188c-7.8,7.8-7.8,20.5,0,28.3s20.5,7.8,28.3,0L200,207.8"/>
<path class="st1" d="M200,95.3l-175,175c-2.3,2.3-2.3,6.1,0,8.5s6.1,2.3,8.5,0L200,112.3"/>
<path class="st0" d="M200,246.8l-71.7,71.7c-2.3,2.3-2.3,6.1,0,8.5c2.3,2.3,6.1,2.3,8.5,0l63.2-63.2"/>
</svg>
