<?xml version="1.0" encoding="utf-8"?>
<!-- Generator: Adobe Illustrator 26.5.3, SVG Export Plug-In . SVG Version: 6.00 Build 0)  -->
<svg version="1.1" id="圖層_1" xmlns="http://www.w3.org/2000/svg" xmlns:xlink="http://www.w3.org/1999/xlink" x="0px" y="0px"
	 viewBox="0 0 200 423" style="enable-background:new 0 0 200 423;" xml:space="preserve">
<style type="text/css">
	.st0{fill:#FCC601;}
	.st1{fill:#4DBCBC;}
	.st2{fill:#314675;}
</style>
<g>
	<path class="st0" d="M0,423l187.3-187.3c7.8-7.8,7.8-20.5,0-28.3c-7.8-7.8-20.5-7.8-28.3,0L0,366.4"/>
	<path class="st1" d="M0,121l86.3-86.3c7.8-7.8,7.8-20.5,0-28.3c-7.8-7.8-20.5-7.8-28.3,0l-58,58"/>
	<path class="st2" d="M0,271.5l188-188c7.8-7.8,7.8-20.5,0-28.3s-20.5-7.8-28.3,0L0,214.9"/>
	<path class="st1" d="M0,327.5l175-175c2.3-2.3,2.3-6.1,0-8.5c-2.3-2.3-6.1-2.3-8.5,0L0,310.5"/>
	<path class="st0" d="M0,176l71.7-71.7c2.3-2.3,2.3-6.1,0-8.5c-2.3-2.3-6.1-2.3-8.5,0L0,159"/>
</g>
</svg>
