<?xml version="1.0" encoding="UTF-8"?>
<svg xmlns="http://www.w3.org/2000/svg" version="1.1" viewBox="0 0 512 512">
  <defs>
    <style>
      .cls-1 {
        fill: #fff;
      }
    </style>
  </defs>
  <!-- Generator: Adobe Illustrator 28.7.1, SVG Export Plug-In . SVG Version: 1.2.0 Build 142)  -->
  <g>
    <g id="_圖層_1" data-name="圖層_1">
      <path class="cls-1" d="M464,256c0-114.9-93.1-208-208-208S48,141.1,48,256s93.1,208,208,208,208-93.1,208-208ZM0,256C0,114.6,114.6,0,256,0s256,114.6,256,256-114.6,256-256,256S0,397.4,0,256ZM177.6,318.1c15.2,16.4,41.2,33.9,78.4,33.9s63.2-17.5,78.4-33.9c9-9.7,24.2-10.4,33.9-1.4s10.4,24.2,1.4,33.9c-22,23.8-60,49.4-113.6,49.4s-91.7-25.5-113.6-49.4c-9-9.7-8.4-24.9,1.4-33.9s24.9-8.4,33.9,1.4h-.2ZM144.4,208c0-17.7,14.3-32,32-32s32,14.3,32,32-14.3,32-32,32-32-14.3-32-32ZM336.4,176c17.7,0,32,14.3,32,32s-14.3,32-32,32-32-14.3-32-32,14.3-32,32-32Z"/>
    </g>
  </g>
</svg>