<?xml version="1.0" encoding="utf-8"?>
<!-- Generator: Adobe Illustrator 26.5.3, SVG Export Plug-In . SVG Version: 6.00 Build 0)  -->
<svg version="1.1" id="圖層_1" xmlns="http://www.w3.org/2000/svg" xmlns:xlink="http://www.w3.org/1999/xlink" x="0px" y="0px"
	 viewBox="0 0 100 82.3" style="enable-background:new 0 0 100 82.3;" xml:space="preserve">
<style type="text/css">
	.st0{fill:#2E4572;}
</style>
<g>
	<g>
		<path class="st0" d="M17.3,54.6c-0.3,0-0.5,0-0.8-0.3C6.3,48.9,0,38.4,0,26.8C0,15.8,5.5,6,15,0.3c0.8-0.5,2-0.3,2.5,0.5
			c0.5,0.8,0.3,2-0.5,2.5C8.8,8.3,3.8,17.1,3.8,26.8c0,10.3,5.5,19.5,14.5,24.3c1,0.5,1.3,1.5,0.8,2.5
			C18.5,54.1,17.8,54.6,17.3,54.6z"/>
		<path class="st0" d="M20,43.9c-0.5,0-0.8-0.3-1.3-0.5c-5-4.5-7.8-10-7.8-16s2.8-11.8,7.8-16c0.8-0.8,2-0.5,2.5,0.3
			c0.8,0.8,0.5,2-0.3,2.5c-4.3,3.8-6.5,8.5-6.5,13.3s2.3,9.5,6.5,13.3c0.8,0.8,0.8,1.8,0.3,2.5C21.1,43.6,20.6,43.9,20,43.9z"/>
	</g>
	<g>
		<path class="st0" d="M82.7,54.6c0.3,0,0.5,0,0.8-0.3c10.3-5.5,16.5-16,16.5-27.6c0-11-5.5-20.8-15-26.6c-0.8-0.5-2-0.3-2.5,0.5
			c-0.5,0.8-0.3,2,0.5,2.5c8.3,5,13.3,13.8,13.3,23.6c0,10.3-5.5,19.5-14.5,24.3c-1,0.5-1.3,1.5-0.8,2.5
			C81.5,54.1,82.2,54.6,82.7,54.6z"/>
		<path class="st0" d="M80,43.9c0.5,0,0.8-0.3,1.3-0.5c5-4.5,7.8-10,7.8-16s-2.8-11.8-7.8-16c-0.8-0.8-2-0.5-2.5,0.3
			c-0.8,0.8-0.5,2,0.3,2.5c4.3,3.8,6.5,8.5,6.5,13.3s-2.3,9.5-6.5,13.3c-0.8,0.8-0.8,1.8-0.3,2.5C78.9,43.6,79.4,43.9,80,43.9z"/>
	</g>
	<path class="st0" d="M43.4,82.3l5-41.7c0-4.3-1.5-7.8,2.8-7.8l0,0c4.3,0,2.8,3.5,2.8,7.8l5,41.7"/>
	<path class="st0" d="M68.2,28.3c0,8.8-7.3,16-16,16h-2.3c-8.8,0-16-7.3-16-16v-2.3c0-8.8,7.3-16,16-16h2.3c8.8,0,16,7.3,16,16V28.3
		z"/>
</g>
</svg>
