<svg xmlns="http://www.w3.org/2000/svg" viewBox="0 0 262.37 25.34"><defs><style>.cls-1{fill:#15398b;}.cls-2{fill:#dfc44a;}.cls-3{fill:#595757;}</style></defs><g id="圖層_2" data-name="圖層 2"><g id="圖層_1-2" data-name="圖層 1"><path class="cls-1" d="M0,11.37l3.21-.17a3.53,3.53,0,0,0,.53,2.06,3.5,3.5,0,0,0,2.74.87,3.86,3.86,0,0,0,2.41-.59,1.78,1.78,0,0,0,.74-1.43A1.53,1.53,0,0,0,9,10.88a11.71,11.71,0,0,0-2.34-1.2A22,22,0,0,1,3.88,8.3,4.13,4.13,0,0,1,2.49,6.87,4.07,4.07,0,0,1,2,4.8a4.46,4.46,0,0,1,1.5-3.44A6.29,6.29,0,0,1,7.82,0,6.71,6.71,0,0,1,12.3,1.35,5,5,0,0,1,14,4.94l-3.21.15A2.64,2.64,0,0,0,10,3.29a3.24,3.24,0,0,0-2.16-.63,3.25,3.25,0,0,0-2,.49,1.53,1.53,0,0,0-.61,1.24,1.46,1.46,0,0,0,.55,1.17A11.39,11.39,0,0,0,8.18,6.84a13.8,13.8,0,0,1,3.61,2,3.82,3.82,0,0,1,1.15,2.87,4.82,4.82,0,0,1-1.71,3.71,7,7,0,0,1-4.78,1.53,8.8,8.8,0,0,1-3.67-.7,4.37,4.37,0,0,1-2.18-2A5.88,5.88,0,0,1,0,11.37Z"/><path class="cls-2" d="M17.11,4.78h3l-.28,1.43a5.32,5.32,0,0,1,3.71-1.7,3.32,3.32,0,0,1,2.06.55,2.58,2.58,0,0,1,.93,1.54,4.84,4.84,0,0,1,1.76-1.49,5.13,5.13,0,0,1,2.39-.6,3,3,0,0,1,2.21.76,2.7,2.7,0,0,1,.8,2,13.46,13.46,0,0,1-.36,2.1l-1.52,7.23H28.63l1.51-7.22c.19-.91.3-1.42.33-1.54a1,1,0,0,0-.3-.79,1.26,1.26,0,0,0-.9-.29,2.68,2.68,0,0,0-2.16,1.27,8.37,8.37,0,0,0-1.18,3.2l-1.12,5.37H21.63l1.5-7.16a10.37,10.37,0,0,0,.25-1.61,1,1,0,0,0-.31-.77,1.26,1.26,0,0,0-.89-.3,2.26,2.26,0,0,0-1.09.32,3.06,3.06,0,0,0-1,.86,5,5,0,0,0-.72,1.4,18.12,18.12,0,0,0-.46,1.82l-1.12,5.44H14.63Z"/><path class="cls-2" d="M39.57,8.12l-3.11-.26A4.66,4.66,0,0,1,38.32,5.4a6.12,6.12,0,0,1,3.5-.89,5.11,5.11,0,0,1,3.36.92,2.83,2.83,0,0,1,1.08,2.24,7.7,7.7,0,0,1-.09,1.14c-.07.4-.29,1.46-.67,3.17a16.5,16.5,0,0,0-.47,3,6.1,6.1,0,0,0,.27,1.69H42.23A5.06,5.06,0,0,1,42,15.29a5.21,5.21,0,0,1-1.61,1.21,4.23,4.23,0,0,1-1.84.43,3.25,3.25,0,0,1-2.42-1,3.38,3.38,0,0,1-1-2.49,3.6,3.6,0,0,1,1-2.71,6.08,6.08,0,0,1,3.76-1.23A15.1,15.1,0,0,0,43,9.08,4.18,4.18,0,0,0,43.19,8a1.1,1.1,0,0,0-.41-.87,1.82,1.82,0,0,0-1.21-.35,2.31,2.31,0,0,0-1.34.35A1.76,1.76,0,0,0,39.57,8.12Zm3,3a6.09,6.09,0,0,1-.77.14,7.33,7.33,0,0,0-3.13.86,1.32,1.32,0,0,0-.52,1.1,1.28,1.28,0,0,0,.39,1,1.42,1.42,0,0,0,1.06.39A2.81,2.81,0,0,0,41,14.19a2.44,2.44,0,0,0,1-.92,6.2,6.2,0,0,0,.56-1.74Z"/><path class="cls-2" d="M50,4.78h3l-.48,2.28q1.66-2.55,3.61-2.55a3.63,3.63,0,0,1,1.47.34L56.39,7.46a2.83,2.83,0,0,0-.93-.15,2.92,2.92,0,0,0-1.69.62A4.2,4.2,0,0,0,52.43,9.6a16.52,16.52,0,0,0-1,3.31l-.76,3.72H47.55Z"/><path class="cls-2" d="M57.39,7.17l.48-2.39h1.59l.39-1.88L63.51.68l-.84,4.1h1.89l-.48,2.39h-1.9l-1.06,5a14.7,14.7,0,0,0-.28,1.54.72.72,0,0,0,.23.58,1.21,1.21,0,0,0,.82.21c.14,0,.48,0,1-.08l-.51,2.36a8.54,8.54,0,0,1-1.68.16,3.73,3.73,0,0,1-2.44-.65,2.3,2.3,0,0,1-.77-1.84A16.33,16.33,0,0,1,58,11.93l1-4.76Z"/><path class="cls-1" d="M67.62,16.63H64.24L67.65.31h7.26a8.6,8.6,0,0,1,2.91.38A3.29,3.29,0,0,1,79.5,2.1a4.56,4.56,0,0,1,.65,2.48A4.9,4.9,0,0,1,78.9,8a6,6,0,0,1-3.77,1.67,6.75,6.75,0,0,1,1.21,1.53,40,40,0,0,1,2.51,5.41H75.23c-.29-.92-.86-2.36-1.7-4.31a5,5,0,0,0-1.47-2.13,3.05,3.05,0,0,0-1.66-.32H69Zm1.93-9.22h1.78a12.77,12.77,0,0,0,3.58-.32,3,3,0,0,0,1.39-1,2.45,2.45,0,0,0,.5-1.45,1.47,1.47,0,0,0-.72-1.33A4.59,4.59,0,0,0,74.15,3H70.46Z"/><path class="cls-2" d="M92.17,11.71h-8c0,.13,0,.22,0,.29a2.73,2.73,0,0,0,.68,1.92,2.15,2.15,0,0,0,1.64.73A2.73,2.73,0,0,0,88.94,13l2.87.48a5.93,5.93,0,0,1-2.23,2.58,5.78,5.78,0,0,1-3.13.86,5.21,5.21,0,0,1-3.87-1.51,5.47,5.47,0,0,1-1.49-4,7.28,7.28,0,0,1,1.35-4.33,6,6,0,0,1,5.23-2.57,4.54,4.54,0,0,1,3.44,1.34,5.24,5.24,0,0,1,1.28,3.77A8.88,8.88,0,0,1,92.17,11.71Zm-2.68-2c0-.14,0-.25,0-.32a2.9,2.9,0,0,0-.59-2,2,2,0,0,0-1.58-.66,2.54,2.54,0,0,0-1.78.76,4,4,0,0,0-1.06,2.21Z"/><path class="cls-2" d="M97.92,8.12l-3.11-.26A4.64,4.64,0,0,1,96.66,5.4a6.15,6.15,0,0,1,3.51-.89,5.06,5.06,0,0,1,3.35.92,2.81,2.81,0,0,1,1.09,2.24,6.6,6.6,0,0,1-.1,1.14c-.06.4-.28,1.46-.66,3.17a15.61,15.61,0,0,0-.47,3,6.1,6.1,0,0,0,.27,1.69h-3.07a5.06,5.06,0,0,1-.27-1.34,5.13,5.13,0,0,1-1.62,1.21,4.22,4.22,0,0,1-1.83.43,3.29,3.29,0,0,1-2.43-1,3.42,3.42,0,0,1-1-2.49,3.6,3.6,0,0,1,1-2.71,6.07,6.07,0,0,1,3.75-1.23,15,15,0,0,0,3-.46,3.78,3.78,0,0,0,.2-1.07,1.09,1.09,0,0,0-.4-.87,1.84,1.84,0,0,0-1.21-.35,2.29,2.29,0,0,0-1.34.35A1.67,1.67,0,0,0,97.92,8.12Zm3,3a6.09,6.09,0,0,1-.77.14A7.28,7.28,0,0,0,97,12.1a1.32,1.32,0,0,0-.53,1.1,1.29,1.29,0,0,0,.4,1,1.42,1.42,0,0,0,1.06.39,2.84,2.84,0,0,0,1.36-.35,2.44,2.44,0,0,0,1-.92,6.2,6.2,0,0,0,.56-1.74Z"/><path class="cls-2" d="M117,16.63h-3l.27-1.26a5.73,5.73,0,0,1-1.72,1.2,4.77,4.77,0,0,1-1.9.36,3.83,3.83,0,0,1-3-1.25A5.38,5.38,0,0,1,106.48,12a8.67,8.67,0,0,1,1.63-5.15,5,5,0,0,1,4.31-2.3,4,4,0,0,1,3.63,1.92L117.37.31h3.17Zm-7.41-4.79a2.87,2.87,0,0,0,.65,2,2.08,2.08,0,0,0,1.6.71,2.56,2.56,0,0,0,1.64-.59,4,4,0,0,0,1.22-1.83,6.62,6.62,0,0,0,.46-2.35,3,3,0,0,0-.7-2.08,2.11,2.11,0,0,0-1.61-.79,2.69,2.69,0,0,0-2.34,1.56A6.58,6.58,0,0,0,109.58,11.84Z"/><path class="cls-2" d="M122.49,4.78h3.17l-2.48,11.85H120Zm.93-4.47h3.18L126,3.18h-3.17Z"/><path class="cls-2" d="M128.86,4.78h3l-.31,1.56a8.54,8.54,0,0,1,2.15-1.41,5.41,5.41,0,0,1,2.11-.42,3.19,3.19,0,0,1,2.33.84A3,3,0,0,1,139,7.6a15.21,15.21,0,0,1-.41,2.35l-1.44,6.68H134l1.43-6.7c.21-1,.33-1.6.35-1.8a1.3,1.3,0,0,0-.38-1,1.4,1.4,0,0,0-1-.36,3,3,0,0,0-1.6.59,4.33,4.33,0,0,0-1.38,1.56,12.79,12.79,0,0,0-.84,2.82l-1,4.87h-3.18Z"/><path class="cls-2" d="M140.15,17.28l3.39.48a1.45,1.45,0,0,0,.16.77,1.28,1.28,0,0,0,.52.44,2.32,2.32,0,0,0,1,.18,3.22,3.22,0,0,0,1.72-.4,2.31,2.31,0,0,0,.79-1,11.59,11.59,0,0,0,.49-1.92l.11-.55a5.73,5.73,0,0,1-3.59,1.38,3.65,3.65,0,0,1-2.83-1.22,5.17,5.17,0,0,1-1.11-3.58A9.46,9.46,0,0,1,141.56,8a5.69,5.69,0,0,1,2.11-2.62,5,5,0,0,1,2.77-.89,3.85,3.85,0,0,1,2.14.62,4.19,4.19,0,0,1,1.51,1.73l.43-2.08h3l-1.88,9.84a31.06,31.06,0,0,1-.87,3.41,6,6,0,0,1-.8,1.63,3.88,3.88,0,0,1-1.15,1,4.84,4.84,0,0,1-1.63.59,10.91,10.91,0,0,1-2,.18,6.77,6.77,0,0,1-3.76-.85,3.19,3.19,0,0,1-1.27-2.85A3.93,3.93,0,0,1,140.15,17.28Zm3.76-5.79a3,3,0,0,0,.6,2,1.93,1.93,0,0,0,1.51.71,2.63,2.63,0,0,0,1.65-.63,3.94,3.94,0,0,0,1.22-1.79,6.65,6.65,0,0,0,.42-2.25,2.85,2.85,0,0,0-.7-2A2.12,2.12,0,0,0,147,6.79a2.22,2.22,0,0,0-1.56.68,4.8,4.8,0,0,0-1.17,2.08A6.23,6.23,0,0,0,143.91,11.49Z"/><path class="cls-2" d="M157,10.24h6.11l-.64,3h-6.11Z"/><path class="cls-1" d="M173.11,17.55H170l-.58-13.43-2.56,13.43h-3L167.2,1.47h4.72l.49,11.27L177.9,1.47h4.77L179.3,17.55h-3l3.17-13.34Z"/><path class="cls-2" d="M187,9.21l-3.07-.27a4.6,4.6,0,0,1,1.84-2.43,6.11,6.11,0,0,1,3.47-.88,5.13,5.13,0,0,1,3.33.9,2.83,2.83,0,0,1,1.07,2.22,7.31,7.31,0,0,1-.09,1.11c-.06.4-.28,1.44-.65,3.12a15.69,15.69,0,0,0-.46,2.92,5.74,5.74,0,0,0,.26,1.65h-3.06a5.71,5.71,0,0,1-.23-1.31,4.92,4.92,0,0,1-1.59,1.18,4.41,4.41,0,0,1-1.81.41,3.26,3.26,0,0,1-2.4-.95,3.35,3.35,0,0,1-.94-2.44,3.55,3.55,0,0,1,1-2.67,6.06,6.06,0,0,1,3.7-1.2,15.69,15.69,0,0,0,3-.45,3.9,3.9,0,0,0,.19-1.06,1.06,1.06,0,0,0-.4-.84A1.82,1.82,0,0,0,189,7.88a2.26,2.26,0,0,0-1.33.34A1.72,1.72,0,0,0,187,9.21Zm3,2.91a5.64,5.64,0,0,1-.76.15,7.25,7.25,0,0,0-3.09.83,1.28,1.28,0,0,0-.52,1.06,1.25,1.25,0,0,0,.4.93,1.4,1.4,0,0,0,1,.38,2.63,2.63,0,0,0,1.34-.35,2.32,2.32,0,0,0,.95-.88,6.12,6.12,0,0,0,.55-1.7Z"/><path class="cls-2" d="M197.53,5.9h3l-.31,1.52A8.26,8.26,0,0,1,202.3,6a5.2,5.2,0,0,1,2-.41,3.09,3.09,0,0,1,2.27.82,3,3,0,0,1,.82,2.19,14,14,0,0,1-.36,2.32l-1.37,6.59h-3.15l1.38-6.61a13.8,13.8,0,0,0,.31-1.77,1.29,1.29,0,0,0-.35-.95,1.38,1.38,0,0,0-1-.34,2.74,2.74,0,0,0-1.53.58A4,4,0,0,0,200,10a13.07,13.07,0,0,0-.79,2.77l-1,4.78h-3.15Z"/><path class="cls-2" d="M219.54,17.55h-3l.27-1.26a5.66,5.66,0,0,1-1.69,1.18,4.62,4.62,0,0,1-1.87.36,3.75,3.75,0,0,1-2.93-1.24A5.22,5.22,0,0,1,209.2,13a8.65,8.65,0,0,1,1.58-5.06A4.87,4.87,0,0,1,215,5.63a3.88,3.88,0,0,1,3.52,1.86l1.27-6h3.14Zm-7.28-4.73a2.82,2.82,0,0,0,.63,1.95,2,2,0,0,0,1.55.7,2.51,2.51,0,0,0,1.6-.59,3.91,3.91,0,0,0,1.19-1.79,6.82,6.82,0,0,0,.44-2.31,3,3,0,0,0-.68-2A2,2,0,0,0,215.42,8a2.6,2.6,0,0,0-2.27,1.53A6.57,6.57,0,0,0,212.26,12.82Z"/><path class="cls-2" d="M226.94,9.21l-3.07-.27a4.55,4.55,0,0,1,1.84-2.43,6.09,6.09,0,0,1,3.47-.88,5.13,5.13,0,0,1,3.33.9,2.83,2.83,0,0,1,1.07,2.22,7.31,7.31,0,0,1-.09,1.11c-.07.4-.28,1.44-.66,3.12a16.61,16.61,0,0,0-.46,2.92,5.78,5.78,0,0,0,.27,1.65h-3.06a5.22,5.22,0,0,1-.23-1.31,5.07,5.07,0,0,1-1.6,1.18,4.37,4.37,0,0,1-1.81.41,3.25,3.25,0,0,1-2.39-.95,3.31,3.31,0,0,1-.94-2.44,3.55,3.55,0,0,1,1-2.67,6.12,6.12,0,0,1,3.71-1.2,15.4,15.4,0,0,0,3-.45,3.61,3.61,0,0,0,.2-1.06,1.06,1.06,0,0,0-.4-.84,1.86,1.86,0,0,0-1.21-.34,2.26,2.26,0,0,0-1.33.34A1.72,1.72,0,0,0,226.94,9.21Zm3,2.91a6,6,0,0,1-.76.15,7.25,7.25,0,0,0-3.09.83,1.25,1.25,0,0,0-.52,1.06,1.21,1.21,0,0,0,.4.93,1.4,1.4,0,0,0,1,.38,2.66,2.66,0,0,0,1.34-.35,2.39,2.39,0,0,0,1-.88,6.48,6.48,0,0,0,.55-1.7Z"/><path class="cls-2" d="M237.26,5.9h2.94l-.48,2.26q1.65-2.53,3.57-2.53a3.63,3.63,0,0,1,1.46.34l-1.21,2.58a2.72,2.72,0,0,0-.91-.16A2.81,2.81,0,0,0,241,9a4,4,0,0,0-1.31,1.64,15.51,15.51,0,0,0-.93,3.25L238,17.55h-3.15Z"/><path class="cls-2" d="M246.18,5.9h3.14l-2.43,11.65h-3.15Zm.92-4.43h3.15l-.6,2.85H246.5Z"/><path class="cls-2" d="M252.46,5.9h3l-.31,1.52A8.23,8.23,0,0,1,257.23,6a5.27,5.27,0,0,1,2-.41,3.07,3.07,0,0,1,2.27.82,3,3,0,0,1,.83,2.19A14,14,0,0,1,262,11l-1.37,6.59h-3.15l1.38-6.61a16.11,16.11,0,0,0,.31-1.77,1.26,1.26,0,0,0-.36-.95,1.37,1.37,0,0,0-1-.34,2.77,2.77,0,0,0-1.54.58A4.15,4.15,0,0,0,255,10a13.72,13.72,0,0,0-.79,2.77l-1,4.78H250Z"/><path class="cls-3" d="M157.45,22.19a2.7,2.7,0,1,1-2.69-2.69A2.69,2.69,0,0,1,157.45,22.19ZM154.76,19a3.15,3.15,0,1,0,3.15,3.15A3.15,3.15,0,0,0,154.76,19Z"/><path class="cls-3" d="M153.35,24V20.35H155a2.08,2.08,0,0,1,.75.1.77.77,0,0,1,.41.35,1.07,1.07,0,0,1,.15.56.92.92,0,0,1-.25.66,1.29,1.29,0,0,1-.78.34,2.15,2.15,0,0,1,.29.18,2.5,2.5,0,0,1,.4.49l.64,1H156l-.49-.77c-.14-.22-.26-.39-.35-.51a.91.91,0,0,0-.25-.24.62.62,0,0,0-.22-.1l-.27,0h-.57V24Zm.49-2.06h1a1.51,1.51,0,0,0,.53-.07.64.64,0,0,0,.29-.22.67.67,0,0,0,.09-.34.56.56,0,0,0-.19-.43.88.88,0,0,0-.6-.17h-1.17Z"/></g></g></svg>