<svg xmlns="http://www.w3.org/2000/svg" viewBox="0 0 262.37 116.6"><defs><style>.cls-1{isolation:isolate;}.cls-2{fill:#fff;}.cls-3{fill:#15398b;}.cls-4{fill:#006aad;}.cls-5{fill:#0097d2;}.cls-6,.cls-7{fill:#dfc44a;}.cls-7{mix-blend-mode:screen;opacity:0.25;}.cls-8{fill:#595757;}.cls-9{font-size:14px;fill:#231815;stroke:#231815;stroke-miterlimit:10;stroke-width:0.25px;font-family:MicrosoftJhengHeiRegular, Microsoft JhengHei;letter-spacing:0.6em;}</style></defs><g class="cls-1"><g id="圖層_2" data-name="圖層 2"><g id="圖層_1-2" data-name="圖層 1"><polygon class="cls-2" points="105.08 13.58 109.84 12.68 133.58 3.67 138.89 3.88 139.02 6.82 144.21 7.76 144.32 10.11 149.59 11.69 109.84 20.02 105.08 13.58"/><path class="cls-3" d="M149.6,61.3a4.52,4.52,0,0,1-4.51,4.54H109.45A4.52,4.52,0,0,1,105,61.3V19.81c0-2.5,2-.75,4.5-.75h35.64c2.49,0,4.51-1.75,4.51.75Z"/><path class="cls-2" d="M113.19,62.44l.43,0a.87.87,0,0,0,.13.42.76.76,0,0,0,.34.26,1.24,1.24,0,0,0,.52.1,1.25,1.25,0,0,0,.45-.07.64.64,0,0,0,.29-.21.52.52,0,0,0,.09-.29.4.4,0,0,0-.09-.27.57.57,0,0,0-.3-.2,3.88,3.88,0,0,0-.6-.17,2.57,2.57,0,0,1-.65-.21.94.94,0,0,1-.36-.32.74.74,0,0,1-.12-.42.86.86,0,0,1,.57-.82,1.71,1.71,0,0,1,.62-.11,1.69,1.69,0,0,1,.66.12.93.93,0,0,1,.44.36,1,1,0,0,1,.16.53l-.43,0a.69.69,0,0,0-.23-.48.9.9,0,0,0-.59-.16,1,1,0,0,0-.59.15.45.45,0,0,0-.18.36.35.35,0,0,0,.13.29,1.88,1.88,0,0,0,.67.25,4.83,4.83,0,0,1,.75.21,1.08,1.08,0,0,1,.43.34.83.83,0,0,1,.14.49.91.91,0,0,1-.15.5,1,1,0,0,1-.44.38,1.67,1.67,0,0,1-.65.13,2,2,0,0,1-.77-.14,1.1,1.1,0,0,1-.48-.4A1.16,1.16,0,0,1,113.19,62.44Z"/><path class="cls-2" d="M116.44,63.53V61.07h.37v.35a.86.86,0,0,1,.31-.29.89.89,0,0,1,.43-.11.77.77,0,0,1,.45.12.59.59,0,0,1,.25.31A.86.86,0,0,1,119,61a.77.77,0,0,1,.56.2.9.9,0,0,1,.19.63v1.68h-.41V62a1,1,0,0,0,0-.35.34.34,0,0,0-.15-.18.41.41,0,0,0-.25-.07.61.61,0,0,0-.43.17.79.79,0,0,0-.17.55v1.43h-.41V61.94a.68.68,0,0,0-.11-.42.37.37,0,0,0-.33-.14.62.62,0,0,0-.32.09.64.64,0,0,0-.22.27,1.66,1.66,0,0,0-.07.52v1.27Z"/><path class="cls-2" d="M122,63.22a1.46,1.46,0,0,1-.44.28,1.39,1.39,0,0,1-.46.08.88.88,0,0,1-.63-.2.64.64,0,0,1-.21-.5.62.62,0,0,1,.08-.33.61.61,0,0,1,.21-.24,1,1,0,0,1,.31-.13l.37-.06A3.34,3.34,0,0,0,122,62a.54.54,0,0,0,0-.11.47.47,0,0,0-.12-.36.74.74,0,0,0-.48-.13.75.75,0,0,0-.44.1.69.69,0,0,0-.21.36l-.4,0a.89.89,0,0,1,.18-.43.85.85,0,0,1,.37-.24,1.55,1.55,0,0,1,.55-.09,1.43,1.43,0,0,1,.51.08.58.58,0,0,1,.29.18.56.56,0,0,1,.13.28,1.9,1.9,0,0,1,0,.39v.55a5.1,5.1,0,0,0,0,.73,1.06,1.06,0,0,0,.1.3h-.43A.94.94,0,0,1,122,63.22Zm0-.92a3.42,3.42,0,0,1-.68.16,1.39,1.39,0,0,0-.36.08.3.3,0,0,0-.16.13.36.36,0,0,0-.06.2.35.35,0,0,0,.13.28.56.56,0,0,0,.37.11.89.89,0,0,0,.43-.11.65.65,0,0,0,.28-.29,1.07,1.07,0,0,0,.06-.41Z"/><path class="cls-2" d="M123,63.53V61.07h.37v.38a1,1,0,0,1,.27-.34.43.43,0,0,1,.26-.09.89.89,0,0,1,.43.13l-.15.39a.58.58,0,0,0-.3-.09.36.36,0,0,0-.24.09.37.37,0,0,0-.16.22,1.87,1.87,0,0,0-.07.49v1.28Z"/><path class="cls-2" d="M125.49,63.15l.05.37a1.88,1.88,0,0,1-.31,0,.67.67,0,0,1-.35-.08.35.35,0,0,1-.18-.18,1.67,1.67,0,0,1,0-.49V61.4h-.31v-.33h.31v-.6l.41-.25v.85h.43v.33h-.43v1.43a.48.48,0,0,0,0,.22.16.16,0,0,0,.07.09.26.26,0,0,0,.14,0Z"/><path class="cls-2" d="M127.26,63.53V60.15h1.5a2.05,2.05,0,0,1,.69.09.72.72,0,0,1,.37.32.9.9,0,0,1,.15.51.85.85,0,0,1-.24.61A1.15,1.15,0,0,1,129,62a1.05,1.05,0,0,1,.27.17,2.12,2.12,0,0,1,.37.45l.59.92h-.56l-.45-.71a5.55,5.55,0,0,0-.32-.46,1,1,0,0,0-.23-.23.72.72,0,0,0-.2-.09h-.77v1.5Zm.45-1.89h1a1.43,1.43,0,0,0,.48-.07.48.48,0,0,0,.26-.2.53.53,0,0,0,.09-.3.51.51,0,0,0-.17-.4.84.84,0,0,0-.55-.15h-1.07Z"/><path class="cls-2" d="M132.29,62.74l.43,0a1,1,0,0,1-.38.58,1.1,1.1,0,0,1-.7.21,1.11,1.11,0,0,1-.85-.33,1.29,1.29,0,0,1-.31-.93,1.37,1.37,0,0,1,.31-1,1.12,1.12,0,0,1,.83-.34,1,1,0,0,1,.8.33,1.33,1.33,0,0,1,.31.94v.11H130.9a1,1,0,0,0,.23.62.67.67,0,0,0,.51.22.61.61,0,0,0,.39-.12A.78.78,0,0,0,132.29,62.74Zm-1.37-.68h1.38a.81.81,0,0,0-.16-.46.64.64,0,0,0-.52-.23.68.68,0,0,0-.48.18A.8.8,0,0,0,130.92,62.06Z"/><path class="cls-2" d="M134.85,63.22a1.46,1.46,0,0,1-.44.28,1.39,1.39,0,0,1-.46.08.88.88,0,0,1-.63-.2.65.65,0,0,1-.22-.5.67.67,0,0,1,.3-.57,1,1,0,0,1,.3-.13l.37-.06a3.46,3.46,0,0,0,.75-.15v-.11a.47.47,0,0,0-.12-.36.69.69,0,0,0-.47-.13.73.73,0,0,0-.44.1.69.69,0,0,0-.21.36l-.41,0a1,1,0,0,1,.19-.43.81.81,0,0,1,.36-.24,1.6,1.6,0,0,1,.56-.09,1.43,1.43,0,0,1,.51.08.63.63,0,0,1,.29.18.66.66,0,0,1,.13.28,1.9,1.9,0,0,1,0,.39v.55a5.1,5.1,0,0,0,0,.73,1,1,0,0,0,.09.3h-.42A.94.94,0,0,1,134.85,63.22Zm0-.92a3.61,3.61,0,0,1-.68.16,1.39,1.39,0,0,0-.36.08.37.37,0,0,0-.17.13.46.46,0,0,0,0,.2.38.38,0,0,0,.12.28.59.59,0,0,0,.38.11.89.89,0,0,0,.43-.11.63.63,0,0,0,.27-.29.89.89,0,0,0,.07-.41Z"/><path class="cls-2" d="M137.46,63.53v-.32a.77.77,0,0,1-.69.37,1,1,0,0,1-.54-.16,1.12,1.12,0,0,1-.38-.45,1.57,1.57,0,0,1-.13-.67,1.76,1.76,0,0,1,.12-.66.94.94,0,0,1,.37-.46.93.93,0,0,1,.54-.16.87.87,0,0,1,.4.09,1,1,0,0,1,.28.25V60.15h.41v3.38Zm-1.32-1.23a1.09,1.09,0,0,0,.2.71.63.63,0,0,0,.47.23.62.62,0,0,0,.47-.22,1,1,0,0,0,.19-.68,1.15,1.15,0,0,0-.2-.74.57.57,0,0,0-.47-.23.59.59,0,0,0-.47.22A1.14,1.14,0,0,0,136.14,62.3Z"/><path class="cls-2" d="M138.5,60.62v-.47h.42v.47Zm0,2.91V61.07h.42v2.46Z"/><path class="cls-2" d="M139.55,63.53V61.07h.37v.35a.88.88,0,0,1,.78-.4,1.11,1.11,0,0,1,.41.08.67.67,0,0,1,.28.21.77.77,0,0,1,.12.31,1.77,1.77,0,0,1,0,.4v1.51h-.42V62a1.21,1.21,0,0,0,0-.38.39.39,0,0,0-.18-.2.55.55,0,0,0-.29-.08.66.66,0,0,0-.45.17.83.83,0,0,0-.2.64v1.34Z"/><path class="cls-2" d="M142.1,63.73l.4.05a.41.41,0,0,0,.15.28.66.66,0,0,0,.42.12.73.73,0,0,0,.45-.12.52.52,0,0,0,.21-.32,2.15,2.15,0,0,0,0-.53.87.87,0,0,1-.68.32.9.9,0,0,1-.78-.37,1.35,1.35,0,0,1-.28-.87,1.54,1.54,0,0,1,.13-.65.94.94,0,0,1,.37-.46,1.06,1.06,0,0,1,.57-.16.88.88,0,0,1,.72.36v-.31h.37v2.12a2,2,0,0,1-.12.82.88.88,0,0,1-.37.37,1.29,1.29,0,0,1-.62.14,1.13,1.13,0,0,1-.71-.2A.68.68,0,0,1,142.1,63.73Zm.34-1.47a1,1,0,0,0,.2.7.63.63,0,0,0,1,0,1,1,0,0,0,.2-.69,1,1,0,0,0-.2-.68.64.64,0,0,0-.49-.22.6.6,0,0,0-.47.22A1,1,0,0,0,142.44,62.26Z"/><path class="cls-3" d="M105.08,13.58l3.53,3.78a199.86,199.86,0,0,1,41-5.68h0v11.1H105Z"/><path class="cls-3" d="M109.85,12.68l23.73-9L133.42,0S118.79,8.6,109.85,12.68Z"/><path class="cls-4" d="M112.67,13.44S137,7.05,139,6.82l-.13-2.94S116.88,11.92,112.67,13.44Z"/><path class="cls-5" d="M114.64,14.67s25.55-4.82,29.68-4.56l-.11-2.35S117.39,13.52,114.64,14.67Z"/><path class="cls-6" d="M109.82,27.53c-.18-.79.49-1.49.52-1.69a2.64,2.64,0,0,1,1.13-1.7c1-.78,2-1.6,3-2.41.66-.55,1.28-1.37,2.1-1.48a4.52,4.52,0,0,0,.63-.08c.33-.14.6-.57.89-.79a2.16,2.16,0,0,1,1.08-.4,16.58,16.58,0,0,0,2.3-.61,24.09,24.09,0,0,1,2.38-.7,12.57,12.57,0,0,1,2.66-.17c1.19,0,2.35-.17,3.53-.15a10.47,10.47,0,0,1,1.68.13c.95.19,1.78.81,2.77,1,.55.11,1.12.19,1.67.31a2.55,2.55,0,0,1,1,.26c.35.24.67.51,1,.76.88.6,1.52,1.5,2.36,2.2.54.44,1.29.73,1.8,1.15a6.46,6.46,0,0,0,1,.79,5,5,0,0,1,1.35.65,9.54,9.54,0,0,1,.86,1.31c.19.29.39.53.55.83s.24.59.37.88c.24.52.45.74.16,1.14s-.11.38.19.87a4,4,0,0,1,.32,1c.19.57.59,1.1.77,1.66a13.21,13.21,0,0,1,.29,1.78,22.94,22.94,0,0,1,.53,2.75,2,2,0,0,1,0,.69c-.09.25-.39.4-.51.65a4.51,4.51,0,0,1-.92,1.63c-.25.2-.34,0-.73,0a.5.5,0,0,0-.58.44,13.64,13.64,0,0,0,0,1.81A2.75,2.75,0,0,1,144.89,44c-.3.22-.69.23-1,.47s-.54.7-.92.93a11.48,11.48,0,0,1-1.54.72,3.55,3.55,0,0,1-1.12.39c-.31,0-.64-.07-1-.07-.94,0-1.64.44-2.66.2a2.51,2.51,0,0,1-.93-.45c-.53-.44-.38-.84-.51-1.4a6.82,6.82,0,0,0-1-2.21c-.72-1,.17-1.84.24-2.82.08-1.14-1-1.76-1.55-2.64a3,3,0,0,1-.49-1.27c0-.32.34-.44.31-.76-.05-.71-1.06-.46-1.47-.66-.23-.11-.39-.49-.56-.69a5.44,5.44,0,0,0-.86-.8,6.11,6.11,0,0,0-1.17-.59,1.2,1.2,0,0,0-.81-.16c-.41.1-.9.63-1.26.88s-.91.68-1.36,1a3.35,3.35,0,0,0-.77.87c-.16.28-.2.68-.47.89-.87.69-.52-.66-.65-1s-.38-.13-.64-.36-.28-.71-.53-.92a1.19,1.19,0,0,0-.09-.15c-.35.07-.62.77-.81,1a3.33,3.33,0,0,1-.71.83c-.27.19-.57.26-.86.43s-.39.39-.6.74c-.35.56-.76.21-1.25.52-.24.15-.27.37-.56.47s-.66-.07-.95-.14a4.18,4.18,0,0,0-1.89.05,4.4,4.4,0,0,1-2.28,0,9.5,9.5,0,0,0-1.87-.17c-1-.06-1.34-1.11-1.33-2,0-.56,0-1.1,0-1.64s-.19-.88-.19-1.33c0,0-.31-.74.72-1.65s.27-.13-.07-.66C109.22,29.57,110,28.42,109.82,27.53Z"/><path class="cls-3" d="M128,17.14l-1.53.08h-.59a9.1,9.1,0,0,0-2.13.17,22.47,22.47,0,0,0-2.41.71,15.48,15.48,0,0,1-2.26.6l-.11,0a2.35,2.35,0,0,0-1.09.43l-.38.37a1.49,1.49,0,0,1-.45.38l-.33.05-.23,0a3.38,3.38,0,0,0-1.76,1.1l-.49.45-3,2.4a2.83,2.83,0,0,0-1.25,1.89,1.58,1.58,0,0,0-.1.16,2.58,2.58,0,0,0-.45,1.29,1.24,1.24,0,0,0,0,.33h0a1,1,0,0,1,0,.25,4,4,0,0,1-.27,1.16,2.36,2.36,0,0,0-.19.74.51.51,0,0,0,.07.28.87.87,0,0,0,.22.21l-.1.09a2.13,2.13,0,0,0-.86,1.56,1,1,0,0,0,0,.34c0,.06.1.76.1.76l.09.55,0,1.63c0,1.34.63,2.24,1.6,2.3l.52,0a6.16,6.16,0,0,1,1.3.15,4.62,4.62,0,0,0,2.4,0,4.14,4.14,0,0,1,1.77-.06l.2.06a1.35,1.35,0,0,0,.92.08,1.06,1.06,0,0,0,.45-.34l.16-.16a.92.92,0,0,1,.45-.12,1,1,0,0,0,.89-.49l.12-.2a.94.94,0,0,1,.39-.44l.34-.17.53-.28a3.31,3.31,0,0,0,.78-.9l.18-.3a3.16,3.16,0,0,1,.33-.52,1.27,1.27,0,0,1,.16.31,1.33,1.33,0,0,0,.34.58,1,1,0,0,0,.47.22l.1,0a1.86,1.86,0,0,1,0,.27v.21c0,.36,0,.73.31.87s.57-.05.77-.2a1.52,1.52,0,0,0,.42-.69l.12-.28a2.9,2.9,0,0,1,.7-.8l1.34-1,.4-.31a2.46,2.46,0,0,1,.76-.52.94.94,0,0,1,.63.14l.38.16a3.72,3.72,0,0,1,.74.39,5.32,5.32,0,0,1,.81.76l.15.22a1.35,1.35,0,0,0,.51.55,1.77,1.77,0,0,0,.63.12c.53,0,.67.11.68.3h0s0,.09-.1.19a.87.87,0,0,0-.21.54h0a3.34,3.34,0,0,0,.53,1.42l.65.8a2.44,2.44,0,0,1,.86,1.57s0,.07,0,.1a3.27,3.27,0,0,1-.24.89,3.08,3.08,0,0,0-.28,1.13,1.67,1.67,0,0,0,.34,1,6.46,6.46,0,0,1,1,2.11l.06.39a1.45,1.45,0,0,0,.55,1.16,2.89,2.89,0,0,0,1,.51,3.92,3.92,0,0,0,1.79-.06,6,6,0,0,1,1-.13l.41,0,.56,0a2.8,2.8,0,0,0,.94-.3l.27-.12.06,0a9.53,9.53,0,0,0,1.51-.72,2.46,2.46,0,0,0,.64-.6l.33-.36a1.25,1.25,0,0,1,.4-.2l.54-.25a3,3,0,0,0,1.2-2.13V41.3a3.32,3.32,0,0,1,0-.95c0-.18.09-.23.31-.23l.27,0a.66.66,0,0,0,.63-.12,3.36,3.36,0,0,0,.85-1.38l.16-.36.2-.23a1.3,1.3,0,0,0,.32-.45.85.85,0,0,0,.05-.33,3,3,0,0,0,0-.31v-.15a9.23,9.23,0,0,0-.31-1.78l-.22-1-.08-.59a7.31,7.31,0,0,0-.22-1.24,5.85,5.85,0,0,0-.41-.88l-.36-.78-.09-.36a2,2,0,0,0-.26-.72l-.17-.26-.11-.18a.83.83,0,0,0,.08-.12.88.88,0,0,0,.19-.53,1.42,1.42,0,0,0-.21-.65l-.11-.24-.14-.35-.24-.55L146,26l-.2-.28-.25-.42a4.9,4.9,0,0,0-.65-.94,2.55,2.55,0,0,0-1-.52l-.45-.19a3.66,3.66,0,0,1-.72-.52l-.27-.24a8.1,8.1,0,0,0-.9-.57,6.59,6.59,0,0,1-.9-.57,12.53,12.53,0,0,1-1-.95,9.44,9.44,0,0,0-1.4-1.27l-.49-.35-.56-.4a2,2,0,0,0-.84-.27l-.23,0-1-.19-.68-.12a5.77,5.77,0,0,1-1.35-.49,6.65,6.65,0,0,0-1.42-.51,9.25,9.25,0,0,0-1.72-.13C129.34,17.05,128.66,17.1,128,17.14Zm-1.52.65,1.55-.08c.65,0,1.31-.09,2-.08a10,10,0,0,1,1.62.13,6.17,6.17,0,0,1,1.3.47,6.42,6.42,0,0,0,1.47.53l.69.12,1,.18.26.05a1.67,1.67,0,0,1,.62.18l.53.38L138,20a8.62,8.62,0,0,1,1.31,1.2c.33.33.66.68,1,1a7.12,7.12,0,0,0,1,.63,5.78,5.78,0,0,1,.82.52l.26.22a4.22,4.22,0,0,0,.83.6l.51.21a2.23,2.23,0,0,1,.77.39,4.89,4.89,0,0,1,.56.82l.26.45.22.3.32.5.21.48.15.39.13.25c.17.36.19.42.06.6a.67.67,0,0,0,0,.95l.16.24a1.5,1.5,0,0,1,.18.54l.11.42.4.86a5,5,0,0,1,.37.79,8,8,0,0,1,.2,1.14l.08.61.23,1a10,10,0,0,1,.3,1.66V37a1.86,1.86,0,0,1,0,.41.92.92,0,0,1-.19.23l-.31.4-.17.38a3.05,3.05,0,0,1-.68,1.15l-.06,0H147l-.38-.06a.79.79,0,0,0-.87.67,4.19,4.19,0,0,0,0,1.12l0,.73a2.48,2.48,0,0,1-1,1.71l-.38.18a1.44,1.44,0,0,0-.6.31l-.38.41a2.31,2.31,0,0,1-.5.49,9.9,9.9,0,0,1-1.43.67l-.07,0-.29.13a2.37,2.37,0,0,1-.74.24l-.44,0-.51,0a6.53,6.53,0,0,0-1,.14,3.34,3.34,0,0,1-1.55.06A2.18,2.18,0,0,1,136,46a.91.91,0,0,1-.34-.77l-.07-.47a7.25,7.25,0,0,0-1.1-2.32c-.39-.53-.21-1,0-1.58a4,4,0,0,0,.28-1.05,2.77,2.77,0,0,0-1-2.08l-.59-.74a2.65,2.65,0,0,1-.44-1.11c0-.06,0-.11.1-.21a.8.8,0,0,0,.21-.57c-.06-.72-.77-.78-1.2-.82a2,2,0,0,1-.44-.07,1.26,1.26,0,0,1-.27-.34l-.2-.29a6,6,0,0,0-.9-.84,4,4,0,0,0-.86-.46l-.35-.15a1.44,1.44,0,0,0-1-.18,2.63,2.63,0,0,0-1,.63l-.35.28-1.38,1.06a3.36,3.36,0,0,0-.83,1l-.16.37a1.13,1.13,0,0,1-.24.44l-.14.09a2.88,2.88,0,0,1,0-.32v-.21a1.58,1.58,0,0,0,0-.46.64.64,0,0,0-.51-.39.4.4,0,0,1-.21-.08,1.06,1.06,0,0,1-.2-.37,1.31,1.31,0,0,0-.33-.55.22.22,0,0,1,.06.07l-.09-.14a.29.29,0,0,0-.3-.14c-.4.08-.65.54-.85.91l-.15.26a3.07,3.07,0,0,1-.64.75l-.42.22-.41.2a1.48,1.48,0,0,0-.59.64l-.11.19c-.13.2-.22.21-.46.23a1.32,1.32,0,0,0-.7.2l-.3.27c-.08.1-.11.14-.2.17a.92.92,0,0,1-.55-.07l-.24-.08a4.43,4.43,0,0,0-2,.06,4.16,4.16,0,0,1-2.14,0,6.33,6.33,0,0,0-1.43-.16l-.5,0c-1-.07-1.07-1.47-1.07-1.75l0-1.66-.1-.63-.1-.68a.36.36,0,0,0,0-.1s-.2-.59.65-1.34l.32-.28c.23-.2.36-.31.27-.52a.31.31,0,0,0-.36-.16c-.15,0-.2,0-.25-.07s.1-.32.17-.52a3.25,3.25,0,0,0,.27-1.72h0a1.74,1.74,0,0,1,.35-1.21l.18-.39a2.42,2.42,0,0,1,1-1.51l3-2.41.51-.47a3,3,0,0,1,1.45-.95l.18,0,.51-.08a2.12,2.12,0,0,0,.66-.53l.3-.29a1.71,1.71,0,0,1,.86-.33l.11,0a18.52,18.52,0,0,0,2.34-.62,21.38,21.38,0,0,1,2.35-.7,8.82,8.82,0,0,1,2-.15Z"/><path class="cls-7" d="M109.82,27.53c-.18-.79.49-1.49.52-1.69a2.64,2.64,0,0,1,1.13-1.7c1-.78,2-1.6,3-2.41.66-.55,1.28-1.37,2.1-1.48a4.52,4.52,0,0,0,.63-.08c.33-.14.6-.57.89-.79a2.16,2.16,0,0,1,1.08-.4,16.58,16.58,0,0,0,2.3-.61,24.09,24.09,0,0,1,2.38-.7,12.57,12.57,0,0,1,2.66-.17c1.19,0,2.35-.17,3.53-.15a10.47,10.47,0,0,1,1.68.13c.95.19,1.78.81,2.77,1,.55.11,1.12.19,1.67.31a2.55,2.55,0,0,1,1,.26c.35.24.67.51,1,.76.88.6,1.52,1.5,2.36,2.2.54.44,1.29.73,1.8,1.15a6.46,6.46,0,0,0,1,.79,5,5,0,0,1,1.35.65,9.54,9.54,0,0,1,.86,1.31c.19.29.39.53.55.83s.24.59.37.88c.24.52.45.74.16,1.14s-.11.38.19.87a4,4,0,0,1,.32,1c.19.57.59,1.1.77,1.66a13.21,13.21,0,0,1,.29,1.78,22.94,22.94,0,0,1,.53,2.75,2,2,0,0,1,0,.69c-.09.25-.39.4-.51.65a4.51,4.51,0,0,1-.92,1.63c-.25.2-.34,0-.73,0a.5.5,0,0,0-.58.44,13.64,13.64,0,0,0,0,1.81A2.75,2.75,0,0,1,144.89,44c-.3.22-.69.23-1,.47s-.54.7-.92.93a11.48,11.48,0,0,1-1.54.72,3.55,3.55,0,0,1-1.12.39c-.31,0-.64-.07-1-.07-.94,0-1.64.44-2.66.2a2.51,2.51,0,0,1-.93-.45c-.53-.44-.38-.84-.51-1.4a6.82,6.82,0,0,0-1-2.21c-.72-1,.17-1.84.24-2.82.08-1.14-1-1.76-1.55-2.64a3,3,0,0,1-.49-1.27c0-.32.34-.44.31-.76-.05-.71-1.06-.46-1.47-.66-.23-.11-.39-.49-.56-.69a5.44,5.44,0,0,0-.86-.8,6.11,6.11,0,0,0-1.17-.59,1.2,1.2,0,0,0-.81-.16c-.41.1-.9.63-1.26.88s-.91.68-1.36,1a3.35,3.35,0,0,0-.77.87c-.16.28-.2.68-.47.89-.87.69-.52-.66-.65-1s-.38-.13-.64-.36-.28-.71-.53-.92a1.19,1.19,0,0,0-.09-.15c-.35.07-.62.77-.81,1a3.33,3.33,0,0,1-.71.83c-.27.19-.57.26-.86.43s-.39.39-.6.74c-.35.56-.76.21-1.25.52-.24.15-.27.37-.56.47s-.66-.07-.95-.14a4.18,4.18,0,0,0-1.89.05,4.4,4.4,0,0,1-2.28,0,9.5,9.5,0,0,0-1.87-.17c-1-.06-1.34-1.11-1.33-2,0-.56,0-1.1,0-1.64s-.19-.88-.19-1.33c0,0-.31-.74.72-1.65s.27-.13-.07-.66C109.22,29.57,110,28.42,109.82,27.53Z"/><path class="cls-3" d="M128,17.14l-1.53.08h-.59a9.1,9.1,0,0,0-2.13.17,22.47,22.47,0,0,0-2.41.71,15.48,15.48,0,0,1-2.26.6l-.11,0a2.35,2.35,0,0,0-1.09.43l-.38.37a1.49,1.49,0,0,1-.45.38l-.33.05-.23,0a3.38,3.38,0,0,0-1.76,1.1l-.49.45-3,2.4a2.83,2.83,0,0,0-1.25,1.89,1.58,1.58,0,0,0-.1.16,2.58,2.58,0,0,0-.45,1.29,1.24,1.24,0,0,0,0,.33h0a1,1,0,0,1,0,.25,4,4,0,0,1-.27,1.16,2.36,2.36,0,0,0-.19.74.51.51,0,0,0,.07.28.87.87,0,0,0,.22.21l-.1.09a2.13,2.13,0,0,0-.86,1.56,1,1,0,0,0,0,.34c0,.06.1.76.1.76l.09.55,0,1.63c0,1.34.63,2.24,1.6,2.3l.52,0a6.16,6.16,0,0,1,1.3.15,4.62,4.62,0,0,0,2.4,0,4.14,4.14,0,0,1,1.77-.06l.2.06a1.35,1.35,0,0,0,.92.08,1.06,1.06,0,0,0,.45-.34l.16-.16a.92.92,0,0,1,.45-.12,1,1,0,0,0,.89-.49l.12-.2a.94.94,0,0,1,.39-.44l.34-.17.53-.28a3.31,3.31,0,0,0,.78-.9l.18-.3a3.16,3.16,0,0,1,.33-.52,1.27,1.27,0,0,1,.16.31,1.33,1.33,0,0,0,.34.58,1,1,0,0,0,.47.22l.1,0a1.86,1.86,0,0,1,0,.27v.21c0,.36,0,.73.31.87s.57-.05.77-.2a1.52,1.52,0,0,0,.42-.69l.12-.28a2.9,2.9,0,0,1,.7-.8l1.34-1,.4-.31a2.46,2.46,0,0,1,.76-.52.94.94,0,0,1,.63.14l.38.16a3.72,3.72,0,0,1,.74.39,5.32,5.32,0,0,1,.81.76l.15.22a1.35,1.35,0,0,0,.51.55,1.77,1.77,0,0,0,.63.12c.53,0,.67.11.68.3h0s0,.09-.1.19a.87.87,0,0,0-.21.54h0a3.34,3.34,0,0,0,.53,1.42l.65.8a2.44,2.44,0,0,1,.86,1.57s0,.07,0,.1a3.27,3.27,0,0,1-.24.89,3.08,3.08,0,0,0-.28,1.13,1.67,1.67,0,0,0,.34,1,6.46,6.46,0,0,1,1,2.11l.06.39a1.45,1.45,0,0,0,.55,1.16,2.89,2.89,0,0,0,1,.51,3.92,3.92,0,0,0,1.79-.06,6,6,0,0,1,1-.13l.41,0,.56,0a2.8,2.8,0,0,0,.94-.3l.27-.12.06,0a9.53,9.53,0,0,0,1.51-.72,2.46,2.46,0,0,0,.64-.6l.33-.36a1.25,1.25,0,0,1,.4-.2l.54-.25a3,3,0,0,0,1.2-2.13V41.3a3.32,3.32,0,0,1,0-.95c0-.18.09-.23.31-.23l.27,0a.66.66,0,0,0,.63-.12,3.36,3.36,0,0,0,.85-1.38l.16-.36.2-.23a1.3,1.3,0,0,0,.32-.45.85.85,0,0,0,.05-.33,3,3,0,0,0,0-.31v-.15a9.23,9.23,0,0,0-.31-1.78l-.22-1-.08-.59a7.31,7.31,0,0,0-.22-1.24,5.85,5.85,0,0,0-.41-.88l-.36-.78-.09-.36a2,2,0,0,0-.26-.72l-.17-.26-.11-.18a.83.83,0,0,0,.08-.12.88.88,0,0,0,.19-.53,1.42,1.42,0,0,0-.21-.65l-.11-.24-.14-.35-.24-.55L146,26l-.2-.28-.25-.42a4.9,4.9,0,0,0-.65-.94,2.55,2.55,0,0,0-1-.52l-.45-.19a3.66,3.66,0,0,1-.72-.52l-.27-.24a8.1,8.1,0,0,0-.9-.57,6.59,6.59,0,0,1-.9-.57,12.53,12.53,0,0,1-1-.95,9.44,9.44,0,0,0-1.4-1.27l-.49-.35-.56-.4a2,2,0,0,0-.84-.27l-.23,0-1-.19-.68-.12a5.77,5.77,0,0,1-1.35-.49,6.65,6.65,0,0,0-1.42-.51,9.25,9.25,0,0,0-1.72-.13C129.34,17.05,128.66,17.1,128,17.14Zm-1.52.65,1.55-.08c.65,0,1.31-.09,2-.08a10,10,0,0,1,1.62.13,6.17,6.17,0,0,1,1.3.47,6.42,6.42,0,0,0,1.47.53l.69.12,1,.18.26.05a1.67,1.67,0,0,1,.62.18l.53.38L138,20a8.62,8.62,0,0,1,1.31,1.2c.33.33.66.68,1,1a7.12,7.12,0,0,0,1,.63,5.78,5.78,0,0,1,.82.52l.26.22a4.22,4.22,0,0,0,.83.6l.51.21a2.23,2.23,0,0,1,.77.39,4.89,4.89,0,0,1,.56.82l.26.45.22.3.32.5.21.48.15.39.13.25c.17.36.19.42.06.6a.67.67,0,0,0,0,.95l.16.24a1.5,1.5,0,0,1,.18.54l.11.42.4.86a5,5,0,0,1,.37.79,8,8,0,0,1,.2,1.14l.08.61.23,1a10,10,0,0,1,.3,1.66V37a1.86,1.86,0,0,1,0,.41.92.92,0,0,1-.19.23l-.31.4-.17.38a3.05,3.05,0,0,1-.68,1.15l-.06,0H147l-.38-.06a.79.79,0,0,0-.87.67,4.19,4.19,0,0,0,0,1.12l0,.73a2.48,2.48,0,0,1-1,1.71l-.38.18a1.44,1.44,0,0,0-.6.31l-.38.41a2.31,2.31,0,0,1-.5.49,9.9,9.9,0,0,1-1.43.67l-.07,0-.29.13a2.37,2.37,0,0,1-.74.24l-.44,0-.51,0a6.53,6.53,0,0,0-1,.14,3.34,3.34,0,0,1-1.55.06A2.18,2.18,0,0,1,136,46a.91.91,0,0,1-.34-.77l-.07-.47a7.25,7.25,0,0,0-1.1-2.32c-.39-.53-.21-1,0-1.58a4,4,0,0,0,.28-1.05,2.77,2.77,0,0,0-1-2.08l-.59-.74a2.65,2.65,0,0,1-.44-1.11c0-.06,0-.11.1-.21a.8.8,0,0,0,.21-.57c-.06-.72-.77-.78-1.2-.82a2,2,0,0,1-.44-.07,1.26,1.26,0,0,1-.27-.34l-.2-.29a6,6,0,0,0-.9-.84,4,4,0,0,0-.86-.46l-.35-.15a1.44,1.44,0,0,0-1-.18,2.63,2.63,0,0,0-1,.63l-.35.28-1.38,1.06a3.36,3.36,0,0,0-.83,1l-.16.37a1.13,1.13,0,0,1-.24.44l-.14.09a2.88,2.88,0,0,1,0-.32v-.21a1.58,1.58,0,0,0,0-.46.64.64,0,0,0-.51-.39.4.4,0,0,1-.21-.08,1.06,1.06,0,0,1-.2-.37,1.31,1.31,0,0,0-.33-.55.22.22,0,0,1,.06.07l-.09-.14a.29.29,0,0,0-.3-.14c-.4.08-.65.54-.85.91l-.15.26a3.07,3.07,0,0,1-.64.75l-.42.22-.41.2a1.48,1.48,0,0,0-.59.64l-.11.19c-.13.2-.22.21-.46.23a1.32,1.32,0,0,0-.7.2l-.3.27c-.08.1-.11.14-.2.17a.92.92,0,0,1-.55-.07l-.24-.08a4.43,4.43,0,0,0-2,.06,4.16,4.16,0,0,1-2.14,0,6.33,6.33,0,0,0-1.43-.16l-.5,0c-1-.07-1.07-1.47-1.07-1.75l0-1.66-.1-.63-.1-.68a.36.36,0,0,0,0-.1s-.2-.59.65-1.34l.32-.28c.23-.2.36-.31.27-.52a.31.31,0,0,0-.36-.16c-.15,0-.2,0-.25-.07s.1-.32.17-.52a3.25,3.25,0,0,0,.27-1.72h0a1.74,1.74,0,0,1,.35-1.21l.18-.39a2.42,2.42,0,0,1,1-1.51l3-2.41.51-.47a3,3,0,0,1,1.45-.95l.18,0,.51-.08a2.12,2.12,0,0,0,.66-.53l.3-.29a1.71,1.71,0,0,1,.86-.33l.11,0a18.52,18.52,0,0,0,2.34-.62,21.38,21.38,0,0,1,2.35-.7,8.82,8.82,0,0,1,2-.15Z"/><path class="cls-3" d="M118.22,24.52c-2.51.46-4.53,3-4.22,5.32a12.48,12.48,0,0,0,.4,1.78,7.75,7.75,0,0,1,.43,2.76c-.08,1.28-.8,1.79-1.8,2.5l-.62.46.23.3.61-.45c1-.71,1.87-1.33,2-2.79a8.4,8.4,0,0,0-.44-2.88,12.1,12.1,0,0,1-.4-1.73,4.81,4.81,0,0,1,3.92-4.9c.9-.18,2.43-.26,2.95.26a.67.67,0,0,1,.16.67l.37.07a1,1,0,0,0-.26-1C120.67,24,118.32,24.5,118.22,24.52Z"/><path class="cls-3" d="M119.6,23a2,2,0,0,0-.22,1.59l.36-.11a1.65,1.65,0,0,1,.19-1.29,2.7,2.7,0,0,1,1.63-1.23l-.08-.37A3.09,3.09,0,0,0,119.6,23Z"/><path class="cls-3" d="M118.05,33l.1.18c.48.85,1.39,2.45,2.41,2.33l0-.37c-.78.09-1.66-1.48-2-2.15l-.1-.18a8.28,8.28,0,0,1-1-4.62H117A8.66,8.66,0,0,0,118.05,33Z"/><path class="cls-3" d="M123.94,23.14a1.85,1.85,0,0,1,.84,1.59,2.94,2.94,0,0,1-1.15,2.4c-1,.72-2.61.31-3.77-.33l-.18.33c1.26.69,3,1.13,4.17.3a3.28,3.28,0,0,0,1.31-2.71,2.26,2.26,0,0,0-1-1.9Z"/><path class="cls-3" d="M123.75,27.65a.22.22,0,0,1,.19.13,1,1,0,0,1,0,.8,1.79,1.79,0,0,1-1,.69l-.65.28a3.92,3.92,0,0,0-1.82,2.57,2.4,2.4,0,0,0,.32,2,1.09,1.09,0,0,0,.41.32l.34.2.24-.28-.41-.27a.64.64,0,0,1-.29-.21,2.08,2.08,0,0,1-.24-1.72,3.59,3.59,0,0,1,1.64-2.3l.59-.26a2,2,0,0,0,1.24-.87,1.35,1.35,0,0,0,0-1.16.57.57,0,0,0-.5-.31Z"/><path class="cls-3" d="M111.11,24.28a6.5,6.5,0,0,1,.42,1.17c.29.95.61,2,1.43,2.46a2.05,2.05,0,0,0,1.63.06l-.11-.36a1.69,1.69,0,0,1-1.34,0c-.68-.36-1-1.36-1.24-2.24a6.78,6.78,0,0,0-.45-1.24Z"/><path class="cls-3" d="M112.75,32.48a1.22,1.22,0,0,1-.58,1.06,4.38,4.38,0,0,1-3.24.54l-.13.35a4.7,4.7,0,0,0,3.59-.58,1.63,1.63,0,0,0,.74-1.39Z"/><path class="cls-3" d="M111.3,34.09l.37-.11c-.46-1.48-.2-4.25,1.25-5.4l-.24-.3C111.05,29.58,110.83,32.54,111.3,34.09Z"/><path class="cls-3" d="M125.75,20.58a4.1,4.1,0,0,0,1.36,2.4,7.68,7.68,0,0,1,1,1.21l0,0a10.87,10.87,0,0,1,1.13,2.36,8.24,8.24,0,0,1,.18,2.28v.65c0,.89-.2,2.43-1,2.48l0,.38c1.33-.09,1.38-2.4,1.38-2.87v-.63a8.47,8.47,0,0,0-.2-2.39,10.57,10.57,0,0,0-1.16-2.45l0-.05a7.13,7.13,0,0,0-1-1.27,3.71,3.71,0,0,1-1.26-2.17,5,5,0,0,1,1.14-3l-.26-.28A5.38,5.38,0,0,0,125.75,20.58Z"/><path class="cls-3" d="M125.8,20.61l.28.25c.71-.8,2.42-1.81,3.5-1.56a1.17,1.17,0,0,1,.88.94l.09.57a1.56,1.56,0,0,0,.79,1.44,2.7,2.7,0,0,0,1.69,0c1.22-.28,1.42-1,1.66-2l-.36-.09c-.25,1-.39,1.5-1.38,1.72a2.33,2.33,0,0,1-1.43,0c-.5-.27-.54-.66-.59-1.15l-.11-.63a1.55,1.55,0,0,0-1.16-1.21C128.39,18.64,126.57,19.74,125.8,20.61Z"/><path class="cls-3" d="M131.3,28.15a2.83,2.83,0,0,1-1.3.15h-.33v.38H130a3.36,3.36,0,0,0,1.46-.18,3.51,3.51,0,0,0,2.06-2.75h-.38A3.13,3.13,0,0,1,131.3,28.15Z"/><path class="cls-3" d="M133.44,26a2.84,2.84,0,0,0,2.91-1.18l-.31-.22a2.48,2.48,0,0,1-2.55,1c-.77-.11-1.86-.9-1.81-1.78l-.37,0C131.23,24.89,132.54,25.82,133.44,26Z"/><path class="cls-3" d="M124.94,31.35c.17.92.67,1.93,1.35,1.95v-.37c-.38,0-.82-.74-1-1.65-.14-.74-.08-1.57.36-1.76l-.16-.35C124.84,29.47,124.77,30.49,124.94,31.35Z"/><path class="cls-3" d="M137.62,19.67l-.07,2.66a4.29,4.29,0,0,0,1.26,2.77l.12.14A5.75,5.75,0,0,1,140,29.31a1.89,1.89,0,0,1-.9,1.33,3,3,0,0,1-1.74.06l-.7-.09a3.06,3.06,0,0,0-2.74,1,7.55,7.55,0,0,1-.86.76c-.8.65-1.56,1.26-1,2.52l.34-.15c-.44-1,.1-1.43.9-2.08a9.09,9.09,0,0,0,.9-.79,2.68,2.68,0,0,1,2.43-.84l.67.08a3.19,3.19,0,0,0,2-.1,2.29,2.29,0,0,0,1.08-1.59A6,6,0,0,0,139.22,25l-.11-.15a3.91,3.91,0,0,1-1.18-2.54l.07-2.66Z"/><path class="cls-3" d="M140.37,29.3a5.21,5.21,0,0,1,4.84,5.22h.38a5.59,5.59,0,0,0-5.17-5.61Z"/><path class="cls-3" d="M144.2,35.33a2.79,2.79,0,0,1-.66,1l.25.29a3.29,3.29,0,0,0,.75-1.09c.3-.63.5-1,1.5-.93a1.24,1.24,0,0,1,1.24.87l.17.4c.21.55.5,1.3,1.27,1.27l0-.38c-.46,0-.66-.41-.9-1l-.18-.44a1.87,1.87,0,0,0-3.42.06Z"/><path class="cls-3" d="M136,31.13a3.75,3.75,0,0,1,1.62.83l.15.11a3.18,3.18,0,0,1,1.4,3.5,4.34,4.34,0,0,1-1.07,2.6l-.48.42a2.66,2.66,0,0,0-.93,1.2c-.27.75-1.25,5-.25,6.45a1.07,1.07,0,0,0,.91.52l0-.38a.72.72,0,0,1-.62-.35c-.86-1.27,0-5.27.3-6.11a2.28,2.28,0,0,1,.82-1l.49-.45a4.54,4.54,0,0,0,1.18-2.82A3.58,3.58,0,0,0,138,31.76l-.15-.11a4,4,0,0,0-1.8-.89Z"/><path class="cls-3" d="M142.54,38.23a.49.49,0,0,1,.13.41c-.09.32-.71.57-1.21.77a2.57,2.57,0,0,0-.87.46c-.6.6-.46,2-.38,2.79a7.92,7.92,0,0,0,1.09,3.45l.28-.26a7.53,7.53,0,0,1-1-3.23c-.07-.65-.21-2,.27-2.49a2.77,2.77,0,0,1,.74-.37c.61-.24,1.29-.51,1.43-1a.84.84,0,0,0-.18-.75Z"/><path class="cls-3" d="M141.05,35.57l.12.55a2.44,2.44,0,0,0,1.29,2.06,3.63,3.63,0,0,0,3.52.26l-.19-.33a3.23,3.23,0,0,1-3.15-.26,2.09,2.09,0,0,1-1.1-1.8l-.12-.57Z"/><path class="cls-3" d="M138.17,38.31l.12-.36c-1.43-.47-2.06-2.43-2-3.67l-.38,0C135.84,35.56,136.49,37.75,138.17,38.31Z"/><path class="cls-3" d="M141.18,24.53a2.09,2.09,0,0,1-.55,1.7.94.94,0,0,1-.88.17l-.1.37a1.32,1.32,0,0,0,1.22-.25,2.49,2.49,0,0,0,.69-2Z"/><path class="cls-3" d="M136.78,27.89a2.09,2.09,0,0,0,.41,1.59c.48.58,1.5,1.5,2.29,1.24l-.12-.36c-.55.18-1.44-.59-1.88-1.12a1.78,1.78,0,0,1-.33-1.34v-.26h-.38Z"/><path class="cls-3" d="M137.23,41.94a4.11,4.11,0,0,0,3.42,1.89l0-.38c-1.52-.21-2.28-.44-3.15-1.72Z"/><path class="cls-2" d="M120,44.33a5.76,5.76,0,0,1-.78,3.18,2.57,2.57,0,0,1-2.3,1.2V47.28c1,0,1.52-1,1.52-3h-1.52V41.24H120Z"/><path class="cls-2" d="M131.47,44.33a5.76,5.76,0,0,1-.78,3.18,2.58,2.58,0,0,1-2.31,1.2V47.28c1,0,1.53-1,1.53-3h-1.53V41.24h3.09Z"/><path class="cls-2" d="M124.3,56.4l-4.23-2.47-.57,1L124,57.56a.55.55,0,0,0,.59,0l6.06-4-.63-1Z"/><path class="cls-3" d="M0,81.37l3.21-.17a3.6,3.6,0,0,0,.53,2.07,3.5,3.5,0,0,0,2.74.87,3.93,3.93,0,0,0,2.41-.59,1.81,1.81,0,0,0,.74-1.43A1.51,1.51,0,0,0,9,80.89a11.17,11.17,0,0,0-2.34-1.2,22,22,0,0,1-2.8-1.38A4,4,0,0,1,2,74.8a4.44,4.44,0,0,1,1.5-3.43A6.24,6.24,0,0,1,7.82,70a6.71,6.71,0,0,1,4.48,1.35A5,5,0,0,1,14,75l-3.21.14a2.66,2.66,0,0,0-.86-1.8,3.29,3.29,0,0,0-2.16-.62,3.19,3.19,0,0,0-2,.49,1.52,1.52,0,0,0-.61,1.24,1.43,1.43,0,0,0,.55,1.16,10.84,10.84,0,0,0,2.44,1.29,13.5,13.5,0,0,1,3.61,2,3.8,3.8,0,0,1,1.15,2.87,4.8,4.8,0,0,1-1.71,3.7,6.9,6.9,0,0,1-4.78,1.54,8.8,8.8,0,0,1-3.67-.71,4.31,4.31,0,0,1-2.18-2A5.92,5.92,0,0,1,0,81.37Z"/><path class="cls-6" d="M17.11,74.79h3l-.28,1.43a5.29,5.29,0,0,1,3.71-1.71,3.32,3.32,0,0,1,2.06.56,2.56,2.56,0,0,1,.93,1.54,4.86,4.86,0,0,1,1.76-1.5,5.13,5.13,0,0,1,2.39-.6,3,3,0,0,1,2.21.77,2.67,2.67,0,0,1,.8,2,13.53,13.53,0,0,1-.36,2.11l-1.52,7.22H28.63l1.51-7.22c.19-.9.3-1.42.33-1.54a1,1,0,0,0-.3-.78,1.26,1.26,0,0,0-.9-.29,2.69,2.69,0,0,0-2.16,1.26,8.37,8.37,0,0,0-1.18,3.2l-1.12,5.37H21.63l1.5-7.15a10.54,10.54,0,0,0,.25-1.61,1,1,0,0,0-.31-.77,1.26,1.26,0,0,0-.89-.3,2.24,2.24,0,0,0-1.09.31,3.32,3.32,0,0,0-1,.86,5,5,0,0,0-.72,1.41,17.37,17.37,0,0,0-.46,1.82l-1.12,5.43H14.63Z"/><path class="cls-6" d="M39.57,78.13l-3.11-.26a4.68,4.68,0,0,1,1.86-2.47,6.2,6.2,0,0,1,3.5-.89,5.16,5.16,0,0,1,3.36.92,2.85,2.85,0,0,1,1.08,2.25,7.8,7.8,0,0,1-.09,1.14c-.07.4-.29,1.45-.67,3.16A16.44,16.44,0,0,0,45,85a6,6,0,0,0,.27,1.68H42.23A5,5,0,0,1,42,85.3a5.21,5.21,0,0,1-1.61,1.21,4.23,4.23,0,0,1-1.84.43,3.22,3.22,0,0,1-2.42-1,3.36,3.36,0,0,1-1-2.48,3.62,3.62,0,0,1,1-2.72,6.14,6.14,0,0,1,3.76-1.22A15.1,15.1,0,0,0,43,79.09a4.17,4.17,0,0,0,.2-1.08,1.09,1.09,0,0,0-.41-.86,1.82,1.82,0,0,0-1.21-.35,2.24,2.24,0,0,0-1.34.35A1.76,1.76,0,0,0,39.57,78.13Zm3,3c-.19.05-.45.1-.77.15a7.19,7.19,0,0,0-3.13.86,1.39,1.39,0,0,0-.13,2,1.46,1.46,0,0,0,1.06.39A2.71,2.71,0,0,0,41,84.19a2.35,2.35,0,0,0,1-.91,6.4,6.4,0,0,0,.56-1.75Z"/><path class="cls-6" d="M50,74.79h3l-.48,2.27q1.66-2.55,3.61-2.55a3.66,3.66,0,0,1,1.47.35l-1.23,2.61a2.6,2.6,0,0,0-.93-.16,2.86,2.86,0,0,0-1.69.63,4.13,4.13,0,0,0-1.34,1.67,16.32,16.32,0,0,0-1,3.31l-.76,3.71H47.55Z"/><path class="cls-6" d="M57.39,77.18l.48-2.39h1.59l.39-1.88,3.66-2.22-.84,4.1h1.89l-.48,2.39h-1.9l-1.06,5a14.23,14.23,0,0,0-.28,1.54.7.7,0,0,0,.23.57,1.21,1.21,0,0,0,.82.21c.14,0,.48,0,1-.08l-.51,2.36a7.85,7.85,0,0,1-1.68.17,3.67,3.67,0,0,1-2.44-.66,2.29,2.29,0,0,1-.77-1.83A16.58,16.58,0,0,1,58,81.93l1-4.75Z"/><path class="cls-3" d="M67.62,86.63H64.24l3.41-16.32h7.26a8.56,8.56,0,0,1,2.91.39,3.2,3.2,0,0,1,1.68,1.41,4.56,4.56,0,0,1,.65,2.48A4.86,4.86,0,0,1,78.9,78a6,6,0,0,1-3.77,1.68,6.47,6.47,0,0,1,1.21,1.52,40.58,40.58,0,0,1,2.51,5.41H75.23c-.29-.92-.86-2.35-1.7-4.31a5,5,0,0,0-1.47-2.12,3,3,0,0,0-1.66-.33H69Zm1.93-9.22h1.78a12.39,12.39,0,0,0,3.58-.32,2.88,2.88,0,0,0,1.39-1,2.42,2.42,0,0,0,.5-1.44,1.47,1.47,0,0,0-.72-1.33A4.38,4.38,0,0,0,74.15,73H70.46Z"/><path class="cls-6" d="M92.17,81.72h-8c0,.12,0,.22,0,.29a2.69,2.69,0,0,0,.68,1.91,2.12,2.12,0,0,0,1.64.73A2.72,2.72,0,0,0,88.94,83l2.87.48a6,6,0,0,1-2.23,2.59,5.87,5.87,0,0,1-3.13.86,5.24,5.24,0,0,1-3.87-1.51,5.49,5.49,0,0,1-1.49-4,7.33,7.33,0,0,1,1.35-4.34,6,6,0,0,1,5.23-2.57,4.51,4.51,0,0,1,3.44,1.35,5.21,5.21,0,0,1,1.28,3.77A8.94,8.94,0,0,1,92.17,81.72Zm-2.68-2c0-.14,0-.25,0-.32a2.87,2.87,0,0,0-.59-2,2,2,0,0,0-1.58-.66,2.53,2.53,0,0,0-1.78.75,4,4,0,0,0-1.06,2.22Z"/><path class="cls-6" d="M97.92,78.13l-3.11-.26a4.67,4.67,0,0,1,1.85-2.47,6.23,6.23,0,0,1,3.51-.89,5.11,5.11,0,0,1,3.35.92,2.83,2.83,0,0,1,1.09,2.25,6.68,6.68,0,0,1-.1,1.14c-.06.4-.28,1.45-.66,3.16a15.56,15.56,0,0,0-.47,3,6,6,0,0,0,.27,1.68h-3.07a5,5,0,0,1-.27-1.33,5.13,5.13,0,0,1-1.62,1.21,4.22,4.22,0,0,1-1.83.43,3.26,3.26,0,0,1-2.43-1,3.39,3.39,0,0,1-1-2.48,3.62,3.62,0,0,1,1-2.72,6.13,6.13,0,0,1,3.75-1.22,15,15,0,0,0,3-.46,3.78,3.78,0,0,0,.2-1.08,1.08,1.08,0,0,0-.4-.86,1.84,1.84,0,0,0-1.21-.35,2.22,2.22,0,0,0-1.34.35A1.67,1.67,0,0,0,97.92,78.13Zm3,3c-.19.05-.45.1-.77.15a7.14,7.14,0,0,0-3.13.86,1.37,1.37,0,0,0-.13,2,1.46,1.46,0,0,0,1.06.39,2.74,2.74,0,0,0,1.36-.36,2.35,2.35,0,0,0,1-.91,6.4,6.4,0,0,0,.56-1.75Z"/><path class="cls-6" d="M117,86.63h-3l.27-1.25a5.73,5.73,0,0,1-1.72,1.2,4.77,4.77,0,0,1-1.9.36,3.84,3.84,0,0,1-3-1.26A5.35,5.35,0,0,1,106.48,82a8.72,8.72,0,0,1,1.63-5.16,5,5,0,0,1,4.31-2.3,4,4,0,0,1,3.63,1.92l1.32-6.12h3.17Zm-7.41-4.78a2.87,2.87,0,0,0,.65,2,2.11,2.11,0,0,0,1.6.71,2.58,2.58,0,0,0,1.64-.6,3.92,3.92,0,0,0,1.22-1.82,6.67,6.67,0,0,0,.46-2.36,3,3,0,0,0-.7-2.07,2.12,2.12,0,0,0-1.61-.8,2.69,2.69,0,0,0-2.34,1.56A6.61,6.61,0,0,0,109.58,81.85Z"/><path class="cls-6" d="M122.49,74.79h3.17l-2.48,11.84H120Zm.93-4.48h3.18L126,73.18h-3.17Z"/><path class="cls-6" d="M128.86,74.79h3l-.31,1.55a8.83,8.83,0,0,1,2.15-1.41,5.41,5.41,0,0,1,2.11-.42,3.15,3.15,0,0,1,2.33.85A3,3,0,0,1,139,77.6a14.82,14.82,0,0,1-.41,2.35l-1.44,6.68H134l1.43-6.7c.21-1,.33-1.6.35-1.79a1.27,1.27,0,0,0-.38-1,1.4,1.4,0,0,0-1-.36,3,3,0,0,0-1.6.59A4.17,4.17,0,0,0,131.39,79a12.61,12.61,0,0,0-.84,2.82l-1,4.86h-3.18Z"/><path class="cls-6" d="M140.15,87.28l3.39.49a1.41,1.41,0,0,0,.16.76,1.23,1.23,0,0,0,.52.45,2.32,2.32,0,0,0,1,.18,3.22,3.22,0,0,0,1.72-.41,2.22,2.22,0,0,0,.79-1,11.81,11.81,0,0,0,.49-1.93l.11-.55a5.73,5.73,0,0,1-3.59,1.38,3.62,3.62,0,0,1-2.83-1.22,5.15,5.15,0,0,1-1.11-3.58,9.53,9.53,0,0,1,.76-3.81,5.74,5.74,0,0,1,2.11-2.62,5,5,0,0,1,2.77-.89,3.93,3.93,0,0,1,2.14.62,4.15,4.15,0,0,1,1.51,1.74l.43-2.08h3l-1.88,9.83a31.39,31.39,0,0,1-.87,3.42,6,6,0,0,1-.8,1.62,3.77,3.77,0,0,1-1.15,1,5.06,5.06,0,0,1-1.63.59,10.91,10.91,0,0,1-2,.18,6.77,6.77,0,0,1-3.76-.86,3.17,3.17,0,0,1-1.27-2.84A4.09,4.09,0,0,1,140.15,87.28Zm3.76-5.78a3.07,3.07,0,0,0,.6,2,1.92,1.92,0,0,0,1.51.7,2.63,2.63,0,0,0,1.65-.63,3.89,3.89,0,0,0,1.22-1.79,6.55,6.55,0,0,0,.42-2.24,2.85,2.85,0,0,0-.7-2A2.11,2.11,0,0,0,147,76.8a2.25,2.25,0,0,0-1.56.67,4.86,4.86,0,0,0-1.17,2.08A6.28,6.28,0,0,0,143.91,81.5Z"/><path class="cls-6" d="M157,80.24h6.11l-.64,3h-6.11Z"/><path class="cls-3" d="M173.11,87.56H170l-.58-13.44-2.56,13.44h-3l3.35-16.08h4.72l.49,11.27,5.49-11.27h4.77L179.3,87.56h-3l3.17-13.34Z"/><path class="cls-6" d="M187,79.21,183.92,79a4.67,4.67,0,0,1,1.84-2.44,6.19,6.19,0,0,1,3.47-.87,5.13,5.13,0,0,1,3.33.9,2.8,2.8,0,0,1,1.07,2.21,7.54,7.54,0,0,1-.09,1.12c-.06.4-.28,1.43-.65,3.12a15.69,15.69,0,0,0-.46,2.92,5.85,5.85,0,0,0,.26,1.65h-3.06a5.71,5.71,0,0,1-.23-1.31,4.75,4.75,0,0,1-1.59,1.17,4.27,4.27,0,0,1-1.81.42,3.26,3.26,0,0,1-2.4-1,3.37,3.37,0,0,1-.94-2.45,3.53,3.53,0,0,1,1-2.66,6,6,0,0,1,3.7-1.21,14.19,14.19,0,0,0,3-.45,3.9,3.9,0,0,0,.19-1.05,1.06,1.06,0,0,0-.4-.85,1.88,1.88,0,0,0-1.21-.34,2.26,2.26,0,0,0-1.33.35A1.73,1.73,0,0,0,187,79.21Zm3,2.92a5.88,5.88,0,0,1-.76.14,7.07,7.07,0,0,0-3.09.84,1.31,1.31,0,0,0-.12,2,1.45,1.45,0,0,0,1,.38,2.73,2.73,0,0,0,1.34-.35,2.28,2.28,0,0,0,.95-.89,5.92,5.92,0,0,0,.55-1.69Z"/><path class="cls-6" d="M197.53,75.91h3l-.31,1.51a8.2,8.2,0,0,1,2.1-1.37,5,5,0,0,1,2-.41,3.09,3.09,0,0,1,2.27.82,2.93,2.93,0,0,1,.82,2.18,13.91,13.91,0,0,1-.36,2.33l-1.37,6.59h-3.15L203.93,81a13.8,13.8,0,0,0,.31-1.77,1.29,1.29,0,0,0-.35-1,1.38,1.38,0,0,0-1-.35,2.82,2.82,0,0,0-1.53.58A4.05,4.05,0,0,0,200,80a13.22,13.22,0,0,0-.79,2.78l-1,4.78h-3.15Z"/><path class="cls-6" d="M219.54,87.56h-3l.27-1.26a5.85,5.85,0,0,1-1.69,1.18,4.62,4.62,0,0,1-1.87.36,3.78,3.78,0,0,1-2.93-1.24A5.25,5.25,0,0,1,209.2,83a8.62,8.62,0,0,1,1.58-5A4.87,4.87,0,0,1,215,75.64a3.88,3.88,0,0,1,3.52,1.86l1.27-6h3.14Zm-7.28-4.74a2.79,2.79,0,0,0,.63,2,2,2,0,0,0,1.55.71,2.51,2.51,0,0,0,1.6-.59,4,4,0,0,0,1.19-1.79,6.88,6.88,0,0,0,.44-2.32,3,3,0,0,0-.68-2,2,2,0,0,0-1.57-.78,2.6,2.6,0,0,0-2.27,1.54A6.53,6.53,0,0,0,212.26,82.82Z"/><path class="cls-6" d="M226.94,79.21,223.87,79a4.61,4.61,0,0,1,1.84-2.44,6.17,6.17,0,0,1,3.47-.87,5.13,5.13,0,0,1,3.33.9,2.8,2.8,0,0,1,1.07,2.21,7.54,7.54,0,0,1-.09,1.12c-.07.4-.28,1.43-.66,3.12a16.61,16.61,0,0,0-.46,2.92,5.89,5.89,0,0,0,.27,1.65h-3.06a5.22,5.22,0,0,1-.23-1.31,4.89,4.89,0,0,1-1.6,1.17,4.23,4.23,0,0,1-1.81.42,3.25,3.25,0,0,1-2.39-1,3.33,3.33,0,0,1-.94-2.45,3.53,3.53,0,0,1,1-2.66,6.05,6.05,0,0,1,3.71-1.21,14,14,0,0,0,3-.45,3.61,3.61,0,0,0,.2-1.05,1.06,1.06,0,0,0-.4-.85,1.92,1.92,0,0,0-1.21-.34,2.26,2.26,0,0,0-1.33.35A1.73,1.73,0,0,0,226.94,79.21Zm3,2.92a6.23,6.23,0,0,1-.76.14,7.07,7.07,0,0,0-3.09.84,1.24,1.24,0,0,0-.52,1.06,1.23,1.23,0,0,0,.4.93,1.45,1.45,0,0,0,1,.38,2.76,2.76,0,0,0,1.34-.35,2.34,2.34,0,0,0,1-.89,6.25,6.25,0,0,0,.55-1.69Z"/><path class="cls-6" d="M237.26,75.91h2.94l-.48,2.26q1.65-2.53,3.57-2.53a3.63,3.63,0,0,1,1.46.34l-1.21,2.57a2.71,2.71,0,0,0-.91-.15A2.79,2.79,0,0,0,241,79a4.07,4.07,0,0,0-1.31,1.65,15.32,15.32,0,0,0-.93,3.25L238,87.56h-3.15Z"/><path class="cls-6" d="M246.18,75.91h3.14l-2.43,11.65h-3.15Zm.92-4.43h3.15l-.6,2.85H246.5Z"/><path class="cls-6" d="M252.46,75.91h3l-.31,1.51a8.16,8.16,0,0,1,2.09-1.37,5.09,5.09,0,0,1,2-.41,3.07,3.07,0,0,1,2.27.82,2.94,2.94,0,0,1,.83,2.18A13.91,13.91,0,0,1,262,81l-1.37,6.59h-3.15L258.87,81a16.11,16.11,0,0,0,.31-1.77,1.26,1.26,0,0,0-.36-1,1.37,1.37,0,0,0-1-.35,2.85,2.85,0,0,0-1.54.58A4.23,4.23,0,0,0,255,80a13.88,13.88,0,0,0-.79,2.78l-1,4.78H250Z"/><path class="cls-8" d="M157.45,92.2a2.7,2.7,0,1,1-2.69-2.7A2.69,2.69,0,0,1,157.45,92.2ZM154.76,89a3.16,3.16,0,1,0,3.15,3.16A3.16,3.16,0,0,0,154.76,89Z"/><path class="cls-8" d="M153.35,94V90.35H155a2,2,0,0,1,.75.11.8.8,0,0,1,.41.34,1.09,1.09,0,0,1,.15.56.92.92,0,0,1-.25.66,1.29,1.29,0,0,1-.78.35,1.46,1.46,0,0,1,.29.18,2.24,2.24,0,0,1,.4.49l.64,1H156l-.49-.76c-.14-.22-.26-.39-.35-.51a1,1,0,0,0-.25-.25.62.62,0,0,0-.22-.1h-.84V94Zm.49-2.05h1a1.48,1.48,0,0,0,.53-.08.58.58,0,0,0,.29-.22.63.63,0,0,0,.09-.33.53.53,0,0,0-.19-.43.83.83,0,0,0-.6-.17h-1.17Z"/><text class="cls-9" transform="translate(25.85 112.82)"><tspan xml:space="preserve"> 中文適性閱讀系統</tspan></text></g></g></g></svg>